%TF.GenerationSoftware,KiCad,Pcbnew,(6.0.7)*%
%TF.CreationDate,2022-10-17T16:35:19-04:00*%
%TF.ProjectId,dmgc-attiny-arduino-mega,646d6763-2d61-4747-9469-6e792d617264,rev?*%
%TF.SameCoordinates,Original*%
%TF.FileFunction,Legend,Top*%
%TF.FilePolarity,Positive*%
%FSLAX46Y46*%
G04 Gerber Fmt 4.6, Leading zero omitted, Abs format (unit mm)*
G04 Created by KiCad (PCBNEW (6.0.7)) date 2022-10-17 16:35:19*
%MOMM*%
%LPD*%
G01*
G04 APERTURE LIST*
%ADD10C,0.150000*%
%ADD11C,0.120000*%
G04 APERTURE END LIST*
D10*
%TO.C,R6*%
X176451017Y-64490260D02*
X175974827Y-64823594D01*
X176451017Y-65061689D02*
X175451017Y-65061689D01*
X175451017Y-64680736D01*
X175498637Y-64585498D01*
X175546256Y-64537879D01*
X175641494Y-64490260D01*
X175784351Y-64490260D01*
X175879589Y-64537879D01*
X175927208Y-64585498D01*
X175974827Y-64680736D01*
X175974827Y-65061689D01*
X175451017Y-63633117D02*
X175451017Y-63823594D01*
X175498637Y-63918832D01*
X175546256Y-63966451D01*
X175689113Y-64061689D01*
X175879589Y-64109308D01*
X176260541Y-64109308D01*
X176355779Y-64061689D01*
X176403398Y-64014070D01*
X176451017Y-63918832D01*
X176451017Y-63728355D01*
X176403398Y-63633117D01*
X176355779Y-63585498D01*
X176260541Y-63537879D01*
X176022446Y-63537879D01*
X175927208Y-63585498D01*
X175879589Y-63633117D01*
X175831970Y-63728355D01*
X175831970Y-63918832D01*
X175879589Y-64014070D01*
X175927208Y-64061689D01*
X176022446Y-64109308D01*
%TO.C,SW1*%
X131686666Y-85994761D02*
X131829523Y-86042380D01*
X132067619Y-86042380D01*
X132162857Y-85994761D01*
X132210476Y-85947142D01*
X132258095Y-85851904D01*
X132258095Y-85756666D01*
X132210476Y-85661428D01*
X132162857Y-85613809D01*
X132067619Y-85566190D01*
X131877142Y-85518571D01*
X131781904Y-85470952D01*
X131734285Y-85423333D01*
X131686666Y-85328095D01*
X131686666Y-85232857D01*
X131734285Y-85137619D01*
X131781904Y-85090000D01*
X131877142Y-85042380D01*
X132115238Y-85042380D01*
X132258095Y-85090000D01*
X132591428Y-85042380D02*
X132829523Y-86042380D01*
X133020000Y-85328095D01*
X133210476Y-86042380D01*
X133448571Y-85042380D01*
X134353333Y-86042380D02*
X133781904Y-86042380D01*
X134067619Y-86042380D02*
X134067619Y-85042380D01*
X133972380Y-85185238D01*
X133877142Y-85280476D01*
X133781904Y-85328095D01*
%TO.C,SW2*%
X144386666Y-85994761D02*
X144529523Y-86042380D01*
X144767619Y-86042380D01*
X144862857Y-85994761D01*
X144910476Y-85947142D01*
X144958095Y-85851904D01*
X144958095Y-85756666D01*
X144910476Y-85661428D01*
X144862857Y-85613809D01*
X144767619Y-85566190D01*
X144577142Y-85518571D01*
X144481904Y-85470952D01*
X144434285Y-85423333D01*
X144386666Y-85328095D01*
X144386666Y-85232857D01*
X144434285Y-85137619D01*
X144481904Y-85090000D01*
X144577142Y-85042380D01*
X144815238Y-85042380D01*
X144958095Y-85090000D01*
X145291428Y-85042380D02*
X145529523Y-86042380D01*
X145720000Y-85328095D01*
X145910476Y-86042380D01*
X146148571Y-85042380D01*
X146481904Y-85137619D02*
X146529523Y-85090000D01*
X146624761Y-85042380D01*
X146862857Y-85042380D01*
X146958095Y-85090000D01*
X147005714Y-85137619D01*
X147053333Y-85232857D01*
X147053333Y-85328095D01*
X147005714Y-85470952D01*
X146434285Y-86042380D01*
X147053333Y-86042380D01*
%TO.C,SW3*%
X157086666Y-85994761D02*
X157229523Y-86042380D01*
X157467619Y-86042380D01*
X157562857Y-85994761D01*
X157610476Y-85947142D01*
X157658095Y-85851904D01*
X157658095Y-85756666D01*
X157610476Y-85661428D01*
X157562857Y-85613809D01*
X157467619Y-85566190D01*
X157277142Y-85518571D01*
X157181904Y-85470952D01*
X157134285Y-85423333D01*
X157086666Y-85328095D01*
X157086666Y-85232857D01*
X157134285Y-85137619D01*
X157181904Y-85090000D01*
X157277142Y-85042380D01*
X157515238Y-85042380D01*
X157658095Y-85090000D01*
X157991428Y-85042380D02*
X158229523Y-86042380D01*
X158420000Y-85328095D01*
X158610476Y-86042380D01*
X158848571Y-85042380D01*
X159134285Y-85042380D02*
X159753333Y-85042380D01*
X159420000Y-85423333D01*
X159562857Y-85423333D01*
X159658095Y-85470952D01*
X159705714Y-85518571D01*
X159753333Y-85613809D01*
X159753333Y-85851904D01*
X159705714Y-85947142D01*
X159658095Y-85994761D01*
X159562857Y-86042380D01*
X159277142Y-86042380D01*
X159181904Y-85994761D01*
X159134285Y-85947142D01*
%TO.C,SW4*%
X172326666Y-85994761D02*
X172469523Y-86042380D01*
X172707619Y-86042380D01*
X172802857Y-85994761D01*
X172850476Y-85947142D01*
X172898095Y-85851904D01*
X172898095Y-85756666D01*
X172850476Y-85661428D01*
X172802857Y-85613809D01*
X172707619Y-85566190D01*
X172517142Y-85518571D01*
X172421904Y-85470952D01*
X172374285Y-85423333D01*
X172326666Y-85328095D01*
X172326666Y-85232857D01*
X172374285Y-85137619D01*
X172421904Y-85090000D01*
X172517142Y-85042380D01*
X172755238Y-85042380D01*
X172898095Y-85090000D01*
X173231428Y-85042380D02*
X173469523Y-86042380D01*
X173660000Y-85328095D01*
X173850476Y-86042380D01*
X174088571Y-85042380D01*
X174898095Y-85375714D02*
X174898095Y-86042380D01*
X174660000Y-84994761D02*
X174421904Y-85709047D01*
X175040952Y-85709047D01*
%TO.C,SW5*%
X185026666Y-85994761D02*
X185169523Y-86042380D01*
X185407619Y-86042380D01*
X185502857Y-85994761D01*
X185550476Y-85947142D01*
X185598095Y-85851904D01*
X185598095Y-85756666D01*
X185550476Y-85661428D01*
X185502857Y-85613809D01*
X185407619Y-85566190D01*
X185217142Y-85518571D01*
X185121904Y-85470952D01*
X185074285Y-85423333D01*
X185026666Y-85328095D01*
X185026666Y-85232857D01*
X185074285Y-85137619D01*
X185121904Y-85090000D01*
X185217142Y-85042380D01*
X185455238Y-85042380D01*
X185598095Y-85090000D01*
X185931428Y-85042380D02*
X186169523Y-86042380D01*
X186360000Y-85328095D01*
X186550476Y-86042380D01*
X186788571Y-85042380D01*
X187645714Y-85042380D02*
X187169523Y-85042380D01*
X187121904Y-85518571D01*
X187169523Y-85470952D01*
X187264761Y-85423333D01*
X187502857Y-85423333D01*
X187598095Y-85470952D01*
X187645714Y-85518571D01*
X187693333Y-85613809D01*
X187693333Y-85851904D01*
X187645714Y-85947142D01*
X187598095Y-85994761D01*
X187502857Y-86042380D01*
X187264761Y-86042380D01*
X187169523Y-85994761D01*
X187121904Y-85947142D01*
%TO.C,U1*%
X177988095Y-65382380D02*
X177988095Y-66191904D01*
X178035714Y-66287142D01*
X178083333Y-66334761D01*
X178178571Y-66382380D01*
X178369047Y-66382380D01*
X178464285Y-66334761D01*
X178511904Y-66287142D01*
X178559523Y-66191904D01*
X178559523Y-65382380D01*
X179559523Y-66382380D02*
X178988095Y-66382380D01*
X179273809Y-66382380D02*
X179273809Y-65382380D01*
X179178571Y-65525238D01*
X179083333Y-65620476D01*
X178988095Y-65668095D01*
%TO.C,R5*%
X192040352Y-84849886D02*
X191564162Y-85183220D01*
X192040352Y-85421315D02*
X191040352Y-85421315D01*
X191040352Y-85040362D01*
X191087972Y-84945124D01*
X191135591Y-84897505D01*
X191230829Y-84849886D01*
X191373686Y-84849886D01*
X191468924Y-84897505D01*
X191516543Y-84945124D01*
X191564162Y-85040362D01*
X191564162Y-85421315D01*
X191040352Y-83945124D02*
X191040352Y-84421315D01*
X191516543Y-84468934D01*
X191468924Y-84421315D01*
X191421305Y-84326077D01*
X191421305Y-84087981D01*
X191468924Y-83992743D01*
X191516543Y-83945124D01*
X191611781Y-83897505D01*
X191849876Y-83897505D01*
X191945114Y-83945124D01*
X191992733Y-83992743D01*
X192040352Y-84087981D01*
X192040352Y-84326077D01*
X191992733Y-84421315D01*
X191945114Y-84468934D01*
%TO.C,R4*%
X179346067Y-84849886D02*
X178869877Y-85183220D01*
X179346067Y-85421315D02*
X178346067Y-85421315D01*
X178346067Y-85040362D01*
X178393687Y-84945124D01*
X178441306Y-84897505D01*
X178536544Y-84849886D01*
X178679401Y-84849886D01*
X178774639Y-84897505D01*
X178822258Y-84945124D01*
X178869877Y-85040362D01*
X178869877Y-85421315D01*
X178679401Y-83992743D02*
X179346067Y-83992743D01*
X178298448Y-84230839D02*
X179012734Y-84468934D01*
X179012734Y-83849886D01*
%TO.C,R3*%
X164143638Y-84849886D02*
X163667448Y-85183220D01*
X164143638Y-85421315D02*
X163143638Y-85421315D01*
X163143638Y-85040362D01*
X163191258Y-84945124D01*
X163238877Y-84897505D01*
X163334115Y-84849886D01*
X163476972Y-84849886D01*
X163572210Y-84897505D01*
X163619829Y-84945124D01*
X163667448Y-85040362D01*
X163667448Y-85421315D01*
X163143638Y-84516553D02*
X163143638Y-83897505D01*
X163524591Y-84230839D01*
X163524591Y-84087981D01*
X163572210Y-83992743D01*
X163619829Y-83945124D01*
X163715067Y-83897505D01*
X163953162Y-83897505D01*
X164048400Y-83945124D01*
X164096019Y-83992743D01*
X164143638Y-84087981D01*
X164143638Y-84373696D01*
X164096019Y-84468934D01*
X164048400Y-84516553D01*
%TO.C,R2*%
X151346981Y-84824292D02*
X150870791Y-85157626D01*
X151346981Y-85395721D02*
X150346981Y-85395721D01*
X150346981Y-85014768D01*
X150394601Y-84919530D01*
X150442220Y-84871911D01*
X150537458Y-84824292D01*
X150680315Y-84824292D01*
X150775553Y-84871911D01*
X150823172Y-84919530D01*
X150870791Y-85014768D01*
X150870791Y-85395721D01*
X150442220Y-84443340D02*
X150394601Y-84395721D01*
X150346981Y-84300483D01*
X150346981Y-84062387D01*
X150394601Y-83967149D01*
X150442220Y-83919530D01*
X150537458Y-83871911D01*
X150632696Y-83871911D01*
X150775553Y-83919530D01*
X151346981Y-84490959D01*
X151346981Y-83871911D01*
%TO.C,R1*%
X138755070Y-84849886D02*
X138278880Y-85183220D01*
X138755070Y-85421315D02*
X137755070Y-85421315D01*
X137755070Y-85040362D01*
X137802690Y-84945124D01*
X137850309Y-84897505D01*
X137945547Y-84849886D01*
X138088404Y-84849886D01*
X138183642Y-84897505D01*
X138231261Y-84945124D01*
X138278880Y-85040362D01*
X138278880Y-85421315D01*
X138755070Y-83897505D02*
X138755070Y-84468934D01*
X138755070Y-84183220D02*
X137755070Y-84183220D01*
X137897928Y-84278458D01*
X137993166Y-84373696D01*
X138040785Y-84468934D01*
%TO.C,D8*%
X170471904Y-55372380D02*
X170471904Y-54372380D01*
X170710000Y-54372380D01*
X170852857Y-54420000D01*
X170948095Y-54515238D01*
X170995714Y-54610476D01*
X171043333Y-54800952D01*
X171043333Y-54943809D01*
X170995714Y-55134285D01*
X170948095Y-55229523D01*
X170852857Y-55324761D01*
X170710000Y-55372380D01*
X170471904Y-55372380D01*
X171614761Y-54800952D02*
X171519523Y-54753333D01*
X171471904Y-54705714D01*
X171424285Y-54610476D01*
X171424285Y-54562857D01*
X171471904Y-54467619D01*
X171519523Y-54420000D01*
X171614761Y-54372380D01*
X171805238Y-54372380D01*
X171900476Y-54420000D01*
X171948095Y-54467619D01*
X171995714Y-54562857D01*
X171995714Y-54610476D01*
X171948095Y-54705714D01*
X171900476Y-54753333D01*
X171805238Y-54800952D01*
X171614761Y-54800952D01*
X171519523Y-54848571D01*
X171471904Y-54896190D01*
X171424285Y-54991428D01*
X171424285Y-55181904D01*
X171471904Y-55277142D01*
X171519523Y-55324761D01*
X171614761Y-55372380D01*
X171805238Y-55372380D01*
X171900476Y-55324761D01*
X171948095Y-55277142D01*
X171995714Y-55181904D01*
X171995714Y-54991428D01*
X171948095Y-54896190D01*
X171900476Y-54848571D01*
X171805238Y-54800952D01*
%TO.C,D7*%
X157681904Y-57912380D02*
X157681904Y-56912380D01*
X157920000Y-56912380D01*
X158062857Y-56960000D01*
X158158095Y-57055238D01*
X158205714Y-57150476D01*
X158253333Y-57340952D01*
X158253333Y-57483809D01*
X158205714Y-57674285D01*
X158158095Y-57769523D01*
X158062857Y-57864761D01*
X157920000Y-57912380D01*
X157681904Y-57912380D01*
X158586666Y-56912380D02*
X159253333Y-56912380D01*
X158824761Y-57912380D01*
%TO.C,D6*%
X147521904Y-69012380D02*
X147521904Y-68012380D01*
X147760000Y-68012380D01*
X147902857Y-68060000D01*
X147998095Y-68155238D01*
X148045714Y-68250476D01*
X148093333Y-68440952D01*
X148093333Y-68583809D01*
X148045714Y-68774285D01*
X147998095Y-68869523D01*
X147902857Y-68964761D01*
X147760000Y-69012380D01*
X147521904Y-69012380D01*
X148950476Y-68012380D02*
X148760000Y-68012380D01*
X148664761Y-68060000D01*
X148617142Y-68107619D01*
X148521904Y-68250476D01*
X148474285Y-68440952D01*
X148474285Y-68821904D01*
X148521904Y-68917142D01*
X148569523Y-68964761D01*
X148664761Y-69012380D01*
X148855238Y-69012380D01*
X148950476Y-68964761D01*
X148998095Y-68917142D01*
X149045714Y-68821904D01*
X149045714Y-68583809D01*
X148998095Y-68488571D01*
X148950476Y-68440952D01*
X148855238Y-68393333D01*
X148664761Y-68393333D01*
X148569523Y-68440952D01*
X148521904Y-68488571D01*
X148474285Y-68583809D01*
%TO.C,D5*%
X137361904Y-69012380D02*
X137361904Y-68012380D01*
X137600000Y-68012380D01*
X137742857Y-68060000D01*
X137838095Y-68155238D01*
X137885714Y-68250476D01*
X137933333Y-68440952D01*
X137933333Y-68583809D01*
X137885714Y-68774285D01*
X137838095Y-68869523D01*
X137742857Y-68964761D01*
X137600000Y-69012380D01*
X137361904Y-69012380D01*
X138838095Y-68012380D02*
X138361904Y-68012380D01*
X138314285Y-68488571D01*
X138361904Y-68440952D01*
X138457142Y-68393333D01*
X138695238Y-68393333D01*
X138790476Y-68440952D01*
X138838095Y-68488571D01*
X138885714Y-68583809D01*
X138885714Y-68821904D01*
X138838095Y-68917142D01*
X138790476Y-68964761D01*
X138695238Y-69012380D01*
X138457142Y-69012380D01*
X138361904Y-68964761D01*
X138314285Y-68917142D01*
%TO.C,D4*%
X129741904Y-61392380D02*
X129741904Y-60392380D01*
X129980000Y-60392380D01*
X130122857Y-60440000D01*
X130218095Y-60535238D01*
X130265714Y-60630476D01*
X130313333Y-60820952D01*
X130313333Y-60963809D01*
X130265714Y-61154285D01*
X130218095Y-61249523D01*
X130122857Y-61344761D01*
X129980000Y-61392380D01*
X129741904Y-61392380D01*
X131170476Y-60725714D02*
X131170476Y-61392380D01*
X130932380Y-60344761D02*
X130694285Y-61059047D01*
X131313333Y-61059047D01*
%TO.C,D3*%
X122121904Y-69012380D02*
X122121904Y-68012380D01*
X122360000Y-68012380D01*
X122502857Y-68060000D01*
X122598095Y-68155238D01*
X122645714Y-68250476D01*
X122693333Y-68440952D01*
X122693333Y-68583809D01*
X122645714Y-68774285D01*
X122598095Y-68869523D01*
X122502857Y-68964761D01*
X122360000Y-69012380D01*
X122121904Y-69012380D01*
X123026666Y-68012380D02*
X123645714Y-68012380D01*
X123312380Y-68393333D01*
X123455238Y-68393333D01*
X123550476Y-68440952D01*
X123598095Y-68488571D01*
X123645714Y-68583809D01*
X123645714Y-68821904D01*
X123598095Y-68917142D01*
X123550476Y-68964761D01*
X123455238Y-69012380D01*
X123169523Y-69012380D01*
X123074285Y-68964761D01*
X123026666Y-68917142D01*
%TO.C,D2*%
X114501904Y-61392380D02*
X114501904Y-60392380D01*
X114740000Y-60392380D01*
X114882857Y-60440000D01*
X114978095Y-60535238D01*
X115025714Y-60630476D01*
X115073333Y-60820952D01*
X115073333Y-60963809D01*
X115025714Y-61154285D01*
X114978095Y-61249523D01*
X114882857Y-61344761D01*
X114740000Y-61392380D01*
X114501904Y-61392380D01*
X115454285Y-60487619D02*
X115501904Y-60440000D01*
X115597142Y-60392380D01*
X115835238Y-60392380D01*
X115930476Y-60440000D01*
X115978095Y-60487619D01*
X116025714Y-60582857D01*
X116025714Y-60678095D01*
X115978095Y-60820952D01*
X115406666Y-61392380D01*
X116025714Y-61392380D01*
%TO.C,D1*%
X122121904Y-53772380D02*
X122121904Y-52772380D01*
X122360000Y-52772380D01*
X122502857Y-52820000D01*
X122598095Y-52915238D01*
X122645714Y-53010476D01*
X122693333Y-53200952D01*
X122693333Y-53343809D01*
X122645714Y-53534285D01*
X122598095Y-53629523D01*
X122502857Y-53724761D01*
X122360000Y-53772380D01*
X122121904Y-53772380D01*
X123645714Y-53772380D02*
X123074285Y-53772380D01*
X123360000Y-53772380D02*
X123360000Y-52772380D01*
X123264761Y-52915238D01*
X123169523Y-53010476D01*
X123074285Y-53058095D01*
%TO.C,C1*%
X187767142Y-69686666D02*
X187814761Y-69734285D01*
X187862380Y-69877142D01*
X187862380Y-69972380D01*
X187814761Y-70115238D01*
X187719523Y-70210476D01*
X187624285Y-70258095D01*
X187433809Y-70305714D01*
X187290952Y-70305714D01*
X187100476Y-70258095D01*
X187005238Y-70210476D01*
X186910000Y-70115238D01*
X186862380Y-69972380D01*
X186862380Y-69877142D01*
X186910000Y-69734285D01*
X186957619Y-69686666D01*
X187862380Y-68734285D02*
X187862380Y-69305714D01*
X187862380Y-69020000D02*
X186862380Y-69020000D01*
X187005238Y-69115238D01*
X187100476Y-69210476D01*
X187148095Y-69305714D01*
D11*
%TO.C,SW1*%
X136520000Y-90590000D02*
X136520000Y-89090000D01*
X135270000Y-86590000D02*
X130770000Y-86590000D01*
X129520000Y-89090000D02*
X129520000Y-90590000D01*
X130770000Y-93090000D02*
X135270000Y-93090000D01*
%TO.C,SW2*%
X149220000Y-90590000D02*
X149220000Y-89090000D01*
X147970000Y-86590000D02*
X143470000Y-86590000D01*
X142220000Y-89090000D02*
X142220000Y-90590000D01*
X143470000Y-93090000D02*
X147970000Y-93090000D01*
%TO.C,SW3*%
X161920000Y-90590000D02*
X161920000Y-89090000D01*
X160670000Y-86590000D02*
X156170000Y-86590000D01*
X154920000Y-89090000D02*
X154920000Y-90590000D01*
X156170000Y-93090000D02*
X160670000Y-93090000D01*
%TO.C,SW4*%
X177160000Y-90590000D02*
X177160000Y-89090000D01*
X175910000Y-86590000D02*
X171410000Y-86590000D01*
X170160000Y-89090000D02*
X170160000Y-90590000D01*
X171410000Y-93090000D02*
X175910000Y-93090000D01*
%TO.C,SW5*%
X189860000Y-90590000D02*
X189860000Y-89090000D01*
X188610000Y-86590000D02*
X184110000Y-86590000D01*
X182860000Y-89090000D02*
X182860000Y-90590000D01*
X184110000Y-93090000D02*
X188610000Y-93090000D01*
%TO.C,U1*%
X181400000Y-66930000D02*
X179750000Y-66930000D01*
X176100000Y-66930000D02*
X176100000Y-77210000D01*
X181400000Y-77210000D02*
X181400000Y-66930000D01*
X177750000Y-66930000D02*
X176100000Y-66930000D01*
X176100000Y-77210000D02*
X181400000Y-77210000D01*
X177750000Y-66930000D02*
G75*
G03*
X179750000Y-66930000I1000000J0D01*
G01*
%TO.C,D8*%
X168590000Y-56120000D02*
X168590000Y-55800000D01*
X168710000Y-61040000D02*
X173710000Y-61040000D01*
X168590000Y-55800000D02*
X173710000Y-55800000D01*
%TO.C,D7*%
X155800000Y-58660000D02*
X155800000Y-58340000D01*
X155920000Y-63580000D02*
X160920000Y-63580000D01*
X155800000Y-58340000D02*
X160920000Y-58340000D01*
%TO.C,D6*%
X145640000Y-69760000D02*
X145640000Y-69440000D01*
X145760000Y-74680000D02*
X150760000Y-74680000D01*
X145640000Y-69440000D02*
X150760000Y-69440000D01*
%TO.C,D5*%
X135480000Y-69760000D02*
X135480000Y-69440000D01*
X135600000Y-74680000D02*
X140600000Y-74680000D01*
X135480000Y-69440000D02*
X140600000Y-69440000D01*
%TO.C,D4*%
X127860000Y-62140000D02*
X127860000Y-61820000D01*
X127980000Y-67060000D02*
X132980000Y-67060000D01*
X127860000Y-61820000D02*
X132980000Y-61820000D01*
%TO.C,D3*%
X120240000Y-69760000D02*
X120240000Y-69440000D01*
X120360000Y-74680000D02*
X125360000Y-74680000D01*
X120240000Y-69440000D02*
X125360000Y-69440000D01*
%TO.C,D2*%
X112620000Y-61820000D02*
X117740000Y-61820000D01*
X112740000Y-67060000D02*
X117740000Y-67060000D01*
X112620000Y-62140000D02*
X112620000Y-61820000D01*
%TO.C,D1*%
X120240000Y-54200000D02*
X125360000Y-54200000D01*
X120360000Y-59440000D02*
X125360000Y-59440000D01*
X120240000Y-54520000D02*
X120240000Y-54200000D01*
%TO.C,J7*%
X195250000Y-93710000D02*
X195250000Y-91110000D01*
X192650000Y-91110000D02*
X192650000Y-47870000D01*
X193980000Y-93710000D02*
X192650000Y-93710000D01*
X195250000Y-91110000D02*
X192650000Y-91110000D01*
X192650000Y-93710000D02*
X192650000Y-92380000D01*
X197850000Y-47870000D02*
X192650000Y-47870000D01*
X197850000Y-93710000D02*
X195250000Y-93710000D01*
X197850000Y-93710000D02*
X197850000Y-47870000D01*
%TO.C,J1*%
X129210000Y-98790000D02*
X147050000Y-98790000D01*
X129210000Y-98790000D02*
X129210000Y-96130000D01*
X147050000Y-98790000D02*
X147050000Y-96130000D01*
X129210000Y-96130000D02*
X147050000Y-96130000D01*
X126610000Y-97460000D02*
X126610000Y-96130000D01*
X126610000Y-96130000D02*
X127940000Y-96130000D01*
%TO.C,J3*%
X152070000Y-98790000D02*
X169910000Y-98790000D01*
X152070000Y-96130000D02*
X169910000Y-96130000D01*
X149470000Y-97460000D02*
X149470000Y-96130000D01*
X149470000Y-96130000D02*
X150800000Y-96130000D01*
X152070000Y-98790000D02*
X152070000Y-96130000D01*
X169910000Y-98790000D02*
X169910000Y-96130000D01*
%TO.C,J5*%
X174930000Y-98790000D02*
X192770000Y-98790000D01*
X172330000Y-97460000D02*
X172330000Y-96130000D01*
X192770000Y-98790000D02*
X192770000Y-96130000D01*
X172330000Y-96130000D02*
X173660000Y-96130000D01*
X174930000Y-98790000D02*
X174930000Y-96130000D01*
X174930000Y-96130000D02*
X192770000Y-96130000D01*
%TO.C,J2*%
X120066000Y-50530000D02*
X120066000Y-47870000D01*
X120066000Y-47870000D02*
X142986000Y-47870000D01*
X142986000Y-50530000D02*
X142986000Y-47870000D01*
X117466000Y-49200000D02*
X117466000Y-47870000D01*
X117466000Y-47870000D02*
X118796000Y-47870000D01*
X120066000Y-50530000D02*
X142986000Y-50530000D01*
%TO.C,J4*%
X144390000Y-49200000D02*
X144390000Y-47870000D01*
X146990000Y-50530000D02*
X164830000Y-50530000D01*
X164830000Y-50530000D02*
X164830000Y-47870000D01*
X146990000Y-50530000D02*
X146990000Y-47870000D01*
X146990000Y-47870000D02*
X164830000Y-47870000D01*
X144390000Y-47870000D02*
X145720000Y-47870000D01*
%TO.C,J6*%
X167250000Y-49200000D02*
X167250000Y-47870000D01*
X169850000Y-50530000D02*
X169850000Y-47870000D01*
X167250000Y-47870000D02*
X168580000Y-47870000D01*
X169850000Y-47870000D02*
X187690000Y-47870000D01*
X169850000Y-50530000D02*
X187690000Y-50530000D01*
X187690000Y-50530000D02*
X187690000Y-47870000D01*
%TD*%
M02*
