%TF.GenerationSoftware,KiCad,Pcbnew,(6.0.7)*%
%TF.CreationDate,2022-11-04T20:59:30-04:00*%
%TF.ProjectId,dmgc-attiny-arduino-mega,646d6763-2d61-4747-9469-6e792d617264,rev?*%
%TF.SameCoordinates,Original*%
%TF.FileFunction,Soldermask,Top*%
%TF.FilePolarity,Negative*%
%FSLAX46Y46*%
G04 Gerber Fmt 4.6, Leading zero omitted, Abs format (unit mm)*
G04 Created by KiCad (PCBNEW (6.0.7)) date 2022-11-04 20:59:30*
%MOMM*%
%LPD*%
G01*
G04 APERTURE LIST*
G04 Aperture macros list*
%AMRoundRect*
0 Rectangle with rounded corners*
0 $1 Rounding radius*
0 $2 $3 $4 $5 $6 $7 $8 $9 X,Y pos of 4 corners*
0 Add a 4 corners polygon primitive as box body*
4,1,4,$2,$3,$4,$5,$6,$7,$8,$9,$2,$3,0*
0 Add four circle primitives for the rounded corners*
1,1,$1+$1,$2,$3*
1,1,$1+$1,$4,$5*
1,1,$1+$1,$6,$7*
1,1,$1+$1,$8,$9*
0 Add four rect primitives between the rounded corners*
20,1,$1+$1,$2,$3,$4,$5,0*
20,1,$1+$1,$4,$5,$6,$7,0*
20,1,$1+$1,$6,$7,$8,$9,0*
20,1,$1+$1,$8,$9,$2,$3,0*%
G04 Aperture macros list end*
%ADD10RoundRect,0.200000X-0.275000X0.200000X-0.275000X-0.200000X0.275000X-0.200000X0.275000X0.200000X0*%
%ADD11RoundRect,0.200000X0.275000X-0.200000X0.275000X0.200000X-0.275000X0.200000X-0.275000X-0.200000X0*%
%ADD12RoundRect,0.225000X-0.225000X-0.250000X0.225000X-0.250000X0.225000X0.250000X-0.225000X0.250000X0*%
%ADD13RoundRect,0.225000X0.250000X-0.225000X0.250000X0.225000X-0.250000X0.225000X-0.250000X-0.225000X0*%
%ADD14R,1.700000X1.700000*%
%ADD15O,1.700000X1.700000*%
%ADD16C,2.000000*%
%ADD17C,3.200000*%
%ADD18R,1.500000X1.000000*%
%ADD19RoundRect,0.100000X-0.100000X0.637500X-0.100000X-0.637500X0.100000X-0.637500X0.100000X0.637500X0*%
%ADD20C,1.700000*%
%ADD21R,1.600000X1.600000*%
%ADD22O,1.600000X1.600000*%
G04 APERTURE END LIST*
%TO.C,G\u002A\u002A\u002A*%
G36*
X110365067Y-60442971D02*
G01*
X110410751Y-60724218D01*
X110399869Y-60878163D01*
X110324447Y-60939714D01*
X110249941Y-60946838D01*
X110117156Y-60897229D01*
X110080608Y-60735172D01*
X110064816Y-60604556D01*
X109987194Y-60542672D01*
X109802371Y-60524313D01*
X109699608Y-60523505D01*
X109472388Y-60506688D01*
X109336090Y-60464141D01*
X109318608Y-60438838D01*
X109317594Y-60299882D01*
X109317482Y-60293395D01*
X109393676Y-60256363D01*
X109592514Y-60222161D01*
X109813609Y-60202278D01*
X110310860Y-60171936D01*
X110365067Y-60442971D01*
G37*
G36*
X109514369Y-61381251D02*
G01*
X109626957Y-61427257D01*
X109657129Y-61527340D01*
X109657274Y-61539505D01*
X109627985Y-61651465D01*
X109510389Y-61700111D01*
X109327666Y-61708838D01*
X109062356Y-61674193D01*
X108946666Y-61574913D01*
X108907257Y-61452176D01*
X108936892Y-61392011D01*
X109071495Y-61372105D01*
X109276274Y-61370172D01*
X109514369Y-61381251D01*
G37*
G36*
X109985097Y-61034460D02*
G01*
X110020473Y-61116172D01*
X110016071Y-61252468D01*
X109912406Y-61285505D01*
X109759811Y-61227877D01*
X109714500Y-61166782D01*
X109702152Y-61031167D01*
X109719552Y-60997449D01*
X109860174Y-60947157D01*
X109985097Y-61034460D01*
G37*
G36*
X103462026Y-58565522D02*
G01*
X103520533Y-58688927D01*
X103544659Y-58887186D01*
X103549853Y-59114036D01*
X103506851Y-59223567D01*
X103393753Y-59265737D01*
X103377650Y-59268186D01*
X103273321Y-59297450D01*
X103215097Y-59374126D01*
X103189403Y-59538318D01*
X103182663Y-59830131D01*
X103182598Y-59844417D01*
X103173621Y-60150065D01*
X103143419Y-60324265D01*
X103082208Y-60404513D01*
X103031851Y-60422174D01*
X102883757Y-60389203D01*
X102836543Y-60329170D01*
X102805083Y-60149361D01*
X102804356Y-59900924D01*
X102828504Y-59639002D01*
X102871667Y-59418738D01*
X102927989Y-59295276D01*
X102947441Y-59285255D01*
X103109291Y-59267103D01*
X103132804Y-59264088D01*
X103178077Y-59181961D01*
X103197721Y-58988031D01*
X103196304Y-58893672D01*
X103197423Y-58665053D01*
X103240545Y-58559882D01*
X103344543Y-58533860D01*
X103349608Y-58533838D01*
X103462026Y-58565522D01*
G37*
G36*
X104069274Y-56840505D02*
G01*
X104026941Y-56882838D01*
X103984608Y-56840505D01*
X104026941Y-56798172D01*
X104069274Y-56840505D01*
G37*
G36*
X105762608Y-53284505D02*
G01*
X105720274Y-53326838D01*
X105677941Y-53284505D01*
X105720274Y-53242172D01*
X105762608Y-53284505D01*
G37*
G36*
X103909879Y-59690084D02*
G01*
X103969440Y-59760947D01*
X103974875Y-59936118D01*
X103968309Y-60036672D01*
X103936898Y-60268925D01*
X103872129Y-60374572D01*
X103772941Y-60396505D01*
X103643569Y-60441998D01*
X103623776Y-60587005D01*
X103604421Y-60731436D01*
X103473673Y-60776607D01*
X103433276Y-60777505D01*
X103266630Y-60736304D01*
X103222608Y-60614060D01*
X103293995Y-60467276D01*
X103413108Y-60423560D01*
X103532085Y-60386345D01*
X103580248Y-60287593D01*
X103578279Y-60077928D01*
X103575160Y-60036672D01*
X103565455Y-59811174D01*
X103600948Y-59707174D01*
X103706978Y-59678008D01*
X103770529Y-59676838D01*
X103909879Y-59690084D01*
G37*
G36*
X104803052Y-53101060D02*
G01*
X104791430Y-53151395D01*
X104746608Y-53157505D01*
X104676917Y-53126527D01*
X104690163Y-53101060D01*
X104790643Y-53090927D01*
X104803052Y-53101060D01*
G37*
G36*
X102539386Y-57052172D02*
G01*
X102686169Y-56980784D01*
X102729886Y-56861672D01*
X102737800Y-56840505D01*
X103899941Y-56840505D01*
X103970244Y-56943983D01*
X104066617Y-56967505D01*
X104187912Y-56926486D01*
X104184559Y-56840505D01*
X104077956Y-56727981D01*
X104017882Y-56713505D01*
X103913544Y-56781474D01*
X103899941Y-56840505D01*
X102737800Y-56840505D01*
X102776744Y-56736347D01*
X102902432Y-56672241D01*
X103116774Y-56645137D01*
X103350032Y-56613112D01*
X103455844Y-56547375D01*
X103476608Y-56454637D01*
X103506520Y-56347010D01*
X103625301Y-56299304D01*
X103817931Y-56290172D01*
X104044249Y-56271200D01*
X104175607Y-56193648D01*
X104228399Y-56026563D01*
X104222468Y-55844801D01*
X104577274Y-55844801D01*
X104586052Y-56065680D01*
X104607867Y-56201583D01*
X104615209Y-56215217D01*
X104715540Y-56231734D01*
X104919749Y-56226706D01*
X104996209Y-56220435D01*
X105223040Y-56181743D01*
X105322733Y-56107370D01*
X105339274Y-56019352D01*
X105412340Y-55859366D01*
X105508608Y-55806704D01*
X105646389Y-55706108D01*
X105677941Y-55608852D01*
X105751557Y-55470950D01*
X105867576Y-55428227D01*
X106034619Y-55356495D01*
X106091906Y-55241562D01*
X106034537Y-55139531D01*
X105895816Y-55104838D01*
X105726748Y-55142142D01*
X105677943Y-55272694D01*
X105677941Y-55274172D01*
X105618072Y-55415676D01*
X105508608Y-55443505D01*
X105367103Y-55383636D01*
X105339274Y-55274172D01*
X105289665Y-55141387D01*
X105127608Y-55104838D01*
X104959555Y-55146485D01*
X104915941Y-55264297D01*
X104844430Y-55413282D01*
X104746608Y-55468037D01*
X104631211Y-55538073D01*
X104583023Y-55698769D01*
X104577274Y-55844801D01*
X104222468Y-55844801D01*
X104219015Y-55738990D01*
X104199766Y-55569134D01*
X104154577Y-55294527D01*
X104095805Y-55152391D01*
X104006289Y-55105900D01*
X103983383Y-55104838D01*
X103877440Y-55068674D01*
X103821007Y-54933510D01*
X103798976Y-54745005D01*
X103767565Y-54512751D01*
X103702795Y-54407105D01*
X103603608Y-54385172D01*
X103512257Y-54366672D01*
X103457572Y-54286829D01*
X103427132Y-54109122D01*
X103409239Y-53813671D01*
X103400143Y-53510100D01*
X103406356Y-53425223D01*
X103815274Y-53425223D01*
X103839980Y-53520704D01*
X103934349Y-53575581D01*
X104128763Y-53596388D01*
X104453602Y-53589661D01*
X104556108Y-53584583D01*
X104783813Y-53583175D01*
X104888707Y-53624227D01*
X104915781Y-53727491D01*
X104915941Y-53742546D01*
X104942457Y-53858599D01*
X105052359Y-53909454D01*
X105248719Y-53919505D01*
X105470553Y-53903888D01*
X105574946Y-53839244D01*
X105608552Y-53729005D01*
X105703053Y-53558570D01*
X105813562Y-53513094D01*
X105915006Y-53477915D01*
X105971454Y-53381696D01*
X105998145Y-53183138D01*
X106002248Y-53087774D01*
X107134731Y-53087774D01*
X107135858Y-53418159D01*
X107146811Y-53683154D01*
X107165393Y-53837262D01*
X107171736Y-53854462D01*
X107284092Y-53914945D01*
X107420407Y-53862344D01*
X107515682Y-53727661D01*
X107525329Y-53685807D01*
X107609534Y-53527185D01*
X107715829Y-53496172D01*
X107850835Y-53441733D01*
X107882613Y-53321270D01*
X107816078Y-53199064D01*
X107688774Y-53142227D01*
X107563450Y-53095369D01*
X107499344Y-52969680D01*
X107472239Y-52755338D01*
X107438111Y-52518353D01*
X107368921Y-52412202D01*
X107294962Y-52395505D01*
X107219431Y-52415277D01*
X107172909Y-52496493D01*
X107147792Y-52672007D01*
X107136476Y-52974669D01*
X107134731Y-53087774D01*
X106002248Y-53087774D01*
X106006438Y-52990392D01*
X106002834Y-52716291D01*
X105978169Y-52517200D01*
X105947542Y-52447480D01*
X105821732Y-52429946D01*
X105607291Y-52445638D01*
X105564166Y-52452093D01*
X105338550Y-52518363D01*
X105256101Y-52628320D01*
X105254608Y-52650969D01*
X105207254Y-52755182D01*
X105043545Y-52824420D01*
X104866924Y-52857748D01*
X104621016Y-52911073D01*
X104522415Y-52980545D01*
X104524560Y-53033983D01*
X104527936Y-53155307D01*
X104408300Y-53225801D01*
X104144408Y-53257124D01*
X104115774Y-53258312D01*
X103905256Y-53288118D01*
X103821866Y-53370529D01*
X103815274Y-53425223D01*
X103406356Y-53425223D01*
X103412713Y-53338387D01*
X103456553Y-53261485D01*
X103541267Y-53242350D01*
X103557406Y-53242171D01*
X103702730Y-53183163D01*
X103730608Y-53082452D01*
X103770396Y-52973369D01*
X103914581Y-52904002D01*
X104111608Y-52865597D01*
X104357744Y-52811935D01*
X104471649Y-52734264D01*
X104492608Y-52649185D01*
X104528291Y-52542795D01*
X104662178Y-52486199D01*
X104852441Y-52463873D01*
X105084695Y-52432462D01*
X105190341Y-52367693D01*
X105212274Y-52268505D01*
X105180362Y-52155779D01*
X105056247Y-52097272D01*
X104861154Y-52073562D01*
X104613697Y-52032562D01*
X104491727Y-51943457D01*
X104466914Y-51883062D01*
X104354559Y-51744248D01*
X104246534Y-51718171D01*
X104131080Y-51692280D01*
X104079939Y-51584361D01*
X104069274Y-51379505D01*
X104083474Y-51157937D01*
X104140869Y-51060012D01*
X104238608Y-51040838D01*
X104378717Y-51099191D01*
X104407941Y-51218596D01*
X104417656Y-51302569D01*
X104468447Y-51352936D01*
X104592781Y-51376034D01*
X104823128Y-51378203D01*
X105166874Y-51366762D01*
X105528423Y-51355419D01*
X105754344Y-51359715D01*
X105878065Y-51385616D01*
X105933017Y-51439087D01*
X105950040Y-51506505D01*
X106032827Y-51644960D01*
X106122441Y-51668783D01*
X106292156Y-51661876D01*
X106553904Y-51652391D01*
X106693941Y-51647616D01*
X106948743Y-51629502D01*
X107075651Y-51585410D01*
X107105424Y-51520373D01*
X108175608Y-51520373D01*
X108577774Y-51534605D01*
X108833393Y-51530150D01*
X108955654Y-51486937D01*
X108979941Y-51421838D01*
X108906175Y-51321720D01*
X108747108Y-51300789D01*
X108597398Y-51311065D01*
X108603902Y-51340374D01*
X108683608Y-51376128D01*
X108762103Y-51422931D01*
X108705096Y-51455569D01*
X108514274Y-51482945D01*
X108175608Y-51520373D01*
X107105424Y-51520373D01*
X107115910Y-51497468D01*
X107117274Y-51464172D01*
X107067665Y-51331387D01*
X106905608Y-51294838D01*
X106744486Y-51259869D01*
X106694835Y-51122178D01*
X106693941Y-51083172D01*
X106733628Y-50917190D01*
X106863274Y-50871505D01*
X107004778Y-50811636D01*
X107032608Y-50702172D01*
X107075037Y-50575796D01*
X107230059Y-50533712D01*
X107274188Y-50532838D01*
X107490905Y-50523966D01*
X107797791Y-50501061D01*
X108036188Y-50478444D01*
X108556608Y-50424050D01*
X108556608Y-50653099D01*
X108581481Y-50817969D01*
X108683653Y-50861314D01*
X108747108Y-50855660D01*
X108904299Y-50878361D01*
X108964663Y-51019671D01*
X109046762Y-51177870D01*
X109146270Y-51210171D01*
X109254284Y-51252665D01*
X109313749Y-51405130D01*
X109333538Y-51553237D01*
X109345615Y-51777058D01*
X109335867Y-51917452D01*
X109328320Y-51934237D01*
X109230319Y-51953916D01*
X109012385Y-51967628D01*
X108754163Y-51972172D01*
X108463175Y-51975837D01*
X108302711Y-51997509D01*
X108233975Y-52053195D01*
X108218169Y-52158908D01*
X108217941Y-52193452D01*
X108228569Y-52328046D01*
X108290712Y-52383134D01*
X108449761Y-52378725D01*
X108592499Y-52358563D01*
X108825079Y-52331679D01*
X108939964Y-52354390D01*
X108985564Y-52443374D01*
X108994666Y-52497116D01*
X109089470Y-52671053D01*
X109212774Y-52718893D01*
X109316165Y-52748220D01*
X109373448Y-52825806D01*
X109398019Y-52991836D01*
X109403274Y-53286497D01*
X109403274Y-53290393D01*
X109397623Y-53586850D01*
X109373166Y-53751479D01*
X109318646Y-53821620D01*
X109239129Y-53834838D01*
X109127034Y-53796804D01*
X109057302Y-53656961D01*
X109019155Y-53462549D01*
X108965430Y-53221008D01*
X108889274Y-53118303D01*
X108823467Y-53111000D01*
X108737306Y-53137327D01*
X108688632Y-53211487D01*
X108664052Y-53374904D01*
X108651040Y-53644338D01*
X108620055Y-53840964D01*
X108527711Y-53914717D01*
X108471941Y-53919505D01*
X108315468Y-53950086D01*
X108292993Y-54023420D01*
X108384493Y-54111894D01*
X108569946Y-54187894D01*
X108683608Y-54211413D01*
X108928100Y-54264080D01*
X109041838Y-54340227D01*
X109064608Y-54432693D01*
X109127763Y-54571504D01*
X109224882Y-54596838D01*
X109383989Y-54659087D01*
X109436549Y-54730763D01*
X109480086Y-54877178D01*
X109424092Y-54929130D01*
X109276274Y-54935505D01*
X109115152Y-54970474D01*
X109065501Y-55108165D01*
X109064608Y-55147172D01*
X109054840Y-55261342D01*
X108999922Y-55324720D01*
X108861434Y-55352216D01*
X108600953Y-55358737D01*
X108519142Y-55358838D01*
X107973677Y-55358838D01*
X107947642Y-54999005D01*
X107915261Y-54764086D01*
X107845303Y-54650239D01*
X107731108Y-54612116D01*
X107573111Y-54530316D01*
X107540608Y-54431486D01*
X107464180Y-54291753D01*
X107321026Y-54235936D01*
X107165022Y-54224502D01*
X107126934Y-54303245D01*
X107139952Y-54395399D01*
X107140179Y-54547424D01*
X107029906Y-54595307D01*
X106978533Y-54596838D01*
X106823111Y-54637055D01*
X106778698Y-54787146D01*
X106778608Y-54798891D01*
X106802101Y-54929108D01*
X106901962Y-55003498D01*
X107122260Y-55052378D01*
X107154244Y-55057275D01*
X107430022Y-55127774D01*
X107551632Y-55236235D01*
X107557540Y-55257236D01*
X107652708Y-55375220D01*
X107753404Y-55401019D01*
X107903986Y-55470864D01*
X107948663Y-55591672D01*
X107932623Y-55740815D01*
X107802497Y-55782168D01*
X107800496Y-55782172D01*
X107655043Y-55839060D01*
X107625274Y-55951505D01*
X107686010Y-56094143D01*
X107783687Y-56120838D01*
X107861060Y-56140144D01*
X107914427Y-56218939D01*
X107952749Y-56388538D01*
X107984984Y-56680255D01*
X108001710Y-56882838D01*
X108034778Y-57249430D01*
X108069872Y-57477612D01*
X108115513Y-57598183D01*
X108180220Y-57641942D01*
X108212504Y-57644838D01*
X108306056Y-57698714D01*
X108376810Y-57868528D01*
X108426574Y-58166556D01*
X108457156Y-58605074D01*
X108470363Y-59196360D01*
X108471205Y-59401672D01*
X108471941Y-60269505D01*
X108683608Y-60269505D01*
X108849589Y-60309192D01*
X108895274Y-60438838D01*
X108955143Y-60580342D01*
X109064608Y-60608172D01*
X109206112Y-60668040D01*
X109233941Y-60777505D01*
X109216789Y-60869145D01*
X109140387Y-60920237D01*
X108967320Y-60942293D01*
X108683608Y-60946838D01*
X108133274Y-60946838D01*
X108133274Y-61793505D01*
X108505216Y-61793505D01*
X108784565Y-61821631D01*
X108918554Y-61903057D01*
X108922715Y-61912227D01*
X108941783Y-62022402D01*
X108877000Y-62089000D01*
X108701202Y-62122170D01*
X108387225Y-62132065D01*
X108334126Y-62132172D01*
X107801200Y-62132172D01*
X107776737Y-61391338D01*
X107761681Y-61034808D01*
X107739619Y-60815074D01*
X107702041Y-60699606D01*
X107640438Y-60655873D01*
X107582941Y-60650505D01*
X107470687Y-60618943D01*
X107412181Y-60495917D01*
X107387831Y-60295956D01*
X107354477Y-60062106D01*
X107281973Y-59949659D01*
X107176164Y-59914956D01*
X107008238Y-59817299D01*
X106963702Y-59701695D01*
X106937641Y-59601471D01*
X106869134Y-59551117D01*
X106717905Y-59540877D01*
X106443677Y-59560997D01*
X106399605Y-59565080D01*
X106107979Y-59588663D01*
X105944164Y-59583233D01*
X105867611Y-59537915D01*
X105837772Y-59441830D01*
X105833510Y-59413223D01*
X105774101Y-59262070D01*
X105699108Y-59219638D01*
X105567049Y-59225366D01*
X105316772Y-59232630D01*
X104999368Y-59239970D01*
X104958274Y-59240805D01*
X104633246Y-59251528D01*
X104442539Y-59274232D01*
X104351155Y-59318950D01*
X104324093Y-59395715D01*
X104323274Y-59422838D01*
X104261258Y-59553485D01*
X104126128Y-59594036D01*
X103994258Y-59533931D01*
X103957166Y-59473449D01*
X103953708Y-59323801D01*
X104094651Y-59257766D01*
X104173941Y-59253505D01*
X104295006Y-59207779D01*
X104307996Y-59063005D01*
X104223831Y-58903665D01*
X104111723Y-58872389D01*
X103970209Y-58812235D01*
X103942390Y-58703056D01*
X103873012Y-58551715D01*
X103751774Y-58506783D01*
X103592827Y-58423504D01*
X103561274Y-58320323D01*
X103584605Y-58230820D01*
X103679234Y-58177794D01*
X103882115Y-58148352D01*
X104090441Y-58135712D01*
X104382745Y-58115591D01*
X104546285Y-58080009D01*
X104621631Y-58013233D01*
X104646663Y-57920005D01*
X104635306Y-57777712D01*
X104514486Y-57731213D01*
X104456163Y-57729505D01*
X104287252Y-57692083D01*
X104238609Y-57561205D01*
X104238608Y-57560172D01*
X104178739Y-57418667D01*
X104069274Y-57390838D01*
X103927115Y-57451305D01*
X103899941Y-57554984D01*
X103862794Y-57665889D01*
X103725638Y-57735458D01*
X103518941Y-57776264D01*
X103272965Y-57829830D01*
X103159074Y-57907353D01*
X103137941Y-57993118D01*
X103109619Y-58093539D01*
X102996732Y-58140926D01*
X102757402Y-58152838D01*
X102756941Y-58152838D01*
X102518846Y-58141759D01*
X102406258Y-58095753D01*
X102376086Y-57995669D01*
X102375941Y-57983505D01*
X102315220Y-57840932D01*
X102216482Y-57814172D01*
X102067497Y-57742661D01*
X102012742Y-57644838D01*
X102012804Y-57516784D01*
X102133533Y-57476385D01*
X102174858Y-57475505D01*
X102351982Y-57521975D01*
X102429990Y-57602505D01*
X102536362Y-57698534D01*
X102714985Y-57736106D01*
X102900183Y-57717473D01*
X103026279Y-57644891D01*
X103046590Y-57581338D01*
X103024906Y-57501106D01*
X102997201Y-57539005D01*
X102890012Y-57615792D01*
X102728719Y-57638887D01*
X102581252Y-57628639D01*
X102590419Y-57598230D01*
X102672274Y-57560172D01*
X102772638Y-57508187D01*
X102725865Y-57486821D01*
X102608774Y-57481456D01*
X102436609Y-57447843D01*
X102378640Y-57328047D01*
X102375941Y-57263838D01*
X102396605Y-57179172D01*
X103137941Y-57179172D01*
X103208527Y-57282600D01*
X103307274Y-57306172D01*
X103445178Y-57253232D01*
X103476608Y-57179172D01*
X103406021Y-57075743D01*
X103307274Y-57052172D01*
X103169370Y-57105111D01*
X103137941Y-57179172D01*
X102396605Y-57179172D01*
X102416737Y-57096688D01*
X102539386Y-57052172D01*
G37*
%TD*%
D10*
%TO.C,R10*%
X189617992Y-83483341D03*
X189617992Y-85133341D03*
%TD*%
%TO.C,R9*%
X136284168Y-83505108D03*
X136284168Y-85155108D03*
%TD*%
%TO.C,R8*%
X148992432Y-83498124D03*
X148992432Y-85148124D03*
%TD*%
%TO.C,R7*%
X161662048Y-83483341D03*
X161662048Y-85133341D03*
%TD*%
%TO.C,R6*%
X176904025Y-83483341D03*
X176904025Y-85133341D03*
%TD*%
D11*
%TO.C,R5*%
X185598000Y-80632000D03*
X185598000Y-78982000D03*
%TD*%
%TO.C,R4*%
X183693000Y-80632000D03*
X183693000Y-78982000D03*
%TD*%
%TO.C,R3*%
X180645000Y-80632000D03*
X180645000Y-78982000D03*
%TD*%
D10*
%TO.C,R2*%
X189916000Y-75426000D03*
X189916000Y-77076000D03*
%TD*%
D11*
%TO.C,R1*%
X117399000Y-58915000D03*
X117399000Y-57265000D03*
%TD*%
D12*
%TO.C,C3*%
X177330000Y-70282000D03*
X178880000Y-70282000D03*
%TD*%
%TO.C,C2*%
X186474000Y-52375000D03*
X188024000Y-52375000D03*
%TD*%
D13*
%TO.C,C1*%
X124892000Y-97981000D03*
X124892000Y-96431000D03*
%TD*%
D14*
%TO.C,J4*%
X193980000Y-92380000D03*
D15*
X196520000Y-92380000D03*
X193980000Y-89840000D03*
X196520000Y-89840000D03*
X193980000Y-87300000D03*
X196520000Y-87300000D03*
X193980000Y-84760000D03*
X196520000Y-84760000D03*
X193980000Y-82220000D03*
X196520000Y-82220000D03*
X193980000Y-79680000D03*
X196520000Y-79680000D03*
X193980000Y-77140000D03*
X196520000Y-77140000D03*
X193980000Y-74600000D03*
X196520000Y-74600000D03*
X193980000Y-72060000D03*
X196520000Y-72060000D03*
X193980000Y-69520000D03*
X196520000Y-69520000D03*
X193980000Y-66980000D03*
X196520000Y-66980000D03*
X193980000Y-64440000D03*
X196520000Y-64440000D03*
X193980000Y-61900000D03*
X196520000Y-61900000D03*
X193980000Y-59360000D03*
X196520000Y-59360000D03*
X193980000Y-56820000D03*
X196520000Y-56820000D03*
X193980000Y-54280000D03*
X196520000Y-54280000D03*
X193980000Y-51740000D03*
X196520000Y-51740000D03*
X193980000Y-49200000D03*
X196520000Y-49200000D03*
%TD*%
D14*
%TO.C,J1*%
X127940000Y-97460000D03*
D15*
X130480000Y-97460000D03*
X133020000Y-97460000D03*
X135560000Y-97460000D03*
X138100000Y-97460000D03*
X140640000Y-97460000D03*
X143180000Y-97460000D03*
X145720000Y-97460000D03*
%TD*%
D14*
%TO.C,J2*%
X150800000Y-97460000D03*
D15*
X153340000Y-97460000D03*
X155880000Y-97460000D03*
X158420000Y-97460000D03*
X160960000Y-97460000D03*
X163500000Y-97460000D03*
X166040000Y-97460000D03*
X168580000Y-97460000D03*
%TD*%
D14*
%TO.C,J3*%
X173660000Y-97460000D03*
D15*
X176200000Y-97460000D03*
X178740000Y-97460000D03*
X181280000Y-97460000D03*
X183820000Y-97460000D03*
X186360000Y-97460000D03*
X188900000Y-97460000D03*
X191440000Y-97460000D03*
%TD*%
D14*
%TO.C,J5*%
X118796000Y-49200000D03*
D15*
X121336000Y-49200000D03*
X123876000Y-49200000D03*
X126416000Y-49200000D03*
X128956000Y-49200000D03*
X131496000Y-49200000D03*
X134036000Y-49200000D03*
X136576000Y-49200000D03*
X139116000Y-49200000D03*
X141656000Y-49200000D03*
%TD*%
D14*
%TO.C,J6*%
X145720000Y-49200000D03*
D15*
X148260000Y-49200000D03*
X150800000Y-49200000D03*
X153340000Y-49200000D03*
X155880000Y-49200000D03*
X158420000Y-49200000D03*
X160960000Y-49200000D03*
X163500000Y-49200000D03*
%TD*%
D14*
%TO.C,J7*%
X168580000Y-49200000D03*
D15*
X171120000Y-49200000D03*
X173660000Y-49200000D03*
X176200000Y-49200000D03*
X178740000Y-49200000D03*
X181280000Y-49200000D03*
X183820000Y-49200000D03*
X186360000Y-49200000D03*
%TD*%
D16*
%TO.C,SW4*%
X142470000Y-87590000D03*
X148970000Y-87590000D03*
X142470000Y-92090000D03*
X148970000Y-92090000D03*
%TD*%
D17*
%TO.C,MH6*%
X196520000Y-97460000D03*
%TD*%
D16*
%TO.C,SW5*%
X129770000Y-87590000D03*
X136270000Y-87590000D03*
X129770000Y-92090000D03*
X136270000Y-92090000D03*
%TD*%
D18*
%TO.C,D2*%
X112790000Y-62840000D03*
X112790000Y-66040000D03*
X117690000Y-66040000D03*
X117690000Y-62840000D03*
%TD*%
D19*
%TO.C,U2*%
X187776000Y-70340500D03*
X187126000Y-70340500D03*
X186476000Y-70340500D03*
X185826000Y-70340500D03*
X185176000Y-70340500D03*
X184526000Y-70340500D03*
X183876000Y-70340500D03*
X183226000Y-70340500D03*
X182576000Y-70340500D03*
X181926000Y-70340500D03*
X181276000Y-70340500D03*
X180626000Y-70340500D03*
X180626000Y-76065500D03*
X181276000Y-76065500D03*
X181926000Y-76065500D03*
X182576000Y-76065500D03*
X183226000Y-76065500D03*
X183876000Y-76065500D03*
X184526000Y-76065500D03*
X185176000Y-76065500D03*
X185826000Y-76065500D03*
X186476000Y-76065500D03*
X187126000Y-76065500D03*
X187776000Y-76065500D03*
%TD*%
D17*
%TO.C,MH1*%
X115240000Y-49200000D03*
%TD*%
D18*
%TO.C,D7*%
X155970000Y-59360000D03*
X155970000Y-62560000D03*
X160870000Y-62560000D03*
X160870000Y-59360000D03*
%TD*%
%TO.C,D6*%
X145810000Y-70460000D03*
X145810000Y-73660000D03*
X150710000Y-73660000D03*
X150710000Y-70460000D03*
%TD*%
D16*
%TO.C,SW2*%
X170410000Y-87590000D03*
X176910000Y-87590000D03*
X170410000Y-92090000D03*
X176910000Y-92090000D03*
%TD*%
%TO.C,SW6*%
X183110000Y-87590000D03*
X189610000Y-87590000D03*
X183110000Y-92090000D03*
X189610000Y-92090000D03*
%TD*%
D18*
%TO.C,D3*%
X120410000Y-70460000D03*
X120410000Y-73660000D03*
X125310000Y-73660000D03*
X125310000Y-70460000D03*
%TD*%
D16*
%TO.C,SW1*%
X112131500Y-81596500D03*
X112131500Y-93596500D03*
X118131500Y-93596500D03*
X118131500Y-81596500D03*
D20*
X116381500Y-83596500D03*
X116381500Y-87596500D03*
X116381500Y-91596500D03*
%TD*%
D18*
%TO.C,D5*%
X135650000Y-70460000D03*
X135650000Y-73660000D03*
X140550000Y-73660000D03*
X140550000Y-70460000D03*
%TD*%
D16*
%TO.C,SW3*%
X155170000Y-87590000D03*
X161670000Y-87590000D03*
X155170000Y-92090000D03*
X161670000Y-92090000D03*
%TD*%
D18*
%TO.C,D4*%
X128030000Y-62840000D03*
X128030000Y-66040000D03*
X132930000Y-66040000D03*
X132930000Y-62840000D03*
%TD*%
D21*
%TO.C,U1*%
X180274000Y-55179000D03*
D22*
X180274000Y-57719000D03*
X180274000Y-60259000D03*
X180274000Y-62799000D03*
X187894000Y-62799000D03*
X187894000Y-60259000D03*
X187894000Y-57719000D03*
X187894000Y-55179000D03*
%TD*%
D17*
%TO.C,MH2*%
X113970000Y-97460000D03*
%TD*%
D18*
%TO.C,D8*%
X168760000Y-56820000D03*
X168760000Y-60020000D03*
X173660000Y-60020000D03*
X173660000Y-56820000D03*
%TD*%
%TO.C,D1*%
X120410000Y-55220000D03*
X120410000Y-58420000D03*
X125310000Y-58420000D03*
X125310000Y-55220000D03*
%TD*%
D17*
%TO.C,MH3*%
X166040000Y-64440000D03*
%TD*%
%TO.C,MH4*%
X166040000Y-92380000D03*
%TD*%
%TO.C,MH5*%
X190170000Y-49200000D03*
%TD*%
M02*
