%TF.GenerationSoftware,KiCad,Pcbnew,(6.0.7)*%
%TF.CreationDate,2022-10-20T00:14:43-04:00*%
%TF.ProjectId,dmgc-attiny-arduino-mega,646d6763-2d61-4747-9469-6e792d617264,rev?*%
%TF.SameCoordinates,Original*%
%TF.FileFunction,Drillmap*%
%TF.FilePolarity,Positive*%
%FSLAX45Y45*%
G04 Gerber Fmt 4.5, Leading zero omitted, Abs format (unit mm)*
G04 Created by KiCad (PCBNEW (6.0.7)) date 2022-10-20 00:14:43*
%MOMM*%
%LPD*%
G01*
G04 APERTURE LIST*
%ADD10C,0.150000*%
%ADD11C,0.200000*%
%ADD12C,0.040000*%
%ADD13C,0.080000*%
%ADD14C,0.090000*%
%ADD15C,0.100000*%
%ADD16C,0.110000*%
%ADD17C,0.120000*%
G04 APERTURE END LIST*
D10*
X19906000Y-5936000D02*
X20160000Y-6190000D01*
X10000000Y-9923800D02*
X10000000Y-4742200D01*
X20160000Y-6190000D02*
X20160000Y-9619000D01*
X19829800Y-10000000D02*
X10076200Y-10000000D01*
X10076200Y-4666000D02*
X19652000Y-4666000D01*
X10000000Y-9923800D02*
G75*
G03*
X10076200Y-10000000I76200J0D01*
G01*
X20160000Y-9619000D02*
X19906000Y-9873000D01*
X19652000Y-4666000D02*
X19906000Y-4920000D01*
X19829800Y-10000000D02*
G75*
G03*
X19906000Y-9923800I0J76200D01*
G01*
X19906000Y-4920000D02*
X19906000Y-5936000D01*
X19906000Y-9873000D02*
X19906000Y-9923800D01*
X10076200Y-4666000D02*
G75*
G03*
X10000000Y-4742200I0J-76200D01*
G01*
D11*
D12*
X11251176Y-6063142D02*
X11291176Y-6103142D01*
X11291176Y-6063142D02*
X11251176Y-6103142D01*
X11948500Y-6665300D02*
X11988500Y-6705300D01*
X11988500Y-6665300D02*
X11948500Y-6705300D01*
X12009754Y-6829480D02*
X12049754Y-6869480D01*
X12049754Y-6829480D02*
X12009754Y-6869480D01*
X12011694Y-5302624D02*
X12051694Y-5342624D01*
X12051694Y-5302624D02*
X12011694Y-5342624D01*
X12024700Y-6373200D02*
X12064700Y-6413200D01*
X12064700Y-6373200D02*
X12024700Y-6413200D01*
X12215200Y-5662000D02*
X12255200Y-5702000D01*
X12255200Y-5662000D02*
X12215200Y-5702000D01*
X12456500Y-9586300D02*
X12496500Y-9626300D01*
X12496500Y-9586300D02*
X12456500Y-9626300D01*
X12735900Y-5623900D02*
X12775900Y-5663900D01*
X12775900Y-5623900D02*
X12735900Y-5663900D01*
X12770272Y-6063142D02*
X12810272Y-6103142D01*
X12810272Y-6063142D02*
X12770272Y-6103142D01*
X13528850Y-6831420D02*
X13568850Y-6871420D01*
X13568850Y-6831420D02*
X13528850Y-6871420D01*
X13777300Y-7681300D02*
X13817300Y-7721300D01*
X13817300Y-7681300D02*
X13777300Y-7721300D01*
X14547401Y-6821720D02*
X14587401Y-6861720D01*
X14587401Y-6821720D02*
X14547401Y-6861720D01*
X15116859Y-7661959D02*
X15156859Y-7701959D01*
X15156859Y-7661959D02*
X15116859Y-7701959D01*
X15577593Y-5723625D02*
X15617593Y-5763625D01*
X15617593Y-5723625D02*
X15577593Y-5763625D01*
X15580700Y-7314050D02*
X15620700Y-7354050D01*
X15620700Y-7314050D02*
X15580700Y-7354050D01*
X15580700Y-7438950D02*
X15620700Y-7478950D01*
X15620700Y-7438950D02*
X15580700Y-7478950D01*
X16858057Y-5463652D02*
X16898057Y-5503652D01*
X16898057Y-5463652D02*
X16858057Y-5503652D01*
X17460534Y-6513134D02*
X17500534Y-6553134D01*
X17500534Y-6513134D02*
X17460534Y-6553134D01*
X17461350Y-6424000D02*
X17501350Y-6464000D01*
X17501350Y-6424000D02*
X17461350Y-6464000D01*
X17631250Y-6424000D02*
X17671250Y-6464000D01*
X17671250Y-6424000D02*
X17631250Y-6464000D01*
X17631250Y-6512900D02*
X17671250Y-6552900D01*
X17671250Y-6512900D02*
X17631250Y-6552900D01*
X17765100Y-7448950D02*
X17805100Y-7488950D01*
X17805100Y-7448950D02*
X17765100Y-7488950D01*
X17879400Y-7122500D02*
X17919400Y-7162500D01*
X17919400Y-7122500D02*
X17879400Y-7162500D01*
X17930026Y-8214874D02*
X17970026Y-8254874D01*
X17970026Y-8214874D02*
X17930026Y-8254874D01*
X17930200Y-8024200D02*
X17970200Y-8064200D01*
X17970200Y-8024200D02*
X17930200Y-8064200D01*
X17968300Y-6792300D02*
X18008300Y-6832300D01*
X18008300Y-6792300D02*
X17968300Y-6832300D01*
X18019100Y-8100400D02*
X18059100Y-8140400D01*
X18059100Y-8100400D02*
X18019100Y-8140400D01*
X18031800Y-7909900D02*
X18071800Y-7949900D01*
X18071800Y-7909900D02*
X18031800Y-7949900D01*
X18184200Y-7160600D02*
X18224200Y-7200600D01*
X18224200Y-7160600D02*
X18184200Y-7200600D01*
X18195050Y-6792300D02*
X18235050Y-6832300D01*
X18235050Y-6792300D02*
X18195050Y-6832300D01*
X18247700Y-7960700D02*
X18287700Y-8000700D01*
X18287700Y-7960700D02*
X18247700Y-8000700D01*
X18289320Y-6255380D02*
X18329320Y-6295380D01*
X18329320Y-6255380D02*
X18289320Y-6295380D01*
X18405697Y-6020897D02*
X18445697Y-6060897D01*
X18445697Y-6020897D02*
X18405697Y-6060897D01*
X18416550Y-7960700D02*
X18456550Y-8000700D01*
X18456550Y-7960700D02*
X18416550Y-8000700D01*
X18501700Y-7452700D02*
X18541700Y-7492700D01*
X18541700Y-7452700D02*
X18501700Y-7492700D01*
X18603300Y-6678000D02*
X18643300Y-6718000D01*
X18643300Y-6678000D02*
X18603300Y-6718000D01*
X18628700Y-7973400D02*
X18668700Y-8013400D01*
X18668700Y-7973400D02*
X18628700Y-8013400D01*
X18782150Y-6512900D02*
X18822150Y-6552900D01*
X18822150Y-6512900D02*
X18782150Y-6552900D01*
X18844600Y-6436700D02*
X18884600Y-6476700D01*
X18884600Y-6436700D02*
X18844600Y-6476700D01*
X18857300Y-7897200D02*
X18897300Y-7937200D01*
X18897300Y-7897200D02*
X18857300Y-7937200D01*
X18971600Y-5801700D02*
X19011600Y-5841700D01*
X19011600Y-5801700D02*
X18971600Y-5841700D01*
X18997000Y-6830400D02*
X19037000Y-6870400D01*
X19037000Y-6830400D02*
X18997000Y-6870400D01*
D13*
X18067400Y-5517900D02*
G75*
G03*
X18067400Y-5517900I-40000J0D01*
G01*
X18067400Y-5771900D02*
G75*
G03*
X18067400Y-5771900I-40000J0D01*
G01*
X18067400Y-6025900D02*
G75*
G03*
X18067400Y-6025900I-40000J0D01*
G01*
X18067400Y-6279900D02*
G75*
G03*
X18067400Y-6279900I-40000J0D01*
G01*
X18829400Y-5517900D02*
G75*
G03*
X18829400Y-5517900I-40000J0D01*
G01*
X18829400Y-5771900D02*
G75*
G03*
X18829400Y-5771900I-40000J0D01*
G01*
X18829400Y-6025900D02*
G75*
G03*
X18829400Y-6025900I-40000J0D01*
G01*
X18829400Y-6279900D02*
G75*
G03*
X18829400Y-6279900I-40000J0D01*
G01*
D14*
X11638150Y-8314650D02*
X11638150Y-8404650D01*
X11593150Y-8359650D02*
X11683150Y-8359650D01*
X11638150Y-8714650D02*
X11638150Y-8804650D01*
X11593150Y-8759650D02*
X11683150Y-8759650D01*
X11638150Y-9114650D02*
X11638150Y-9204650D01*
X11593150Y-9159650D02*
X11683150Y-9159650D01*
D15*
X11914956Y-4955356D02*
X11914956Y-4884644D01*
X11844244Y-4884644D01*
X11844244Y-4955356D01*
X11914956Y-4955356D01*
X12168956Y-4955356D02*
X12168956Y-4884644D01*
X12098244Y-4884644D01*
X12098244Y-4955356D01*
X12168956Y-4955356D01*
X12422956Y-4955356D02*
X12422956Y-4884644D01*
X12352244Y-4884644D01*
X12352244Y-4955356D01*
X12422956Y-4955356D01*
X12676956Y-4955356D02*
X12676956Y-4884644D01*
X12606244Y-4884644D01*
X12606244Y-4955356D01*
X12676956Y-4955356D01*
X12829356Y-9781356D02*
X12829356Y-9710644D01*
X12758644Y-9710644D01*
X12758644Y-9781356D01*
X12829356Y-9781356D01*
X12930956Y-4955356D02*
X12930956Y-4884644D01*
X12860244Y-4884644D01*
X12860244Y-4955356D01*
X12930956Y-4955356D01*
X13083356Y-9781356D02*
X13083356Y-9710644D01*
X13012644Y-9710644D01*
X13012644Y-9781356D01*
X13083356Y-9781356D01*
X13184956Y-4955356D02*
X13184956Y-4884644D01*
X13114244Y-4884644D01*
X13114244Y-4955356D01*
X13184956Y-4955356D01*
X13337356Y-9781356D02*
X13337356Y-9710644D01*
X13266644Y-9710644D01*
X13266644Y-9781356D01*
X13337356Y-9781356D01*
X13438956Y-4955356D02*
X13438956Y-4884644D01*
X13368244Y-4884644D01*
X13368244Y-4955356D01*
X13438956Y-4955356D01*
X13591356Y-9781356D02*
X13591356Y-9710644D01*
X13520644Y-9710644D01*
X13520644Y-9781356D01*
X13591356Y-9781356D01*
X13692956Y-4955356D02*
X13692956Y-4884644D01*
X13622244Y-4884644D01*
X13622244Y-4955356D01*
X13692956Y-4955356D01*
X13845356Y-9781356D02*
X13845356Y-9710644D01*
X13774644Y-9710644D01*
X13774644Y-9781356D01*
X13845356Y-9781356D01*
X13946956Y-4955356D02*
X13946956Y-4884644D01*
X13876244Y-4884644D01*
X13876244Y-4955356D01*
X13946956Y-4955356D01*
X14099356Y-9781356D02*
X14099356Y-9710644D01*
X14028644Y-9710644D01*
X14028644Y-9781356D01*
X14099356Y-9781356D01*
X14200956Y-4955356D02*
X14200956Y-4884644D01*
X14130244Y-4884644D01*
X14130244Y-4955356D01*
X14200956Y-4955356D01*
X14353356Y-9781356D02*
X14353356Y-9710644D01*
X14282644Y-9710644D01*
X14282644Y-9781356D01*
X14353356Y-9781356D01*
X14607356Y-4955356D02*
X14607356Y-4884644D01*
X14536644Y-4884644D01*
X14536644Y-4955356D01*
X14607356Y-4955356D01*
X14607356Y-9781356D02*
X14607356Y-9710644D01*
X14536644Y-9710644D01*
X14536644Y-9781356D01*
X14607356Y-9781356D01*
X14861356Y-4955356D02*
X14861356Y-4884644D01*
X14790644Y-4884644D01*
X14790644Y-4955356D01*
X14861356Y-4955356D01*
X15115356Y-4955356D02*
X15115356Y-4884644D01*
X15044644Y-4884644D01*
X15044644Y-4955356D01*
X15115356Y-4955356D01*
X15115356Y-9781356D02*
X15115356Y-9710644D01*
X15044644Y-9710644D01*
X15044644Y-9781356D01*
X15115356Y-9781356D01*
X15369356Y-4955356D02*
X15369356Y-4884644D01*
X15298644Y-4884644D01*
X15298644Y-4955356D01*
X15369356Y-4955356D01*
X15369356Y-9781356D02*
X15369356Y-9710644D01*
X15298644Y-9710644D01*
X15298644Y-9781356D01*
X15369356Y-9781356D01*
X15623356Y-4955356D02*
X15623356Y-4884644D01*
X15552644Y-4884644D01*
X15552644Y-4955356D01*
X15623356Y-4955356D01*
X15623356Y-9781356D02*
X15623356Y-9710644D01*
X15552644Y-9710644D01*
X15552644Y-9781356D01*
X15623356Y-9781356D01*
X15877356Y-4955356D02*
X15877356Y-4884644D01*
X15806644Y-4884644D01*
X15806644Y-4955356D01*
X15877356Y-4955356D01*
X15877356Y-9781356D02*
X15877356Y-9710644D01*
X15806644Y-9710644D01*
X15806644Y-9781356D01*
X15877356Y-9781356D01*
X16131356Y-4955356D02*
X16131356Y-4884644D01*
X16060644Y-4884644D01*
X16060644Y-4955356D01*
X16131356Y-4955356D01*
X16131356Y-9781356D02*
X16131356Y-9710644D01*
X16060644Y-9710644D01*
X16060644Y-9781356D01*
X16131356Y-9781356D01*
X16385356Y-4955356D02*
X16385356Y-4884644D01*
X16314644Y-4884644D01*
X16314644Y-4955356D01*
X16385356Y-4955356D01*
X16385356Y-9781356D02*
X16385356Y-9710644D01*
X16314644Y-9710644D01*
X16314644Y-9781356D01*
X16385356Y-9781356D01*
X16639356Y-9781356D02*
X16639356Y-9710644D01*
X16568644Y-9710644D01*
X16568644Y-9781356D01*
X16639356Y-9781356D01*
X16893356Y-4955356D02*
X16893356Y-4884644D01*
X16822644Y-4884644D01*
X16822644Y-4955356D01*
X16893356Y-4955356D01*
X16893356Y-9781356D02*
X16893356Y-9710644D01*
X16822644Y-9710644D01*
X16822644Y-9781356D01*
X16893356Y-9781356D01*
X17147356Y-4955356D02*
X17147356Y-4884644D01*
X17076644Y-4884644D01*
X17076644Y-4955356D01*
X17147356Y-4955356D01*
X17401356Y-4955356D02*
X17401356Y-4884644D01*
X17330644Y-4884644D01*
X17330644Y-4955356D01*
X17401356Y-4955356D01*
X17401356Y-9781356D02*
X17401356Y-9710644D01*
X17330644Y-9710644D01*
X17330644Y-9781356D01*
X17401356Y-9781356D01*
X17655356Y-4955356D02*
X17655356Y-4884644D01*
X17584644Y-4884644D01*
X17584644Y-4955356D01*
X17655356Y-4955356D01*
X17655356Y-9781356D02*
X17655356Y-9710644D01*
X17584644Y-9710644D01*
X17584644Y-9781356D01*
X17655356Y-9781356D01*
X17909356Y-4955356D02*
X17909356Y-4884644D01*
X17838644Y-4884644D01*
X17838644Y-4955356D01*
X17909356Y-4955356D01*
X17909356Y-9781356D02*
X17909356Y-9710644D01*
X17838644Y-9710644D01*
X17838644Y-9781356D01*
X17909356Y-9781356D01*
X18163356Y-4955356D02*
X18163356Y-4884644D01*
X18092644Y-4884644D01*
X18092644Y-4955356D01*
X18163356Y-4955356D01*
X18163356Y-9781356D02*
X18163356Y-9710644D01*
X18092644Y-9710644D01*
X18092644Y-9781356D01*
X18163356Y-9781356D01*
X18417356Y-4955356D02*
X18417356Y-4884644D01*
X18346644Y-4884644D01*
X18346644Y-4955356D01*
X18417356Y-4955356D01*
X18417356Y-9781356D02*
X18417356Y-9710644D01*
X18346644Y-9710644D01*
X18346644Y-9781356D01*
X18417356Y-9781356D01*
X18671356Y-4955356D02*
X18671356Y-4884644D01*
X18600644Y-4884644D01*
X18600644Y-4955356D01*
X18671356Y-4955356D01*
X18671356Y-9781356D02*
X18671356Y-9710644D01*
X18600644Y-9710644D01*
X18600644Y-9781356D01*
X18671356Y-9781356D01*
X18925356Y-9781356D02*
X18925356Y-9710644D01*
X18854644Y-9710644D01*
X18854644Y-9781356D01*
X18925356Y-9781356D01*
X19179356Y-9781356D02*
X19179356Y-9710644D01*
X19108644Y-9710644D01*
X19108644Y-9781356D01*
X19179356Y-9781356D01*
X19433356Y-4955356D02*
X19433356Y-4884644D01*
X19362644Y-4884644D01*
X19362644Y-4955356D01*
X19433356Y-4955356D01*
X19433356Y-5209356D02*
X19433356Y-5138644D01*
X19362644Y-5138644D01*
X19362644Y-5209356D01*
X19433356Y-5209356D01*
X19433356Y-5463356D02*
X19433356Y-5392644D01*
X19362644Y-5392644D01*
X19362644Y-5463356D01*
X19433356Y-5463356D01*
X19433356Y-5717356D02*
X19433356Y-5646644D01*
X19362644Y-5646644D01*
X19362644Y-5717356D01*
X19433356Y-5717356D01*
X19433356Y-5971356D02*
X19433356Y-5900644D01*
X19362644Y-5900644D01*
X19362644Y-5971356D01*
X19433356Y-5971356D01*
X19433356Y-6225356D02*
X19433356Y-6154644D01*
X19362644Y-6154644D01*
X19362644Y-6225356D01*
X19433356Y-6225356D01*
X19433356Y-6479356D02*
X19433356Y-6408644D01*
X19362644Y-6408644D01*
X19362644Y-6479356D01*
X19433356Y-6479356D01*
X19433356Y-6733356D02*
X19433356Y-6662644D01*
X19362644Y-6662644D01*
X19362644Y-6733356D01*
X19433356Y-6733356D01*
X19433356Y-6987356D02*
X19433356Y-6916644D01*
X19362644Y-6916644D01*
X19362644Y-6987356D01*
X19433356Y-6987356D01*
X19433356Y-7241356D02*
X19433356Y-7170644D01*
X19362644Y-7170644D01*
X19362644Y-7241356D01*
X19433356Y-7241356D01*
X19433356Y-7495356D02*
X19433356Y-7424644D01*
X19362644Y-7424644D01*
X19362644Y-7495356D01*
X19433356Y-7495356D01*
X19433356Y-7749356D02*
X19433356Y-7678644D01*
X19362644Y-7678644D01*
X19362644Y-7749356D01*
X19433356Y-7749356D01*
X19433356Y-8003356D02*
X19433356Y-7932644D01*
X19362644Y-7932644D01*
X19362644Y-8003356D01*
X19433356Y-8003356D01*
X19433356Y-8257356D02*
X19433356Y-8186644D01*
X19362644Y-8186644D01*
X19362644Y-8257356D01*
X19433356Y-8257356D01*
X19433356Y-8511356D02*
X19433356Y-8440644D01*
X19362644Y-8440644D01*
X19362644Y-8511356D01*
X19433356Y-8511356D01*
X19433356Y-8765356D02*
X19433356Y-8694644D01*
X19362644Y-8694644D01*
X19362644Y-8765356D01*
X19433356Y-8765356D01*
X19433356Y-9019356D02*
X19433356Y-8948644D01*
X19362644Y-8948644D01*
X19362644Y-9019356D01*
X19433356Y-9019356D01*
X19433356Y-9273356D02*
X19433356Y-9202644D01*
X19362644Y-9202644D01*
X19362644Y-9273356D01*
X19433356Y-9273356D01*
X19687356Y-4955356D02*
X19687356Y-4884644D01*
X19616644Y-4884644D01*
X19616644Y-4955356D01*
X19687356Y-4955356D01*
X19687356Y-5209356D02*
X19687356Y-5138644D01*
X19616644Y-5138644D01*
X19616644Y-5209356D01*
X19687356Y-5209356D01*
X19687356Y-5463356D02*
X19687356Y-5392644D01*
X19616644Y-5392644D01*
X19616644Y-5463356D01*
X19687356Y-5463356D01*
X19687356Y-5717356D02*
X19687356Y-5646644D01*
X19616644Y-5646644D01*
X19616644Y-5717356D01*
X19687356Y-5717356D01*
X19687356Y-5971356D02*
X19687356Y-5900644D01*
X19616644Y-5900644D01*
X19616644Y-5971356D01*
X19687356Y-5971356D01*
X19687356Y-6225356D02*
X19687356Y-6154644D01*
X19616644Y-6154644D01*
X19616644Y-6225356D01*
X19687356Y-6225356D01*
X19687356Y-6479356D02*
X19687356Y-6408644D01*
X19616644Y-6408644D01*
X19616644Y-6479356D01*
X19687356Y-6479356D01*
X19687356Y-6733356D02*
X19687356Y-6662644D01*
X19616644Y-6662644D01*
X19616644Y-6733356D01*
X19687356Y-6733356D01*
X19687356Y-6987356D02*
X19687356Y-6916644D01*
X19616644Y-6916644D01*
X19616644Y-6987356D01*
X19687356Y-6987356D01*
X19687356Y-7241356D02*
X19687356Y-7170644D01*
X19616644Y-7170644D01*
X19616644Y-7241356D01*
X19687356Y-7241356D01*
X19687356Y-7495356D02*
X19687356Y-7424644D01*
X19616644Y-7424644D01*
X19616644Y-7495356D01*
X19687356Y-7495356D01*
X19687356Y-7749356D02*
X19687356Y-7678644D01*
X19616644Y-7678644D01*
X19616644Y-7749356D01*
X19687356Y-7749356D01*
X19687356Y-8003356D02*
X19687356Y-7932644D01*
X19616644Y-7932644D01*
X19616644Y-8003356D01*
X19687356Y-8003356D01*
X19687356Y-8257356D02*
X19687356Y-8186644D01*
X19616644Y-8186644D01*
X19616644Y-8257356D01*
X19687356Y-8257356D01*
X19687356Y-8511356D02*
X19687356Y-8440644D01*
X19616644Y-8440644D01*
X19616644Y-8511356D01*
X19687356Y-8511356D01*
X19687356Y-8765356D02*
X19687356Y-8694644D01*
X19616644Y-8694644D01*
X19616644Y-8765356D01*
X19687356Y-8765356D01*
X19687356Y-9019356D02*
X19687356Y-8948644D01*
X19616644Y-8948644D01*
X19616644Y-9019356D01*
X19687356Y-9019356D01*
X19687356Y-9273356D02*
X19687356Y-9202644D01*
X19616644Y-9202644D01*
X19616644Y-9273356D01*
X19687356Y-9273356D01*
D16*
X12977000Y-8814000D02*
X13032000Y-8759000D01*
X12977000Y-8704000D01*
X12922000Y-8759000D01*
X12977000Y-8814000D01*
X12977000Y-9264000D02*
X13032000Y-9209000D01*
X12977000Y-9154000D01*
X12922000Y-9209000D01*
X12977000Y-9264000D01*
X13627000Y-8814000D02*
X13682000Y-8759000D01*
X13627000Y-8704000D01*
X13572000Y-8759000D01*
X13627000Y-8814000D01*
X13627000Y-9264000D02*
X13682000Y-9209000D01*
X13627000Y-9154000D01*
X13572000Y-9209000D01*
X13627000Y-9264000D01*
X14247000Y-8814000D02*
X14302000Y-8759000D01*
X14247000Y-8704000D01*
X14192000Y-8759000D01*
X14247000Y-8814000D01*
X14247000Y-9264000D02*
X14302000Y-9209000D01*
X14247000Y-9154000D01*
X14192000Y-9209000D01*
X14247000Y-9264000D01*
X14897000Y-8814000D02*
X14952000Y-8759000D01*
X14897000Y-8704000D01*
X14842000Y-8759000D01*
X14897000Y-8814000D01*
X14897000Y-9264000D02*
X14952000Y-9209000D01*
X14897000Y-9154000D01*
X14842000Y-9209000D01*
X14897000Y-9264000D01*
X15517000Y-8814000D02*
X15572000Y-8759000D01*
X15517000Y-8704000D01*
X15462000Y-8759000D01*
X15517000Y-8814000D01*
X15517000Y-9264000D02*
X15572000Y-9209000D01*
X15517000Y-9154000D01*
X15462000Y-9209000D01*
X15517000Y-9264000D01*
X16167000Y-8814000D02*
X16222000Y-8759000D01*
X16167000Y-8704000D01*
X16112000Y-8759000D01*
X16167000Y-8814000D01*
X16167000Y-9264000D02*
X16222000Y-9209000D01*
X16167000Y-9154000D01*
X16112000Y-9209000D01*
X16167000Y-9264000D01*
X17041000Y-8814000D02*
X17096000Y-8759000D01*
X17041000Y-8704000D01*
X16986000Y-8759000D01*
X17041000Y-8814000D01*
X17041000Y-9264000D02*
X17096000Y-9209000D01*
X17041000Y-9154000D01*
X16986000Y-9209000D01*
X17041000Y-9264000D01*
X17691000Y-8814000D02*
X17746000Y-8759000D01*
X17691000Y-8704000D01*
X17636000Y-8759000D01*
X17691000Y-8814000D01*
X17691000Y-9264000D02*
X17746000Y-9209000D01*
X17691000Y-9154000D01*
X17636000Y-9209000D01*
X17691000Y-9264000D01*
X18311000Y-8814000D02*
X18366000Y-8759000D01*
X18311000Y-8704000D01*
X18256000Y-8759000D01*
X18311000Y-8814000D01*
X18311000Y-9264000D02*
X18366000Y-9209000D01*
X18311000Y-9154000D01*
X18256000Y-9209000D01*
X18311000Y-9264000D01*
X18961000Y-8814000D02*
X19016000Y-8759000D01*
X18961000Y-8704000D01*
X18906000Y-8759000D01*
X18961000Y-8814000D01*
X18961000Y-9264000D02*
X19016000Y-9209000D01*
X18961000Y-9154000D01*
X18906000Y-9209000D01*
X18961000Y-9264000D01*
D17*
X11153150Y-8099650D02*
X11273150Y-8219650D01*
X11273150Y-8099650D02*
X11153150Y-8219650D01*
X11273150Y-8159650D02*
G75*
G03*
X11273150Y-8159650I-60000J0D01*
G01*
X11153150Y-9299650D02*
X11273150Y-9419650D01*
X11273150Y-9299650D02*
X11153150Y-9419650D01*
X11273150Y-9359650D02*
G75*
G03*
X11273150Y-9359650I-60000J0D01*
G01*
X11753150Y-8099650D02*
X11873150Y-8219650D01*
X11873150Y-8099650D02*
X11753150Y-8219650D01*
X11873150Y-8159650D02*
G75*
G03*
X11873150Y-8159650I-60000J0D01*
G01*
X11753150Y-9299650D02*
X11873150Y-9419650D01*
X11873150Y-9299650D02*
X11753150Y-9419650D01*
X11873150Y-9359650D02*
G75*
G03*
X11873150Y-9359650I-60000J0D01*
G01*
D11*
X10250119Y-10317976D02*
X10250119Y-10117976D01*
X10297738Y-10117976D01*
X10326310Y-10127500D01*
X10345357Y-10146548D01*
X10354881Y-10165595D01*
X10364405Y-10203690D01*
X10364405Y-10232262D01*
X10354881Y-10270357D01*
X10345357Y-10289405D01*
X10326310Y-10308452D01*
X10297738Y-10317976D01*
X10250119Y-10317976D01*
X10450119Y-10317976D02*
X10450119Y-10184643D01*
X10450119Y-10222738D02*
X10459643Y-10203690D01*
X10469167Y-10194167D01*
X10488214Y-10184643D01*
X10507262Y-10184643D01*
X10573929Y-10317976D02*
X10573929Y-10184643D01*
X10573929Y-10117976D02*
X10564405Y-10127500D01*
X10573929Y-10137024D01*
X10583452Y-10127500D01*
X10573929Y-10117976D01*
X10573929Y-10137024D01*
X10697738Y-10317976D02*
X10678690Y-10308452D01*
X10669167Y-10289405D01*
X10669167Y-10117976D01*
X10802500Y-10317976D02*
X10783452Y-10308452D01*
X10773929Y-10289405D01*
X10773929Y-10117976D01*
X11031071Y-10317976D02*
X11031071Y-10117976D01*
X11097738Y-10260833D01*
X11164405Y-10117976D01*
X11164405Y-10317976D01*
X11345357Y-10317976D02*
X11345357Y-10213214D01*
X11335833Y-10194167D01*
X11316786Y-10184643D01*
X11278690Y-10184643D01*
X11259643Y-10194167D01*
X11345357Y-10308452D02*
X11326309Y-10317976D01*
X11278690Y-10317976D01*
X11259643Y-10308452D01*
X11250119Y-10289405D01*
X11250119Y-10270357D01*
X11259643Y-10251310D01*
X11278690Y-10241786D01*
X11326309Y-10241786D01*
X11345357Y-10232262D01*
X11440595Y-10184643D02*
X11440595Y-10384643D01*
X11440595Y-10194167D02*
X11459643Y-10184643D01*
X11497738Y-10184643D01*
X11516786Y-10194167D01*
X11526309Y-10203690D01*
X11535833Y-10222738D01*
X11535833Y-10279881D01*
X11526309Y-10298929D01*
X11516786Y-10308452D01*
X11497738Y-10317976D01*
X11459643Y-10317976D01*
X11440595Y-10308452D01*
X11621548Y-10298929D02*
X11631071Y-10308452D01*
X11621548Y-10317976D01*
X11612024Y-10308452D01*
X11621548Y-10298929D01*
X11621548Y-10317976D01*
X11621548Y-10194167D02*
X11631071Y-10203690D01*
X11621548Y-10213214D01*
X11612024Y-10203690D01*
X11621548Y-10194167D01*
X11621548Y-10213214D01*
D12*
X9952500Y-10627500D02*
X9992500Y-10667500D01*
X9992500Y-10627500D02*
X9952500Y-10667500D01*
D11*
X10288214Y-10537976D02*
X10307262Y-10537976D01*
X10326310Y-10547500D01*
X10335833Y-10557024D01*
X10345357Y-10576071D01*
X10354881Y-10614167D01*
X10354881Y-10661786D01*
X10345357Y-10699881D01*
X10335833Y-10718929D01*
X10326310Y-10728452D01*
X10307262Y-10737976D01*
X10288214Y-10737976D01*
X10269167Y-10728452D01*
X10259643Y-10718929D01*
X10250119Y-10699881D01*
X10240595Y-10661786D01*
X10240595Y-10614167D01*
X10250119Y-10576071D01*
X10259643Y-10557024D01*
X10269167Y-10547500D01*
X10288214Y-10537976D01*
X10440595Y-10718929D02*
X10450119Y-10728452D01*
X10440595Y-10737976D01*
X10431071Y-10728452D01*
X10440595Y-10718929D01*
X10440595Y-10737976D01*
X10621548Y-10604643D02*
X10621548Y-10737976D01*
X10573929Y-10528452D02*
X10526310Y-10671310D01*
X10650119Y-10671310D01*
X10764405Y-10537976D02*
X10783452Y-10537976D01*
X10802500Y-10547500D01*
X10812024Y-10557024D01*
X10821548Y-10576071D01*
X10831071Y-10614167D01*
X10831071Y-10661786D01*
X10821548Y-10699881D01*
X10812024Y-10718929D01*
X10802500Y-10728452D01*
X10783452Y-10737976D01*
X10764405Y-10737976D01*
X10745357Y-10728452D01*
X10735833Y-10718929D01*
X10726310Y-10699881D01*
X10716786Y-10661786D01*
X10716786Y-10614167D01*
X10726310Y-10576071D01*
X10735833Y-10557024D01*
X10745357Y-10547500D01*
X10764405Y-10537976D01*
X10954881Y-10537976D02*
X10973929Y-10537976D01*
X10992976Y-10547500D01*
X11002500Y-10557024D01*
X11012024Y-10576071D01*
X11021548Y-10614167D01*
X11021548Y-10661786D01*
X11012024Y-10699881D01*
X11002500Y-10718929D01*
X10992976Y-10728452D01*
X10973929Y-10737976D01*
X10954881Y-10737976D01*
X10935833Y-10728452D01*
X10926310Y-10718929D01*
X10916786Y-10699881D01*
X10907262Y-10661786D01*
X10907262Y-10614167D01*
X10916786Y-10576071D01*
X10926310Y-10557024D01*
X10935833Y-10547500D01*
X10954881Y-10537976D01*
X11107262Y-10737976D02*
X11107262Y-10604643D01*
X11107262Y-10623690D02*
X11116786Y-10614167D01*
X11135833Y-10604643D01*
X11164405Y-10604643D01*
X11183452Y-10614167D01*
X11192976Y-10633214D01*
X11192976Y-10737976D01*
X11192976Y-10633214D02*
X11202500Y-10614167D01*
X11221548Y-10604643D01*
X11250119Y-10604643D01*
X11269167Y-10614167D01*
X11278690Y-10633214D01*
X11278690Y-10737976D01*
X11373928Y-10737976D02*
X11373928Y-10604643D01*
X11373928Y-10623690D02*
X11383452Y-10614167D01*
X11402500Y-10604643D01*
X11431071Y-10604643D01*
X11450119Y-10614167D01*
X11459643Y-10633214D01*
X11459643Y-10737976D01*
X11459643Y-10633214D02*
X11469167Y-10614167D01*
X11488214Y-10604643D01*
X11516786Y-10604643D01*
X11535833Y-10614167D01*
X11545357Y-10633214D01*
X11545357Y-10737976D01*
X11935833Y-10528452D02*
X11764405Y-10785595D01*
X12192976Y-10537976D02*
X12212024Y-10537976D01*
X12231071Y-10547500D01*
X12240595Y-10557024D01*
X12250119Y-10576071D01*
X12259643Y-10614167D01*
X12259643Y-10661786D01*
X12250119Y-10699881D01*
X12240595Y-10718929D01*
X12231071Y-10728452D01*
X12212024Y-10737976D01*
X12192976Y-10737976D01*
X12173928Y-10728452D01*
X12164405Y-10718929D01*
X12154881Y-10699881D01*
X12145357Y-10661786D01*
X12145357Y-10614167D01*
X12154881Y-10576071D01*
X12164405Y-10557024D01*
X12173928Y-10547500D01*
X12192976Y-10537976D01*
X12345357Y-10718929D02*
X12354881Y-10728452D01*
X12345357Y-10737976D01*
X12335833Y-10728452D01*
X12345357Y-10718929D01*
X12345357Y-10737976D01*
X12478690Y-10537976D02*
X12497738Y-10537976D01*
X12516786Y-10547500D01*
X12526309Y-10557024D01*
X12535833Y-10576071D01*
X12545357Y-10614167D01*
X12545357Y-10661786D01*
X12535833Y-10699881D01*
X12526309Y-10718929D01*
X12516786Y-10728452D01*
X12497738Y-10737976D01*
X12478690Y-10737976D01*
X12459643Y-10728452D01*
X12450119Y-10718929D01*
X12440595Y-10699881D01*
X12431071Y-10661786D01*
X12431071Y-10614167D01*
X12440595Y-10576071D01*
X12450119Y-10557024D01*
X12459643Y-10547500D01*
X12478690Y-10537976D01*
X12735833Y-10737976D02*
X12621548Y-10737976D01*
X12678690Y-10737976D02*
X12678690Y-10537976D01*
X12659643Y-10566548D01*
X12640595Y-10585595D01*
X12621548Y-10595119D01*
X12916786Y-10537976D02*
X12821548Y-10537976D01*
X12812024Y-10633214D01*
X12821548Y-10623690D01*
X12840595Y-10614167D01*
X12888214Y-10614167D01*
X12907262Y-10623690D01*
X12916786Y-10633214D01*
X12926309Y-10652262D01*
X12926309Y-10699881D01*
X12916786Y-10718929D01*
X12907262Y-10728452D01*
X12888214Y-10737976D01*
X12840595Y-10737976D01*
X12821548Y-10728452D01*
X12812024Y-10718929D01*
X12992976Y-10537976D02*
X13126309Y-10537976D01*
X13040595Y-10737976D01*
X13192976Y-10537976D02*
X13192976Y-10576071D01*
X13269167Y-10537976D02*
X13269167Y-10576071D01*
X13564405Y-10814167D02*
X13554881Y-10804643D01*
X13535833Y-10776071D01*
X13526309Y-10757024D01*
X13516786Y-10728452D01*
X13507262Y-10680833D01*
X13507262Y-10642738D01*
X13516786Y-10595119D01*
X13526309Y-10566548D01*
X13535833Y-10547500D01*
X13554881Y-10518929D01*
X13564405Y-10509405D01*
X13726309Y-10604643D02*
X13726309Y-10737976D01*
X13678690Y-10528452D02*
X13631071Y-10671310D01*
X13754881Y-10671310D01*
X13821548Y-10557024D02*
X13831071Y-10547500D01*
X13850119Y-10537976D01*
X13897738Y-10537976D01*
X13916786Y-10547500D01*
X13926309Y-10557024D01*
X13935833Y-10576071D01*
X13935833Y-10595119D01*
X13926309Y-10623690D01*
X13812024Y-10737976D01*
X13935833Y-10737976D01*
X14173928Y-10737976D02*
X14173928Y-10537976D01*
X14259643Y-10737976D02*
X14259643Y-10633214D01*
X14250119Y-10614167D01*
X14231071Y-10604643D01*
X14202500Y-10604643D01*
X14183452Y-10614167D01*
X14173928Y-10623690D01*
X14383452Y-10737976D02*
X14364405Y-10728452D01*
X14354881Y-10718929D01*
X14345357Y-10699881D01*
X14345357Y-10642738D01*
X14354881Y-10623690D01*
X14364405Y-10614167D01*
X14383452Y-10604643D01*
X14412024Y-10604643D01*
X14431071Y-10614167D01*
X14440595Y-10623690D01*
X14450119Y-10642738D01*
X14450119Y-10699881D01*
X14440595Y-10718929D01*
X14431071Y-10728452D01*
X14412024Y-10737976D01*
X14383452Y-10737976D01*
X14564405Y-10737976D02*
X14545357Y-10728452D01*
X14535833Y-10709405D01*
X14535833Y-10537976D01*
X14716786Y-10728452D02*
X14697738Y-10737976D01*
X14659643Y-10737976D01*
X14640595Y-10728452D01*
X14631071Y-10709405D01*
X14631071Y-10633214D01*
X14640595Y-10614167D01*
X14659643Y-10604643D01*
X14697738Y-10604643D01*
X14716786Y-10614167D01*
X14726309Y-10633214D01*
X14726309Y-10652262D01*
X14631071Y-10671310D01*
X14802500Y-10728452D02*
X14821548Y-10737976D01*
X14859643Y-10737976D01*
X14878690Y-10728452D01*
X14888214Y-10709405D01*
X14888214Y-10699881D01*
X14878690Y-10680833D01*
X14859643Y-10671310D01*
X14831071Y-10671310D01*
X14812024Y-10661786D01*
X14802500Y-10642738D01*
X14802500Y-10633214D01*
X14812024Y-10614167D01*
X14831071Y-10604643D01*
X14859643Y-10604643D01*
X14878690Y-10614167D01*
X14954881Y-10814167D02*
X14964405Y-10804643D01*
X14983452Y-10776071D01*
X14992976Y-10757024D01*
X15002500Y-10728452D01*
X15012024Y-10680833D01*
X15012024Y-10642738D01*
X15002500Y-10595119D01*
X14992976Y-10566548D01*
X14983452Y-10547500D01*
X14964405Y-10518929D01*
X14954881Y-10509405D01*
D13*
X9992500Y-10911500D02*
G75*
G03*
X9992500Y-10911500I-40000J0D01*
G01*
D11*
X10288214Y-10801976D02*
X10307262Y-10801976D01*
X10326310Y-10811500D01*
X10335833Y-10821024D01*
X10345357Y-10840071D01*
X10354881Y-10878167D01*
X10354881Y-10925786D01*
X10345357Y-10963881D01*
X10335833Y-10982929D01*
X10326310Y-10992452D01*
X10307262Y-11001976D01*
X10288214Y-11001976D01*
X10269167Y-10992452D01*
X10259643Y-10982929D01*
X10250119Y-10963881D01*
X10240595Y-10925786D01*
X10240595Y-10878167D01*
X10250119Y-10840071D01*
X10259643Y-10821024D01*
X10269167Y-10811500D01*
X10288214Y-10801976D01*
X10440595Y-10982929D02*
X10450119Y-10992452D01*
X10440595Y-11001976D01*
X10431071Y-10992452D01*
X10440595Y-10982929D01*
X10440595Y-11001976D01*
X10564405Y-10887690D02*
X10545357Y-10878167D01*
X10535833Y-10868643D01*
X10526310Y-10849595D01*
X10526310Y-10840071D01*
X10535833Y-10821024D01*
X10545357Y-10811500D01*
X10564405Y-10801976D01*
X10602500Y-10801976D01*
X10621548Y-10811500D01*
X10631071Y-10821024D01*
X10640595Y-10840071D01*
X10640595Y-10849595D01*
X10631071Y-10868643D01*
X10621548Y-10878167D01*
X10602500Y-10887690D01*
X10564405Y-10887690D01*
X10545357Y-10897214D01*
X10535833Y-10906738D01*
X10526310Y-10925786D01*
X10526310Y-10963881D01*
X10535833Y-10982929D01*
X10545357Y-10992452D01*
X10564405Y-11001976D01*
X10602500Y-11001976D01*
X10621548Y-10992452D01*
X10631071Y-10982929D01*
X10640595Y-10963881D01*
X10640595Y-10925786D01*
X10631071Y-10906738D01*
X10621548Y-10897214D01*
X10602500Y-10887690D01*
X10764405Y-10801976D02*
X10783452Y-10801976D01*
X10802500Y-10811500D01*
X10812024Y-10821024D01*
X10821548Y-10840071D01*
X10831071Y-10878167D01*
X10831071Y-10925786D01*
X10821548Y-10963881D01*
X10812024Y-10982929D01*
X10802500Y-10992452D01*
X10783452Y-11001976D01*
X10764405Y-11001976D01*
X10745357Y-10992452D01*
X10735833Y-10982929D01*
X10726310Y-10963881D01*
X10716786Y-10925786D01*
X10716786Y-10878167D01*
X10726310Y-10840071D01*
X10735833Y-10821024D01*
X10745357Y-10811500D01*
X10764405Y-10801976D01*
X10954881Y-10801976D02*
X10973929Y-10801976D01*
X10992976Y-10811500D01*
X11002500Y-10821024D01*
X11012024Y-10840071D01*
X11021548Y-10878167D01*
X11021548Y-10925786D01*
X11012024Y-10963881D01*
X11002500Y-10982929D01*
X10992976Y-10992452D01*
X10973929Y-11001976D01*
X10954881Y-11001976D01*
X10935833Y-10992452D01*
X10926310Y-10982929D01*
X10916786Y-10963881D01*
X10907262Y-10925786D01*
X10907262Y-10878167D01*
X10916786Y-10840071D01*
X10926310Y-10821024D01*
X10935833Y-10811500D01*
X10954881Y-10801976D01*
X11107262Y-11001976D02*
X11107262Y-10868643D01*
X11107262Y-10887690D02*
X11116786Y-10878167D01*
X11135833Y-10868643D01*
X11164405Y-10868643D01*
X11183452Y-10878167D01*
X11192976Y-10897214D01*
X11192976Y-11001976D01*
X11192976Y-10897214D02*
X11202500Y-10878167D01*
X11221548Y-10868643D01*
X11250119Y-10868643D01*
X11269167Y-10878167D01*
X11278690Y-10897214D01*
X11278690Y-11001976D01*
X11373928Y-11001976D02*
X11373928Y-10868643D01*
X11373928Y-10887690D02*
X11383452Y-10878167D01*
X11402500Y-10868643D01*
X11431071Y-10868643D01*
X11450119Y-10878167D01*
X11459643Y-10897214D01*
X11459643Y-11001976D01*
X11459643Y-10897214D02*
X11469167Y-10878167D01*
X11488214Y-10868643D01*
X11516786Y-10868643D01*
X11535833Y-10878167D01*
X11545357Y-10897214D01*
X11545357Y-11001976D01*
X11935833Y-10792452D02*
X11764405Y-11049595D01*
X12192976Y-10801976D02*
X12212024Y-10801976D01*
X12231071Y-10811500D01*
X12240595Y-10821024D01*
X12250119Y-10840071D01*
X12259643Y-10878167D01*
X12259643Y-10925786D01*
X12250119Y-10963881D01*
X12240595Y-10982929D01*
X12231071Y-10992452D01*
X12212024Y-11001976D01*
X12192976Y-11001976D01*
X12173928Y-10992452D01*
X12164405Y-10982929D01*
X12154881Y-10963881D01*
X12145357Y-10925786D01*
X12145357Y-10878167D01*
X12154881Y-10840071D01*
X12164405Y-10821024D01*
X12173928Y-10811500D01*
X12192976Y-10801976D01*
X12345357Y-10982929D02*
X12354881Y-10992452D01*
X12345357Y-11001976D01*
X12335833Y-10992452D01*
X12345357Y-10982929D01*
X12345357Y-11001976D01*
X12478690Y-10801976D02*
X12497738Y-10801976D01*
X12516786Y-10811500D01*
X12526309Y-10821024D01*
X12535833Y-10840071D01*
X12545357Y-10878167D01*
X12545357Y-10925786D01*
X12535833Y-10963881D01*
X12526309Y-10982929D01*
X12516786Y-10992452D01*
X12497738Y-11001976D01*
X12478690Y-11001976D01*
X12459643Y-10992452D01*
X12450119Y-10982929D01*
X12440595Y-10963881D01*
X12431071Y-10925786D01*
X12431071Y-10878167D01*
X12440595Y-10840071D01*
X12450119Y-10821024D01*
X12459643Y-10811500D01*
X12478690Y-10801976D01*
X12612024Y-10801976D02*
X12735833Y-10801976D01*
X12669167Y-10878167D01*
X12697738Y-10878167D01*
X12716786Y-10887690D01*
X12726309Y-10897214D01*
X12735833Y-10916262D01*
X12735833Y-10963881D01*
X12726309Y-10982929D01*
X12716786Y-10992452D01*
X12697738Y-11001976D01*
X12640595Y-11001976D01*
X12621548Y-10992452D01*
X12612024Y-10982929D01*
X12926309Y-11001976D02*
X12812024Y-11001976D01*
X12869167Y-11001976D02*
X12869167Y-10801976D01*
X12850119Y-10830548D01*
X12831071Y-10849595D01*
X12812024Y-10859119D01*
X13107262Y-10801976D02*
X13012024Y-10801976D01*
X13002500Y-10897214D01*
X13012024Y-10887690D01*
X13031071Y-10878167D01*
X13078690Y-10878167D01*
X13097738Y-10887690D01*
X13107262Y-10897214D01*
X13116786Y-10916262D01*
X13116786Y-10963881D01*
X13107262Y-10982929D01*
X13097738Y-10992452D01*
X13078690Y-11001976D01*
X13031071Y-11001976D01*
X13012024Y-10992452D01*
X13002500Y-10982929D01*
X13192976Y-10801976D02*
X13192976Y-10840071D01*
X13269167Y-10801976D02*
X13269167Y-10840071D01*
X13564405Y-11078167D02*
X13554881Y-11068643D01*
X13535833Y-11040071D01*
X13526309Y-11021024D01*
X13516786Y-10992452D01*
X13507262Y-10944833D01*
X13507262Y-10906738D01*
X13516786Y-10859119D01*
X13526309Y-10830548D01*
X13535833Y-10811500D01*
X13554881Y-10782929D01*
X13564405Y-10773405D01*
X13669167Y-10887690D02*
X13650119Y-10878167D01*
X13640595Y-10868643D01*
X13631071Y-10849595D01*
X13631071Y-10840071D01*
X13640595Y-10821024D01*
X13650119Y-10811500D01*
X13669167Y-10801976D01*
X13707262Y-10801976D01*
X13726309Y-10811500D01*
X13735833Y-10821024D01*
X13745357Y-10840071D01*
X13745357Y-10849595D01*
X13735833Y-10868643D01*
X13726309Y-10878167D01*
X13707262Y-10887690D01*
X13669167Y-10887690D01*
X13650119Y-10897214D01*
X13640595Y-10906738D01*
X13631071Y-10925786D01*
X13631071Y-10963881D01*
X13640595Y-10982929D01*
X13650119Y-10992452D01*
X13669167Y-11001976D01*
X13707262Y-11001976D01*
X13726309Y-10992452D01*
X13735833Y-10982929D01*
X13745357Y-10963881D01*
X13745357Y-10925786D01*
X13735833Y-10906738D01*
X13726309Y-10897214D01*
X13707262Y-10887690D01*
X13983452Y-11001976D02*
X13983452Y-10801976D01*
X14069167Y-11001976D02*
X14069167Y-10897214D01*
X14059643Y-10878167D01*
X14040595Y-10868643D01*
X14012024Y-10868643D01*
X13992976Y-10878167D01*
X13983452Y-10887690D01*
X14192976Y-11001976D02*
X14173928Y-10992452D01*
X14164405Y-10982929D01*
X14154881Y-10963881D01*
X14154881Y-10906738D01*
X14164405Y-10887690D01*
X14173928Y-10878167D01*
X14192976Y-10868643D01*
X14221548Y-10868643D01*
X14240595Y-10878167D01*
X14250119Y-10887690D01*
X14259643Y-10906738D01*
X14259643Y-10963881D01*
X14250119Y-10982929D01*
X14240595Y-10992452D01*
X14221548Y-11001976D01*
X14192976Y-11001976D01*
X14373928Y-11001976D02*
X14354881Y-10992452D01*
X14345357Y-10973405D01*
X14345357Y-10801976D01*
X14526309Y-10992452D02*
X14507262Y-11001976D01*
X14469167Y-11001976D01*
X14450119Y-10992452D01*
X14440595Y-10973405D01*
X14440595Y-10897214D01*
X14450119Y-10878167D01*
X14469167Y-10868643D01*
X14507262Y-10868643D01*
X14526309Y-10878167D01*
X14535833Y-10897214D01*
X14535833Y-10916262D01*
X14440595Y-10935310D01*
X14612024Y-10992452D02*
X14631071Y-11001976D01*
X14669167Y-11001976D01*
X14688214Y-10992452D01*
X14697738Y-10973405D01*
X14697738Y-10963881D01*
X14688214Y-10944833D01*
X14669167Y-10935310D01*
X14640595Y-10935310D01*
X14621548Y-10925786D01*
X14612024Y-10906738D01*
X14612024Y-10897214D01*
X14621548Y-10878167D01*
X14640595Y-10868643D01*
X14669167Y-10868643D01*
X14688214Y-10878167D01*
X14764405Y-11078167D02*
X14773928Y-11068643D01*
X14792976Y-11040071D01*
X14802500Y-11021024D01*
X14812024Y-10992452D01*
X14821548Y-10944833D01*
X14821548Y-10906738D01*
X14812024Y-10859119D01*
X14802500Y-10830548D01*
X14792976Y-10811500D01*
X14773928Y-10782929D01*
X14764405Y-10773405D01*
D14*
X9947500Y-11130500D02*
X9947500Y-11220500D01*
X9902500Y-11175500D02*
X9992500Y-11175500D01*
D11*
X10288214Y-11065976D02*
X10307262Y-11065976D01*
X10326310Y-11075500D01*
X10335833Y-11085024D01*
X10345357Y-11104071D01*
X10354881Y-11142167D01*
X10354881Y-11189786D01*
X10345357Y-11227881D01*
X10335833Y-11246928D01*
X10326310Y-11256452D01*
X10307262Y-11265976D01*
X10288214Y-11265976D01*
X10269167Y-11256452D01*
X10259643Y-11246928D01*
X10250119Y-11227881D01*
X10240595Y-11189786D01*
X10240595Y-11142167D01*
X10250119Y-11104071D01*
X10259643Y-11085024D01*
X10269167Y-11075500D01*
X10288214Y-11065976D01*
X10440595Y-11246928D02*
X10450119Y-11256452D01*
X10440595Y-11265976D01*
X10431071Y-11256452D01*
X10440595Y-11246928D01*
X10440595Y-11265976D01*
X10545357Y-11265976D02*
X10583452Y-11265976D01*
X10602500Y-11256452D01*
X10612024Y-11246928D01*
X10631071Y-11218357D01*
X10640595Y-11180262D01*
X10640595Y-11104071D01*
X10631071Y-11085024D01*
X10621548Y-11075500D01*
X10602500Y-11065976D01*
X10564405Y-11065976D01*
X10545357Y-11075500D01*
X10535833Y-11085024D01*
X10526310Y-11104071D01*
X10526310Y-11151690D01*
X10535833Y-11170738D01*
X10545357Y-11180262D01*
X10564405Y-11189786D01*
X10602500Y-11189786D01*
X10621548Y-11180262D01*
X10631071Y-11170738D01*
X10640595Y-11151690D01*
X10764405Y-11065976D02*
X10783452Y-11065976D01*
X10802500Y-11075500D01*
X10812024Y-11085024D01*
X10821548Y-11104071D01*
X10831071Y-11142167D01*
X10831071Y-11189786D01*
X10821548Y-11227881D01*
X10812024Y-11246928D01*
X10802500Y-11256452D01*
X10783452Y-11265976D01*
X10764405Y-11265976D01*
X10745357Y-11256452D01*
X10735833Y-11246928D01*
X10726310Y-11227881D01*
X10716786Y-11189786D01*
X10716786Y-11142167D01*
X10726310Y-11104071D01*
X10735833Y-11085024D01*
X10745357Y-11075500D01*
X10764405Y-11065976D01*
X10954881Y-11065976D02*
X10973929Y-11065976D01*
X10992976Y-11075500D01*
X11002500Y-11085024D01*
X11012024Y-11104071D01*
X11021548Y-11142167D01*
X11021548Y-11189786D01*
X11012024Y-11227881D01*
X11002500Y-11246928D01*
X10992976Y-11256452D01*
X10973929Y-11265976D01*
X10954881Y-11265976D01*
X10935833Y-11256452D01*
X10926310Y-11246928D01*
X10916786Y-11227881D01*
X10907262Y-11189786D01*
X10907262Y-11142167D01*
X10916786Y-11104071D01*
X10926310Y-11085024D01*
X10935833Y-11075500D01*
X10954881Y-11065976D01*
X11107262Y-11265976D02*
X11107262Y-11132643D01*
X11107262Y-11151690D02*
X11116786Y-11142167D01*
X11135833Y-11132643D01*
X11164405Y-11132643D01*
X11183452Y-11142167D01*
X11192976Y-11161214D01*
X11192976Y-11265976D01*
X11192976Y-11161214D02*
X11202500Y-11142167D01*
X11221548Y-11132643D01*
X11250119Y-11132643D01*
X11269167Y-11142167D01*
X11278690Y-11161214D01*
X11278690Y-11265976D01*
X11373928Y-11265976D02*
X11373928Y-11132643D01*
X11373928Y-11151690D02*
X11383452Y-11142167D01*
X11402500Y-11132643D01*
X11431071Y-11132643D01*
X11450119Y-11142167D01*
X11459643Y-11161214D01*
X11459643Y-11265976D01*
X11459643Y-11161214D02*
X11469167Y-11142167D01*
X11488214Y-11132643D01*
X11516786Y-11132643D01*
X11535833Y-11142167D01*
X11545357Y-11161214D01*
X11545357Y-11265976D01*
X11935833Y-11056452D02*
X11764405Y-11313595D01*
X12192976Y-11065976D02*
X12212024Y-11065976D01*
X12231071Y-11075500D01*
X12240595Y-11085024D01*
X12250119Y-11104071D01*
X12259643Y-11142167D01*
X12259643Y-11189786D01*
X12250119Y-11227881D01*
X12240595Y-11246928D01*
X12231071Y-11256452D01*
X12212024Y-11265976D01*
X12192976Y-11265976D01*
X12173928Y-11256452D01*
X12164405Y-11246928D01*
X12154881Y-11227881D01*
X12145357Y-11189786D01*
X12145357Y-11142167D01*
X12154881Y-11104071D01*
X12164405Y-11085024D01*
X12173928Y-11075500D01*
X12192976Y-11065976D01*
X12345357Y-11246928D02*
X12354881Y-11256452D01*
X12345357Y-11265976D01*
X12335833Y-11256452D01*
X12345357Y-11246928D01*
X12345357Y-11265976D01*
X12478690Y-11065976D02*
X12497738Y-11065976D01*
X12516786Y-11075500D01*
X12526309Y-11085024D01*
X12535833Y-11104071D01*
X12545357Y-11142167D01*
X12545357Y-11189786D01*
X12535833Y-11227881D01*
X12526309Y-11246928D01*
X12516786Y-11256452D01*
X12497738Y-11265976D01*
X12478690Y-11265976D01*
X12459643Y-11256452D01*
X12450119Y-11246928D01*
X12440595Y-11227881D01*
X12431071Y-11189786D01*
X12431071Y-11142167D01*
X12440595Y-11104071D01*
X12450119Y-11085024D01*
X12459643Y-11075500D01*
X12478690Y-11065976D01*
X12612024Y-11065976D02*
X12735833Y-11065976D01*
X12669167Y-11142167D01*
X12697738Y-11142167D01*
X12716786Y-11151690D01*
X12726309Y-11161214D01*
X12735833Y-11180262D01*
X12735833Y-11227881D01*
X12726309Y-11246928D01*
X12716786Y-11256452D01*
X12697738Y-11265976D01*
X12640595Y-11265976D01*
X12621548Y-11256452D01*
X12612024Y-11246928D01*
X12916786Y-11065976D02*
X12821548Y-11065976D01*
X12812024Y-11161214D01*
X12821548Y-11151690D01*
X12840595Y-11142167D01*
X12888214Y-11142167D01*
X12907262Y-11151690D01*
X12916786Y-11161214D01*
X12926309Y-11180262D01*
X12926309Y-11227881D01*
X12916786Y-11246928D01*
X12907262Y-11256452D01*
X12888214Y-11265976D01*
X12840595Y-11265976D01*
X12821548Y-11256452D01*
X12812024Y-11246928D01*
X13097738Y-11132643D02*
X13097738Y-11265976D01*
X13050119Y-11056452D02*
X13002500Y-11199309D01*
X13126309Y-11199309D01*
X13192976Y-11065976D02*
X13192976Y-11104071D01*
X13269167Y-11065976D02*
X13269167Y-11104071D01*
X13564405Y-11342167D02*
X13554881Y-11332643D01*
X13535833Y-11304071D01*
X13526309Y-11285024D01*
X13516786Y-11256452D01*
X13507262Y-11208833D01*
X13507262Y-11170738D01*
X13516786Y-11123119D01*
X13526309Y-11094548D01*
X13535833Y-11075500D01*
X13554881Y-11046929D01*
X13564405Y-11037405D01*
X13621548Y-11065976D02*
X13745357Y-11065976D01*
X13678690Y-11142167D01*
X13707262Y-11142167D01*
X13726309Y-11151690D01*
X13735833Y-11161214D01*
X13745357Y-11180262D01*
X13745357Y-11227881D01*
X13735833Y-11246928D01*
X13726309Y-11256452D01*
X13707262Y-11265976D01*
X13650119Y-11265976D01*
X13631071Y-11256452D01*
X13621548Y-11246928D01*
X13983452Y-11265976D02*
X13983452Y-11065976D01*
X14069167Y-11265976D02*
X14069167Y-11161214D01*
X14059643Y-11142167D01*
X14040595Y-11132643D01*
X14012024Y-11132643D01*
X13992976Y-11142167D01*
X13983452Y-11151690D01*
X14192976Y-11265976D02*
X14173928Y-11256452D01*
X14164405Y-11246928D01*
X14154881Y-11227881D01*
X14154881Y-11170738D01*
X14164405Y-11151690D01*
X14173928Y-11142167D01*
X14192976Y-11132643D01*
X14221548Y-11132643D01*
X14240595Y-11142167D01*
X14250119Y-11151690D01*
X14259643Y-11170738D01*
X14259643Y-11227881D01*
X14250119Y-11246928D01*
X14240595Y-11256452D01*
X14221548Y-11265976D01*
X14192976Y-11265976D01*
X14373928Y-11265976D02*
X14354881Y-11256452D01*
X14345357Y-11237405D01*
X14345357Y-11065976D01*
X14526309Y-11256452D02*
X14507262Y-11265976D01*
X14469167Y-11265976D01*
X14450119Y-11256452D01*
X14440595Y-11237405D01*
X14440595Y-11161214D01*
X14450119Y-11142167D01*
X14469167Y-11132643D01*
X14507262Y-11132643D01*
X14526309Y-11142167D01*
X14535833Y-11161214D01*
X14535833Y-11180262D01*
X14440595Y-11199309D01*
X14612024Y-11256452D02*
X14631071Y-11265976D01*
X14669167Y-11265976D01*
X14688214Y-11256452D01*
X14697738Y-11237405D01*
X14697738Y-11227881D01*
X14688214Y-11208833D01*
X14669167Y-11199309D01*
X14640595Y-11199309D01*
X14621548Y-11189786D01*
X14612024Y-11170738D01*
X14612024Y-11161214D01*
X14621548Y-11142167D01*
X14640595Y-11132643D01*
X14669167Y-11132643D01*
X14688214Y-11142167D01*
X14764405Y-11342167D02*
X14773928Y-11332643D01*
X14792976Y-11304071D01*
X14802500Y-11285024D01*
X14812024Y-11256452D01*
X14821548Y-11208833D01*
X14821548Y-11170738D01*
X14812024Y-11123119D01*
X14802500Y-11094548D01*
X14792976Y-11075500D01*
X14773928Y-11046929D01*
X14764405Y-11037405D01*
D15*
X9977856Y-11474856D02*
X9977856Y-11404144D01*
X9907144Y-11404144D01*
X9907144Y-11474856D01*
X9977856Y-11474856D01*
D11*
X10354881Y-11529976D02*
X10240595Y-11529976D01*
X10297738Y-11529976D02*
X10297738Y-11329976D01*
X10278690Y-11358548D01*
X10259643Y-11377595D01*
X10240595Y-11387119D01*
X10440595Y-11510928D02*
X10450119Y-11520452D01*
X10440595Y-11529976D01*
X10431071Y-11520452D01*
X10440595Y-11510928D01*
X10440595Y-11529976D01*
X10573929Y-11329976D02*
X10592976Y-11329976D01*
X10612024Y-11339500D01*
X10621548Y-11349024D01*
X10631071Y-11368071D01*
X10640595Y-11406167D01*
X10640595Y-11453786D01*
X10631071Y-11491881D01*
X10621548Y-11510928D01*
X10612024Y-11520452D01*
X10592976Y-11529976D01*
X10573929Y-11529976D01*
X10554881Y-11520452D01*
X10545357Y-11510928D01*
X10535833Y-11491881D01*
X10526310Y-11453786D01*
X10526310Y-11406167D01*
X10535833Y-11368071D01*
X10545357Y-11349024D01*
X10554881Y-11339500D01*
X10573929Y-11329976D01*
X10764405Y-11329976D02*
X10783452Y-11329976D01*
X10802500Y-11339500D01*
X10812024Y-11349024D01*
X10821548Y-11368071D01*
X10831071Y-11406167D01*
X10831071Y-11453786D01*
X10821548Y-11491881D01*
X10812024Y-11510928D01*
X10802500Y-11520452D01*
X10783452Y-11529976D01*
X10764405Y-11529976D01*
X10745357Y-11520452D01*
X10735833Y-11510928D01*
X10726310Y-11491881D01*
X10716786Y-11453786D01*
X10716786Y-11406167D01*
X10726310Y-11368071D01*
X10735833Y-11349024D01*
X10745357Y-11339500D01*
X10764405Y-11329976D01*
X10954881Y-11329976D02*
X10973929Y-11329976D01*
X10992976Y-11339500D01*
X11002500Y-11349024D01*
X11012024Y-11368071D01*
X11021548Y-11406167D01*
X11021548Y-11453786D01*
X11012024Y-11491881D01*
X11002500Y-11510928D01*
X10992976Y-11520452D01*
X10973929Y-11529976D01*
X10954881Y-11529976D01*
X10935833Y-11520452D01*
X10926310Y-11510928D01*
X10916786Y-11491881D01*
X10907262Y-11453786D01*
X10907262Y-11406167D01*
X10916786Y-11368071D01*
X10926310Y-11349024D01*
X10935833Y-11339500D01*
X10954881Y-11329976D01*
X11107262Y-11529976D02*
X11107262Y-11396643D01*
X11107262Y-11415690D02*
X11116786Y-11406167D01*
X11135833Y-11396643D01*
X11164405Y-11396643D01*
X11183452Y-11406167D01*
X11192976Y-11425214D01*
X11192976Y-11529976D01*
X11192976Y-11425214D02*
X11202500Y-11406167D01*
X11221548Y-11396643D01*
X11250119Y-11396643D01*
X11269167Y-11406167D01*
X11278690Y-11425214D01*
X11278690Y-11529976D01*
X11373928Y-11529976D02*
X11373928Y-11396643D01*
X11373928Y-11415690D02*
X11383452Y-11406167D01*
X11402500Y-11396643D01*
X11431071Y-11396643D01*
X11450119Y-11406167D01*
X11459643Y-11425214D01*
X11459643Y-11529976D01*
X11459643Y-11425214D02*
X11469167Y-11406167D01*
X11488214Y-11396643D01*
X11516786Y-11396643D01*
X11535833Y-11406167D01*
X11545357Y-11425214D01*
X11545357Y-11529976D01*
X11935833Y-11320452D02*
X11764405Y-11577595D01*
X12192976Y-11329976D02*
X12212024Y-11329976D01*
X12231071Y-11339500D01*
X12240595Y-11349024D01*
X12250119Y-11368071D01*
X12259643Y-11406167D01*
X12259643Y-11453786D01*
X12250119Y-11491881D01*
X12240595Y-11510928D01*
X12231071Y-11520452D01*
X12212024Y-11529976D01*
X12192976Y-11529976D01*
X12173928Y-11520452D01*
X12164405Y-11510928D01*
X12154881Y-11491881D01*
X12145357Y-11453786D01*
X12145357Y-11406167D01*
X12154881Y-11368071D01*
X12164405Y-11349024D01*
X12173928Y-11339500D01*
X12192976Y-11329976D01*
X12345357Y-11510928D02*
X12354881Y-11520452D01*
X12345357Y-11529976D01*
X12335833Y-11520452D01*
X12345357Y-11510928D01*
X12345357Y-11529976D01*
X12478690Y-11329976D02*
X12497738Y-11329976D01*
X12516786Y-11339500D01*
X12526309Y-11349024D01*
X12535833Y-11368071D01*
X12545357Y-11406167D01*
X12545357Y-11453786D01*
X12535833Y-11491881D01*
X12526309Y-11510928D01*
X12516786Y-11520452D01*
X12497738Y-11529976D01*
X12478690Y-11529976D01*
X12459643Y-11520452D01*
X12450119Y-11510928D01*
X12440595Y-11491881D01*
X12431071Y-11453786D01*
X12431071Y-11406167D01*
X12440595Y-11368071D01*
X12450119Y-11349024D01*
X12459643Y-11339500D01*
X12478690Y-11329976D01*
X12612024Y-11329976D02*
X12735833Y-11329976D01*
X12669167Y-11406167D01*
X12697738Y-11406167D01*
X12716786Y-11415690D01*
X12726309Y-11425214D01*
X12735833Y-11444262D01*
X12735833Y-11491881D01*
X12726309Y-11510928D01*
X12716786Y-11520452D01*
X12697738Y-11529976D01*
X12640595Y-11529976D01*
X12621548Y-11520452D01*
X12612024Y-11510928D01*
X12831071Y-11529976D02*
X12869167Y-11529976D01*
X12888214Y-11520452D01*
X12897738Y-11510928D01*
X12916786Y-11482357D01*
X12926309Y-11444262D01*
X12926309Y-11368071D01*
X12916786Y-11349024D01*
X12907262Y-11339500D01*
X12888214Y-11329976D01*
X12850119Y-11329976D01*
X12831071Y-11339500D01*
X12821548Y-11349024D01*
X12812024Y-11368071D01*
X12812024Y-11415690D01*
X12821548Y-11434738D01*
X12831071Y-11444262D01*
X12850119Y-11453786D01*
X12888214Y-11453786D01*
X12907262Y-11444262D01*
X12916786Y-11434738D01*
X12926309Y-11415690D01*
X13097738Y-11396643D02*
X13097738Y-11529976D01*
X13050119Y-11320452D02*
X13002500Y-11463309D01*
X13126309Y-11463309D01*
X13192976Y-11329976D02*
X13192976Y-11368071D01*
X13269167Y-11329976D02*
X13269167Y-11368071D01*
X13564405Y-11606167D02*
X13554881Y-11596643D01*
X13535833Y-11568071D01*
X13526309Y-11549024D01*
X13516786Y-11520452D01*
X13507262Y-11472833D01*
X13507262Y-11434738D01*
X13516786Y-11387119D01*
X13526309Y-11358548D01*
X13535833Y-11339500D01*
X13554881Y-11310928D01*
X13564405Y-11301405D01*
X13669167Y-11415690D02*
X13650119Y-11406167D01*
X13640595Y-11396643D01*
X13631071Y-11377595D01*
X13631071Y-11368071D01*
X13640595Y-11349024D01*
X13650119Y-11339500D01*
X13669167Y-11329976D01*
X13707262Y-11329976D01*
X13726309Y-11339500D01*
X13735833Y-11349024D01*
X13745357Y-11368071D01*
X13745357Y-11377595D01*
X13735833Y-11396643D01*
X13726309Y-11406167D01*
X13707262Y-11415690D01*
X13669167Y-11415690D01*
X13650119Y-11425214D01*
X13640595Y-11434738D01*
X13631071Y-11453786D01*
X13631071Y-11491881D01*
X13640595Y-11510928D01*
X13650119Y-11520452D01*
X13669167Y-11529976D01*
X13707262Y-11529976D01*
X13726309Y-11520452D01*
X13735833Y-11510928D01*
X13745357Y-11491881D01*
X13745357Y-11453786D01*
X13735833Y-11434738D01*
X13726309Y-11425214D01*
X13707262Y-11415690D01*
X13916786Y-11329976D02*
X13878690Y-11329976D01*
X13859643Y-11339500D01*
X13850119Y-11349024D01*
X13831071Y-11377595D01*
X13821548Y-11415690D01*
X13821548Y-11491881D01*
X13831071Y-11510928D01*
X13840595Y-11520452D01*
X13859643Y-11529976D01*
X13897738Y-11529976D01*
X13916786Y-11520452D01*
X13926309Y-11510928D01*
X13935833Y-11491881D01*
X13935833Y-11444262D01*
X13926309Y-11425214D01*
X13916786Y-11415690D01*
X13897738Y-11406167D01*
X13859643Y-11406167D01*
X13840595Y-11415690D01*
X13831071Y-11425214D01*
X13821548Y-11444262D01*
X14173928Y-11529976D02*
X14173928Y-11329976D01*
X14259643Y-11529976D02*
X14259643Y-11425214D01*
X14250119Y-11406167D01*
X14231071Y-11396643D01*
X14202500Y-11396643D01*
X14183452Y-11406167D01*
X14173928Y-11415690D01*
X14383452Y-11529976D02*
X14364405Y-11520452D01*
X14354881Y-11510928D01*
X14345357Y-11491881D01*
X14345357Y-11434738D01*
X14354881Y-11415690D01*
X14364405Y-11406167D01*
X14383452Y-11396643D01*
X14412024Y-11396643D01*
X14431071Y-11406167D01*
X14440595Y-11415690D01*
X14450119Y-11434738D01*
X14450119Y-11491881D01*
X14440595Y-11510928D01*
X14431071Y-11520452D01*
X14412024Y-11529976D01*
X14383452Y-11529976D01*
X14564405Y-11529976D02*
X14545357Y-11520452D01*
X14535833Y-11501405D01*
X14535833Y-11329976D01*
X14716786Y-11520452D02*
X14697738Y-11529976D01*
X14659643Y-11529976D01*
X14640595Y-11520452D01*
X14631071Y-11501405D01*
X14631071Y-11425214D01*
X14640595Y-11406167D01*
X14659643Y-11396643D01*
X14697738Y-11396643D01*
X14716786Y-11406167D01*
X14726309Y-11425214D01*
X14726309Y-11444262D01*
X14631071Y-11463309D01*
X14802500Y-11520452D02*
X14821548Y-11529976D01*
X14859643Y-11529976D01*
X14878690Y-11520452D01*
X14888214Y-11501405D01*
X14888214Y-11491881D01*
X14878690Y-11472833D01*
X14859643Y-11463309D01*
X14831071Y-11463309D01*
X14812024Y-11453786D01*
X14802500Y-11434738D01*
X14802500Y-11425214D01*
X14812024Y-11406167D01*
X14831071Y-11396643D01*
X14859643Y-11396643D01*
X14878690Y-11406167D01*
X14954881Y-11606167D02*
X14964405Y-11596643D01*
X14983452Y-11568071D01*
X14992976Y-11549024D01*
X15002500Y-11520452D01*
X15012024Y-11472833D01*
X15012024Y-11434738D01*
X15002500Y-11387119D01*
X14992976Y-11358548D01*
X14983452Y-11339500D01*
X14964405Y-11310928D01*
X14954881Y-11301405D01*
D16*
X9937500Y-11758500D02*
X9992500Y-11703500D01*
X9937500Y-11648500D01*
X9882500Y-11703500D01*
X9937500Y-11758500D01*
D11*
X10354881Y-11793976D02*
X10240595Y-11793976D01*
X10297738Y-11793976D02*
X10297738Y-11593976D01*
X10278690Y-11622548D01*
X10259643Y-11641595D01*
X10240595Y-11651119D01*
X10440595Y-11774928D02*
X10450119Y-11784452D01*
X10440595Y-11793976D01*
X10431071Y-11784452D01*
X10440595Y-11774928D01*
X10440595Y-11793976D01*
X10640595Y-11793976D02*
X10526310Y-11793976D01*
X10583452Y-11793976D02*
X10583452Y-11593976D01*
X10564405Y-11622548D01*
X10545357Y-11641595D01*
X10526310Y-11651119D01*
X10764405Y-11593976D02*
X10783452Y-11593976D01*
X10802500Y-11603500D01*
X10812024Y-11613024D01*
X10821548Y-11632071D01*
X10831071Y-11670167D01*
X10831071Y-11717786D01*
X10821548Y-11755881D01*
X10812024Y-11774928D01*
X10802500Y-11784452D01*
X10783452Y-11793976D01*
X10764405Y-11793976D01*
X10745357Y-11784452D01*
X10735833Y-11774928D01*
X10726310Y-11755881D01*
X10716786Y-11717786D01*
X10716786Y-11670167D01*
X10726310Y-11632071D01*
X10735833Y-11613024D01*
X10745357Y-11603500D01*
X10764405Y-11593976D01*
X10954881Y-11593976D02*
X10973929Y-11593976D01*
X10992976Y-11603500D01*
X11002500Y-11613024D01*
X11012024Y-11632071D01*
X11021548Y-11670167D01*
X11021548Y-11717786D01*
X11012024Y-11755881D01*
X11002500Y-11774928D01*
X10992976Y-11784452D01*
X10973929Y-11793976D01*
X10954881Y-11793976D01*
X10935833Y-11784452D01*
X10926310Y-11774928D01*
X10916786Y-11755881D01*
X10907262Y-11717786D01*
X10907262Y-11670167D01*
X10916786Y-11632071D01*
X10926310Y-11613024D01*
X10935833Y-11603500D01*
X10954881Y-11593976D01*
X11107262Y-11793976D02*
X11107262Y-11660643D01*
X11107262Y-11679690D02*
X11116786Y-11670167D01*
X11135833Y-11660643D01*
X11164405Y-11660643D01*
X11183452Y-11670167D01*
X11192976Y-11689214D01*
X11192976Y-11793976D01*
X11192976Y-11689214D02*
X11202500Y-11670167D01*
X11221548Y-11660643D01*
X11250119Y-11660643D01*
X11269167Y-11670167D01*
X11278690Y-11689214D01*
X11278690Y-11793976D01*
X11373928Y-11793976D02*
X11373928Y-11660643D01*
X11373928Y-11679690D02*
X11383452Y-11670167D01*
X11402500Y-11660643D01*
X11431071Y-11660643D01*
X11450119Y-11670167D01*
X11459643Y-11689214D01*
X11459643Y-11793976D01*
X11459643Y-11689214D02*
X11469167Y-11670167D01*
X11488214Y-11660643D01*
X11516786Y-11660643D01*
X11535833Y-11670167D01*
X11545357Y-11689214D01*
X11545357Y-11793976D01*
X11935833Y-11584452D02*
X11764405Y-11841595D01*
X12192976Y-11593976D02*
X12212024Y-11593976D01*
X12231071Y-11603500D01*
X12240595Y-11613024D01*
X12250119Y-11632071D01*
X12259643Y-11670167D01*
X12259643Y-11717786D01*
X12250119Y-11755881D01*
X12240595Y-11774928D01*
X12231071Y-11784452D01*
X12212024Y-11793976D01*
X12192976Y-11793976D01*
X12173928Y-11784452D01*
X12164405Y-11774928D01*
X12154881Y-11755881D01*
X12145357Y-11717786D01*
X12145357Y-11670167D01*
X12154881Y-11632071D01*
X12164405Y-11613024D01*
X12173928Y-11603500D01*
X12192976Y-11593976D01*
X12345357Y-11774928D02*
X12354881Y-11784452D01*
X12345357Y-11793976D01*
X12335833Y-11784452D01*
X12345357Y-11774928D01*
X12345357Y-11793976D01*
X12478690Y-11593976D02*
X12497738Y-11593976D01*
X12516786Y-11603500D01*
X12526309Y-11613024D01*
X12535833Y-11632071D01*
X12545357Y-11670167D01*
X12545357Y-11717786D01*
X12535833Y-11755881D01*
X12526309Y-11774928D01*
X12516786Y-11784452D01*
X12497738Y-11793976D01*
X12478690Y-11793976D01*
X12459643Y-11784452D01*
X12450119Y-11774928D01*
X12440595Y-11755881D01*
X12431071Y-11717786D01*
X12431071Y-11670167D01*
X12440595Y-11632071D01*
X12450119Y-11613024D01*
X12459643Y-11603500D01*
X12478690Y-11593976D01*
X12716786Y-11660643D02*
X12716786Y-11793976D01*
X12669167Y-11584452D02*
X12621548Y-11727309D01*
X12745357Y-11727309D01*
X12802500Y-11593976D02*
X12926309Y-11593976D01*
X12859643Y-11670167D01*
X12888214Y-11670167D01*
X12907262Y-11679690D01*
X12916786Y-11689214D01*
X12926309Y-11708262D01*
X12926309Y-11755881D01*
X12916786Y-11774928D01*
X12907262Y-11784452D01*
X12888214Y-11793976D01*
X12831071Y-11793976D01*
X12812024Y-11784452D01*
X12802500Y-11774928D01*
X12992976Y-11593976D02*
X13116786Y-11593976D01*
X13050119Y-11670167D01*
X13078690Y-11670167D01*
X13097738Y-11679690D01*
X13107262Y-11689214D01*
X13116786Y-11708262D01*
X13116786Y-11755881D01*
X13107262Y-11774928D01*
X13097738Y-11784452D01*
X13078690Y-11793976D01*
X13021548Y-11793976D01*
X13002500Y-11784452D01*
X12992976Y-11774928D01*
X13192976Y-11593976D02*
X13192976Y-11632071D01*
X13269167Y-11593976D02*
X13269167Y-11632071D01*
X13564405Y-11870167D02*
X13554881Y-11860643D01*
X13535833Y-11832071D01*
X13526309Y-11813024D01*
X13516786Y-11784452D01*
X13507262Y-11736833D01*
X13507262Y-11698738D01*
X13516786Y-11651119D01*
X13526309Y-11622548D01*
X13535833Y-11603500D01*
X13554881Y-11574928D01*
X13564405Y-11565405D01*
X13631071Y-11613024D02*
X13640595Y-11603500D01*
X13659643Y-11593976D01*
X13707262Y-11593976D01*
X13726309Y-11603500D01*
X13735833Y-11613024D01*
X13745357Y-11632071D01*
X13745357Y-11651119D01*
X13735833Y-11679690D01*
X13621548Y-11793976D01*
X13745357Y-11793976D01*
X13869167Y-11593976D02*
X13888214Y-11593976D01*
X13907262Y-11603500D01*
X13916786Y-11613024D01*
X13926309Y-11632071D01*
X13935833Y-11670167D01*
X13935833Y-11717786D01*
X13926309Y-11755881D01*
X13916786Y-11774928D01*
X13907262Y-11784452D01*
X13888214Y-11793976D01*
X13869167Y-11793976D01*
X13850119Y-11784452D01*
X13840595Y-11774928D01*
X13831071Y-11755881D01*
X13821548Y-11717786D01*
X13821548Y-11670167D01*
X13831071Y-11632071D01*
X13840595Y-11613024D01*
X13850119Y-11603500D01*
X13869167Y-11593976D01*
X14173928Y-11793976D02*
X14173928Y-11593976D01*
X14259643Y-11793976D02*
X14259643Y-11689214D01*
X14250119Y-11670167D01*
X14231071Y-11660643D01*
X14202500Y-11660643D01*
X14183452Y-11670167D01*
X14173928Y-11679690D01*
X14383452Y-11793976D02*
X14364405Y-11784452D01*
X14354881Y-11774928D01*
X14345357Y-11755881D01*
X14345357Y-11698738D01*
X14354881Y-11679690D01*
X14364405Y-11670167D01*
X14383452Y-11660643D01*
X14412024Y-11660643D01*
X14431071Y-11670167D01*
X14440595Y-11679690D01*
X14450119Y-11698738D01*
X14450119Y-11755881D01*
X14440595Y-11774928D01*
X14431071Y-11784452D01*
X14412024Y-11793976D01*
X14383452Y-11793976D01*
X14564405Y-11793976D02*
X14545357Y-11784452D01*
X14535833Y-11765405D01*
X14535833Y-11593976D01*
X14716786Y-11784452D02*
X14697738Y-11793976D01*
X14659643Y-11793976D01*
X14640595Y-11784452D01*
X14631071Y-11765405D01*
X14631071Y-11689214D01*
X14640595Y-11670167D01*
X14659643Y-11660643D01*
X14697738Y-11660643D01*
X14716786Y-11670167D01*
X14726309Y-11689214D01*
X14726309Y-11708262D01*
X14631071Y-11727309D01*
X14802500Y-11784452D02*
X14821548Y-11793976D01*
X14859643Y-11793976D01*
X14878690Y-11784452D01*
X14888214Y-11765405D01*
X14888214Y-11755881D01*
X14878690Y-11736833D01*
X14859643Y-11727309D01*
X14831071Y-11727309D01*
X14812024Y-11717786D01*
X14802500Y-11698738D01*
X14802500Y-11689214D01*
X14812024Y-11670167D01*
X14831071Y-11660643D01*
X14859643Y-11660643D01*
X14878690Y-11670167D01*
X14954881Y-11870167D02*
X14964405Y-11860643D01*
X14983452Y-11832071D01*
X14992976Y-11813024D01*
X15002500Y-11784452D01*
X15012024Y-11736833D01*
X15012024Y-11698738D01*
X15002500Y-11651119D01*
X14992976Y-11622548D01*
X14983452Y-11603500D01*
X14964405Y-11574928D01*
X14954881Y-11565405D01*
D17*
X9872500Y-11907500D02*
X9992500Y-12027500D01*
X9992500Y-11907500D02*
X9872500Y-12027500D01*
X9992500Y-11967500D02*
G75*
G03*
X9992500Y-11967500I-60000J0D01*
G01*
D11*
X10354881Y-12057976D02*
X10240595Y-12057976D01*
X10297738Y-12057976D02*
X10297738Y-11857976D01*
X10278690Y-11886548D01*
X10259643Y-11905595D01*
X10240595Y-11915119D01*
X10440595Y-12038928D02*
X10450119Y-12048452D01*
X10440595Y-12057976D01*
X10431071Y-12048452D01*
X10440595Y-12038928D01*
X10440595Y-12057976D01*
X10526310Y-11877024D02*
X10535833Y-11867500D01*
X10554881Y-11857976D01*
X10602500Y-11857976D01*
X10621548Y-11867500D01*
X10631071Y-11877024D01*
X10640595Y-11896071D01*
X10640595Y-11915119D01*
X10631071Y-11943690D01*
X10516786Y-12057976D01*
X10640595Y-12057976D01*
X10764405Y-11857976D02*
X10783452Y-11857976D01*
X10802500Y-11867500D01*
X10812024Y-11877024D01*
X10821548Y-11896071D01*
X10831071Y-11934167D01*
X10831071Y-11981786D01*
X10821548Y-12019881D01*
X10812024Y-12038928D01*
X10802500Y-12048452D01*
X10783452Y-12057976D01*
X10764405Y-12057976D01*
X10745357Y-12048452D01*
X10735833Y-12038928D01*
X10726310Y-12019881D01*
X10716786Y-11981786D01*
X10716786Y-11934167D01*
X10726310Y-11896071D01*
X10735833Y-11877024D01*
X10745357Y-11867500D01*
X10764405Y-11857976D01*
X10954881Y-11857976D02*
X10973929Y-11857976D01*
X10992976Y-11867500D01*
X11002500Y-11877024D01*
X11012024Y-11896071D01*
X11021548Y-11934167D01*
X11021548Y-11981786D01*
X11012024Y-12019881D01*
X11002500Y-12038928D01*
X10992976Y-12048452D01*
X10973929Y-12057976D01*
X10954881Y-12057976D01*
X10935833Y-12048452D01*
X10926310Y-12038928D01*
X10916786Y-12019881D01*
X10907262Y-11981786D01*
X10907262Y-11934167D01*
X10916786Y-11896071D01*
X10926310Y-11877024D01*
X10935833Y-11867500D01*
X10954881Y-11857976D01*
X11107262Y-12057976D02*
X11107262Y-11924643D01*
X11107262Y-11943690D02*
X11116786Y-11934167D01*
X11135833Y-11924643D01*
X11164405Y-11924643D01*
X11183452Y-11934167D01*
X11192976Y-11953214D01*
X11192976Y-12057976D01*
X11192976Y-11953214D02*
X11202500Y-11934167D01*
X11221548Y-11924643D01*
X11250119Y-11924643D01*
X11269167Y-11934167D01*
X11278690Y-11953214D01*
X11278690Y-12057976D01*
X11373928Y-12057976D02*
X11373928Y-11924643D01*
X11373928Y-11943690D02*
X11383452Y-11934167D01*
X11402500Y-11924643D01*
X11431071Y-11924643D01*
X11450119Y-11934167D01*
X11459643Y-11953214D01*
X11459643Y-12057976D01*
X11459643Y-11953214D02*
X11469167Y-11934167D01*
X11488214Y-11924643D01*
X11516786Y-11924643D01*
X11535833Y-11934167D01*
X11545357Y-11953214D01*
X11545357Y-12057976D01*
X11935833Y-11848452D02*
X11764405Y-12105595D01*
X12192976Y-11857976D02*
X12212024Y-11857976D01*
X12231071Y-11867500D01*
X12240595Y-11877024D01*
X12250119Y-11896071D01*
X12259643Y-11934167D01*
X12259643Y-11981786D01*
X12250119Y-12019881D01*
X12240595Y-12038928D01*
X12231071Y-12048452D01*
X12212024Y-12057976D01*
X12192976Y-12057976D01*
X12173928Y-12048452D01*
X12164405Y-12038928D01*
X12154881Y-12019881D01*
X12145357Y-11981786D01*
X12145357Y-11934167D01*
X12154881Y-11896071D01*
X12164405Y-11877024D01*
X12173928Y-11867500D01*
X12192976Y-11857976D01*
X12345357Y-12038928D02*
X12354881Y-12048452D01*
X12345357Y-12057976D01*
X12335833Y-12048452D01*
X12345357Y-12038928D01*
X12345357Y-12057976D01*
X12478690Y-11857976D02*
X12497738Y-11857976D01*
X12516786Y-11867500D01*
X12526309Y-11877024D01*
X12535833Y-11896071D01*
X12545357Y-11934167D01*
X12545357Y-11981786D01*
X12535833Y-12019881D01*
X12526309Y-12038928D01*
X12516786Y-12048452D01*
X12497738Y-12057976D01*
X12478690Y-12057976D01*
X12459643Y-12048452D01*
X12450119Y-12038928D01*
X12440595Y-12019881D01*
X12431071Y-11981786D01*
X12431071Y-11934167D01*
X12440595Y-11896071D01*
X12450119Y-11877024D01*
X12459643Y-11867500D01*
X12478690Y-11857976D01*
X12716786Y-11924643D02*
X12716786Y-12057976D01*
X12669167Y-11848452D02*
X12621548Y-11991309D01*
X12745357Y-11991309D01*
X12802500Y-11857976D02*
X12935833Y-11857976D01*
X12850119Y-12057976D01*
X13002500Y-11877024D02*
X13012024Y-11867500D01*
X13031071Y-11857976D01*
X13078690Y-11857976D01*
X13097738Y-11867500D01*
X13107262Y-11877024D01*
X13116786Y-11896071D01*
X13116786Y-11915119D01*
X13107262Y-11943690D01*
X12992976Y-12057976D01*
X13116786Y-12057976D01*
X13192976Y-11857976D02*
X13192976Y-11896071D01*
X13269167Y-11857976D02*
X13269167Y-11896071D01*
X13564405Y-12134167D02*
X13554881Y-12124643D01*
X13535833Y-12096071D01*
X13526309Y-12077024D01*
X13516786Y-12048452D01*
X13507262Y-12000833D01*
X13507262Y-11962738D01*
X13516786Y-11915119D01*
X13526309Y-11886548D01*
X13535833Y-11867500D01*
X13554881Y-11838928D01*
X13564405Y-11829405D01*
X13726309Y-11924643D02*
X13726309Y-12057976D01*
X13678690Y-11848452D02*
X13631071Y-11991309D01*
X13754881Y-11991309D01*
X13983452Y-12057976D02*
X13983452Y-11857976D01*
X14069167Y-12057976D02*
X14069167Y-11953214D01*
X14059643Y-11934167D01*
X14040595Y-11924643D01*
X14012024Y-11924643D01*
X13992976Y-11934167D01*
X13983452Y-11943690D01*
X14192976Y-12057976D02*
X14173928Y-12048452D01*
X14164405Y-12038928D01*
X14154881Y-12019881D01*
X14154881Y-11962738D01*
X14164405Y-11943690D01*
X14173928Y-11934167D01*
X14192976Y-11924643D01*
X14221548Y-11924643D01*
X14240595Y-11934167D01*
X14250119Y-11943690D01*
X14259643Y-11962738D01*
X14259643Y-12019881D01*
X14250119Y-12038928D01*
X14240595Y-12048452D01*
X14221548Y-12057976D01*
X14192976Y-12057976D01*
X14373928Y-12057976D02*
X14354881Y-12048452D01*
X14345357Y-12029405D01*
X14345357Y-11857976D01*
X14526309Y-12048452D02*
X14507262Y-12057976D01*
X14469167Y-12057976D01*
X14450119Y-12048452D01*
X14440595Y-12029405D01*
X14440595Y-11953214D01*
X14450119Y-11934167D01*
X14469167Y-11924643D01*
X14507262Y-11924643D01*
X14526309Y-11934167D01*
X14535833Y-11953214D01*
X14535833Y-11972262D01*
X14440595Y-11991309D01*
X14612024Y-12048452D02*
X14631071Y-12057976D01*
X14669167Y-12057976D01*
X14688214Y-12048452D01*
X14697738Y-12029405D01*
X14697738Y-12019881D01*
X14688214Y-12000833D01*
X14669167Y-11991309D01*
X14640595Y-11991309D01*
X14621548Y-11981786D01*
X14612024Y-11962738D01*
X14612024Y-11953214D01*
X14621548Y-11934167D01*
X14640595Y-11924643D01*
X14669167Y-11924643D01*
X14688214Y-11934167D01*
X14764405Y-12134167D02*
X14773928Y-12124643D01*
X14792976Y-12096071D01*
X14802500Y-12077024D01*
X14812024Y-12048452D01*
X14821548Y-12000833D01*
X14821548Y-11962738D01*
X14812024Y-11915119D01*
X14802500Y-11886548D01*
X14792976Y-11867500D01*
X14773928Y-11838928D01*
X14764405Y-11829405D01*
M02*
