M48
; DRILL file {KiCad (6.0.7)} date Fri Nov  4 20:59:34 2022
; FORMAT={-:-/ absolute / inch / decimal}
; #@! TF.CreationDate,2022-11-04T20:59:34-04:00
; #@! TF.GenerationSoftware,Kicad,Pcbnew,(6.0.7)
; #@! TF.FileFunction,Plated,1,2,PTH
FMAT,2
INCH
; #@! TA.AperFunction,Plated,PTH,ViaDrill
T1C0.0157
; #@! TA.AperFunction,Plated,PTH,ComponentDrill
T2C0.0315
; #@! TA.AperFunction,Plated,PTH,ComponentDrill
T3C0.0354
; #@! TA.AperFunction,Plated,PTH,ComponentDrill
T4C0.0394
; #@! TA.AperFunction,Plated,PTH,ComponentDrill
T5C0.0433
; #@! TA.AperFunction,Plated,PTH,ComponentDrill
T6C0.0472
%
G90
G05
T1
X4.4375Y-2.3949
X4.677Y-2.387
X4.7361Y-2.6966
X4.7369Y-2.0955
X4.917Y-3.722
X5.0355Y-2.3949
X5.267Y-3.287
X5.3342Y-2.6974
X5.7352Y-2.6936
X6.1408Y-2.2613
X6.6449Y-2.1589
X6.812Y-2.467
X6.822Y-2.712
X6.9831Y-2.722
X6.992Y-2.462
X6.997Y-2.652
X7.017Y-2.817
X7.1358Y-2.657
X7.137Y-3.057
X7.147Y-3.227
X7.2084Y-2.4706
X7.2471Y-2.682
X7.2482Y-2.9466
X7.2542Y-2.3783
X7.287Y-2.946
X7.332Y-2.637
X7.362Y-3.092
X7.4024Y-2.572
X7.412Y-2.932
X7.417Y-3.057
X7.427Y-2.542
X7.487Y-2.092
X7.502Y-2.902
X7.527Y-2.692
T2
X7.0974Y-2.1724
X7.0974Y-2.2724
X7.0974Y-2.3724
X7.0974Y-2.4724
X7.3974Y-2.1724
X7.3974Y-2.2724
X7.3974Y-2.3724
X7.3974Y-2.4724
T3
X4.5819Y-3.2912
X4.5819Y-3.4487
X4.5819Y-3.6062
T4
X4.677Y-1.937
X4.777Y-1.937
X4.877Y-1.937
X4.977Y-1.937
X5.037Y-3.837
X5.077Y-1.937
X5.137Y-3.837
X5.177Y-1.937
X5.237Y-3.837
X5.277Y-1.937
X5.337Y-3.837
X5.377Y-1.937
X5.437Y-3.837
X5.477Y-1.937
X5.537Y-3.837
X5.577Y-1.937
X5.637Y-3.837
X5.737Y-1.937
X5.737Y-3.837
X5.837Y-1.937
X5.937Y-1.937
X5.937Y-3.837
X6.037Y-1.937
X6.037Y-3.837
X6.137Y-1.937
X6.137Y-3.837
X6.237Y-1.937
X6.237Y-3.837
X6.337Y-1.937
X6.337Y-3.837
X6.437Y-1.937
X6.437Y-3.837
X6.537Y-3.837
X6.637Y-1.937
X6.637Y-3.837
X6.737Y-1.937
X6.837Y-1.937
X6.837Y-3.837
X6.937Y-1.937
X6.937Y-3.837
X7.037Y-1.937
X7.037Y-3.837
X7.137Y-1.937
X7.137Y-3.837
X7.237Y-1.937
X7.237Y-3.837
X7.337Y-1.937
X7.337Y-3.837
X7.437Y-3.837
X7.537Y-3.837
X7.637Y-1.937
X7.637Y-2.037
X7.637Y-2.137
X7.637Y-2.237
X7.637Y-2.337
X7.637Y-2.437
X7.637Y-2.537
X7.637Y-2.637
X7.637Y-2.737
X7.637Y-2.837
X7.637Y-2.937
X7.637Y-3.037
X7.637Y-3.137
X7.637Y-3.237
X7.637Y-3.337
X7.637Y-3.437
X7.637Y-3.537
X7.637Y-3.637
X7.737Y-1.937
X7.737Y-2.037
X7.737Y-2.137
X7.737Y-2.237
X7.737Y-2.337
X7.737Y-2.437
X7.737Y-2.537
X7.737Y-2.637
X7.737Y-2.737
X7.737Y-2.837
X7.737Y-2.937
X7.737Y-3.037
X7.737Y-3.137
X7.737Y-3.237
X7.737Y-3.337
X7.737Y-3.437
X7.737Y-3.537
X7.737Y-3.637
T5
X5.1091Y-3.4484
X5.1091Y-3.6256
X5.365Y-3.4484
X5.365Y-3.6256
X5.6091Y-3.4484
X5.6091Y-3.6256
X5.865Y-3.4484
X5.865Y-3.6256
X6.1091Y-3.4484
X6.1091Y-3.6256
X6.365Y-3.4484
X6.365Y-3.6256
X6.7091Y-3.4484
X6.7091Y-3.6256
X6.965Y-3.4484
X6.965Y-3.6256
X7.2091Y-3.4484
X7.2091Y-3.6256
X7.465Y-3.4484
X7.465Y-3.6256
T6
X4.4146Y-3.2125
X4.4146Y-3.6849
X4.6508Y-3.2125
X4.6508Y-3.6849
T0
M30
