%TF.GenerationSoftware,KiCad,Pcbnew,(6.0.7)*%
%TF.CreationDate,2022-10-17T16:35:19-04:00*%
%TF.ProjectId,dmgc-attiny-arduino-mega,646d6763-2d61-4747-9469-6e792d617264,rev?*%
%TF.SameCoordinates,Original*%
%TF.FileFunction,AssemblyDrawing,Top*%
%FSLAX46Y46*%
G04 Gerber Fmt 4.6, Leading zero omitted, Abs format (unit mm)*
G04 Created by KiCad (PCBNEW (6.0.7)) date 2022-10-17 16:35:19*
%MOMM*%
%LPD*%
G01*
G04 APERTURE LIST*
%ADD10C,0.150000*%
%ADD11C,0.040000*%
%ADD12C,0.100000*%
G04 APERTURE END LIST*
D10*
%TO.C,R6*%
X173351017Y-65037879D02*
X173351017Y-65514070D01*
X173827208Y-65561689D01*
X173779589Y-65514070D01*
X173731970Y-65418832D01*
X173731970Y-65180736D01*
X173779589Y-65085498D01*
X173827208Y-65037879D01*
X173922446Y-64990260D01*
X174160541Y-64990260D01*
X174255779Y-65037879D01*
X174303398Y-65085498D01*
X174351017Y-65180736D01*
X174351017Y-65418832D01*
X174303398Y-65514070D01*
X174255779Y-65561689D01*
X174351017Y-64037879D02*
X174351017Y-64609308D01*
X174351017Y-64323594D02*
X173351017Y-64323594D01*
X173493875Y-64418832D01*
X173589113Y-64514070D01*
X173636732Y-64609308D01*
X173351017Y-63418832D02*
X173351017Y-63323594D01*
X173398637Y-63228355D01*
X173446256Y-63180736D01*
X173541494Y-63133117D01*
X173731970Y-63085498D01*
X173970065Y-63085498D01*
X174160541Y-63133117D01*
X174255779Y-63180736D01*
X174303398Y-63228355D01*
X174351017Y-63323594D01*
X174351017Y-63418832D01*
X174303398Y-63514070D01*
X174255779Y-63561689D01*
X174160541Y-63609308D01*
X173970065Y-63656927D01*
X173731970Y-63656927D01*
X173541494Y-63609308D01*
X173446256Y-63561689D01*
X173398637Y-63514070D01*
X173351017Y-63418832D01*
D11*
X175741732Y-64365260D02*
X175622684Y-64448594D01*
X175741732Y-64508117D02*
X175491732Y-64508117D01*
X175491732Y-64412879D01*
X175503637Y-64389070D01*
X175515541Y-64377165D01*
X175539351Y-64365260D01*
X175575065Y-64365260D01*
X175598875Y-64377165D01*
X175610779Y-64389070D01*
X175622684Y-64412879D01*
X175622684Y-64508117D01*
X175491732Y-64150974D02*
X175491732Y-64198594D01*
X175503637Y-64222403D01*
X175515541Y-64234308D01*
X175551256Y-64258117D01*
X175598875Y-64270022D01*
X175694113Y-64270022D01*
X175717922Y-64258117D01*
X175729827Y-64246213D01*
X175741732Y-64222403D01*
X175741732Y-64174784D01*
X175729827Y-64150974D01*
X175717922Y-64139070D01*
X175694113Y-64127165D01*
X175634589Y-64127165D01*
X175610779Y-64139070D01*
X175598875Y-64150974D01*
X175586970Y-64174784D01*
X175586970Y-64222403D01*
X175598875Y-64246213D01*
X175610779Y-64258117D01*
X175634589Y-64270022D01*
D10*
%TO.C,SW1*%
X131734285Y-94742380D02*
X131734285Y-93742380D01*
X132115238Y-93742380D01*
X132210476Y-93790000D01*
X132258095Y-93837619D01*
X132305714Y-93932857D01*
X132305714Y-94075714D01*
X132258095Y-94170952D01*
X132210476Y-94218571D01*
X132115238Y-94266190D01*
X131734285Y-94266190D01*
X132734285Y-93742380D02*
X132734285Y-94551904D01*
X132781904Y-94647142D01*
X132829523Y-94694761D01*
X132924761Y-94742380D01*
X133115238Y-94742380D01*
X133210476Y-94694761D01*
X133258095Y-94647142D01*
X133305714Y-94551904D01*
X133305714Y-93742380D01*
X133734285Y-94694761D02*
X133877142Y-94742380D01*
X134115238Y-94742380D01*
X134210476Y-94694761D01*
X134258095Y-94647142D01*
X134305714Y-94551904D01*
X134305714Y-94456666D01*
X134258095Y-94361428D01*
X134210476Y-94313809D01*
X134115238Y-94266190D01*
X133924761Y-94218571D01*
X133829523Y-94170952D01*
X133781904Y-94123333D01*
X133734285Y-94028095D01*
X133734285Y-93932857D01*
X133781904Y-93837619D01*
X133829523Y-93790000D01*
X133924761Y-93742380D01*
X134162857Y-93742380D01*
X134305714Y-93790000D01*
X134734285Y-94742380D02*
X134734285Y-93742380D01*
X134734285Y-94218571D02*
X135305714Y-94218571D01*
X135305714Y-94742380D02*
X135305714Y-93742380D01*
X131686666Y-90244761D02*
X131829523Y-90292380D01*
X132067619Y-90292380D01*
X132162857Y-90244761D01*
X132210476Y-90197142D01*
X132258095Y-90101904D01*
X132258095Y-90006666D01*
X132210476Y-89911428D01*
X132162857Y-89863809D01*
X132067619Y-89816190D01*
X131877142Y-89768571D01*
X131781904Y-89720952D01*
X131734285Y-89673333D01*
X131686666Y-89578095D01*
X131686666Y-89482857D01*
X131734285Y-89387619D01*
X131781904Y-89340000D01*
X131877142Y-89292380D01*
X132115238Y-89292380D01*
X132258095Y-89340000D01*
X132591428Y-89292380D02*
X132829523Y-90292380D01*
X133020000Y-89578095D01*
X133210476Y-90292380D01*
X133448571Y-89292380D01*
X134353333Y-90292380D02*
X133781904Y-90292380D01*
X134067619Y-90292380D02*
X134067619Y-89292380D01*
X133972380Y-89435238D01*
X133877142Y-89530476D01*
X133781904Y-89578095D01*
%TO.C,SW2*%
X145267619Y-94742380D02*
X144791428Y-94742380D01*
X144791428Y-93742380D01*
X145600952Y-94218571D02*
X145934285Y-94218571D01*
X146077142Y-94742380D02*
X145600952Y-94742380D01*
X145600952Y-93742380D01*
X146077142Y-93742380D01*
X146839047Y-94218571D02*
X146505714Y-94218571D01*
X146505714Y-94742380D02*
X146505714Y-93742380D01*
X146981904Y-93742380D01*
X147220000Y-93742380D02*
X147791428Y-93742380D01*
X147505714Y-94742380D02*
X147505714Y-93742380D01*
X144386666Y-90244761D02*
X144529523Y-90292380D01*
X144767619Y-90292380D01*
X144862857Y-90244761D01*
X144910476Y-90197142D01*
X144958095Y-90101904D01*
X144958095Y-90006666D01*
X144910476Y-89911428D01*
X144862857Y-89863809D01*
X144767619Y-89816190D01*
X144577142Y-89768571D01*
X144481904Y-89720952D01*
X144434285Y-89673333D01*
X144386666Y-89578095D01*
X144386666Y-89482857D01*
X144434285Y-89387619D01*
X144481904Y-89340000D01*
X144577142Y-89292380D01*
X144815238Y-89292380D01*
X144958095Y-89340000D01*
X145291428Y-89292380D02*
X145529523Y-90292380D01*
X145720000Y-89578095D01*
X145910476Y-90292380D01*
X146148571Y-89292380D01*
X146481904Y-89387619D02*
X146529523Y-89340000D01*
X146624761Y-89292380D01*
X146862857Y-89292380D01*
X146958095Y-89340000D01*
X147005714Y-89387619D01*
X147053333Y-89482857D01*
X147053333Y-89578095D01*
X147005714Y-89720952D01*
X146434285Y-90292380D01*
X147053333Y-90292380D01*
%TO.C,SW3*%
X157586666Y-94742380D02*
X157253333Y-94266190D01*
X157015238Y-94742380D02*
X157015238Y-93742380D01*
X157396190Y-93742380D01*
X157491428Y-93790000D01*
X157539047Y-93837619D01*
X157586666Y-93932857D01*
X157586666Y-94075714D01*
X157539047Y-94170952D01*
X157491428Y-94218571D01*
X157396190Y-94266190D01*
X157015238Y-94266190D01*
X158015238Y-94742380D02*
X158015238Y-93742380D01*
X159015238Y-93790000D02*
X158920000Y-93742380D01*
X158777142Y-93742380D01*
X158634285Y-93790000D01*
X158539047Y-93885238D01*
X158491428Y-93980476D01*
X158443809Y-94170952D01*
X158443809Y-94313809D01*
X158491428Y-94504285D01*
X158539047Y-94599523D01*
X158634285Y-94694761D01*
X158777142Y-94742380D01*
X158872380Y-94742380D01*
X159015238Y-94694761D01*
X159062857Y-94647142D01*
X159062857Y-94313809D01*
X158872380Y-94313809D01*
X159491428Y-94742380D02*
X159491428Y-93742380D01*
X159491428Y-94218571D02*
X160062857Y-94218571D01*
X160062857Y-94742380D02*
X160062857Y-93742380D01*
X160396190Y-93742380D02*
X160967619Y-93742380D01*
X160681904Y-94742380D02*
X160681904Y-93742380D01*
X157086666Y-90244761D02*
X157229523Y-90292380D01*
X157467619Y-90292380D01*
X157562857Y-90244761D01*
X157610476Y-90197142D01*
X157658095Y-90101904D01*
X157658095Y-90006666D01*
X157610476Y-89911428D01*
X157562857Y-89863809D01*
X157467619Y-89816190D01*
X157277142Y-89768571D01*
X157181904Y-89720952D01*
X157134285Y-89673333D01*
X157086666Y-89578095D01*
X157086666Y-89482857D01*
X157134285Y-89387619D01*
X157181904Y-89340000D01*
X157277142Y-89292380D01*
X157515238Y-89292380D01*
X157658095Y-89340000D01*
X157991428Y-89292380D02*
X158229523Y-90292380D01*
X158420000Y-89578095D01*
X158610476Y-90292380D01*
X158848571Y-89292380D01*
X159134285Y-89292380D02*
X159753333Y-89292380D01*
X159420000Y-89673333D01*
X159562857Y-89673333D01*
X159658095Y-89720952D01*
X159705714Y-89768571D01*
X159753333Y-89863809D01*
X159753333Y-90101904D01*
X159705714Y-90197142D01*
X159658095Y-90244761D01*
X159562857Y-90292380D01*
X159277142Y-90292380D01*
X159181904Y-90244761D01*
X159134285Y-90197142D01*
%TO.C,SW4*%
X171683809Y-94694761D02*
X171826666Y-94742380D01*
X172064761Y-94742380D01*
X172160000Y-94694761D01*
X172207619Y-94647142D01*
X172255238Y-94551904D01*
X172255238Y-94456666D01*
X172207619Y-94361428D01*
X172160000Y-94313809D01*
X172064761Y-94266190D01*
X171874285Y-94218571D01*
X171779047Y-94170952D01*
X171731428Y-94123333D01*
X171683809Y-94028095D01*
X171683809Y-93932857D01*
X171731428Y-93837619D01*
X171779047Y-93790000D01*
X171874285Y-93742380D01*
X172112380Y-93742380D01*
X172255238Y-93790000D01*
X172683809Y-94218571D02*
X173017142Y-94218571D01*
X173160000Y-94742380D02*
X172683809Y-94742380D01*
X172683809Y-93742380D01*
X173160000Y-93742380D01*
X174064761Y-94742380D02*
X173588571Y-94742380D01*
X173588571Y-93742380D01*
X174398095Y-94218571D02*
X174731428Y-94218571D01*
X174874285Y-94742380D02*
X174398095Y-94742380D01*
X174398095Y-93742380D01*
X174874285Y-93742380D01*
X175874285Y-94647142D02*
X175826666Y-94694761D01*
X175683809Y-94742380D01*
X175588571Y-94742380D01*
X175445714Y-94694761D01*
X175350476Y-94599523D01*
X175302857Y-94504285D01*
X175255238Y-94313809D01*
X175255238Y-94170952D01*
X175302857Y-93980476D01*
X175350476Y-93885238D01*
X175445714Y-93790000D01*
X175588571Y-93742380D01*
X175683809Y-93742380D01*
X175826666Y-93790000D01*
X175874285Y-93837619D01*
X176160000Y-93742380D02*
X176731428Y-93742380D01*
X176445714Y-94742380D02*
X176445714Y-93742380D01*
X172326666Y-90244761D02*
X172469523Y-90292380D01*
X172707619Y-90292380D01*
X172802857Y-90244761D01*
X172850476Y-90197142D01*
X172898095Y-90101904D01*
X172898095Y-90006666D01*
X172850476Y-89911428D01*
X172802857Y-89863809D01*
X172707619Y-89816190D01*
X172517142Y-89768571D01*
X172421904Y-89720952D01*
X172374285Y-89673333D01*
X172326666Y-89578095D01*
X172326666Y-89482857D01*
X172374285Y-89387619D01*
X172421904Y-89340000D01*
X172517142Y-89292380D01*
X172755238Y-89292380D01*
X172898095Y-89340000D01*
X173231428Y-89292380D02*
X173469523Y-90292380D01*
X173660000Y-89578095D01*
X173850476Y-90292380D01*
X174088571Y-89292380D01*
X174898095Y-89625714D02*
X174898095Y-90292380D01*
X174660000Y-89244761D02*
X174421904Y-89959047D01*
X175040952Y-89959047D01*
%TO.C,SW5*%
X182098095Y-94694761D02*
X182240952Y-94742380D01*
X182479047Y-94742380D01*
X182574285Y-94694761D01*
X182621904Y-94647142D01*
X182669523Y-94551904D01*
X182669523Y-94456666D01*
X182621904Y-94361428D01*
X182574285Y-94313809D01*
X182479047Y-94266190D01*
X182288571Y-94218571D01*
X182193333Y-94170952D01*
X182145714Y-94123333D01*
X182098095Y-94028095D01*
X182098095Y-93932857D01*
X182145714Y-93837619D01*
X182193333Y-93790000D01*
X182288571Y-93742380D01*
X182526666Y-93742380D01*
X182669523Y-93790000D01*
X182955238Y-93742380D02*
X183526666Y-93742380D01*
X183240952Y-94742380D02*
X183240952Y-93742380D01*
X183812380Y-94456666D02*
X184288571Y-94456666D01*
X183717142Y-94742380D02*
X184050476Y-93742380D01*
X184383809Y-94742380D01*
X185288571Y-94742380D02*
X184955238Y-94266190D01*
X184717142Y-94742380D02*
X184717142Y-93742380D01*
X185098095Y-93742380D01*
X185193333Y-93790000D01*
X185240952Y-93837619D01*
X185288571Y-93932857D01*
X185288571Y-94075714D01*
X185240952Y-94170952D01*
X185193333Y-94218571D01*
X185098095Y-94266190D01*
X184717142Y-94266190D01*
X185574285Y-93742380D02*
X186145714Y-93742380D01*
X185860000Y-94742380D02*
X185860000Y-93742380D01*
X187193333Y-93694761D02*
X186336190Y-94980476D01*
X188098095Y-94742380D02*
X187764761Y-94266190D01*
X187526666Y-94742380D02*
X187526666Y-93742380D01*
X187907619Y-93742380D01*
X188002857Y-93790000D01*
X188050476Y-93837619D01*
X188098095Y-93932857D01*
X188098095Y-94075714D01*
X188050476Y-94170952D01*
X188002857Y-94218571D01*
X187907619Y-94266190D01*
X187526666Y-94266190D01*
X188526666Y-94218571D02*
X188860000Y-94218571D01*
X189002857Y-94742380D02*
X188526666Y-94742380D01*
X188526666Y-93742380D01*
X189002857Y-93742380D01*
X189383809Y-94694761D02*
X189526666Y-94742380D01*
X189764761Y-94742380D01*
X189860000Y-94694761D01*
X189907619Y-94647142D01*
X189955238Y-94551904D01*
X189955238Y-94456666D01*
X189907619Y-94361428D01*
X189860000Y-94313809D01*
X189764761Y-94266190D01*
X189574285Y-94218571D01*
X189479047Y-94170952D01*
X189431428Y-94123333D01*
X189383809Y-94028095D01*
X189383809Y-93932857D01*
X189431428Y-93837619D01*
X189479047Y-93790000D01*
X189574285Y-93742380D01*
X189812380Y-93742380D01*
X189955238Y-93790000D01*
X190383809Y-94218571D02*
X190717142Y-94218571D01*
X190860000Y-94742380D02*
X190383809Y-94742380D01*
X190383809Y-93742380D01*
X190860000Y-93742380D01*
X191145714Y-93742380D02*
X191717142Y-93742380D01*
X191431428Y-94742380D02*
X191431428Y-93742380D01*
X185026666Y-90244761D02*
X185169523Y-90292380D01*
X185407619Y-90292380D01*
X185502857Y-90244761D01*
X185550476Y-90197142D01*
X185598095Y-90101904D01*
X185598095Y-90006666D01*
X185550476Y-89911428D01*
X185502857Y-89863809D01*
X185407619Y-89816190D01*
X185217142Y-89768571D01*
X185121904Y-89720952D01*
X185074285Y-89673333D01*
X185026666Y-89578095D01*
X185026666Y-89482857D01*
X185074285Y-89387619D01*
X185121904Y-89340000D01*
X185217142Y-89292380D01*
X185455238Y-89292380D01*
X185598095Y-89340000D01*
X185931428Y-89292380D02*
X186169523Y-90292380D01*
X186360000Y-89578095D01*
X186550476Y-90292380D01*
X186788571Y-89292380D01*
X187645714Y-89292380D02*
X187169523Y-89292380D01*
X187121904Y-89768571D01*
X187169523Y-89720952D01*
X187264761Y-89673333D01*
X187502857Y-89673333D01*
X187598095Y-89720952D01*
X187645714Y-89768571D01*
X187693333Y-89863809D01*
X187693333Y-90101904D01*
X187645714Y-90197142D01*
X187598095Y-90244761D01*
X187502857Y-90292380D01*
X187264761Y-90292380D01*
X187169523Y-90244761D01*
X187121904Y-90197142D01*
%TO.C,U1*%
X173750000Y-78376666D02*
X174226190Y-78376666D01*
X173654761Y-78662380D02*
X173988095Y-77662380D01*
X174321428Y-78662380D01*
X174511904Y-77662380D02*
X175083333Y-77662380D01*
X174797619Y-78662380D02*
X174797619Y-77662380D01*
X175273809Y-77995714D02*
X175654761Y-77995714D01*
X175416666Y-77662380D02*
X175416666Y-78519523D01*
X175464285Y-78614761D01*
X175559523Y-78662380D01*
X175654761Y-78662380D01*
X175988095Y-78662380D02*
X175988095Y-77995714D01*
X175988095Y-77662380D02*
X175940476Y-77710000D01*
X175988095Y-77757619D01*
X176035714Y-77710000D01*
X175988095Y-77662380D01*
X175988095Y-77757619D01*
X176464285Y-77995714D02*
X176464285Y-78662380D01*
X176464285Y-78090952D02*
X176511904Y-78043333D01*
X176607142Y-77995714D01*
X176750000Y-77995714D01*
X176845238Y-78043333D01*
X176892857Y-78138571D01*
X176892857Y-78662380D01*
X177273809Y-77995714D02*
X177511904Y-78662380D01*
X177750000Y-77995714D02*
X177511904Y-78662380D01*
X177416666Y-78900476D01*
X177369047Y-78948095D01*
X177273809Y-78995714D01*
X178273809Y-78090952D02*
X178178571Y-78043333D01*
X178130952Y-77995714D01*
X178083333Y-77900476D01*
X178083333Y-77852857D01*
X178130952Y-77757619D01*
X178178571Y-77710000D01*
X178273809Y-77662380D01*
X178464285Y-77662380D01*
X178559523Y-77710000D01*
X178607142Y-77757619D01*
X178654761Y-77852857D01*
X178654761Y-77900476D01*
X178607142Y-77995714D01*
X178559523Y-78043333D01*
X178464285Y-78090952D01*
X178273809Y-78090952D01*
X178178571Y-78138571D01*
X178130952Y-78186190D01*
X178083333Y-78281428D01*
X178083333Y-78471904D01*
X178130952Y-78567142D01*
X178178571Y-78614761D01*
X178273809Y-78662380D01*
X178464285Y-78662380D01*
X178559523Y-78614761D01*
X178607142Y-78567142D01*
X178654761Y-78471904D01*
X178654761Y-78281428D01*
X178607142Y-78186190D01*
X178559523Y-78138571D01*
X178464285Y-78090952D01*
X179559523Y-77662380D02*
X179083333Y-77662380D01*
X179035714Y-78138571D01*
X179083333Y-78090952D01*
X179178571Y-78043333D01*
X179416666Y-78043333D01*
X179511904Y-78090952D01*
X179559523Y-78138571D01*
X179607142Y-78233809D01*
X179607142Y-78471904D01*
X179559523Y-78567142D01*
X179511904Y-78614761D01*
X179416666Y-78662380D01*
X179178571Y-78662380D01*
X179083333Y-78614761D01*
X179035714Y-78567142D01*
X180035714Y-78281428D02*
X180797619Y-78281428D01*
X181226190Y-77757619D02*
X181273809Y-77710000D01*
X181369047Y-77662380D01*
X181607142Y-77662380D01*
X181702380Y-77710000D01*
X181750000Y-77757619D01*
X181797619Y-77852857D01*
X181797619Y-77948095D01*
X181750000Y-78090952D01*
X181178571Y-78662380D01*
X181797619Y-78662380D01*
X182416666Y-77662380D02*
X182511904Y-77662380D01*
X182607142Y-77710000D01*
X182654761Y-77757619D01*
X182702380Y-77852857D01*
X182750000Y-78043333D01*
X182750000Y-78281428D01*
X182702380Y-78471904D01*
X182654761Y-78567142D01*
X182607142Y-78614761D01*
X182511904Y-78662380D01*
X182416666Y-78662380D01*
X182321428Y-78614761D01*
X182273809Y-78567142D01*
X182226190Y-78471904D01*
X182178571Y-78281428D01*
X182178571Y-78043333D01*
X182226190Y-77852857D01*
X182273809Y-77757619D01*
X182321428Y-77710000D01*
X182416666Y-77662380D01*
X183178571Y-78662380D02*
X183178571Y-77662380D01*
X183559523Y-77662380D01*
X183654761Y-77710000D01*
X183702380Y-77757619D01*
X183750000Y-77852857D01*
X183750000Y-77995714D01*
X183702380Y-78090952D01*
X183654761Y-78138571D01*
X183559523Y-78186190D01*
X183178571Y-78186190D01*
X177988095Y-71522380D02*
X177988095Y-72331904D01*
X178035714Y-72427142D01*
X178083333Y-72474761D01*
X178178571Y-72522380D01*
X178369047Y-72522380D01*
X178464285Y-72474761D01*
X178511904Y-72427142D01*
X178559523Y-72331904D01*
X178559523Y-71522380D01*
X179559523Y-72522380D02*
X178988095Y-72522380D01*
X179273809Y-72522380D02*
X179273809Y-71522380D01*
X179178571Y-71665238D01*
X179083333Y-71760476D01*
X178988095Y-71808095D01*
%TO.C,R5*%
X189273686Y-85611791D02*
X189940352Y-85611791D01*
X188892733Y-85849886D02*
X189607019Y-86087981D01*
X189607019Y-85468934D01*
X189845114Y-85087981D02*
X189892733Y-85040362D01*
X189940352Y-85087981D01*
X189892733Y-85135600D01*
X189845114Y-85087981D01*
X189940352Y-85087981D01*
X188940352Y-84707029D02*
X188940352Y-84040362D01*
X189940352Y-84468934D01*
X189940352Y-83659410D02*
X188940352Y-83659410D01*
X189559400Y-83564172D02*
X189940352Y-83278458D01*
X189273686Y-83278458D02*
X189654638Y-83659410D01*
D11*
X191331067Y-84724886D02*
X191212019Y-84808220D01*
X191331067Y-84867743D02*
X191081067Y-84867743D01*
X191081067Y-84772505D01*
X191092972Y-84748696D01*
X191104876Y-84736791D01*
X191128686Y-84724886D01*
X191164400Y-84724886D01*
X191188210Y-84736791D01*
X191200114Y-84748696D01*
X191212019Y-84772505D01*
X191212019Y-84867743D01*
X191081067Y-84498696D02*
X191081067Y-84617743D01*
X191200114Y-84629648D01*
X191188210Y-84617743D01*
X191176305Y-84593934D01*
X191176305Y-84534410D01*
X191188210Y-84510600D01*
X191200114Y-84498696D01*
X191223924Y-84486791D01*
X191283448Y-84486791D01*
X191307257Y-84498696D01*
X191319162Y-84510600D01*
X191331067Y-84534410D01*
X191331067Y-84593934D01*
X191319162Y-84617743D01*
X191307257Y-84629648D01*
D10*
%TO.C,R4*%
X176579401Y-85611791D02*
X177246067Y-85611791D01*
X176198448Y-85849886D02*
X176912734Y-86087981D01*
X176912734Y-85468934D01*
X177150829Y-85087981D02*
X177198448Y-85040362D01*
X177246067Y-85087981D01*
X177198448Y-85135600D01*
X177150829Y-85087981D01*
X177246067Y-85087981D01*
X176246067Y-84707029D02*
X176246067Y-84040362D01*
X177246067Y-84468934D01*
X177246067Y-83659410D02*
X176246067Y-83659410D01*
X176865115Y-83564172D02*
X177246067Y-83278458D01*
X176579401Y-83278458D02*
X176960353Y-83659410D01*
D11*
X178636782Y-84724886D02*
X178517734Y-84808220D01*
X178636782Y-84867743D02*
X178386782Y-84867743D01*
X178386782Y-84772505D01*
X178398687Y-84748696D01*
X178410591Y-84736791D01*
X178434401Y-84724886D01*
X178470115Y-84724886D01*
X178493925Y-84736791D01*
X178505829Y-84748696D01*
X178517734Y-84772505D01*
X178517734Y-84867743D01*
X178470115Y-84510600D02*
X178636782Y-84510600D01*
X178374877Y-84570124D02*
X178553448Y-84629648D01*
X178553448Y-84474886D01*
D10*
%TO.C,R3*%
X161376972Y-85611791D02*
X162043638Y-85611791D01*
X160996019Y-85849886D02*
X161710305Y-86087981D01*
X161710305Y-85468934D01*
X161948400Y-85087981D02*
X161996019Y-85040362D01*
X162043638Y-85087981D01*
X161996019Y-85135600D01*
X161948400Y-85087981D01*
X162043638Y-85087981D01*
X161043638Y-84707029D02*
X161043638Y-84040362D01*
X162043638Y-84468934D01*
X162043638Y-83659410D02*
X161043638Y-83659410D01*
X161662686Y-83564172D02*
X162043638Y-83278458D01*
X161376972Y-83278458D02*
X161757924Y-83659410D01*
D11*
X163434353Y-84724886D02*
X163315305Y-84808220D01*
X163434353Y-84867743D02*
X163184353Y-84867743D01*
X163184353Y-84772505D01*
X163196258Y-84748696D01*
X163208162Y-84736791D01*
X163231972Y-84724886D01*
X163267686Y-84724886D01*
X163291496Y-84736791D01*
X163303400Y-84748696D01*
X163315305Y-84772505D01*
X163315305Y-84867743D01*
X163184353Y-84641553D02*
X163184353Y-84486791D01*
X163279591Y-84570124D01*
X163279591Y-84534410D01*
X163291496Y-84510600D01*
X163303400Y-84498696D01*
X163327210Y-84486791D01*
X163386734Y-84486791D01*
X163410543Y-84498696D01*
X163422448Y-84510600D01*
X163434353Y-84534410D01*
X163434353Y-84605839D01*
X163422448Y-84629648D01*
X163410543Y-84641553D01*
D10*
%TO.C,R2*%
X148580315Y-85586197D02*
X149246981Y-85586197D01*
X148199362Y-85824292D02*
X148913648Y-86062387D01*
X148913648Y-85443340D01*
X149151743Y-85062387D02*
X149199362Y-85014768D01*
X149246981Y-85062387D01*
X149199362Y-85110006D01*
X149151743Y-85062387D01*
X149246981Y-85062387D01*
X148246981Y-84681435D02*
X148246981Y-84014768D01*
X149246981Y-84443340D01*
X149246981Y-83633816D02*
X148246981Y-83633816D01*
X148866029Y-83538578D02*
X149246981Y-83252864D01*
X148580315Y-83252864D02*
X148961267Y-83633816D01*
D11*
X150637696Y-84699292D02*
X150518648Y-84782626D01*
X150637696Y-84842149D02*
X150387696Y-84842149D01*
X150387696Y-84746911D01*
X150399601Y-84723102D01*
X150411505Y-84711197D01*
X150435315Y-84699292D01*
X150471029Y-84699292D01*
X150494839Y-84711197D01*
X150506743Y-84723102D01*
X150518648Y-84746911D01*
X150518648Y-84842149D01*
X150411505Y-84604054D02*
X150399601Y-84592149D01*
X150387696Y-84568340D01*
X150387696Y-84508816D01*
X150399601Y-84485006D01*
X150411505Y-84473102D01*
X150435315Y-84461197D01*
X150459124Y-84461197D01*
X150494839Y-84473102D01*
X150637696Y-84615959D01*
X150637696Y-84461197D01*
D10*
%TO.C,R1*%
X135988404Y-85611791D02*
X136655070Y-85611791D01*
X135607451Y-85849886D02*
X136321737Y-86087981D01*
X136321737Y-85468934D01*
X136559832Y-85087981D02*
X136607451Y-85040362D01*
X136655070Y-85087981D01*
X136607451Y-85135600D01*
X136559832Y-85087981D01*
X136655070Y-85087981D01*
X135655070Y-84707029D02*
X135655070Y-84040362D01*
X136655070Y-84468934D01*
X136655070Y-83659410D02*
X135655070Y-83659410D01*
X136274118Y-83564172D02*
X136655070Y-83278458D01*
X135988404Y-83278458D02*
X136369356Y-83659410D01*
D11*
X138045785Y-84724886D02*
X137926737Y-84808220D01*
X138045785Y-84867743D02*
X137795785Y-84867743D01*
X137795785Y-84772505D01*
X137807690Y-84748696D01*
X137819594Y-84736791D01*
X137843404Y-84724886D01*
X137879118Y-84724886D01*
X137902928Y-84736791D01*
X137914832Y-84748696D01*
X137926737Y-84772505D01*
X137926737Y-84867743D01*
X138045785Y-84486791D02*
X138045785Y-84629648D01*
X138045785Y-84558220D02*
X137795785Y-84558220D01*
X137831499Y-84582029D01*
X137855309Y-84605839D01*
X137867213Y-84629648D01*
D10*
%TO.C,D8*%
X171424285Y-62872380D02*
X171424285Y-62348571D01*
X171376666Y-62253333D01*
X171281428Y-62205714D01*
X171090952Y-62205714D01*
X170995714Y-62253333D01*
X171424285Y-62824761D02*
X171329047Y-62872380D01*
X171090952Y-62872380D01*
X170995714Y-62824761D01*
X170948095Y-62729523D01*
X170948095Y-62634285D01*
X170995714Y-62539047D01*
X171090952Y-62491428D01*
X171329047Y-62491428D01*
X171424285Y-62443809D01*
X170619523Y-58781904D02*
X170619523Y-57981904D01*
X170810000Y-57981904D01*
X170924285Y-58020000D01*
X171000476Y-58096190D01*
X171038571Y-58172380D01*
X171076666Y-58324761D01*
X171076666Y-58439047D01*
X171038571Y-58591428D01*
X171000476Y-58667619D01*
X170924285Y-58743809D01*
X170810000Y-58781904D01*
X170619523Y-58781904D01*
X171533809Y-58324761D02*
X171457619Y-58286666D01*
X171419523Y-58248571D01*
X171381428Y-58172380D01*
X171381428Y-58134285D01*
X171419523Y-58058095D01*
X171457619Y-58020000D01*
X171533809Y-57981904D01*
X171686190Y-57981904D01*
X171762380Y-58020000D01*
X171800476Y-58058095D01*
X171838571Y-58134285D01*
X171838571Y-58172380D01*
X171800476Y-58248571D01*
X171762380Y-58286666D01*
X171686190Y-58324761D01*
X171533809Y-58324761D01*
X171457619Y-58362857D01*
X171419523Y-58400952D01*
X171381428Y-58477142D01*
X171381428Y-58629523D01*
X171419523Y-58705714D01*
X171457619Y-58743809D01*
X171533809Y-58781904D01*
X171686190Y-58781904D01*
X171762380Y-58743809D01*
X171800476Y-58705714D01*
X171838571Y-58629523D01*
X171838571Y-58477142D01*
X171800476Y-58400952D01*
X171762380Y-58362857D01*
X171686190Y-58324761D01*
%TO.C,D7*%
X158205714Y-65412380D02*
X158205714Y-64412380D01*
X158205714Y-64793333D02*
X158300952Y-64745714D01*
X158491428Y-64745714D01*
X158586666Y-64793333D01*
X158634285Y-64840952D01*
X158681904Y-64936190D01*
X158681904Y-65221904D01*
X158634285Y-65317142D01*
X158586666Y-65364761D01*
X158491428Y-65412380D01*
X158300952Y-65412380D01*
X158205714Y-65364761D01*
X157829523Y-61321904D02*
X157829523Y-60521904D01*
X158020000Y-60521904D01*
X158134285Y-60560000D01*
X158210476Y-60636190D01*
X158248571Y-60712380D01*
X158286666Y-60864761D01*
X158286666Y-60979047D01*
X158248571Y-61131428D01*
X158210476Y-61207619D01*
X158134285Y-61283809D01*
X158020000Y-61321904D01*
X157829523Y-61321904D01*
X158553333Y-60521904D02*
X159086666Y-60521904D01*
X158743809Y-61321904D01*
%TO.C,D6*%
X146712380Y-76464761D02*
X146807619Y-76512380D01*
X146998095Y-76512380D01*
X147093333Y-76464761D01*
X147140952Y-76369523D01*
X147140952Y-76321904D01*
X147093333Y-76226666D01*
X146998095Y-76179047D01*
X146855238Y-76179047D01*
X146760000Y-76131428D01*
X146712380Y-76036190D01*
X146712380Y-75988571D01*
X146760000Y-75893333D01*
X146855238Y-75845714D01*
X146998095Y-75845714D01*
X147093333Y-75893333D01*
X147426666Y-75845714D02*
X147807619Y-75845714D01*
X147569523Y-75512380D02*
X147569523Y-76369523D01*
X147617142Y-76464761D01*
X147712380Y-76512380D01*
X147807619Y-76512380D01*
X148569523Y-76512380D02*
X148569523Y-75988571D01*
X148521904Y-75893333D01*
X148426666Y-75845714D01*
X148236190Y-75845714D01*
X148140952Y-75893333D01*
X148569523Y-76464761D02*
X148474285Y-76512380D01*
X148236190Y-76512380D01*
X148140952Y-76464761D01*
X148093333Y-76369523D01*
X148093333Y-76274285D01*
X148140952Y-76179047D01*
X148236190Y-76131428D01*
X148474285Y-76131428D01*
X148569523Y-76083809D01*
X149045714Y-76512380D02*
X149045714Y-75845714D01*
X149045714Y-76036190D02*
X149093333Y-75940952D01*
X149140952Y-75893333D01*
X149236190Y-75845714D01*
X149331428Y-75845714D01*
X149521904Y-75845714D02*
X149902857Y-75845714D01*
X149664761Y-75512380D02*
X149664761Y-76369523D01*
X149712380Y-76464761D01*
X149807619Y-76512380D01*
X149902857Y-76512380D01*
X147669523Y-72421904D02*
X147669523Y-71621904D01*
X147860000Y-71621904D01*
X147974285Y-71660000D01*
X148050476Y-71736190D01*
X148088571Y-71812380D01*
X148126666Y-71964761D01*
X148126666Y-72079047D01*
X148088571Y-72231428D01*
X148050476Y-72307619D01*
X147974285Y-72383809D01*
X147860000Y-72421904D01*
X147669523Y-72421904D01*
X148812380Y-71621904D02*
X148660000Y-71621904D01*
X148583809Y-71660000D01*
X148545714Y-71698095D01*
X148469523Y-71812380D01*
X148431428Y-71964761D01*
X148431428Y-72269523D01*
X148469523Y-72345714D01*
X148507619Y-72383809D01*
X148583809Y-72421904D01*
X148736190Y-72421904D01*
X148812380Y-72383809D01*
X148850476Y-72345714D01*
X148888571Y-72269523D01*
X148888571Y-72079047D01*
X148850476Y-72002857D01*
X148812380Y-71964761D01*
X148736190Y-71926666D01*
X148583809Y-71926666D01*
X148507619Y-71964761D01*
X148469523Y-72002857D01*
X148431428Y-72079047D01*
%TO.C,D5*%
X136052380Y-76464761D02*
X136147619Y-76512380D01*
X136338095Y-76512380D01*
X136433333Y-76464761D01*
X136480952Y-76369523D01*
X136480952Y-76321904D01*
X136433333Y-76226666D01*
X136338095Y-76179047D01*
X136195238Y-76179047D01*
X136100000Y-76131428D01*
X136052380Y-76036190D01*
X136052380Y-75988571D01*
X136100000Y-75893333D01*
X136195238Y-75845714D01*
X136338095Y-75845714D01*
X136433333Y-75893333D01*
X137290476Y-76464761D02*
X137195238Y-76512380D01*
X137004761Y-76512380D01*
X136909523Y-76464761D01*
X136861904Y-76369523D01*
X136861904Y-75988571D01*
X136909523Y-75893333D01*
X137004761Y-75845714D01*
X137195238Y-75845714D01*
X137290476Y-75893333D01*
X137338095Y-75988571D01*
X137338095Y-76083809D01*
X136861904Y-76179047D01*
X137909523Y-76512380D02*
X137814285Y-76464761D01*
X137766666Y-76369523D01*
X137766666Y-75512380D01*
X138671428Y-76464761D02*
X138576190Y-76512380D01*
X138385714Y-76512380D01*
X138290476Y-76464761D01*
X138242857Y-76369523D01*
X138242857Y-75988571D01*
X138290476Y-75893333D01*
X138385714Y-75845714D01*
X138576190Y-75845714D01*
X138671428Y-75893333D01*
X138719047Y-75988571D01*
X138719047Y-76083809D01*
X138242857Y-76179047D01*
X139576190Y-76464761D02*
X139480952Y-76512380D01*
X139290476Y-76512380D01*
X139195238Y-76464761D01*
X139147619Y-76417142D01*
X139100000Y-76321904D01*
X139100000Y-76036190D01*
X139147619Y-75940952D01*
X139195238Y-75893333D01*
X139290476Y-75845714D01*
X139480952Y-75845714D01*
X139576190Y-75893333D01*
X139861904Y-75845714D02*
X140242857Y-75845714D01*
X140004761Y-75512380D02*
X140004761Y-76369523D01*
X140052380Y-76464761D01*
X140147619Y-76512380D01*
X140242857Y-76512380D01*
X137509523Y-72421904D02*
X137509523Y-71621904D01*
X137700000Y-71621904D01*
X137814285Y-71660000D01*
X137890476Y-71736190D01*
X137928571Y-71812380D01*
X137966666Y-71964761D01*
X137966666Y-72079047D01*
X137928571Y-72231428D01*
X137890476Y-72307619D01*
X137814285Y-72383809D01*
X137700000Y-72421904D01*
X137509523Y-72421904D01*
X138690476Y-71621904D02*
X138309523Y-71621904D01*
X138271428Y-72002857D01*
X138309523Y-71964761D01*
X138385714Y-71926666D01*
X138576190Y-71926666D01*
X138652380Y-71964761D01*
X138690476Y-72002857D01*
X138728571Y-72079047D01*
X138728571Y-72269523D01*
X138690476Y-72345714D01*
X138652380Y-72383809D01*
X138576190Y-72421904D01*
X138385714Y-72421904D01*
X138309523Y-72383809D01*
X138271428Y-72345714D01*
%TO.C,D4*%
X128980000Y-68892380D02*
X128980000Y-68225714D01*
X128980000Y-68416190D02*
X129027619Y-68320952D01*
X129075238Y-68273333D01*
X129170476Y-68225714D01*
X129265714Y-68225714D01*
X129599047Y-68892380D02*
X129599047Y-68225714D01*
X129599047Y-67892380D02*
X129551428Y-67940000D01*
X129599047Y-67987619D01*
X129646666Y-67940000D01*
X129599047Y-67892380D01*
X129599047Y-67987619D01*
X130503809Y-68225714D02*
X130503809Y-69035238D01*
X130456190Y-69130476D01*
X130408571Y-69178095D01*
X130313333Y-69225714D01*
X130170476Y-69225714D01*
X130075238Y-69178095D01*
X130503809Y-68844761D02*
X130408571Y-68892380D01*
X130218095Y-68892380D01*
X130122857Y-68844761D01*
X130075238Y-68797142D01*
X130027619Y-68701904D01*
X130027619Y-68416190D01*
X130075238Y-68320952D01*
X130122857Y-68273333D01*
X130218095Y-68225714D01*
X130408571Y-68225714D01*
X130503809Y-68273333D01*
X130980000Y-68892380D02*
X130980000Y-67892380D01*
X131408571Y-68892380D02*
X131408571Y-68368571D01*
X131360952Y-68273333D01*
X131265714Y-68225714D01*
X131122857Y-68225714D01*
X131027619Y-68273333D01*
X130980000Y-68320952D01*
X131741904Y-68225714D02*
X132122857Y-68225714D01*
X131884761Y-67892380D02*
X131884761Y-68749523D01*
X131932380Y-68844761D01*
X132027619Y-68892380D01*
X132122857Y-68892380D01*
X129889523Y-64801904D02*
X129889523Y-64001904D01*
X130080000Y-64001904D01*
X130194285Y-64040000D01*
X130270476Y-64116190D01*
X130308571Y-64192380D01*
X130346666Y-64344761D01*
X130346666Y-64459047D01*
X130308571Y-64611428D01*
X130270476Y-64687619D01*
X130194285Y-64763809D01*
X130080000Y-64801904D01*
X129889523Y-64801904D01*
X131032380Y-64268571D02*
X131032380Y-64801904D01*
X130841904Y-63963809D02*
X130651428Y-64535238D01*
X131146666Y-64535238D01*
%TO.C,D3*%
X121645714Y-76512380D02*
X121645714Y-75512380D01*
X121645714Y-76464761D02*
X121550476Y-76512380D01*
X121360000Y-76512380D01*
X121264761Y-76464761D01*
X121217142Y-76417142D01*
X121169523Y-76321904D01*
X121169523Y-76036190D01*
X121217142Y-75940952D01*
X121264761Y-75893333D01*
X121360000Y-75845714D01*
X121550476Y-75845714D01*
X121645714Y-75893333D01*
X122264761Y-76512380D02*
X122169523Y-76464761D01*
X122121904Y-76417142D01*
X122074285Y-76321904D01*
X122074285Y-76036190D01*
X122121904Y-75940952D01*
X122169523Y-75893333D01*
X122264761Y-75845714D01*
X122407619Y-75845714D01*
X122502857Y-75893333D01*
X122550476Y-75940952D01*
X122598095Y-76036190D01*
X122598095Y-76321904D01*
X122550476Y-76417142D01*
X122502857Y-76464761D01*
X122407619Y-76512380D01*
X122264761Y-76512380D01*
X122931428Y-75845714D02*
X123121904Y-76512380D01*
X123312380Y-76036190D01*
X123502857Y-76512380D01*
X123693333Y-75845714D01*
X124074285Y-75845714D02*
X124074285Y-76512380D01*
X124074285Y-75940952D02*
X124121904Y-75893333D01*
X124217142Y-75845714D01*
X124360000Y-75845714D01*
X124455238Y-75893333D01*
X124502857Y-75988571D01*
X124502857Y-76512380D01*
X122269523Y-72421904D02*
X122269523Y-71621904D01*
X122460000Y-71621904D01*
X122574285Y-71660000D01*
X122650476Y-71736190D01*
X122688571Y-71812380D01*
X122726666Y-71964761D01*
X122726666Y-72079047D01*
X122688571Y-72231428D01*
X122650476Y-72307619D01*
X122574285Y-72383809D01*
X122460000Y-72421904D01*
X122269523Y-72421904D01*
X122993333Y-71621904D02*
X123488571Y-71621904D01*
X123221904Y-71926666D01*
X123336190Y-71926666D01*
X123412380Y-71964761D01*
X123450476Y-72002857D01*
X123488571Y-72079047D01*
X123488571Y-72269523D01*
X123450476Y-72345714D01*
X123412380Y-72383809D01*
X123336190Y-72421904D01*
X123107619Y-72421904D01*
X123031428Y-72383809D01*
X122993333Y-72345714D01*
%TO.C,D2*%
X114359047Y-68892380D02*
X114263809Y-68844761D01*
X114216190Y-68749523D01*
X114216190Y-67892380D01*
X115120952Y-68844761D02*
X115025714Y-68892380D01*
X114835238Y-68892380D01*
X114740000Y-68844761D01*
X114692380Y-68749523D01*
X114692380Y-68368571D01*
X114740000Y-68273333D01*
X114835238Y-68225714D01*
X115025714Y-68225714D01*
X115120952Y-68273333D01*
X115168571Y-68368571D01*
X115168571Y-68463809D01*
X114692380Y-68559047D01*
X115454285Y-68225714D02*
X115835238Y-68225714D01*
X115597142Y-68892380D02*
X115597142Y-68035238D01*
X115644761Y-67940000D01*
X115740000Y-67892380D01*
X115835238Y-67892380D01*
X116025714Y-68225714D02*
X116406666Y-68225714D01*
X116168571Y-67892380D02*
X116168571Y-68749523D01*
X116216190Y-68844761D01*
X116311428Y-68892380D01*
X116406666Y-68892380D01*
X114649523Y-64801904D02*
X114649523Y-64001904D01*
X114840000Y-64001904D01*
X114954285Y-64040000D01*
X115030476Y-64116190D01*
X115068571Y-64192380D01*
X115106666Y-64344761D01*
X115106666Y-64459047D01*
X115068571Y-64611428D01*
X115030476Y-64687619D01*
X114954285Y-64763809D01*
X114840000Y-64801904D01*
X114649523Y-64801904D01*
X115411428Y-64078095D02*
X115449523Y-64040000D01*
X115525714Y-64001904D01*
X115716190Y-64001904D01*
X115792380Y-64040000D01*
X115830476Y-64078095D01*
X115868571Y-64154285D01*
X115868571Y-64230476D01*
X115830476Y-64344761D01*
X115373333Y-64801904D01*
X115868571Y-64801904D01*
%TO.C,D1*%
X122621904Y-60605714D02*
X122621904Y-61272380D01*
X122193333Y-60605714D02*
X122193333Y-61129523D01*
X122240952Y-61224761D01*
X122336190Y-61272380D01*
X122479047Y-61272380D01*
X122574285Y-61224761D01*
X122621904Y-61177142D01*
X123098095Y-60605714D02*
X123098095Y-61605714D01*
X123098095Y-60653333D02*
X123193333Y-60605714D01*
X123383809Y-60605714D01*
X123479047Y-60653333D01*
X123526666Y-60700952D01*
X123574285Y-60796190D01*
X123574285Y-61081904D01*
X123526666Y-61177142D01*
X123479047Y-61224761D01*
X123383809Y-61272380D01*
X123193333Y-61272380D01*
X123098095Y-61224761D01*
X122269523Y-57181904D02*
X122269523Y-56381904D01*
X122460000Y-56381904D01*
X122574285Y-56420000D01*
X122650476Y-56496190D01*
X122688571Y-56572380D01*
X122726666Y-56724761D01*
X122726666Y-56839047D01*
X122688571Y-56991428D01*
X122650476Y-57067619D01*
X122574285Y-57143809D01*
X122460000Y-57181904D01*
X122269523Y-57181904D01*
X123488571Y-57181904D02*
X123031428Y-57181904D01*
X123260000Y-57181904D02*
X123260000Y-56381904D01*
X123183809Y-56496190D01*
X123107619Y-56572380D01*
X123031428Y-56610476D01*
%TO.C,C1*%
X185762380Y-70639047D02*
X185762380Y-71210476D01*
X185762380Y-70924761D02*
X184762380Y-70924761D01*
X184905238Y-71020000D01*
X185000476Y-71115238D01*
X185048095Y-71210476D01*
X184762380Y-70020000D02*
X184762380Y-69924761D01*
X184810000Y-69829523D01*
X184857619Y-69781904D01*
X184952857Y-69734285D01*
X185143333Y-69686666D01*
X185381428Y-69686666D01*
X185571904Y-69734285D01*
X185667142Y-69781904D01*
X185714761Y-69829523D01*
X185762380Y-69924761D01*
X185762380Y-70020000D01*
X185714761Y-70115238D01*
X185667142Y-70162857D01*
X185571904Y-70210476D01*
X185381428Y-70258095D01*
X185143333Y-70258095D01*
X184952857Y-70210476D01*
X184857619Y-70162857D01*
X184810000Y-70115238D01*
X184762380Y-70020000D01*
X184762380Y-69067619D02*
X184762380Y-68972380D01*
X184810000Y-68877142D01*
X184857619Y-68829523D01*
X184952857Y-68781904D01*
X185143333Y-68734285D01*
X185381428Y-68734285D01*
X185571904Y-68781904D01*
X185667142Y-68829523D01*
X185714761Y-68877142D01*
X185762380Y-68972380D01*
X185762380Y-69067619D01*
X185714761Y-69162857D01*
X185667142Y-69210476D01*
X185571904Y-69258095D01*
X185381428Y-69305714D01*
X185143333Y-69305714D01*
X184952857Y-69258095D01*
X184857619Y-69210476D01*
X184810000Y-69162857D01*
X184762380Y-69067619D01*
X185095714Y-68305714D02*
X185762380Y-68305714D01*
X185190952Y-68305714D02*
X185143333Y-68258095D01*
X185095714Y-68162857D01*
X185095714Y-68020000D01*
X185143333Y-67924761D01*
X185238571Y-67877142D01*
X185762380Y-67877142D01*
D11*
X187129285Y-69561666D02*
X187141190Y-69573571D01*
X187153095Y-69609285D01*
X187153095Y-69633095D01*
X187141190Y-69668809D01*
X187117380Y-69692619D01*
X187093571Y-69704523D01*
X187045952Y-69716428D01*
X187010238Y-69716428D01*
X186962619Y-69704523D01*
X186938809Y-69692619D01*
X186915000Y-69668809D01*
X186903095Y-69633095D01*
X186903095Y-69609285D01*
X186915000Y-69573571D01*
X186926904Y-69561666D01*
X187153095Y-69323571D02*
X187153095Y-69466428D01*
X187153095Y-69395000D02*
X186903095Y-69395000D01*
X186938809Y-69418809D01*
X186962619Y-69442619D01*
X186974523Y-69466428D01*
D10*
%TO.C,J7*%
X193059523Y-45842380D02*
X193059523Y-44842380D01*
X193297619Y-44842380D01*
X193440476Y-44890000D01*
X193535714Y-44985238D01*
X193583333Y-45080476D01*
X193630952Y-45270952D01*
X193630952Y-45413809D01*
X193583333Y-45604285D01*
X193535714Y-45699523D01*
X193440476Y-45794761D01*
X193297619Y-45842380D01*
X193059523Y-45842380D01*
X194059523Y-45842380D02*
X194059523Y-45175714D01*
X194059523Y-44842380D02*
X194011904Y-44890000D01*
X194059523Y-44937619D01*
X194107142Y-44890000D01*
X194059523Y-44842380D01*
X194059523Y-44937619D01*
X194964285Y-45175714D02*
X194964285Y-45985238D01*
X194916666Y-46080476D01*
X194869047Y-46128095D01*
X194773809Y-46175714D01*
X194630952Y-46175714D01*
X194535714Y-46128095D01*
X194964285Y-45794761D02*
X194869047Y-45842380D01*
X194678571Y-45842380D01*
X194583333Y-45794761D01*
X194535714Y-45747142D01*
X194488095Y-45651904D01*
X194488095Y-45366190D01*
X194535714Y-45270952D01*
X194583333Y-45223333D01*
X194678571Y-45175714D01*
X194869047Y-45175714D01*
X194964285Y-45223333D01*
X195440476Y-45842380D02*
X195440476Y-45175714D01*
X195440476Y-44842380D02*
X195392857Y-44890000D01*
X195440476Y-44937619D01*
X195488095Y-44890000D01*
X195440476Y-44842380D01*
X195440476Y-44937619D01*
X195773809Y-45175714D02*
X196154761Y-45175714D01*
X195916666Y-44842380D02*
X195916666Y-45699523D01*
X195964285Y-45794761D01*
X196059523Y-45842380D01*
X196154761Y-45842380D01*
X196916666Y-45842380D02*
X196916666Y-45318571D01*
X196869047Y-45223333D01*
X196773809Y-45175714D01*
X196583333Y-45175714D01*
X196488095Y-45223333D01*
X196916666Y-45794761D02*
X196821428Y-45842380D01*
X196583333Y-45842380D01*
X196488095Y-45794761D01*
X196440476Y-45699523D01*
X196440476Y-45604285D01*
X196488095Y-45509047D01*
X196583333Y-45461428D01*
X196821428Y-45461428D01*
X196916666Y-45413809D01*
X197535714Y-45842380D02*
X197440476Y-45794761D01*
X197392857Y-45699523D01*
X197392857Y-44842380D01*
X191146380Y-92713333D02*
X191860666Y-92713333D01*
X192003523Y-92760952D01*
X192098761Y-92856190D01*
X192146380Y-92999047D01*
X192146380Y-93094285D01*
X191146380Y-92332380D02*
X191146380Y-91665714D01*
X192146380Y-92094285D01*
%TO.C,J1*%
X134853809Y-101722380D02*
X134853809Y-100722380D01*
X135234761Y-100722380D01*
X135330000Y-100770000D01*
X135377619Y-100817619D01*
X135425238Y-100912857D01*
X135425238Y-101055714D01*
X135377619Y-101150952D01*
X135330000Y-101198571D01*
X135234761Y-101246190D01*
X134853809Y-101246190D01*
X135996666Y-101722380D02*
X135901428Y-101674761D01*
X135853809Y-101627142D01*
X135806190Y-101531904D01*
X135806190Y-101246190D01*
X135853809Y-101150952D01*
X135901428Y-101103333D01*
X135996666Y-101055714D01*
X136139523Y-101055714D01*
X136234761Y-101103333D01*
X136282380Y-101150952D01*
X136330000Y-101246190D01*
X136330000Y-101531904D01*
X136282380Y-101627142D01*
X136234761Y-101674761D01*
X136139523Y-101722380D01*
X135996666Y-101722380D01*
X136663333Y-101055714D02*
X136853809Y-101722380D01*
X137044285Y-101246190D01*
X137234761Y-101722380D01*
X137425238Y-101055714D01*
X138187142Y-101674761D02*
X138091904Y-101722380D01*
X137901428Y-101722380D01*
X137806190Y-101674761D01*
X137758571Y-101579523D01*
X137758571Y-101198571D01*
X137806190Y-101103333D01*
X137901428Y-101055714D01*
X138091904Y-101055714D01*
X138187142Y-101103333D01*
X138234761Y-101198571D01*
X138234761Y-101293809D01*
X137758571Y-101389047D01*
X138663333Y-101722380D02*
X138663333Y-101055714D01*
X138663333Y-101246190D02*
X138710952Y-101150952D01*
X138758571Y-101103333D01*
X138853809Y-101055714D01*
X138949047Y-101055714D01*
X127606666Y-100722380D02*
X127606666Y-101436666D01*
X127559047Y-101579523D01*
X127463809Y-101674761D01*
X127320952Y-101722380D01*
X127225714Y-101722380D01*
X128606666Y-101722380D02*
X128035238Y-101722380D01*
X128320952Y-101722380D02*
X128320952Y-100722380D01*
X128225714Y-100865238D01*
X128130476Y-100960476D01*
X128035238Y-101008095D01*
%TO.C,J3*%
X157380476Y-101436666D02*
X157856666Y-101436666D01*
X157285238Y-101722380D02*
X157618571Y-100722380D01*
X157951904Y-101722380D01*
X158285238Y-101055714D02*
X158285238Y-101722380D01*
X158285238Y-101150952D02*
X158332857Y-101103333D01*
X158428095Y-101055714D01*
X158570952Y-101055714D01*
X158666190Y-101103333D01*
X158713809Y-101198571D01*
X158713809Y-101722380D01*
X159618571Y-101722380D02*
X159618571Y-101198571D01*
X159570952Y-101103333D01*
X159475714Y-101055714D01*
X159285238Y-101055714D01*
X159190000Y-101103333D01*
X159618571Y-101674761D02*
X159523333Y-101722380D01*
X159285238Y-101722380D01*
X159190000Y-101674761D01*
X159142380Y-101579523D01*
X159142380Y-101484285D01*
X159190000Y-101389047D01*
X159285238Y-101341428D01*
X159523333Y-101341428D01*
X159618571Y-101293809D01*
X160237619Y-101722380D02*
X160142380Y-101674761D01*
X160094761Y-101579523D01*
X160094761Y-100722380D01*
X160761428Y-101722380D02*
X160666190Y-101674761D01*
X160618571Y-101627142D01*
X160570952Y-101531904D01*
X160570952Y-101246190D01*
X160618571Y-101150952D01*
X160666190Y-101103333D01*
X160761428Y-101055714D01*
X160904285Y-101055714D01*
X160999523Y-101103333D01*
X161047142Y-101150952D01*
X161094761Y-101246190D01*
X161094761Y-101531904D01*
X161047142Y-101627142D01*
X160999523Y-101674761D01*
X160904285Y-101722380D01*
X160761428Y-101722380D01*
X161951904Y-101055714D02*
X161951904Y-101865238D01*
X161904285Y-101960476D01*
X161856666Y-102008095D01*
X161761428Y-102055714D01*
X161618571Y-102055714D01*
X161523333Y-102008095D01*
X161951904Y-101674761D02*
X161856666Y-101722380D01*
X161666190Y-101722380D01*
X161570952Y-101674761D01*
X161523333Y-101627142D01*
X161475714Y-101531904D01*
X161475714Y-101246190D01*
X161523333Y-101150952D01*
X161570952Y-101103333D01*
X161666190Y-101055714D01*
X161856666Y-101055714D01*
X161951904Y-101103333D01*
X150466666Y-100722380D02*
X150466666Y-101436666D01*
X150419047Y-101579523D01*
X150323809Y-101674761D01*
X150180952Y-101722380D01*
X150085714Y-101722380D01*
X150847619Y-100722380D02*
X151466666Y-100722380D01*
X151133333Y-101103333D01*
X151276190Y-101103333D01*
X151371428Y-101150952D01*
X151419047Y-101198571D01*
X151466666Y-101293809D01*
X151466666Y-101531904D01*
X151419047Y-101627142D01*
X151371428Y-101674761D01*
X151276190Y-101722380D01*
X150990476Y-101722380D01*
X150895238Y-101674761D01*
X150847619Y-101627142D01*
%TO.C,J5*%
X180240476Y-101436666D02*
X180716666Y-101436666D01*
X180145238Y-101722380D02*
X180478571Y-100722380D01*
X180811904Y-101722380D01*
X181145238Y-101055714D02*
X181145238Y-101722380D01*
X181145238Y-101150952D02*
X181192857Y-101103333D01*
X181288095Y-101055714D01*
X181430952Y-101055714D01*
X181526190Y-101103333D01*
X181573809Y-101198571D01*
X181573809Y-101722380D01*
X182478571Y-101722380D02*
X182478571Y-101198571D01*
X182430952Y-101103333D01*
X182335714Y-101055714D01*
X182145238Y-101055714D01*
X182050000Y-101103333D01*
X182478571Y-101674761D02*
X182383333Y-101722380D01*
X182145238Y-101722380D01*
X182050000Y-101674761D01*
X182002380Y-101579523D01*
X182002380Y-101484285D01*
X182050000Y-101389047D01*
X182145238Y-101341428D01*
X182383333Y-101341428D01*
X182478571Y-101293809D01*
X183097619Y-101722380D02*
X183002380Y-101674761D01*
X182954761Y-101579523D01*
X182954761Y-100722380D01*
X183621428Y-101722380D02*
X183526190Y-101674761D01*
X183478571Y-101627142D01*
X183430952Y-101531904D01*
X183430952Y-101246190D01*
X183478571Y-101150952D01*
X183526190Y-101103333D01*
X183621428Y-101055714D01*
X183764285Y-101055714D01*
X183859523Y-101103333D01*
X183907142Y-101150952D01*
X183954761Y-101246190D01*
X183954761Y-101531904D01*
X183907142Y-101627142D01*
X183859523Y-101674761D01*
X183764285Y-101722380D01*
X183621428Y-101722380D01*
X184811904Y-101055714D02*
X184811904Y-101865238D01*
X184764285Y-101960476D01*
X184716666Y-102008095D01*
X184621428Y-102055714D01*
X184478571Y-102055714D01*
X184383333Y-102008095D01*
X184811904Y-101674761D02*
X184716666Y-101722380D01*
X184526190Y-101722380D01*
X184430952Y-101674761D01*
X184383333Y-101627142D01*
X184335714Y-101531904D01*
X184335714Y-101246190D01*
X184383333Y-101150952D01*
X184430952Y-101103333D01*
X184526190Y-101055714D01*
X184716666Y-101055714D01*
X184811904Y-101103333D01*
X173326666Y-100722380D02*
X173326666Y-101436666D01*
X173279047Y-101579523D01*
X173183809Y-101674761D01*
X173040952Y-101722380D01*
X172945714Y-101722380D01*
X174279047Y-100722380D02*
X173802857Y-100722380D01*
X173755238Y-101198571D01*
X173802857Y-101150952D01*
X173898095Y-101103333D01*
X174136190Y-101103333D01*
X174231428Y-101150952D01*
X174279047Y-101198571D01*
X174326666Y-101293809D01*
X174326666Y-101531904D01*
X174279047Y-101627142D01*
X174231428Y-101674761D01*
X174136190Y-101722380D01*
X173898095Y-101722380D01*
X173802857Y-101674761D01*
X173755238Y-101627142D01*
%TO.C,J2*%
X128821238Y-45842380D02*
X128821238Y-44842380D01*
X129202190Y-44842380D01*
X129297428Y-44890000D01*
X129345047Y-44937619D01*
X129392666Y-45032857D01*
X129392666Y-45175714D01*
X129345047Y-45270952D01*
X129297428Y-45318571D01*
X129202190Y-45366190D01*
X128821238Y-45366190D01*
X129726000Y-44842380D02*
X129964095Y-45842380D01*
X130154571Y-45128095D01*
X130345047Y-45842380D01*
X130583142Y-44842380D01*
X130964095Y-45842380D02*
X130964095Y-44842380D01*
X131297428Y-45556666D01*
X131630761Y-44842380D01*
X131630761Y-45842380D01*
X118462666Y-44842380D02*
X118462666Y-45556666D01*
X118415047Y-45699523D01*
X118319809Y-45794761D01*
X118176952Y-45842380D01*
X118081714Y-45842380D01*
X118891238Y-44937619D02*
X118938857Y-44890000D01*
X119034095Y-44842380D01*
X119272190Y-44842380D01*
X119367428Y-44890000D01*
X119415047Y-44937619D01*
X119462666Y-45032857D01*
X119462666Y-45128095D01*
X119415047Y-45270952D01*
X118843619Y-45842380D01*
X119462666Y-45842380D01*
%TO.C,J4*%
X153205238Y-45842380D02*
X153205238Y-44842380D01*
X153586190Y-44842380D01*
X153681428Y-44890000D01*
X153729047Y-44937619D01*
X153776666Y-45032857D01*
X153776666Y-45175714D01*
X153729047Y-45270952D01*
X153681428Y-45318571D01*
X153586190Y-45366190D01*
X153205238Y-45366190D01*
X154110000Y-44842380D02*
X154348095Y-45842380D01*
X154538571Y-45128095D01*
X154729047Y-45842380D01*
X154967142Y-44842380D01*
X155348095Y-45842380D02*
X155348095Y-44842380D01*
X155681428Y-45556666D01*
X156014761Y-44842380D01*
X156014761Y-45842380D01*
X145386666Y-44842380D02*
X145386666Y-45556666D01*
X145339047Y-45699523D01*
X145243809Y-45794761D01*
X145100952Y-45842380D01*
X145005714Y-45842380D01*
X146291428Y-45175714D02*
X146291428Y-45842380D01*
X146053333Y-44794761D02*
X145815238Y-45509047D01*
X146434285Y-45509047D01*
%TO.C,J6*%
X172541428Y-45747142D02*
X172493809Y-45794761D01*
X172350952Y-45842380D01*
X172255714Y-45842380D01*
X172112857Y-45794761D01*
X172017619Y-45699523D01*
X171970000Y-45604285D01*
X171922380Y-45413809D01*
X171922380Y-45270952D01*
X171970000Y-45080476D01*
X172017619Y-44985238D01*
X172112857Y-44890000D01*
X172255714Y-44842380D01*
X172350952Y-44842380D01*
X172493809Y-44890000D01*
X172541428Y-44937619D01*
X173112857Y-45842380D02*
X173017619Y-45794761D01*
X172970000Y-45747142D01*
X172922380Y-45651904D01*
X172922380Y-45366190D01*
X172970000Y-45270952D01*
X173017619Y-45223333D01*
X173112857Y-45175714D01*
X173255714Y-45175714D01*
X173350952Y-45223333D01*
X173398571Y-45270952D01*
X173446190Y-45366190D01*
X173446190Y-45651904D01*
X173398571Y-45747142D01*
X173350952Y-45794761D01*
X173255714Y-45842380D01*
X173112857Y-45842380D01*
X173874761Y-45842380D02*
X173874761Y-45175714D01*
X173874761Y-45270952D02*
X173922380Y-45223333D01*
X174017619Y-45175714D01*
X174160476Y-45175714D01*
X174255714Y-45223333D01*
X174303333Y-45318571D01*
X174303333Y-45842380D01*
X174303333Y-45318571D02*
X174350952Y-45223333D01*
X174446190Y-45175714D01*
X174589047Y-45175714D01*
X174684285Y-45223333D01*
X174731904Y-45318571D01*
X174731904Y-45842380D01*
X175208095Y-45842380D02*
X175208095Y-45175714D01*
X175208095Y-45270952D02*
X175255714Y-45223333D01*
X175350952Y-45175714D01*
X175493809Y-45175714D01*
X175589047Y-45223333D01*
X175636666Y-45318571D01*
X175636666Y-45842380D01*
X175636666Y-45318571D02*
X175684285Y-45223333D01*
X175779523Y-45175714D01*
X175922380Y-45175714D01*
X176017619Y-45223333D01*
X176065238Y-45318571D01*
X176065238Y-45842380D01*
X176970000Y-45175714D02*
X176970000Y-45842380D01*
X176541428Y-45175714D02*
X176541428Y-45699523D01*
X176589047Y-45794761D01*
X176684285Y-45842380D01*
X176827142Y-45842380D01*
X176922380Y-45794761D01*
X176970000Y-45747142D01*
X177446190Y-45175714D02*
X177446190Y-45842380D01*
X177446190Y-45270952D02*
X177493809Y-45223333D01*
X177589047Y-45175714D01*
X177731904Y-45175714D01*
X177827142Y-45223333D01*
X177874761Y-45318571D01*
X177874761Y-45842380D01*
X178350952Y-45842380D02*
X178350952Y-45175714D01*
X178350952Y-44842380D02*
X178303333Y-44890000D01*
X178350952Y-44937619D01*
X178398571Y-44890000D01*
X178350952Y-44842380D01*
X178350952Y-44937619D01*
X179255714Y-45794761D02*
X179160476Y-45842380D01*
X178970000Y-45842380D01*
X178874761Y-45794761D01*
X178827142Y-45747142D01*
X178779523Y-45651904D01*
X178779523Y-45366190D01*
X178827142Y-45270952D01*
X178874761Y-45223333D01*
X178970000Y-45175714D01*
X179160476Y-45175714D01*
X179255714Y-45223333D01*
X180112857Y-45842380D02*
X180112857Y-45318571D01*
X180065238Y-45223333D01*
X179970000Y-45175714D01*
X179779523Y-45175714D01*
X179684285Y-45223333D01*
X180112857Y-45794761D02*
X180017619Y-45842380D01*
X179779523Y-45842380D01*
X179684285Y-45794761D01*
X179636666Y-45699523D01*
X179636666Y-45604285D01*
X179684285Y-45509047D01*
X179779523Y-45461428D01*
X180017619Y-45461428D01*
X180112857Y-45413809D01*
X180446190Y-45175714D02*
X180827142Y-45175714D01*
X180589047Y-44842380D02*
X180589047Y-45699523D01*
X180636666Y-45794761D01*
X180731904Y-45842380D01*
X180827142Y-45842380D01*
X181160476Y-45842380D02*
X181160476Y-45175714D01*
X181160476Y-44842380D02*
X181112857Y-44890000D01*
X181160476Y-44937619D01*
X181208095Y-44890000D01*
X181160476Y-44842380D01*
X181160476Y-44937619D01*
X181779523Y-45842380D02*
X181684285Y-45794761D01*
X181636666Y-45747142D01*
X181589047Y-45651904D01*
X181589047Y-45366190D01*
X181636666Y-45270952D01*
X181684285Y-45223333D01*
X181779523Y-45175714D01*
X181922380Y-45175714D01*
X182017619Y-45223333D01*
X182065238Y-45270952D01*
X182112857Y-45366190D01*
X182112857Y-45651904D01*
X182065238Y-45747142D01*
X182017619Y-45794761D01*
X181922380Y-45842380D01*
X181779523Y-45842380D01*
X182541428Y-45175714D02*
X182541428Y-45842380D01*
X182541428Y-45270952D02*
X182589047Y-45223333D01*
X182684285Y-45175714D01*
X182827142Y-45175714D01*
X182922380Y-45223333D01*
X182970000Y-45318571D01*
X182970000Y-45842380D01*
X168246666Y-44842380D02*
X168246666Y-45556666D01*
X168199047Y-45699523D01*
X168103809Y-45794761D01*
X167960952Y-45842380D01*
X167865714Y-45842380D01*
X169151428Y-44842380D02*
X168960952Y-44842380D01*
X168865714Y-44890000D01*
X168818095Y-44937619D01*
X168722857Y-45080476D01*
X168675238Y-45270952D01*
X168675238Y-45651904D01*
X168722857Y-45747142D01*
X168770476Y-45794761D01*
X168865714Y-45842380D01*
X169056190Y-45842380D01*
X169151428Y-45794761D01*
X169199047Y-45747142D01*
X169246666Y-45651904D01*
X169246666Y-45413809D01*
X169199047Y-45318571D01*
X169151428Y-45270952D01*
X169056190Y-45223333D01*
X168865714Y-45223333D01*
X168770476Y-45270952D01*
X168722857Y-45318571D01*
X168675238Y-45413809D01*
D12*
%TO.C,R6*%
X174798637Y-64023594D02*
X175098637Y-64023594D01*
X175098637Y-64623594D02*
X174798637Y-64623594D01*
X175098637Y-64023594D02*
X175098637Y-64623594D01*
X174798637Y-64623594D02*
X174798637Y-64023594D01*
%TO.C,SW1*%
X130020000Y-92840000D02*
X130020000Y-86840000D01*
X130020000Y-86840000D02*
X133020000Y-86840000D01*
X133020000Y-86840000D02*
X136020000Y-86840000D01*
X136020000Y-92840000D02*
X130020000Y-92840000D01*
X136020000Y-86840000D02*
X136020000Y-92840000D01*
X135035564Y-89840000D02*
G75*
G03*
X135035564Y-89840000I-2015564J0D01*
G01*
%TO.C,SW2*%
X142720000Y-92840000D02*
X142720000Y-86840000D01*
X142720000Y-86840000D02*
X145720000Y-86840000D01*
X145720000Y-86840000D02*
X148720000Y-86840000D01*
X148720000Y-92840000D02*
X142720000Y-92840000D01*
X148720000Y-86840000D02*
X148720000Y-92840000D01*
X147735564Y-89840000D02*
G75*
G03*
X147735564Y-89840000I-2015564J0D01*
G01*
%TO.C,SW3*%
X155420000Y-92840000D02*
X155420000Y-86840000D01*
X155420000Y-86840000D02*
X158420000Y-86840000D01*
X158420000Y-86840000D02*
X161420000Y-86840000D01*
X161420000Y-92840000D02*
X155420000Y-92840000D01*
X161420000Y-86840000D02*
X161420000Y-92840000D01*
X160435564Y-89840000D02*
G75*
G03*
X160435564Y-89840000I-2015564J0D01*
G01*
%TO.C,SW4*%
X170660000Y-92840000D02*
X170660000Y-86840000D01*
X170660000Y-86840000D02*
X173660000Y-86840000D01*
X173660000Y-86840000D02*
X176660000Y-86840000D01*
X176660000Y-92840000D02*
X170660000Y-92840000D01*
X176660000Y-86840000D02*
X176660000Y-92840000D01*
X175675564Y-89840000D02*
G75*
G03*
X175675564Y-89840000I-2015564J0D01*
G01*
%TO.C,SW5*%
X183360000Y-92840000D02*
X183360000Y-86840000D01*
X183360000Y-86840000D02*
X186360000Y-86840000D01*
X186360000Y-86840000D02*
X189360000Y-86840000D01*
X189360000Y-92840000D02*
X183360000Y-92840000D01*
X189360000Y-86840000D02*
X189360000Y-92840000D01*
X188375564Y-89840000D02*
G75*
G03*
X188375564Y-89840000I-2015564J0D01*
G01*
%TO.C,U1*%
X176575000Y-66990000D02*
X181925000Y-66990000D01*
X181925000Y-77150000D02*
X175575000Y-77150000D01*
X181925000Y-66990000D02*
X181925000Y-77150000D01*
X175575000Y-77150000D02*
X175575000Y-67990000D01*
X175575000Y-67990000D02*
X176575000Y-66990000D01*
%TO.C,R5*%
X190387972Y-84383220D02*
X190687972Y-84383220D01*
X190687972Y-84983220D02*
X190387972Y-84983220D01*
X190687972Y-84383220D02*
X190687972Y-84983220D01*
X190387972Y-84983220D02*
X190387972Y-84383220D01*
%TO.C,R4*%
X177693687Y-84383220D02*
X177993687Y-84383220D01*
X177993687Y-84983220D02*
X177693687Y-84983220D01*
X177993687Y-84383220D02*
X177993687Y-84983220D01*
X177693687Y-84983220D02*
X177693687Y-84383220D01*
%TO.C,R3*%
X162491258Y-84383220D02*
X162791258Y-84383220D01*
X162791258Y-84983220D02*
X162491258Y-84983220D01*
X162791258Y-84383220D02*
X162791258Y-84983220D01*
X162491258Y-84983220D02*
X162491258Y-84383220D01*
%TO.C,R2*%
X149694601Y-84357626D02*
X149994601Y-84357626D01*
X149994601Y-84957626D02*
X149694601Y-84957626D01*
X149994601Y-84357626D02*
X149994601Y-84957626D01*
X149694601Y-84957626D02*
X149694601Y-84357626D01*
%TO.C,R1*%
X137102690Y-84383220D02*
X137402690Y-84383220D01*
X137402690Y-84983220D02*
X137102690Y-84983220D01*
X137402690Y-84383220D02*
X137402690Y-84983220D01*
X137102690Y-84983220D02*
X137102690Y-84383220D01*
%TO.C,D8*%
X173710000Y-55920000D02*
X169710000Y-55920000D01*
X168710000Y-56920000D02*
X168710000Y-60920000D01*
X169710000Y-55920000D02*
X168710000Y-56920000D01*
X173710000Y-60920000D02*
X173710000Y-55920000D01*
X168710000Y-60920000D02*
X173710000Y-60920000D01*
X173210000Y-58420000D02*
G75*
G03*
X173210000Y-58420000I-2000000J0D01*
G01*
%TO.C,D7*%
X160920000Y-58460000D02*
X156920000Y-58460000D01*
X155920000Y-59460000D02*
X155920000Y-63460000D01*
X156920000Y-58460000D02*
X155920000Y-59460000D01*
X160920000Y-63460000D02*
X160920000Y-58460000D01*
X155920000Y-63460000D02*
X160920000Y-63460000D01*
X160420000Y-60960000D02*
G75*
G03*
X160420000Y-60960000I-2000000J0D01*
G01*
%TO.C,D6*%
X150760000Y-69560000D02*
X146760000Y-69560000D01*
X145760000Y-70560000D02*
X145760000Y-74560000D01*
X146760000Y-69560000D02*
X145760000Y-70560000D01*
X150760000Y-74560000D02*
X150760000Y-69560000D01*
X145760000Y-74560000D02*
X150760000Y-74560000D01*
X150260000Y-72060000D02*
G75*
G03*
X150260000Y-72060000I-2000000J0D01*
G01*
%TO.C,D5*%
X140600000Y-69560000D02*
X136600000Y-69560000D01*
X135600000Y-70560000D02*
X135600000Y-74560000D01*
X136600000Y-69560000D02*
X135600000Y-70560000D01*
X140600000Y-74560000D02*
X140600000Y-69560000D01*
X135600000Y-74560000D02*
X140600000Y-74560000D01*
X140100000Y-72060000D02*
G75*
G03*
X140100000Y-72060000I-2000000J0D01*
G01*
%TO.C,D4*%
X132980000Y-61940000D02*
X128980000Y-61940000D01*
X127980000Y-62940000D02*
X127980000Y-66940000D01*
X128980000Y-61940000D02*
X127980000Y-62940000D01*
X132980000Y-66940000D02*
X132980000Y-61940000D01*
X127980000Y-66940000D02*
X132980000Y-66940000D01*
X132480000Y-64440000D02*
G75*
G03*
X132480000Y-64440000I-2000000J0D01*
G01*
%TO.C,D3*%
X125360000Y-69560000D02*
X121360000Y-69560000D01*
X120360000Y-70560000D02*
X120360000Y-74560000D01*
X121360000Y-69560000D02*
X120360000Y-70560000D01*
X125360000Y-74560000D02*
X125360000Y-69560000D01*
X120360000Y-74560000D02*
X125360000Y-74560000D01*
X124860000Y-72060000D02*
G75*
G03*
X124860000Y-72060000I-2000000J0D01*
G01*
%TO.C,D2*%
X117240000Y-64440000D02*
G75*
G03*
X117240000Y-64440000I-2000000J0D01*
G01*
X112740000Y-66940000D02*
X117740000Y-66940000D01*
X117740000Y-66940000D02*
X117740000Y-61940000D01*
X113740000Y-61940000D02*
X112740000Y-62940000D01*
X112740000Y-62940000D02*
X112740000Y-66940000D01*
X117740000Y-61940000D02*
X113740000Y-61940000D01*
%TO.C,D1*%
X124860000Y-56820000D02*
G75*
G03*
X124860000Y-56820000I-2000000J0D01*
G01*
X120360000Y-59320000D02*
X125360000Y-59320000D01*
X125360000Y-59320000D02*
X125360000Y-54320000D01*
X121360000Y-54320000D02*
X120360000Y-55320000D01*
X120360000Y-55320000D02*
X120360000Y-59320000D01*
X125360000Y-54320000D02*
X121360000Y-54320000D01*
%TO.C,C1*%
X186510000Y-69220000D02*
X186510000Y-69820000D01*
X186210000Y-69820000D02*
X186210000Y-69220000D01*
X186510000Y-69820000D02*
X186210000Y-69820000D01*
X186210000Y-69220000D02*
X186510000Y-69220000D01*
%TO.C,J7*%
X197790000Y-93650000D02*
X193710000Y-93650000D01*
X193710000Y-93650000D02*
X192710000Y-92650000D01*
X192710000Y-92650000D02*
X192710000Y-47930000D01*
X192710000Y-47930000D02*
X197790000Y-47930000D01*
X197790000Y-47930000D02*
X197790000Y-93650000D01*
%TO.C,J1*%
X126670000Y-98730000D02*
X126670000Y-96825000D01*
X127305000Y-96190000D02*
X146990000Y-96190000D01*
X146990000Y-96190000D02*
X146990000Y-98730000D01*
X126670000Y-96825000D02*
X127305000Y-96190000D01*
X146990000Y-98730000D02*
X126670000Y-98730000D01*
%TO.C,J3*%
X150165000Y-96190000D02*
X169850000Y-96190000D01*
X149530000Y-96825000D02*
X150165000Y-96190000D01*
X169850000Y-96190000D02*
X169850000Y-98730000D01*
X169850000Y-98730000D02*
X149530000Y-98730000D01*
X149530000Y-98730000D02*
X149530000Y-96825000D01*
%TO.C,J5*%
X172390000Y-96825000D02*
X173025000Y-96190000D01*
X192710000Y-98730000D02*
X172390000Y-98730000D01*
X173025000Y-96190000D02*
X192710000Y-96190000D01*
X172390000Y-98730000D02*
X172390000Y-96825000D01*
X192710000Y-96190000D02*
X192710000Y-98730000D01*
%TO.C,J2*%
X117526000Y-48565000D02*
X118161000Y-47930000D01*
X142926000Y-47930000D02*
X142926000Y-50470000D01*
X118161000Y-47930000D02*
X142926000Y-47930000D01*
X117526000Y-50470000D02*
X117526000Y-48565000D01*
X142926000Y-50470000D02*
X117526000Y-50470000D01*
%TO.C,J4*%
X144450000Y-48565000D02*
X145085000Y-47930000D01*
X144450000Y-50470000D02*
X144450000Y-48565000D01*
X145085000Y-47930000D02*
X164770000Y-47930000D01*
X164770000Y-47930000D02*
X164770000Y-50470000D01*
X164770000Y-50470000D02*
X144450000Y-50470000D01*
%TO.C,J6*%
X167945000Y-47930000D02*
X187630000Y-47930000D01*
X187630000Y-47930000D02*
X187630000Y-50470000D01*
X187630000Y-50470000D02*
X167310000Y-50470000D01*
X167310000Y-48565000D02*
X167945000Y-47930000D01*
X167310000Y-50470000D02*
X167310000Y-48565000D01*
%TD*%
M02*
