M48
; DRILL file {KiCad (6.0.7)} date Thu Oct 20 00:14:41 2022
; FORMAT={-:-/ absolute / inch / decimal}
; #@! TF.CreationDate,2022-10-20T00:14:41-04:00
; #@! TF.GenerationSoftware,Kicad,Pcbnew,(6.0.7)
; #@! TF.FileFunction,Plated,1,2,PTH
FMAT,2
INCH
; #@! TA.AperFunction,Plated,PTH,ViaDrill
T1C0.0157
; #@! TA.AperFunction,Plated,PTH,ComponentDrill
T2C0.0315
; #@! TA.AperFunction,Plated,PTH,ComponentDrill
T3C0.0354
; #@! TA.AperFunction,Plated,PTH,ComponentDrill
T4C0.0394
; #@! TA.AperFunction,Plated,PTH,ComponentDrill
T5C0.0433
; #@! TA.AperFunction,Plated,PTH,ComponentDrill
T6C0.0472
%
G90
G05
T1
X4.4375Y-2.3949
X4.712Y-2.632
X4.7361Y-2.6966
X4.7369Y-2.0955
X4.742Y-2.517
X4.817Y-2.237
X4.912Y-3.782
X5.022Y-2.222
X5.0355Y-2.3949
X5.3342Y-2.6974
X5.432Y-3.032
X5.7352Y-2.6936
X5.9594Y-3.0244
X6.1408Y-2.2613
X6.142Y-2.8874
X6.142Y-2.9366
X6.6449Y-2.1589
X6.8821Y-2.5721
X6.8824Y-2.537
X6.9493Y-2.537
X6.9493Y-2.572
X7.002Y-2.9405
X7.047Y-2.812
X7.0669Y-3.2421
X7.067Y-3.167
X7.082Y-2.682
X7.102Y-3.197
X7.107Y-3.122
X7.167Y-2.827
X7.1713Y-2.682
X7.192Y-3.142
X7.2084Y-2.4706
X7.2542Y-2.3783
X7.2585Y-3.142
X7.292Y-2.942
X7.332Y-2.637
X7.342Y-3.147
X7.4024Y-2.572
X7.427Y-2.542
X7.432Y-3.117
X7.477Y-2.292
X7.487Y-2.697
T2
X7.0974Y-2.1724
X7.0974Y-2.2724
X7.0974Y-2.3724
X7.0974Y-2.4724
X7.3974Y-2.1724
X7.3974Y-2.2724
X7.3974Y-2.3724
X7.3974Y-2.4724
T3
X4.5819Y-3.2912
X4.5819Y-3.4487
X4.5819Y-3.6062
T4
X4.677Y-1.937
X4.777Y-1.937
X4.877Y-1.937
X4.977Y-1.937
X5.037Y-3.837
X5.077Y-1.937
X5.137Y-3.837
X5.177Y-1.937
X5.237Y-3.837
X5.277Y-1.937
X5.337Y-3.837
X5.377Y-1.937
X5.437Y-3.837
X5.477Y-1.937
X5.537Y-3.837
X5.577Y-1.937
X5.637Y-3.837
X5.737Y-1.937
X5.737Y-3.837
X5.837Y-1.937
X5.937Y-1.937
X5.937Y-3.837
X6.037Y-1.937
X6.037Y-3.837
X6.137Y-1.937
X6.137Y-3.837
X6.237Y-1.937
X6.237Y-3.837
X6.337Y-1.937
X6.337Y-3.837
X6.437Y-1.937
X6.437Y-3.837
X6.537Y-3.837
X6.637Y-1.937
X6.637Y-3.837
X6.737Y-1.937
X6.837Y-1.937
X6.837Y-3.837
X6.937Y-1.937
X6.937Y-3.837
X7.037Y-1.937
X7.037Y-3.837
X7.137Y-1.937
X7.137Y-3.837
X7.237Y-1.937
X7.237Y-3.837
X7.337Y-1.937
X7.337Y-3.837
X7.437Y-3.837
X7.537Y-3.837
X7.637Y-1.937
X7.637Y-2.037
X7.637Y-2.137
X7.637Y-2.237
X7.637Y-2.337
X7.637Y-2.437
X7.637Y-2.537
X7.637Y-2.637
X7.637Y-2.737
X7.637Y-2.837
X7.637Y-2.937
X7.637Y-3.037
X7.637Y-3.137
X7.637Y-3.237
X7.637Y-3.337
X7.637Y-3.437
X7.637Y-3.537
X7.637Y-3.637
X7.737Y-1.937
X7.737Y-2.037
X7.737Y-2.137
X7.737Y-2.237
X7.737Y-2.337
X7.737Y-2.437
X7.737Y-2.537
X7.737Y-2.637
X7.737Y-2.737
X7.737Y-2.837
X7.737Y-2.937
X7.737Y-3.037
X7.737Y-3.137
X7.737Y-3.237
X7.737Y-3.337
X7.737Y-3.437
X7.737Y-3.537
X7.737Y-3.637
T5
X5.1091Y-3.4484
X5.1091Y-3.6256
X5.365Y-3.4484
X5.365Y-3.6256
X5.6091Y-3.4484
X5.6091Y-3.6256
X5.865Y-3.4484
X5.865Y-3.6256
X6.1091Y-3.4484
X6.1091Y-3.6256
X6.365Y-3.4484
X6.365Y-3.6256
X6.7091Y-3.4484
X6.7091Y-3.6256
X6.965Y-3.4484
X6.965Y-3.6256
X7.2091Y-3.4484
X7.2091Y-3.6256
X7.465Y-3.4484
X7.465Y-3.6256
T6
X4.4146Y-3.2125
X4.4146Y-3.6849
X4.6508Y-3.2125
X4.6508Y-3.6849
T0
M30
