%TF.GenerationSoftware,KiCad,Pcbnew,(6.0.7)*%
%TF.CreationDate,2022-10-30T16:08:44-04:00*%
%TF.ProjectId,dmgc-attiny-arduino-mega,646d6763-2d61-4747-9469-6e792d617264,rev?*%
%TF.SameCoordinates,Original*%
%TF.FileFunction,Paste,Top*%
%TF.FilePolarity,Positive*%
%FSLAX46Y46*%
G04 Gerber Fmt 4.6, Leading zero omitted, Abs format (unit mm)*
G04 Created by KiCad (PCBNEW (6.0.7)) date 2022-10-30 16:08:44*
%MOMM*%
%LPD*%
G01*
G04 APERTURE LIST*
G04 Aperture macros list*
%AMRoundRect*
0 Rectangle with rounded corners*
0 $1 Rounding radius*
0 $2 $3 $4 $5 $6 $7 $8 $9 X,Y pos of 4 corners*
0 Add a 4 corners polygon primitive as box body*
4,1,4,$2,$3,$4,$5,$6,$7,$8,$9,$2,$3,0*
0 Add four circle primitives for the rounded corners*
1,1,$1+$1,$2,$3*
1,1,$1+$1,$4,$5*
1,1,$1+$1,$6,$7*
1,1,$1+$1,$8,$9*
0 Add four rect primitives between the rounded corners*
20,1,$1+$1,$2,$3,$4,$5,0*
20,1,$1+$1,$4,$5,$6,$7,0*
20,1,$1+$1,$6,$7,$8,$9,0*
20,1,$1+$1,$8,$9,$2,$3,0*%
G04 Aperture macros list end*
%ADD10RoundRect,0.200000X-0.275000X0.200000X-0.275000X-0.200000X0.275000X-0.200000X0.275000X0.200000X0*%
%ADD11R,1.500000X1.000000*%
%ADD12RoundRect,0.225000X0.250000X-0.225000X0.250000X0.225000X-0.250000X0.225000X-0.250000X-0.225000X0*%
%ADD13RoundRect,0.100000X-0.100000X0.637500X-0.100000X-0.637500X0.100000X-0.637500X0.100000X0.637500X0*%
%ADD14RoundRect,0.200000X0.275000X-0.200000X0.275000X0.200000X-0.275000X0.200000X-0.275000X-0.200000X0*%
%ADD15RoundRect,0.225000X-0.225000X-0.250000X0.225000X-0.250000X0.225000X0.250000X-0.225000X0.250000X0*%
%ADD16RoundRect,0.225000X-0.250000X0.225000X-0.250000X-0.225000X0.250000X-0.225000X0.250000X0.225000X0*%
G04 APERTURE END LIST*
D10*
%TO.C,R10*%
X189617992Y-83483341D03*
X189617992Y-85133341D03*
%TD*%
%TO.C,R2*%
X189916000Y-75426000D03*
X189916000Y-77076000D03*
%TD*%
%TO.C,R9*%
X136284168Y-83505108D03*
X136284168Y-85155108D03*
%TD*%
%TO.C,R8*%
X148992432Y-83498124D03*
X148992432Y-85148124D03*
%TD*%
%TO.C,R7*%
X161662048Y-83483341D03*
X161662048Y-85133341D03*
%TD*%
D11*
%TO.C,D2*%
X112790000Y-62840000D03*
X112790000Y-66040000D03*
X117690000Y-66040000D03*
X117690000Y-62840000D03*
%TD*%
D12*
%TO.C,C1*%
X124892000Y-97981000D03*
X124892000Y-96431000D03*
%TD*%
D13*
%TO.C,U2*%
X187776000Y-70340500D03*
X187126000Y-70340500D03*
X186476000Y-70340500D03*
X185826000Y-70340500D03*
X185176000Y-70340500D03*
X184526000Y-70340500D03*
X183876000Y-70340500D03*
X183226000Y-70340500D03*
X182576000Y-70340500D03*
X181926000Y-70340500D03*
X181276000Y-70340500D03*
X180626000Y-70340500D03*
X180626000Y-76065500D03*
X181276000Y-76065500D03*
X181926000Y-76065500D03*
X182576000Y-76065500D03*
X183226000Y-76065500D03*
X183876000Y-76065500D03*
X184526000Y-76065500D03*
X185176000Y-76065500D03*
X185826000Y-76065500D03*
X186476000Y-76065500D03*
X187126000Y-76065500D03*
X187776000Y-76065500D03*
%TD*%
D10*
%TO.C,R6*%
X176904025Y-83483341D03*
X176904025Y-85133341D03*
%TD*%
D11*
%TO.C,D7*%
X155970000Y-59360000D03*
X155970000Y-62560000D03*
X160870000Y-62560000D03*
X160870000Y-59360000D03*
%TD*%
%TO.C,D6*%
X145810000Y-70460000D03*
X145810000Y-73660000D03*
X150710000Y-73660000D03*
X150710000Y-70460000D03*
%TD*%
%TO.C,D3*%
X120410000Y-70460000D03*
X120410000Y-73660000D03*
X125310000Y-73660000D03*
X125310000Y-70460000D03*
%TD*%
D14*
%TO.C,R4*%
X183693000Y-80632000D03*
X183693000Y-78982000D03*
%TD*%
D11*
%TO.C,D5*%
X135650000Y-70460000D03*
X135650000Y-73660000D03*
X140550000Y-73660000D03*
X140550000Y-70460000D03*
%TD*%
D15*
%TO.C,C3*%
X177330000Y-70282000D03*
X178880000Y-70282000D03*
%TD*%
D14*
%TO.C,R3*%
X180645000Y-80632000D03*
X180645000Y-78982000D03*
%TD*%
%TO.C,R5*%
X185598000Y-80632000D03*
X185598000Y-78982000D03*
%TD*%
D11*
%TO.C,D4*%
X128030000Y-62840000D03*
X128030000Y-66040000D03*
X132930000Y-66040000D03*
X132930000Y-62840000D03*
%TD*%
D16*
%TO.C,C2*%
X190125648Y-55158677D03*
X190125648Y-56708677D03*
%TD*%
D14*
%TO.C,R1*%
X117399000Y-58915000D03*
X117399000Y-57265000D03*
%TD*%
D11*
%TO.C,D8*%
X168760000Y-56820000D03*
X168760000Y-60020000D03*
X173660000Y-60020000D03*
X173660000Y-56820000D03*
%TD*%
%TO.C,D1*%
X120410000Y-55220000D03*
X120410000Y-58420000D03*
X125310000Y-58420000D03*
X125310000Y-55220000D03*
%TD*%
M02*
