%TF.GenerationSoftware,KiCad,Pcbnew,(6.0.7)*%
%TF.CreationDate,2022-10-30T16:08:44-04:00*%
%TF.ProjectId,dmgc-attiny-arduino-mega,646d6763-2d61-4747-9469-6e792d617264,rev?*%
%TF.SameCoordinates,Original*%
%TF.FileFunction,Legend,Top*%
%TF.FilePolarity,Positive*%
%FSLAX46Y46*%
G04 Gerber Fmt 4.6, Leading zero omitted, Abs format (unit mm)*
G04 Created by KiCad (PCBNEW (6.0.7)) date 2022-10-30 16:08:44*
%MOMM*%
%LPD*%
G01*
G04 APERTURE LIST*
%ADD10C,0.150000*%
%ADD11C,0.125000*%
%ADD12C,0.120000*%
G04 APERTURE END LIST*
D10*
X184740952Y-94943761D02*
X184883809Y-94991380D01*
X185121904Y-94991380D01*
X185217142Y-94943761D01*
X185264761Y-94896142D01*
X185312380Y-94800904D01*
X185312380Y-94705666D01*
X185264761Y-94610428D01*
X185217142Y-94562809D01*
X185121904Y-94515190D01*
X184931428Y-94467571D01*
X184836190Y-94419952D01*
X184788571Y-94372333D01*
X184740952Y-94277095D01*
X184740952Y-94181857D01*
X184788571Y-94086619D01*
X184836190Y-94039000D01*
X184931428Y-93991380D01*
X185169523Y-93991380D01*
X185312380Y-94039000D01*
X185598095Y-94324714D02*
X185979047Y-94324714D01*
X185740952Y-93991380D02*
X185740952Y-94848523D01*
X185788571Y-94943761D01*
X185883809Y-94991380D01*
X185979047Y-94991380D01*
X186740952Y-94991380D02*
X186740952Y-94467571D01*
X186693333Y-94372333D01*
X186598095Y-94324714D01*
X186407619Y-94324714D01*
X186312380Y-94372333D01*
X186740952Y-94943761D02*
X186645714Y-94991380D01*
X186407619Y-94991380D01*
X186312380Y-94943761D01*
X186264761Y-94848523D01*
X186264761Y-94753285D01*
X186312380Y-94658047D01*
X186407619Y-94610428D01*
X186645714Y-94610428D01*
X186740952Y-94562809D01*
X187217142Y-94991380D02*
X187217142Y-94324714D01*
X187217142Y-94515190D02*
X187264761Y-94419952D01*
X187312380Y-94372333D01*
X187407619Y-94324714D01*
X187502857Y-94324714D01*
X187693333Y-94324714D02*
X188074285Y-94324714D01*
X187836190Y-93991380D02*
X187836190Y-94848523D01*
X187883809Y-94943761D01*
X187979047Y-94991380D01*
X188074285Y-94991380D01*
X171646820Y-94943761D02*
X171789677Y-94991380D01*
X172027772Y-94991380D01*
X172123010Y-94943761D01*
X172170629Y-94896142D01*
X172218248Y-94800904D01*
X172218248Y-94705666D01*
X172170629Y-94610428D01*
X172123010Y-94562809D01*
X172027772Y-94515190D01*
X171837296Y-94467571D01*
X171742058Y-94419952D01*
X171694439Y-94372333D01*
X171646820Y-94277095D01*
X171646820Y-94181857D01*
X171694439Y-94086619D01*
X171742058Y-94039000D01*
X171837296Y-93991380D01*
X172075391Y-93991380D01*
X172218248Y-94039000D01*
X173027772Y-94943761D02*
X172932534Y-94991380D01*
X172742058Y-94991380D01*
X172646820Y-94943761D01*
X172599201Y-94848523D01*
X172599201Y-94467571D01*
X172646820Y-94372333D01*
X172742058Y-94324714D01*
X172932534Y-94324714D01*
X173027772Y-94372333D01*
X173075391Y-94467571D01*
X173075391Y-94562809D01*
X172599201Y-94658047D01*
X173646820Y-94991380D02*
X173551582Y-94943761D01*
X173503963Y-94848523D01*
X173503963Y-93991380D01*
X174408725Y-94943761D02*
X174313487Y-94991380D01*
X174123010Y-94991380D01*
X174027772Y-94943761D01*
X173980153Y-94848523D01*
X173980153Y-94467571D01*
X174027772Y-94372333D01*
X174123010Y-94324714D01*
X174313487Y-94324714D01*
X174408725Y-94372333D01*
X174456344Y-94467571D01*
X174456344Y-94562809D01*
X173980153Y-94658047D01*
X175313487Y-94943761D02*
X175218248Y-94991380D01*
X175027772Y-94991380D01*
X174932534Y-94943761D01*
X174884915Y-94896142D01*
X174837296Y-94800904D01*
X174837296Y-94515190D01*
X174884915Y-94419952D01*
X174932534Y-94372333D01*
X175027772Y-94324714D01*
X175218248Y-94324714D01*
X175313487Y-94372333D01*
X175599201Y-94324714D02*
X175980153Y-94324714D01*
X175742058Y-93991380D02*
X175742058Y-94848523D01*
X175789677Y-94943761D01*
X175884915Y-94991380D01*
X175980153Y-94991380D01*
D11*
X146640952Y-76528761D02*
X146783809Y-76576380D01*
X147021904Y-76576380D01*
X147117142Y-76528761D01*
X147164761Y-76481142D01*
X147212380Y-76385904D01*
X147212380Y-76290666D01*
X147164761Y-76195428D01*
X147117142Y-76147809D01*
X147021904Y-76100190D01*
X146831428Y-76052571D01*
X146736190Y-76004952D01*
X146688571Y-75957333D01*
X146640952Y-75862095D01*
X146640952Y-75766857D01*
X146688571Y-75671619D01*
X146736190Y-75624000D01*
X146831428Y-75576380D01*
X147069523Y-75576380D01*
X147212380Y-75624000D01*
X147498095Y-75909714D02*
X147879047Y-75909714D01*
X147640952Y-75576380D02*
X147640952Y-76433523D01*
X147688571Y-76528761D01*
X147783809Y-76576380D01*
X147879047Y-76576380D01*
X148640952Y-76576380D02*
X148640952Y-76052571D01*
X148593333Y-75957333D01*
X148498095Y-75909714D01*
X148307619Y-75909714D01*
X148212380Y-75957333D01*
X148640952Y-76528761D02*
X148545714Y-76576380D01*
X148307619Y-76576380D01*
X148212380Y-76528761D01*
X148164761Y-76433523D01*
X148164761Y-76338285D01*
X148212380Y-76243047D01*
X148307619Y-76195428D01*
X148545714Y-76195428D01*
X148640952Y-76147809D01*
X149117142Y-76576380D02*
X149117142Y-75909714D01*
X149117142Y-76100190D02*
X149164761Y-76004952D01*
X149212380Y-75957333D01*
X149307619Y-75909714D01*
X149402857Y-75909714D01*
X149593333Y-75909714D02*
X149974285Y-75909714D01*
X149736190Y-75576380D02*
X149736190Y-76433523D01*
X149783809Y-76528761D01*
X149879047Y-76576380D01*
X149974285Y-76576380D01*
X158491428Y-64749571D02*
X158634285Y-64797190D01*
X158681904Y-64844809D01*
X158729523Y-64940047D01*
X158729523Y-65082904D01*
X158681904Y-65178142D01*
X158634285Y-65225761D01*
X158539047Y-65273380D01*
X158158095Y-65273380D01*
X158158095Y-64273380D01*
X158491428Y-64273380D01*
X158586666Y-64321000D01*
X158634285Y-64368619D01*
X158681904Y-64463857D01*
X158681904Y-64559095D01*
X158634285Y-64654333D01*
X158586666Y-64701952D01*
X158491428Y-64749571D01*
X158158095Y-64749571D01*
X135980952Y-76528761D02*
X136123809Y-76576380D01*
X136361904Y-76576380D01*
X136457142Y-76528761D01*
X136504761Y-76481142D01*
X136552380Y-76385904D01*
X136552380Y-76290666D01*
X136504761Y-76195428D01*
X136457142Y-76147809D01*
X136361904Y-76100190D01*
X136171428Y-76052571D01*
X136076190Y-76004952D01*
X136028571Y-75957333D01*
X135980952Y-75862095D01*
X135980952Y-75766857D01*
X136028571Y-75671619D01*
X136076190Y-75624000D01*
X136171428Y-75576380D01*
X136409523Y-75576380D01*
X136552380Y-75624000D01*
X137361904Y-76528761D02*
X137266666Y-76576380D01*
X137076190Y-76576380D01*
X136980952Y-76528761D01*
X136933333Y-76433523D01*
X136933333Y-76052571D01*
X136980952Y-75957333D01*
X137076190Y-75909714D01*
X137266666Y-75909714D01*
X137361904Y-75957333D01*
X137409523Y-76052571D01*
X137409523Y-76147809D01*
X136933333Y-76243047D01*
X137980952Y-76576380D02*
X137885714Y-76528761D01*
X137838095Y-76433523D01*
X137838095Y-75576380D01*
X138742857Y-76528761D02*
X138647619Y-76576380D01*
X138457142Y-76576380D01*
X138361904Y-76528761D01*
X138314285Y-76433523D01*
X138314285Y-76052571D01*
X138361904Y-75957333D01*
X138457142Y-75909714D01*
X138647619Y-75909714D01*
X138742857Y-75957333D01*
X138790476Y-76052571D01*
X138790476Y-76147809D01*
X138314285Y-76243047D01*
X139647619Y-76528761D02*
X139552380Y-76576380D01*
X139361904Y-76576380D01*
X139266666Y-76528761D01*
X139219047Y-76481142D01*
X139171428Y-76385904D01*
X139171428Y-76100190D01*
X139219047Y-76004952D01*
X139266666Y-75957333D01*
X139361904Y-75909714D01*
X139552380Y-75909714D01*
X139647619Y-75957333D01*
X139933333Y-75909714D02*
X140314285Y-75909714D01*
X140076190Y-75576380D02*
X140076190Y-76433523D01*
X140123809Y-76528761D01*
X140219047Y-76576380D01*
X140314285Y-76576380D01*
X171008904Y-62574666D02*
X171485095Y-62574666D01*
X170913666Y-62860380D02*
X171247000Y-61860380D01*
X171580333Y-62860380D01*
D10*
X129329523Y-94864380D02*
X129329523Y-93864380D01*
X129900952Y-94864380D01*
X129900952Y-93864380D01*
X130805714Y-94864380D02*
X130805714Y-94340571D01*
X130758095Y-94245333D01*
X130662857Y-94197714D01*
X130472380Y-94197714D01*
X130377142Y-94245333D01*
X130805714Y-94816761D02*
X130710476Y-94864380D01*
X130472380Y-94864380D01*
X130377142Y-94816761D01*
X130329523Y-94721523D01*
X130329523Y-94626285D01*
X130377142Y-94531047D01*
X130472380Y-94483428D01*
X130710476Y-94483428D01*
X130805714Y-94435809D01*
X131186666Y-94197714D02*
X131424761Y-94864380D01*
X131662857Y-94197714D01*
X132043809Y-94864380D02*
X132043809Y-94197714D01*
X132043809Y-93864380D02*
X131996190Y-93912000D01*
X132043809Y-93959619D01*
X132091428Y-93912000D01*
X132043809Y-93864380D01*
X132043809Y-93959619D01*
X132948571Y-94197714D02*
X132948571Y-95007238D01*
X132900952Y-95102476D01*
X132853333Y-95150095D01*
X132758095Y-95197714D01*
X132615238Y-95197714D01*
X132520000Y-95150095D01*
X132948571Y-94816761D02*
X132853333Y-94864380D01*
X132662857Y-94864380D01*
X132567619Y-94816761D01*
X132520000Y-94769142D01*
X132472380Y-94673904D01*
X132472380Y-94388190D01*
X132520000Y-94292952D01*
X132567619Y-94245333D01*
X132662857Y-94197714D01*
X132853333Y-94197714D01*
X132948571Y-94245333D01*
X133853333Y-94864380D02*
X133853333Y-94340571D01*
X133805714Y-94245333D01*
X133710476Y-94197714D01*
X133520000Y-94197714D01*
X133424761Y-94245333D01*
X133853333Y-94816761D02*
X133758095Y-94864380D01*
X133520000Y-94864380D01*
X133424761Y-94816761D01*
X133377142Y-94721523D01*
X133377142Y-94626285D01*
X133424761Y-94531047D01*
X133520000Y-94483428D01*
X133758095Y-94483428D01*
X133853333Y-94435809D01*
X134186666Y-94197714D02*
X134567619Y-94197714D01*
X134329523Y-93864380D02*
X134329523Y-94721523D01*
X134377142Y-94816761D01*
X134472380Y-94864380D01*
X134567619Y-94864380D01*
X134900952Y-94864380D02*
X134900952Y-94197714D01*
X134900952Y-93864380D02*
X134853333Y-93912000D01*
X134900952Y-93959619D01*
X134948571Y-93912000D01*
X134900952Y-93864380D01*
X134900952Y-93959619D01*
X135520000Y-94864380D02*
X135424761Y-94816761D01*
X135377142Y-94769142D01*
X135329523Y-94673904D01*
X135329523Y-94388190D01*
X135377142Y-94292952D01*
X135424761Y-94245333D01*
X135520000Y-94197714D01*
X135662857Y-94197714D01*
X135758095Y-94245333D01*
X135805714Y-94292952D01*
X135853333Y-94388190D01*
X135853333Y-94673904D01*
X135805714Y-94769142D01*
X135758095Y-94816761D01*
X135662857Y-94864380D01*
X135520000Y-94864380D01*
X136281904Y-94197714D02*
X136281904Y-94864380D01*
X136281904Y-94292952D02*
X136329523Y-94245333D01*
X136424761Y-94197714D01*
X136567619Y-94197714D01*
X136662857Y-94245333D01*
X136710476Y-94340571D01*
X136710476Y-94864380D01*
%TO.C,R10*%
X191500372Y-84951198D02*
X191024182Y-85284531D01*
X191500372Y-85522626D02*
X190500372Y-85522626D01*
X190500372Y-85141674D01*
X190547992Y-85046436D01*
X190595611Y-84998817D01*
X190690849Y-84951198D01*
X190833706Y-84951198D01*
X190928944Y-84998817D01*
X190976563Y-85046436D01*
X191024182Y-85141674D01*
X191024182Y-85522626D01*
X191500372Y-83998817D02*
X191500372Y-84570245D01*
X191500372Y-84284531D02*
X190500372Y-84284531D01*
X190643230Y-84379769D01*
X190738468Y-84475007D01*
X190786087Y-84570245D01*
X190500372Y-83379769D02*
X190500372Y-83284531D01*
X190547992Y-83189293D01*
X190595611Y-83141674D01*
X190690849Y-83094055D01*
X190881325Y-83046436D01*
X191119420Y-83046436D01*
X191309896Y-83094055D01*
X191405134Y-83141674D01*
X191452753Y-83189293D01*
X191500372Y-83284531D01*
X191500372Y-83379769D01*
X191452753Y-83475007D01*
X191405134Y-83522626D01*
X191309896Y-83570245D01*
X191119420Y-83617864D01*
X190881325Y-83617864D01*
X190690849Y-83570245D01*
X190595611Y-83522626D01*
X190547992Y-83475007D01*
X190500372Y-83379769D01*
%TO.C,R2*%
X191798380Y-76417666D02*
X191322190Y-76751000D01*
X191798380Y-76989095D02*
X190798380Y-76989095D01*
X190798380Y-76608142D01*
X190846000Y-76512904D01*
X190893619Y-76465285D01*
X190988857Y-76417666D01*
X191131714Y-76417666D01*
X191226952Y-76465285D01*
X191274571Y-76512904D01*
X191322190Y-76608142D01*
X191322190Y-76989095D01*
X190893619Y-76036714D02*
X190846000Y-75989095D01*
X190798380Y-75893857D01*
X190798380Y-75655761D01*
X190846000Y-75560523D01*
X190893619Y-75512904D01*
X190988857Y-75465285D01*
X191084095Y-75465285D01*
X191226952Y-75512904D01*
X191798380Y-76084333D01*
X191798380Y-75465285D01*
%TO.C,R9*%
X138166548Y-84496774D02*
X137690358Y-84830108D01*
X138166548Y-85068203D02*
X137166548Y-85068203D01*
X137166548Y-84687250D01*
X137214168Y-84592012D01*
X137261787Y-84544393D01*
X137357025Y-84496774D01*
X137499882Y-84496774D01*
X137595120Y-84544393D01*
X137642739Y-84592012D01*
X137690358Y-84687250D01*
X137690358Y-85068203D01*
X138166548Y-84020584D02*
X138166548Y-83830108D01*
X138118929Y-83734869D01*
X138071310Y-83687250D01*
X137928453Y-83592012D01*
X137737977Y-83544393D01*
X137357025Y-83544393D01*
X137261787Y-83592012D01*
X137214168Y-83639631D01*
X137166548Y-83734869D01*
X137166548Y-83925346D01*
X137214168Y-84020584D01*
X137261787Y-84068203D01*
X137357025Y-84115822D01*
X137595120Y-84115822D01*
X137690358Y-84068203D01*
X137737977Y-84020584D01*
X137785596Y-83925346D01*
X137785596Y-83734869D01*
X137737977Y-83639631D01*
X137690358Y-83592012D01*
X137595120Y-83544393D01*
%TO.C,SW4*%
X144386666Y-85994761D02*
X144529523Y-86042380D01*
X144767619Y-86042380D01*
X144862857Y-85994761D01*
X144910476Y-85947142D01*
X144958095Y-85851904D01*
X144958095Y-85756666D01*
X144910476Y-85661428D01*
X144862857Y-85613809D01*
X144767619Y-85566190D01*
X144577142Y-85518571D01*
X144481904Y-85470952D01*
X144434285Y-85423333D01*
X144386666Y-85328095D01*
X144386666Y-85232857D01*
X144434285Y-85137619D01*
X144481904Y-85090000D01*
X144577142Y-85042380D01*
X144815238Y-85042380D01*
X144958095Y-85090000D01*
X145291428Y-85042380D02*
X145529523Y-86042380D01*
X145720000Y-85328095D01*
X145910476Y-86042380D01*
X146148571Y-85042380D01*
X146958095Y-85375714D02*
X146958095Y-86042380D01*
X146720000Y-84994761D02*
X146481904Y-85709047D01*
X147100952Y-85709047D01*
%TO.C,SW5*%
X131686666Y-85994761D02*
X131829523Y-86042380D01*
X132067619Y-86042380D01*
X132162857Y-85994761D01*
X132210476Y-85947142D01*
X132258095Y-85851904D01*
X132258095Y-85756666D01*
X132210476Y-85661428D01*
X132162857Y-85613809D01*
X132067619Y-85566190D01*
X131877142Y-85518571D01*
X131781904Y-85470952D01*
X131734285Y-85423333D01*
X131686666Y-85328095D01*
X131686666Y-85232857D01*
X131734285Y-85137619D01*
X131781904Y-85090000D01*
X131877142Y-85042380D01*
X132115238Y-85042380D01*
X132258095Y-85090000D01*
X132591428Y-85042380D02*
X132829523Y-86042380D01*
X133020000Y-85328095D01*
X133210476Y-86042380D01*
X133448571Y-85042380D01*
X134305714Y-85042380D02*
X133829523Y-85042380D01*
X133781904Y-85518571D01*
X133829523Y-85470952D01*
X133924761Y-85423333D01*
X134162857Y-85423333D01*
X134258095Y-85470952D01*
X134305714Y-85518571D01*
X134353333Y-85613809D01*
X134353333Y-85851904D01*
X134305714Y-85947142D01*
X134258095Y-85994761D01*
X134162857Y-86042380D01*
X133924761Y-86042380D01*
X133829523Y-85994761D01*
X133781904Y-85947142D01*
%TO.C,R8*%
X150874812Y-84489790D02*
X150398622Y-84823124D01*
X150874812Y-85061219D02*
X149874812Y-85061219D01*
X149874812Y-84680266D01*
X149922432Y-84585028D01*
X149970051Y-84537409D01*
X150065289Y-84489790D01*
X150208146Y-84489790D01*
X150303384Y-84537409D01*
X150351003Y-84585028D01*
X150398622Y-84680266D01*
X150398622Y-85061219D01*
X150303384Y-83918362D02*
X150255765Y-84013600D01*
X150208146Y-84061219D01*
X150112908Y-84108838D01*
X150065289Y-84108838D01*
X149970051Y-84061219D01*
X149922432Y-84013600D01*
X149874812Y-83918362D01*
X149874812Y-83727885D01*
X149922432Y-83632647D01*
X149970051Y-83585028D01*
X150065289Y-83537409D01*
X150112908Y-83537409D01*
X150208146Y-83585028D01*
X150255765Y-83632647D01*
X150303384Y-83727885D01*
X150303384Y-83918362D01*
X150351003Y-84013600D01*
X150398622Y-84061219D01*
X150493860Y-84108838D01*
X150684336Y-84108838D01*
X150779574Y-84061219D01*
X150827193Y-84013600D01*
X150874812Y-83918362D01*
X150874812Y-83727885D01*
X150827193Y-83632647D01*
X150779574Y-83585028D01*
X150684336Y-83537409D01*
X150493860Y-83537409D01*
X150398622Y-83585028D01*
X150351003Y-83632647D01*
X150303384Y-83727885D01*
%TO.C,R7*%
X163544428Y-84475007D02*
X163068238Y-84808341D01*
X163544428Y-85046436D02*
X162544428Y-85046436D01*
X162544428Y-84665483D01*
X162592048Y-84570245D01*
X162639667Y-84522626D01*
X162734905Y-84475007D01*
X162877762Y-84475007D01*
X162973000Y-84522626D01*
X163020619Y-84570245D01*
X163068238Y-84665483D01*
X163068238Y-85046436D01*
X162544428Y-84141674D02*
X162544428Y-83475007D01*
X163544428Y-83903579D01*
%TO.C,D2*%
X114501904Y-61392380D02*
X114501904Y-60392380D01*
X114740000Y-60392380D01*
X114882857Y-60440000D01*
X114978095Y-60535238D01*
X115025714Y-60630476D01*
X115073333Y-60820952D01*
X115073333Y-60963809D01*
X115025714Y-61154285D01*
X114978095Y-61249523D01*
X114882857Y-61344761D01*
X114740000Y-61392380D01*
X114501904Y-61392380D01*
X115454285Y-60487619D02*
X115501904Y-60440000D01*
X115597142Y-60392380D01*
X115835238Y-60392380D01*
X115930476Y-60440000D01*
X115978095Y-60487619D01*
X116025714Y-60582857D01*
X116025714Y-60678095D01*
X115978095Y-60820952D01*
X115406666Y-61392380D01*
X116025714Y-61392380D01*
%TO.C,C1*%
X123819142Y-97372666D02*
X123866761Y-97420285D01*
X123914380Y-97563142D01*
X123914380Y-97658380D01*
X123866761Y-97801238D01*
X123771523Y-97896476D01*
X123676285Y-97944095D01*
X123485809Y-97991714D01*
X123342952Y-97991714D01*
X123152476Y-97944095D01*
X123057238Y-97896476D01*
X122962000Y-97801238D01*
X122914380Y-97658380D01*
X122914380Y-97563142D01*
X122962000Y-97420285D01*
X123009619Y-97372666D01*
X123914380Y-96420285D02*
X123914380Y-96991714D01*
X123914380Y-96706000D02*
X122914380Y-96706000D01*
X123057238Y-96801238D01*
X123152476Y-96896476D01*
X123200095Y-96991714D01*
%TO.C,U2*%
X188503380Y-73964904D02*
X189312904Y-73964904D01*
X189408142Y-73917285D01*
X189455761Y-73869666D01*
X189503380Y-73774428D01*
X189503380Y-73583952D01*
X189455761Y-73488714D01*
X189408142Y-73441095D01*
X189312904Y-73393476D01*
X188503380Y-73393476D01*
X188598619Y-72964904D02*
X188551000Y-72917285D01*
X188503380Y-72822047D01*
X188503380Y-72583952D01*
X188551000Y-72488714D01*
X188598619Y-72441095D01*
X188693857Y-72393476D01*
X188789095Y-72393476D01*
X188931952Y-72441095D01*
X189503380Y-73012523D01*
X189503380Y-72393476D01*
%TO.C,R6*%
X178786405Y-84475007D02*
X178310215Y-84808341D01*
X178786405Y-85046436D02*
X177786405Y-85046436D01*
X177786405Y-84665483D01*
X177834025Y-84570245D01*
X177881644Y-84522626D01*
X177976882Y-84475007D01*
X178119739Y-84475007D01*
X178214977Y-84522626D01*
X178262596Y-84570245D01*
X178310215Y-84665483D01*
X178310215Y-85046436D01*
X177786405Y-83617864D02*
X177786405Y-83808341D01*
X177834025Y-83903579D01*
X177881644Y-83951198D01*
X178024501Y-84046436D01*
X178214977Y-84094055D01*
X178595929Y-84094055D01*
X178691167Y-84046436D01*
X178738786Y-83998817D01*
X178786405Y-83903579D01*
X178786405Y-83713102D01*
X178738786Y-83617864D01*
X178691167Y-83570245D01*
X178595929Y-83522626D01*
X178357834Y-83522626D01*
X178262596Y-83570245D01*
X178214977Y-83617864D01*
X178167358Y-83713102D01*
X178167358Y-83903579D01*
X178214977Y-83998817D01*
X178262596Y-84046436D01*
X178357834Y-84094055D01*
%TO.C,D7*%
X157681904Y-57912380D02*
X157681904Y-56912380D01*
X157920000Y-56912380D01*
X158062857Y-56960000D01*
X158158095Y-57055238D01*
X158205714Y-57150476D01*
X158253333Y-57340952D01*
X158253333Y-57483809D01*
X158205714Y-57674285D01*
X158158095Y-57769523D01*
X158062857Y-57864761D01*
X157920000Y-57912380D01*
X157681904Y-57912380D01*
X158586666Y-56912380D02*
X159253333Y-56912380D01*
X158824761Y-57912380D01*
%TO.C,D6*%
X147521904Y-69012380D02*
X147521904Y-68012380D01*
X147760000Y-68012380D01*
X147902857Y-68060000D01*
X147998095Y-68155238D01*
X148045714Y-68250476D01*
X148093333Y-68440952D01*
X148093333Y-68583809D01*
X148045714Y-68774285D01*
X147998095Y-68869523D01*
X147902857Y-68964761D01*
X147760000Y-69012380D01*
X147521904Y-69012380D01*
X148950476Y-68012380D02*
X148760000Y-68012380D01*
X148664761Y-68060000D01*
X148617142Y-68107619D01*
X148521904Y-68250476D01*
X148474285Y-68440952D01*
X148474285Y-68821904D01*
X148521904Y-68917142D01*
X148569523Y-68964761D01*
X148664761Y-69012380D01*
X148855238Y-69012380D01*
X148950476Y-68964761D01*
X148998095Y-68917142D01*
X149045714Y-68821904D01*
X149045714Y-68583809D01*
X148998095Y-68488571D01*
X148950476Y-68440952D01*
X148855238Y-68393333D01*
X148664761Y-68393333D01*
X148569523Y-68440952D01*
X148521904Y-68488571D01*
X148474285Y-68583809D01*
%TO.C,SW2*%
X172326666Y-85994761D02*
X172469523Y-86042380D01*
X172707619Y-86042380D01*
X172802857Y-85994761D01*
X172850476Y-85947142D01*
X172898095Y-85851904D01*
X172898095Y-85756666D01*
X172850476Y-85661428D01*
X172802857Y-85613809D01*
X172707619Y-85566190D01*
X172517142Y-85518571D01*
X172421904Y-85470952D01*
X172374285Y-85423333D01*
X172326666Y-85328095D01*
X172326666Y-85232857D01*
X172374285Y-85137619D01*
X172421904Y-85090000D01*
X172517142Y-85042380D01*
X172755238Y-85042380D01*
X172898095Y-85090000D01*
X173231428Y-85042380D02*
X173469523Y-86042380D01*
X173660000Y-85328095D01*
X173850476Y-86042380D01*
X174088571Y-85042380D01*
X174421904Y-85137619D02*
X174469523Y-85090000D01*
X174564761Y-85042380D01*
X174802857Y-85042380D01*
X174898095Y-85090000D01*
X174945714Y-85137619D01*
X174993333Y-85232857D01*
X174993333Y-85328095D01*
X174945714Y-85470952D01*
X174374285Y-86042380D01*
X174993333Y-86042380D01*
%TO.C,SW6*%
X185026666Y-85994761D02*
X185169523Y-86042380D01*
X185407619Y-86042380D01*
X185502857Y-85994761D01*
X185550476Y-85947142D01*
X185598095Y-85851904D01*
X185598095Y-85756666D01*
X185550476Y-85661428D01*
X185502857Y-85613809D01*
X185407619Y-85566190D01*
X185217142Y-85518571D01*
X185121904Y-85470952D01*
X185074285Y-85423333D01*
X185026666Y-85328095D01*
X185026666Y-85232857D01*
X185074285Y-85137619D01*
X185121904Y-85090000D01*
X185217142Y-85042380D01*
X185455238Y-85042380D01*
X185598095Y-85090000D01*
X185931428Y-85042380D02*
X186169523Y-86042380D01*
X186360000Y-85328095D01*
X186550476Y-86042380D01*
X186788571Y-85042380D01*
X187598095Y-85042380D02*
X187407619Y-85042380D01*
X187312380Y-85090000D01*
X187264761Y-85137619D01*
X187169523Y-85280476D01*
X187121904Y-85470952D01*
X187121904Y-85851904D01*
X187169523Y-85947142D01*
X187217142Y-85994761D01*
X187312380Y-86042380D01*
X187502857Y-86042380D01*
X187598095Y-85994761D01*
X187645714Y-85947142D01*
X187693333Y-85851904D01*
X187693333Y-85613809D01*
X187645714Y-85518571D01*
X187598095Y-85470952D01*
X187502857Y-85423333D01*
X187312380Y-85423333D01*
X187217142Y-85470952D01*
X187169523Y-85518571D01*
X187121904Y-85613809D01*
%TO.C,D3*%
X122121904Y-69012380D02*
X122121904Y-68012380D01*
X122360000Y-68012380D01*
X122502857Y-68060000D01*
X122598095Y-68155238D01*
X122645714Y-68250476D01*
X122693333Y-68440952D01*
X122693333Y-68583809D01*
X122645714Y-68774285D01*
X122598095Y-68869523D01*
X122502857Y-68964761D01*
X122360000Y-69012380D01*
X122121904Y-69012380D01*
X123026666Y-68012380D02*
X123645714Y-68012380D01*
X123312380Y-68393333D01*
X123455238Y-68393333D01*
X123550476Y-68440952D01*
X123598095Y-68488571D01*
X123645714Y-68583809D01*
X123645714Y-68821904D01*
X123598095Y-68917142D01*
X123550476Y-68964761D01*
X123455238Y-69012380D01*
X123169523Y-69012380D01*
X123074285Y-68964761D01*
X123026666Y-68917142D01*
%TO.C,SW1*%
X119736261Y-88929833D02*
X119783880Y-88786976D01*
X119783880Y-88548880D01*
X119736261Y-88453642D01*
X119688642Y-88406023D01*
X119593404Y-88358404D01*
X119498166Y-88358404D01*
X119402928Y-88406023D01*
X119355309Y-88453642D01*
X119307690Y-88548880D01*
X119260071Y-88739357D01*
X119212452Y-88834595D01*
X119164833Y-88882214D01*
X119069595Y-88929833D01*
X118974357Y-88929833D01*
X118879119Y-88882214D01*
X118831500Y-88834595D01*
X118783880Y-88739357D01*
X118783880Y-88501261D01*
X118831500Y-88358404D01*
X118783880Y-88025071D02*
X119783880Y-87786976D01*
X119069595Y-87596500D01*
X119783880Y-87406023D01*
X118783880Y-87167928D01*
X119783880Y-86263166D02*
X119783880Y-86834595D01*
X119783880Y-86548880D02*
X118783880Y-86548880D01*
X118926738Y-86644119D01*
X119021976Y-86739357D01*
X119069595Y-86834595D01*
%TO.C,R4*%
X182715380Y-79973666D02*
X182239190Y-80307000D01*
X182715380Y-80545095D02*
X181715380Y-80545095D01*
X181715380Y-80164142D01*
X181763000Y-80068904D01*
X181810619Y-80021285D01*
X181905857Y-79973666D01*
X182048714Y-79973666D01*
X182143952Y-80021285D01*
X182191571Y-80068904D01*
X182239190Y-80164142D01*
X182239190Y-80545095D01*
X182048714Y-79116523D02*
X182715380Y-79116523D01*
X181667761Y-79354619D02*
X182382047Y-79592714D01*
X182382047Y-78973666D01*
%TO.C,D5*%
X137361904Y-69012380D02*
X137361904Y-68012380D01*
X137600000Y-68012380D01*
X137742857Y-68060000D01*
X137838095Y-68155238D01*
X137885714Y-68250476D01*
X137933333Y-68440952D01*
X137933333Y-68583809D01*
X137885714Y-68774285D01*
X137838095Y-68869523D01*
X137742857Y-68964761D01*
X137600000Y-69012380D01*
X137361904Y-69012380D01*
X138838095Y-68012380D02*
X138361904Y-68012380D01*
X138314285Y-68488571D01*
X138361904Y-68440952D01*
X138457142Y-68393333D01*
X138695238Y-68393333D01*
X138790476Y-68440952D01*
X138838095Y-68488571D01*
X138885714Y-68583809D01*
X138885714Y-68821904D01*
X138838095Y-68917142D01*
X138790476Y-68964761D01*
X138695238Y-69012380D01*
X138457142Y-69012380D01*
X138361904Y-68964761D01*
X138314285Y-68917142D01*
%TO.C,C3*%
X177938333Y-69209142D02*
X177890714Y-69256761D01*
X177747857Y-69304380D01*
X177652619Y-69304380D01*
X177509761Y-69256761D01*
X177414523Y-69161523D01*
X177366904Y-69066285D01*
X177319285Y-68875809D01*
X177319285Y-68732952D01*
X177366904Y-68542476D01*
X177414523Y-68447238D01*
X177509761Y-68352000D01*
X177652619Y-68304380D01*
X177747857Y-68304380D01*
X177890714Y-68352000D01*
X177938333Y-68399619D01*
X178271666Y-68304380D02*
X178890714Y-68304380D01*
X178557380Y-68685333D01*
X178700238Y-68685333D01*
X178795476Y-68732952D01*
X178843095Y-68780571D01*
X178890714Y-68875809D01*
X178890714Y-69113904D01*
X178843095Y-69209142D01*
X178795476Y-69256761D01*
X178700238Y-69304380D01*
X178414523Y-69304380D01*
X178319285Y-69256761D01*
X178271666Y-69209142D01*
%TO.C,R3*%
X179667380Y-79973666D02*
X179191190Y-80307000D01*
X179667380Y-80545095D02*
X178667380Y-80545095D01*
X178667380Y-80164142D01*
X178715000Y-80068904D01*
X178762619Y-80021285D01*
X178857857Y-79973666D01*
X179000714Y-79973666D01*
X179095952Y-80021285D01*
X179143571Y-80068904D01*
X179191190Y-80164142D01*
X179191190Y-80545095D01*
X178667380Y-79640333D02*
X178667380Y-79021285D01*
X179048333Y-79354619D01*
X179048333Y-79211761D01*
X179095952Y-79116523D01*
X179143571Y-79068904D01*
X179238809Y-79021285D01*
X179476904Y-79021285D01*
X179572142Y-79068904D01*
X179619761Y-79116523D01*
X179667380Y-79211761D01*
X179667380Y-79497476D01*
X179619761Y-79592714D01*
X179572142Y-79640333D01*
%TO.C,R5*%
X187701380Y-79973666D02*
X187225190Y-80307000D01*
X187701380Y-80545095D02*
X186701380Y-80545095D01*
X186701380Y-80164142D01*
X186749000Y-80068904D01*
X186796619Y-80021285D01*
X186891857Y-79973666D01*
X187034714Y-79973666D01*
X187129952Y-80021285D01*
X187177571Y-80068904D01*
X187225190Y-80164142D01*
X187225190Y-80545095D01*
X186701380Y-79068904D02*
X186701380Y-79545095D01*
X187177571Y-79592714D01*
X187129952Y-79545095D01*
X187082333Y-79449857D01*
X187082333Y-79211761D01*
X187129952Y-79116523D01*
X187177571Y-79068904D01*
X187272809Y-79021285D01*
X187510904Y-79021285D01*
X187606142Y-79068904D01*
X187653761Y-79116523D01*
X187701380Y-79211761D01*
X187701380Y-79449857D01*
X187653761Y-79545095D01*
X187606142Y-79592714D01*
%TO.C,SW3*%
X157086666Y-85994761D02*
X157229523Y-86042380D01*
X157467619Y-86042380D01*
X157562857Y-85994761D01*
X157610476Y-85947142D01*
X157658095Y-85851904D01*
X157658095Y-85756666D01*
X157610476Y-85661428D01*
X157562857Y-85613809D01*
X157467619Y-85566190D01*
X157277142Y-85518571D01*
X157181904Y-85470952D01*
X157134285Y-85423333D01*
X157086666Y-85328095D01*
X157086666Y-85232857D01*
X157134285Y-85137619D01*
X157181904Y-85090000D01*
X157277142Y-85042380D01*
X157515238Y-85042380D01*
X157658095Y-85090000D01*
X157991428Y-85042380D02*
X158229523Y-86042380D01*
X158420000Y-85328095D01*
X158610476Y-86042380D01*
X158848571Y-85042380D01*
X159134285Y-85042380D02*
X159753333Y-85042380D01*
X159420000Y-85423333D01*
X159562857Y-85423333D01*
X159658095Y-85470952D01*
X159705714Y-85518571D01*
X159753333Y-85613809D01*
X159753333Y-85851904D01*
X159705714Y-85947142D01*
X159658095Y-85994761D01*
X159562857Y-86042380D01*
X159277142Y-86042380D01*
X159181904Y-85994761D01*
X159134285Y-85947142D01*
%TO.C,D4*%
X129741904Y-61392380D02*
X129741904Y-60392380D01*
X129980000Y-60392380D01*
X130122857Y-60440000D01*
X130218095Y-60535238D01*
X130265714Y-60630476D01*
X130313333Y-60820952D01*
X130313333Y-60963809D01*
X130265714Y-61154285D01*
X130218095Y-61249523D01*
X130122857Y-61344761D01*
X129980000Y-61392380D01*
X129741904Y-61392380D01*
X131170476Y-60725714D02*
X131170476Y-61392380D01*
X130932380Y-60344761D02*
X130694285Y-61059047D01*
X131313333Y-61059047D01*
%TO.C,C2*%
X191912790Y-56100343D02*
X191960409Y-56147962D01*
X192008028Y-56290819D01*
X192008028Y-56386057D01*
X191960409Y-56528915D01*
X191865171Y-56624153D01*
X191769933Y-56671772D01*
X191579457Y-56719391D01*
X191436600Y-56719391D01*
X191246124Y-56671772D01*
X191150886Y-56624153D01*
X191055648Y-56528915D01*
X191008028Y-56386057D01*
X191008028Y-56290819D01*
X191055648Y-56147962D01*
X191103267Y-56100343D01*
X191103267Y-55719391D02*
X191055648Y-55671772D01*
X191008028Y-55576534D01*
X191008028Y-55338438D01*
X191055648Y-55243200D01*
X191103267Y-55195581D01*
X191198505Y-55147962D01*
X191293743Y-55147962D01*
X191436600Y-55195581D01*
X192008028Y-55767010D01*
X192008028Y-55147962D01*
%TO.C,R1*%
X116421380Y-58256666D02*
X115945190Y-58590000D01*
X116421380Y-58828095D02*
X115421380Y-58828095D01*
X115421380Y-58447142D01*
X115469000Y-58351904D01*
X115516619Y-58304285D01*
X115611857Y-58256666D01*
X115754714Y-58256666D01*
X115849952Y-58304285D01*
X115897571Y-58351904D01*
X115945190Y-58447142D01*
X115945190Y-58828095D01*
X116421380Y-57304285D02*
X116421380Y-57875714D01*
X116421380Y-57590000D02*
X115421380Y-57590000D01*
X115564238Y-57685238D01*
X115659476Y-57780476D01*
X115707095Y-57875714D01*
%TO.C,U1*%
X183322095Y-52301380D02*
X183322095Y-53110904D01*
X183369714Y-53206142D01*
X183417333Y-53253761D01*
X183512571Y-53301380D01*
X183703047Y-53301380D01*
X183798285Y-53253761D01*
X183845904Y-53206142D01*
X183893523Y-53110904D01*
X183893523Y-52301380D01*
X184893523Y-53301380D02*
X184322095Y-53301380D01*
X184607809Y-53301380D02*
X184607809Y-52301380D01*
X184512571Y-52444238D01*
X184417333Y-52539476D01*
X184322095Y-52587095D01*
%TO.C,D8*%
X170471904Y-55372380D02*
X170471904Y-54372380D01*
X170710000Y-54372380D01*
X170852857Y-54420000D01*
X170948095Y-54515238D01*
X170995714Y-54610476D01*
X171043333Y-54800952D01*
X171043333Y-54943809D01*
X170995714Y-55134285D01*
X170948095Y-55229523D01*
X170852857Y-55324761D01*
X170710000Y-55372380D01*
X170471904Y-55372380D01*
X171614761Y-54800952D02*
X171519523Y-54753333D01*
X171471904Y-54705714D01*
X171424285Y-54610476D01*
X171424285Y-54562857D01*
X171471904Y-54467619D01*
X171519523Y-54420000D01*
X171614761Y-54372380D01*
X171805238Y-54372380D01*
X171900476Y-54420000D01*
X171948095Y-54467619D01*
X171995714Y-54562857D01*
X171995714Y-54610476D01*
X171948095Y-54705714D01*
X171900476Y-54753333D01*
X171805238Y-54800952D01*
X171614761Y-54800952D01*
X171519523Y-54848571D01*
X171471904Y-54896190D01*
X171424285Y-54991428D01*
X171424285Y-55181904D01*
X171471904Y-55277142D01*
X171519523Y-55324761D01*
X171614761Y-55372380D01*
X171805238Y-55372380D01*
X171900476Y-55324761D01*
X171948095Y-55277142D01*
X171995714Y-55181904D01*
X171995714Y-54991428D01*
X171948095Y-54896190D01*
X171900476Y-54848571D01*
X171805238Y-54800952D01*
%TO.C,D1*%
X122248904Y-61082380D02*
X122248904Y-60082380D01*
X122487000Y-60082380D01*
X122629857Y-60130000D01*
X122725095Y-60225238D01*
X122772714Y-60320476D01*
X122820333Y-60510952D01*
X122820333Y-60653809D01*
X122772714Y-60844285D01*
X122725095Y-60939523D01*
X122629857Y-61034761D01*
X122487000Y-61082380D01*
X122248904Y-61082380D01*
X123772714Y-61082380D02*
X123201285Y-61082380D01*
X123487000Y-61082380D02*
X123487000Y-60082380D01*
X123391761Y-60225238D01*
X123296523Y-60320476D01*
X123201285Y-60368095D01*
D12*
%TO.C,J4*%
X197850000Y-93710000D02*
X197848838Y-49257278D01*
X195250000Y-93710000D02*
X195250000Y-91110000D01*
X192650000Y-91110000D02*
X192650000Y-47870000D01*
X193980000Y-93710000D02*
X192650000Y-93710000D01*
X195250000Y-91110000D02*
X192650000Y-91110000D01*
X192650000Y-93710000D02*
X192650000Y-92380000D01*
X197850000Y-93710000D02*
X195250000Y-93710000D01*
X192650000Y-47870000D02*
X196516649Y-47869932D01*
X197848838Y-49257278D02*
G75*
G03*
X196516649Y-47869932I-1328837J57279D01*
G01*
%TO.C,J1*%
X129210000Y-98790000D02*
X147050000Y-98790000D01*
X129210000Y-98790000D02*
X129210000Y-96130000D01*
X147050000Y-98790000D02*
X147050000Y-96130000D01*
X129210000Y-96130000D02*
X147050000Y-96130000D01*
X126610000Y-97460000D02*
X126610000Y-96130000D01*
X126610000Y-96130000D02*
X127940000Y-96130000D01*
%TO.C,J2*%
X152070000Y-98790000D02*
X169910000Y-98790000D01*
X152070000Y-96130000D02*
X169910000Y-96130000D01*
X149470000Y-97460000D02*
X149470000Y-96130000D01*
X149470000Y-96130000D02*
X150800000Y-96130000D01*
X152070000Y-98790000D02*
X152070000Y-96130000D01*
X169910000Y-98790000D02*
X169910000Y-96130000D01*
%TO.C,J3*%
X174930000Y-98790000D02*
X192770000Y-98790000D01*
X172330000Y-97460000D02*
X172330000Y-96130000D01*
X192770000Y-98790000D02*
X192770000Y-96130000D01*
X172330000Y-96130000D02*
X173660000Y-96130000D01*
X174930000Y-98790000D02*
X174930000Y-96130000D01*
X174930000Y-96130000D02*
X192770000Y-96130000D01*
%TO.C,J5*%
X120066000Y-50530000D02*
X120066000Y-47870000D01*
X120066000Y-47870000D02*
X142986000Y-47870000D01*
X142986000Y-50530000D02*
X142986000Y-47870000D01*
X117466000Y-49200000D02*
X117466000Y-47870000D01*
X117466000Y-47870000D02*
X118796000Y-47870000D01*
X120066000Y-50530000D02*
X142986000Y-50530000D01*
%TO.C,J6*%
X144390000Y-49200000D02*
X144390000Y-47870000D01*
X146990000Y-50530000D02*
X164830000Y-50530000D01*
X164830000Y-50530000D02*
X164830000Y-47870000D01*
X146990000Y-50530000D02*
X146990000Y-47870000D01*
X146990000Y-47870000D02*
X164830000Y-47870000D01*
X144390000Y-47870000D02*
X145720000Y-47870000D01*
%TO.C,J7*%
X167250000Y-49200000D02*
X167250000Y-47870000D01*
X169850000Y-50530000D02*
X169850000Y-47870000D01*
X167250000Y-47870000D02*
X168580000Y-47870000D01*
X169850000Y-47870000D02*
X187690000Y-47870000D01*
X169850000Y-50530000D02*
X187690000Y-50530000D01*
X187690000Y-50530000D02*
X187690000Y-47870000D01*
%TO.C,R10*%
X189095492Y-84071083D02*
X189095492Y-84545599D01*
X190140492Y-84071083D02*
X190140492Y-84545599D01*
%TO.C,R2*%
X189393500Y-76013742D02*
X189393500Y-76488258D01*
X190438500Y-76013742D02*
X190438500Y-76488258D01*
%TO.C,arrow\u002A\u002A*%
X123035000Y-52075000D02*
X123035000Y-53475000D01*
X123435000Y-52075000D02*
X122435000Y-52075000D01*
X122835000Y-52275000D02*
X122835000Y-53275000D01*
X122635000Y-53475000D02*
X123035000Y-53475000D01*
X122435000Y-52075000D02*
X122235000Y-52075000D01*
X122235000Y-52075000D02*
X122435000Y-52075000D01*
X122835000Y-51875000D02*
X122835000Y-51675000D01*
X122835000Y-51275000D02*
X123435000Y-52075000D01*
X122635000Y-52075000D02*
X122635000Y-53475000D01*
X122235000Y-52075000D02*
X122835000Y-51275000D01*
%TO.C,R9*%
X135761668Y-84092850D02*
X135761668Y-84567366D01*
X136806668Y-84092850D02*
X136806668Y-84567366D01*
%TO.C,SW4*%
X147970000Y-86590000D02*
X143470000Y-86590000D01*
X149220000Y-90590000D02*
X149220000Y-89090000D01*
X142220000Y-89090000D02*
X142220000Y-90590000D01*
X143470000Y-93090000D02*
X147970000Y-93090000D01*
%TO.C,SW5*%
X130770000Y-93090000D02*
X135270000Y-93090000D01*
X136520000Y-90590000D02*
X136520000Y-89090000D01*
X129520000Y-89090000D02*
X129520000Y-90590000D01*
X135270000Y-86590000D02*
X130770000Y-86590000D01*
%TO.C,R8*%
X149514932Y-84085866D02*
X149514932Y-84560382D01*
X148469932Y-84085866D02*
X148469932Y-84560382D01*
%TO.C,R7*%
X162184548Y-84071083D02*
X162184548Y-84545599D01*
X161139548Y-84071083D02*
X161139548Y-84545599D01*
%TO.C,arrow\u002A\u002A*%
X109887000Y-64919000D02*
X109887000Y-65119000D01*
X109887000Y-64319000D02*
X111287000Y-64319000D01*
X109887000Y-64719000D02*
X111287000Y-64719000D01*
X109087000Y-64519000D02*
X109887000Y-63919000D01*
X109887000Y-65119000D02*
X109887000Y-64919000D01*
X110087000Y-64519000D02*
X111087000Y-64519000D01*
X109887000Y-65119000D02*
X109087000Y-64519000D01*
X109687000Y-64519000D02*
X109487000Y-64519000D01*
X109887000Y-63919000D02*
X109887000Y-64919000D01*
X111287000Y-64719000D02*
X111287000Y-64319000D01*
X122158000Y-76932000D02*
X123158000Y-76932000D01*
X122758000Y-77132000D02*
X122758000Y-77332000D01*
X123158000Y-76932000D02*
X123358000Y-76932000D01*
X122558000Y-76932000D02*
X122558000Y-75532000D01*
X122758000Y-77732000D02*
X122158000Y-76932000D01*
X122958000Y-75532000D02*
X122558000Y-75532000D01*
X122958000Y-76932000D02*
X122958000Y-75532000D01*
X123358000Y-76932000D02*
X123158000Y-76932000D01*
X122758000Y-76732000D02*
X122758000Y-75732000D01*
X123358000Y-76932000D02*
X122758000Y-77732000D01*
%TO.C,D2*%
X112620000Y-62140000D02*
X112620000Y-61820000D01*
X112740000Y-67060000D02*
X117740000Y-67060000D01*
X112620000Y-61820000D02*
X117740000Y-61820000D01*
%TO.C,C1*%
X124382000Y-97346580D02*
X124382000Y-97065420D01*
X125402000Y-97346580D02*
X125402000Y-97065420D01*
%TO.C,U2*%
X180166000Y-73203000D02*
X180166000Y-71003000D01*
X188236000Y-73203000D02*
X188236000Y-75403000D01*
X180166000Y-73203000D02*
X180166000Y-75403000D01*
X188236000Y-73203000D02*
X188236000Y-69603000D01*
X189908107Y-68703000D02*
G75*
G03*
X189908107Y-68703000I-707107J0D01*
G01*
%TO.C,R6*%
X176381525Y-84071083D02*
X176381525Y-84545599D01*
X177426525Y-84071083D02*
X177426525Y-84545599D01*
%TO.C,D7*%
X155920000Y-63580000D02*
X160920000Y-63580000D01*
X155800000Y-58660000D02*
X155800000Y-58340000D01*
X155800000Y-58340000D02*
X160920000Y-58340000D01*
%TO.C,D6*%
X145760000Y-74680000D02*
X150760000Y-74680000D01*
X145640000Y-69760000D02*
X145640000Y-69440000D01*
X145640000Y-69440000D02*
X150760000Y-69440000D01*
%TO.C,SW2*%
X170160000Y-89090000D02*
X170160000Y-90590000D01*
X177160000Y-90590000D02*
X177160000Y-89090000D01*
X171410000Y-93090000D02*
X175910000Y-93090000D01*
X175910000Y-86590000D02*
X171410000Y-86590000D01*
%TO.C,arrow\u002A\u002A*%
X145420000Y-94964000D02*
X145420000Y-95164000D01*
X145420000Y-93964000D02*
X145420000Y-94964000D01*
X146820000Y-94764000D02*
X146820000Y-94364000D01*
X145420000Y-95164000D02*
X145420000Y-94964000D01*
X145420000Y-94764000D02*
X146820000Y-94764000D01*
X145420000Y-94364000D02*
X146820000Y-94364000D01*
X144620000Y-94564000D02*
X145420000Y-93964000D01*
X145220000Y-94564000D02*
X145020000Y-94564000D01*
X145420000Y-95164000D02*
X144620000Y-94564000D01*
X145620000Y-94564000D02*
X146620000Y-94564000D01*
%TO.C,SW6*%
X189860000Y-90590000D02*
X189860000Y-89090000D01*
X188610000Y-86590000D02*
X184110000Y-86590000D01*
X184110000Y-93090000D02*
X188610000Y-93090000D01*
X182860000Y-89090000D02*
X182860000Y-90590000D01*
%TO.C,D3*%
X120240000Y-69760000D02*
X120240000Y-69440000D01*
X120360000Y-74680000D02*
X125360000Y-74680000D01*
X120240000Y-69440000D02*
X125360000Y-69440000D01*
%TO.C,SW1*%
X118481500Y-82646500D02*
X118481500Y-92546500D01*
X119431500Y-80296500D02*
X119431500Y-81596500D01*
X117731500Y-94596500D02*
X112531500Y-94596500D01*
X112531500Y-80596500D02*
X117731500Y-80596500D01*
X118131500Y-80296500D02*
X119431500Y-80296500D01*
X111781500Y-92546500D02*
X111781500Y-82646500D01*
%TO.C,R4*%
X183170500Y-80044258D02*
X183170500Y-79569742D01*
X184215500Y-80044258D02*
X184215500Y-79569742D01*
%TO.C,D5*%
X135600000Y-74680000D02*
X140600000Y-74680000D01*
X135480000Y-69760000D02*
X135480000Y-69440000D01*
X135480000Y-69440000D02*
X140600000Y-69440000D01*
%TO.C,C3*%
X177964420Y-70792000D02*
X178245580Y-70792000D01*
X177964420Y-69772000D02*
X178245580Y-69772000D01*
%TO.C,R3*%
X181167500Y-80044258D02*
X181167500Y-79569742D01*
X180122500Y-80044258D02*
X180122500Y-79569742D01*
%TO.C,R5*%
X186120500Y-80044258D02*
X186120500Y-79569742D01*
X185075500Y-80044258D02*
X185075500Y-79569742D01*
%TO.C,SW3*%
X154920000Y-89090000D02*
X154920000Y-90590000D01*
X160670000Y-86590000D02*
X156170000Y-86590000D01*
X161920000Y-90590000D02*
X161920000Y-89090000D01*
X156170000Y-93090000D02*
X160670000Y-93090000D01*
%TO.C,D4*%
X127860000Y-62140000D02*
X127860000Y-61820000D01*
X127860000Y-61820000D02*
X132980000Y-61820000D01*
X127980000Y-67060000D02*
X132980000Y-67060000D01*
%TO.C,C2*%
X189615648Y-55793097D02*
X189615648Y-56074257D01*
X190635648Y-55793097D02*
X190635648Y-56074257D01*
%TO.C,R1*%
X117921500Y-58327258D02*
X117921500Y-57852742D01*
X116876500Y-58327258D02*
X116876500Y-57852742D01*
%TO.C,U1*%
X181434000Y-64129000D02*
X186734000Y-64129000D01*
X186734000Y-53849000D02*
X185084000Y-53849000D01*
X181434000Y-53849000D02*
X181434000Y-64129000D01*
X186734000Y-64129000D02*
X186734000Y-53849000D01*
X183084000Y-53849000D02*
X181434000Y-53849000D01*
X183084000Y-53849000D02*
G75*
G03*
X185084000Y-53849000I1000000J0D01*
G01*
X180981107Y-52679000D02*
G75*
G03*
X180981107Y-52679000I-707107J0D01*
G01*
%TO.C,arrow\u002A\u002A*%
X134206000Y-64215000D02*
X134206000Y-64615000D01*
X135606000Y-64215000D02*
X134206000Y-64215000D01*
X136406000Y-64415000D02*
X135606000Y-65015000D01*
X135606000Y-63815000D02*
X136406000Y-64415000D01*
X135606000Y-63815000D02*
X135606000Y-64015000D01*
X135606000Y-64615000D02*
X134206000Y-64615000D01*
X135606000Y-64015000D02*
X135606000Y-63815000D01*
X135606000Y-65015000D02*
X135606000Y-64015000D01*
X135406000Y-64415000D02*
X134406000Y-64415000D01*
X135806000Y-64415000D02*
X136006000Y-64415000D01*
%TO.C,D8*%
X168590000Y-56120000D02*
X168590000Y-55800000D01*
X168590000Y-55800000D02*
X173710000Y-55800000D01*
X168710000Y-61040000D02*
X173710000Y-61040000D01*
%TO.C,D1*%
X120360000Y-59440000D02*
X125360000Y-59440000D01*
X120240000Y-54200000D02*
X125360000Y-54200000D01*
X120240000Y-54520000D02*
X120240000Y-54200000D01*
%TO.C,arrow\u002A\u002A*%
X159101000Y-94241000D02*
X159101000Y-94041000D01*
X159101000Y-94041000D02*
X159901000Y-94641000D01*
X159301000Y-94641000D02*
X159501000Y-94641000D01*
X157701000Y-94441000D02*
X157701000Y-94841000D01*
X159101000Y-94441000D02*
X157701000Y-94441000D01*
X158901000Y-94641000D02*
X157901000Y-94641000D01*
X159901000Y-94641000D02*
X159101000Y-95241000D01*
X159101000Y-95241000D02*
X159101000Y-94241000D01*
X159101000Y-94841000D02*
X157701000Y-94841000D01*
X159101000Y-94041000D02*
X159101000Y-94241000D01*
%TD*%
M02*
