%TF.GenerationSoftware,KiCad,Pcbnew,(6.0.7)*%
%TF.CreationDate,2022-10-17T16:35:19-04:00*%
%TF.ProjectId,dmgc-attiny-arduino-mega,646d6763-2d61-4747-9469-6e792d617264,rev?*%
%TF.SameCoordinates,Original*%
%TF.FileFunction,Soldermask,Top*%
%TF.FilePolarity,Negative*%
%FSLAX46Y46*%
G04 Gerber Fmt 4.6, Leading zero omitted, Abs format (unit mm)*
G04 Created by KiCad (PCBNEW (6.0.7)) date 2022-10-17 16:35:19*
%MOMM*%
%LPD*%
G01*
G04 APERTURE LIST*
G04 Aperture macros list*
%AMRoundRect*
0 Rectangle with rounded corners*
0 $1 Rounding radius*
0 $2 $3 $4 $5 $6 $7 $8 $9 X,Y pos of 4 corners*
0 Add a 4 corners polygon primitive as box body*
4,1,4,$2,$3,$4,$5,$6,$7,$8,$9,$2,$3,0*
0 Add four circle primitives for the rounded corners*
1,1,$1+$1,$2,$3*
1,1,$1+$1,$4,$5*
1,1,$1+$1,$6,$7*
1,1,$1+$1,$8,$9*
0 Add four rect primitives between the rounded corners*
20,1,$1+$1,$2,$3,$4,$5,0*
20,1,$1+$1,$4,$5,$6,$7,0*
20,1,$1+$1,$6,$7,$8,$9,0*
20,1,$1+$1,$8,$9,$2,$3,0*%
G04 Aperture macros list end*
%ADD10RoundRect,0.100000X-0.100000X0.130000X-0.100000X-0.130000X0.100000X-0.130000X0.100000X0.130000X0*%
%ADD11C,2.000000*%
%ADD12R,1.600000X1.600000*%
%ADD13O,1.600000X1.600000*%
%ADD14R,1.500000X1.000000*%
%ADD15R,1.700000X1.700000*%
%ADD16O,1.700000X1.700000*%
%ADD17C,3.200000*%
G04 APERTURE END LIST*
D10*
%TO.C,R6*%
X174948637Y-64003594D03*
X174948637Y-64643594D03*
%TD*%
D11*
%TO.C,SW1*%
X136270000Y-87590000D03*
X129770000Y-87590000D03*
X136270000Y-92090000D03*
X129770000Y-92090000D03*
%TD*%
%TO.C,SW2*%
X148970000Y-87590000D03*
X142470000Y-87590000D03*
X148970000Y-92090000D03*
X142470000Y-92090000D03*
%TD*%
%TO.C,SW3*%
X161670000Y-87590000D03*
X155170000Y-87590000D03*
X161670000Y-92090000D03*
X155170000Y-92090000D03*
%TD*%
%TO.C,SW4*%
X176910000Y-87590000D03*
X170410000Y-87590000D03*
X176910000Y-92090000D03*
X170410000Y-92090000D03*
%TD*%
%TO.C,SW5*%
X189610000Y-87590000D03*
X183110000Y-87590000D03*
X189610000Y-92090000D03*
X183110000Y-92090000D03*
%TD*%
D12*
%TO.C,U1*%
X174940000Y-68260000D03*
D13*
X174940000Y-70800000D03*
X174940000Y-73340000D03*
X174940000Y-75880000D03*
X182560000Y-75880000D03*
X182560000Y-73340000D03*
X182560000Y-70800000D03*
X182560000Y-68260000D03*
%TD*%
D10*
%TO.C,R5*%
X190537972Y-84363220D03*
X190537972Y-85003220D03*
%TD*%
%TO.C,R4*%
X177843687Y-84363220D03*
X177843687Y-85003220D03*
%TD*%
%TO.C,R3*%
X162641258Y-84363220D03*
X162641258Y-85003220D03*
%TD*%
%TO.C,R2*%
X149844601Y-84337626D03*
X149844601Y-84977626D03*
%TD*%
%TO.C,R1*%
X137252690Y-84363220D03*
X137252690Y-85003220D03*
%TD*%
D14*
%TO.C,D8*%
X168760000Y-56820000D03*
X168760000Y-60020000D03*
X173660000Y-60020000D03*
X173660000Y-56820000D03*
%TD*%
%TO.C,D7*%
X155970000Y-59360000D03*
X155970000Y-62560000D03*
X160870000Y-62560000D03*
X160870000Y-59360000D03*
%TD*%
%TO.C,D6*%
X145810000Y-70460000D03*
X145810000Y-73660000D03*
X150710000Y-73660000D03*
X150710000Y-70460000D03*
%TD*%
%TO.C,D5*%
X135650000Y-70460000D03*
X135650000Y-73660000D03*
X140550000Y-73660000D03*
X140550000Y-70460000D03*
%TD*%
%TO.C,D4*%
X128030000Y-62840000D03*
X128030000Y-66040000D03*
X132930000Y-66040000D03*
X132930000Y-62840000D03*
%TD*%
%TO.C,D3*%
X120410000Y-70460000D03*
X120410000Y-73660000D03*
X125310000Y-73660000D03*
X125310000Y-70460000D03*
%TD*%
%TO.C,D2*%
X117690000Y-62840000D03*
X117690000Y-66040000D03*
X112790000Y-66040000D03*
X112790000Y-62840000D03*
%TD*%
%TO.C,D1*%
X125310000Y-55220000D03*
X125310000Y-58420000D03*
X120410000Y-58420000D03*
X120410000Y-55220000D03*
%TD*%
D10*
%TO.C,C1*%
X186360000Y-69200000D03*
X186360000Y-69840000D03*
%TD*%
D15*
%TO.C,J7*%
X193980000Y-92380000D03*
D16*
X196520000Y-92380000D03*
X193980000Y-89840000D03*
X196520000Y-89840000D03*
X193980000Y-87300000D03*
X196520000Y-87300000D03*
X193980000Y-84760000D03*
X196520000Y-84760000D03*
X193980000Y-82220000D03*
X196520000Y-82220000D03*
X193980000Y-79680000D03*
X196520000Y-79680000D03*
X193980000Y-77140000D03*
X196520000Y-77140000D03*
X193980000Y-74600000D03*
X196520000Y-74600000D03*
X193980000Y-72060000D03*
X196520000Y-72060000D03*
X193980000Y-69520000D03*
X196520000Y-69520000D03*
X193980000Y-66980000D03*
X196520000Y-66980000D03*
X193980000Y-64440000D03*
X196520000Y-64440000D03*
X193980000Y-61900000D03*
X196520000Y-61900000D03*
X193980000Y-59360000D03*
X196520000Y-59360000D03*
X193980000Y-56820000D03*
X196520000Y-56820000D03*
X193980000Y-54280000D03*
X196520000Y-54280000D03*
X193980000Y-51740000D03*
X196520000Y-51740000D03*
X193980000Y-49200000D03*
X196520000Y-49200000D03*
%TD*%
D15*
%TO.C,J1*%
X127940000Y-97460000D03*
D16*
X130480000Y-97460000D03*
X133020000Y-97460000D03*
X135560000Y-97460000D03*
X138100000Y-97460000D03*
X140640000Y-97460000D03*
X143180000Y-97460000D03*
X145720000Y-97460000D03*
%TD*%
D15*
%TO.C,J3*%
X150800000Y-97460000D03*
D16*
X153340000Y-97460000D03*
X155880000Y-97460000D03*
X158420000Y-97460000D03*
X160960000Y-97460000D03*
X163500000Y-97460000D03*
X166040000Y-97460000D03*
X168580000Y-97460000D03*
%TD*%
D15*
%TO.C,J5*%
X173660000Y-97460000D03*
D16*
X176200000Y-97460000D03*
X178740000Y-97460000D03*
X181280000Y-97460000D03*
X183820000Y-97460000D03*
X186360000Y-97460000D03*
X188900000Y-97460000D03*
X191440000Y-97460000D03*
%TD*%
D15*
%TO.C,J2*%
X118796000Y-49200000D03*
D16*
X121336000Y-49200000D03*
X123876000Y-49200000D03*
X126416000Y-49200000D03*
X128956000Y-49200000D03*
X131496000Y-49200000D03*
X134036000Y-49200000D03*
X136576000Y-49200000D03*
X139116000Y-49200000D03*
X141656000Y-49200000D03*
%TD*%
D15*
%TO.C,J4*%
X145720000Y-49200000D03*
D16*
X148260000Y-49200000D03*
X150800000Y-49200000D03*
X153340000Y-49200000D03*
X155880000Y-49200000D03*
X158420000Y-49200000D03*
X160960000Y-49200000D03*
X163500000Y-49200000D03*
%TD*%
D15*
%TO.C,J6*%
X168580000Y-49200000D03*
D16*
X171120000Y-49200000D03*
X173660000Y-49200000D03*
X176200000Y-49200000D03*
X178740000Y-49200000D03*
X181280000Y-49200000D03*
X183820000Y-49200000D03*
X186360000Y-49200000D03*
%TD*%
D17*
%TO.C,MH6*%
X196520000Y-97460000D03*
%TD*%
%TO.C,MH1*%
X115240000Y-49200000D03*
%TD*%
%TO.C,MH2*%
X113970000Y-97460000D03*
%TD*%
%TO.C,MH3*%
X166040000Y-64440000D03*
%TD*%
%TO.C,MH4*%
X166040000Y-92380000D03*
%TD*%
%TO.C,MH5*%
X190170000Y-49200000D03*
%TD*%
M02*
