%TF.GenerationSoftware,KiCad,Pcbnew,(6.0.7)*%
%TF.CreationDate,2022-10-20T00:14:36-04:00*%
%TF.ProjectId,dmgc-attiny-arduino-mega,646d6763-2d61-4747-9469-6e792d617264,rev?*%
%TF.SameCoordinates,Original*%
%TF.FileFunction,Legend,Top*%
%TF.FilePolarity,Positive*%
%FSLAX46Y46*%
G04 Gerber Fmt 4.6, Leading zero omitted, Abs format (unit mm)*
G04 Created by KiCad (PCBNEW (6.0.7)) date 2022-10-20 00:14:36*
%MOMM*%
%LPD*%
G01*
G04 APERTURE LIST*
%ADD10C,0.150000*%
%ADD11C,0.120000*%
G04 APERTURE END LIST*
D10*
%TO.C,D1*%
X122121904Y-53772380D02*
X122121904Y-52772380D01*
X122360000Y-52772380D01*
X122502857Y-52820000D01*
X122598095Y-52915238D01*
X122645714Y-53010476D01*
X122693333Y-53200952D01*
X122693333Y-53343809D01*
X122645714Y-53534285D01*
X122598095Y-53629523D01*
X122502857Y-53724761D01*
X122360000Y-53772380D01*
X122121904Y-53772380D01*
X123645714Y-53772380D02*
X123074285Y-53772380D01*
X123360000Y-53772380D02*
X123360000Y-52772380D01*
X123264761Y-52915238D01*
X123169523Y-53010476D01*
X123074285Y-53058095D01*
%TO.C,U2*%
X188503380Y-73964904D02*
X189312904Y-73964904D01*
X189408142Y-73917285D01*
X189455761Y-73869666D01*
X189503380Y-73774428D01*
X189503380Y-73583952D01*
X189455761Y-73488714D01*
X189408142Y-73441095D01*
X189312904Y-73393476D01*
X188503380Y-73393476D01*
X188598619Y-72964904D02*
X188551000Y-72917285D01*
X188503380Y-72822047D01*
X188503380Y-72583952D01*
X188551000Y-72488714D01*
X188598619Y-72441095D01*
X188693857Y-72393476D01*
X188789095Y-72393476D01*
X188931952Y-72441095D01*
X189503380Y-73012523D01*
X189503380Y-72393476D01*
%TO.C,U1*%
X183322095Y-52301380D02*
X183322095Y-53110904D01*
X183369714Y-53206142D01*
X183417333Y-53253761D01*
X183512571Y-53301380D01*
X183703047Y-53301380D01*
X183798285Y-53253761D01*
X183845904Y-53206142D01*
X183893523Y-53110904D01*
X183893523Y-52301380D01*
X184893523Y-53301380D02*
X184322095Y-53301380D01*
X184607809Y-53301380D02*
X184607809Y-52301380D01*
X184512571Y-52444238D01*
X184417333Y-52539476D01*
X184322095Y-52587095D01*
%TO.C,SW6*%
X185026666Y-85994761D02*
X185169523Y-86042380D01*
X185407619Y-86042380D01*
X185502857Y-85994761D01*
X185550476Y-85947142D01*
X185598095Y-85851904D01*
X185598095Y-85756666D01*
X185550476Y-85661428D01*
X185502857Y-85613809D01*
X185407619Y-85566190D01*
X185217142Y-85518571D01*
X185121904Y-85470952D01*
X185074285Y-85423333D01*
X185026666Y-85328095D01*
X185026666Y-85232857D01*
X185074285Y-85137619D01*
X185121904Y-85090000D01*
X185217142Y-85042380D01*
X185455238Y-85042380D01*
X185598095Y-85090000D01*
X185931428Y-85042380D02*
X186169523Y-86042380D01*
X186360000Y-85328095D01*
X186550476Y-86042380D01*
X186788571Y-85042380D01*
X187598095Y-85042380D02*
X187407619Y-85042380D01*
X187312380Y-85090000D01*
X187264761Y-85137619D01*
X187169523Y-85280476D01*
X187121904Y-85470952D01*
X187121904Y-85851904D01*
X187169523Y-85947142D01*
X187217142Y-85994761D01*
X187312380Y-86042380D01*
X187502857Y-86042380D01*
X187598095Y-85994761D01*
X187645714Y-85947142D01*
X187693333Y-85851904D01*
X187693333Y-85613809D01*
X187645714Y-85518571D01*
X187598095Y-85470952D01*
X187502857Y-85423333D01*
X187312380Y-85423333D01*
X187217142Y-85470952D01*
X187169523Y-85518571D01*
X187121904Y-85613809D01*
%TO.C,R10*%
X192040352Y-85326077D02*
X191564162Y-85659410D01*
X192040352Y-85897505D02*
X191040352Y-85897505D01*
X191040352Y-85516553D01*
X191087972Y-85421315D01*
X191135591Y-85373696D01*
X191230829Y-85326077D01*
X191373686Y-85326077D01*
X191468924Y-85373696D01*
X191516543Y-85421315D01*
X191564162Y-85516553D01*
X191564162Y-85897505D01*
X192040352Y-84373696D02*
X192040352Y-84945124D01*
X192040352Y-84659410D02*
X191040352Y-84659410D01*
X191183210Y-84754648D01*
X191278448Y-84849886D01*
X191326067Y-84945124D01*
X191040352Y-83754648D02*
X191040352Y-83659410D01*
X191087972Y-83564172D01*
X191135591Y-83516553D01*
X191230829Y-83468934D01*
X191421305Y-83421315D01*
X191659400Y-83421315D01*
X191849876Y-83468934D01*
X191945114Y-83516553D01*
X191992733Y-83564172D01*
X192040352Y-83659410D01*
X192040352Y-83754648D01*
X191992733Y-83849886D01*
X191945114Y-83897505D01*
X191849876Y-83945124D01*
X191659400Y-83992743D01*
X191421305Y-83992743D01*
X191230829Y-83945124D01*
X191135591Y-83897505D01*
X191087972Y-83849886D01*
X191040352Y-83754648D01*
%TO.C,R2*%
X189479380Y-78322666D02*
X189003190Y-78656000D01*
X189479380Y-78894095D02*
X188479380Y-78894095D01*
X188479380Y-78513142D01*
X188527000Y-78417904D01*
X188574619Y-78370285D01*
X188669857Y-78322666D01*
X188812714Y-78322666D01*
X188907952Y-78370285D01*
X188955571Y-78417904D01*
X189003190Y-78513142D01*
X189003190Y-78894095D01*
X188574619Y-77941714D02*
X188527000Y-77894095D01*
X188479380Y-77798857D01*
X188479380Y-77560761D01*
X188527000Y-77465523D01*
X188574619Y-77417904D01*
X188669857Y-77370285D01*
X188765095Y-77370285D01*
X188907952Y-77417904D01*
X189479380Y-77989333D01*
X189479380Y-77370285D01*
%TO.C,R9*%
X138755070Y-84849886D02*
X138278880Y-85183220D01*
X138755070Y-85421315D02*
X137755070Y-85421315D01*
X137755070Y-85040362D01*
X137802690Y-84945124D01*
X137850309Y-84897505D01*
X137945547Y-84849886D01*
X138088404Y-84849886D01*
X138183642Y-84897505D01*
X138231261Y-84945124D01*
X138278880Y-85040362D01*
X138278880Y-85421315D01*
X138755070Y-84373696D02*
X138755070Y-84183220D01*
X138707451Y-84087981D01*
X138659832Y-84040362D01*
X138516975Y-83945124D01*
X138326499Y-83897505D01*
X137945547Y-83897505D01*
X137850309Y-83945124D01*
X137802690Y-83992743D01*
X137755070Y-84087981D01*
X137755070Y-84278458D01*
X137802690Y-84373696D01*
X137850309Y-84421315D01*
X137945547Y-84468934D01*
X138183642Y-84468934D01*
X138278880Y-84421315D01*
X138326499Y-84373696D01*
X138374118Y-84278458D01*
X138374118Y-84087981D01*
X138326499Y-83992743D01*
X138278880Y-83945124D01*
X138183642Y-83897505D01*
%TO.C,SW4*%
X144386666Y-85994761D02*
X144529523Y-86042380D01*
X144767619Y-86042380D01*
X144862857Y-85994761D01*
X144910476Y-85947142D01*
X144958095Y-85851904D01*
X144958095Y-85756666D01*
X144910476Y-85661428D01*
X144862857Y-85613809D01*
X144767619Y-85566190D01*
X144577142Y-85518571D01*
X144481904Y-85470952D01*
X144434285Y-85423333D01*
X144386666Y-85328095D01*
X144386666Y-85232857D01*
X144434285Y-85137619D01*
X144481904Y-85090000D01*
X144577142Y-85042380D01*
X144815238Y-85042380D01*
X144958095Y-85090000D01*
X145291428Y-85042380D02*
X145529523Y-86042380D01*
X145720000Y-85328095D01*
X145910476Y-86042380D01*
X146148571Y-85042380D01*
X146958095Y-85375714D02*
X146958095Y-86042380D01*
X146720000Y-84994761D02*
X146481904Y-85709047D01*
X147100952Y-85709047D01*
%TO.C,SW5*%
X131686666Y-85994761D02*
X131829523Y-86042380D01*
X132067619Y-86042380D01*
X132162857Y-85994761D01*
X132210476Y-85947142D01*
X132258095Y-85851904D01*
X132258095Y-85756666D01*
X132210476Y-85661428D01*
X132162857Y-85613809D01*
X132067619Y-85566190D01*
X131877142Y-85518571D01*
X131781904Y-85470952D01*
X131734285Y-85423333D01*
X131686666Y-85328095D01*
X131686666Y-85232857D01*
X131734285Y-85137619D01*
X131781904Y-85090000D01*
X131877142Y-85042380D01*
X132115238Y-85042380D01*
X132258095Y-85090000D01*
X132591428Y-85042380D02*
X132829523Y-86042380D01*
X133020000Y-85328095D01*
X133210476Y-86042380D01*
X133448571Y-85042380D01*
X134305714Y-85042380D02*
X133829523Y-85042380D01*
X133781904Y-85518571D01*
X133829523Y-85470952D01*
X133924761Y-85423333D01*
X134162857Y-85423333D01*
X134258095Y-85470952D01*
X134305714Y-85518571D01*
X134353333Y-85613809D01*
X134353333Y-85851904D01*
X134305714Y-85947142D01*
X134258095Y-85994761D01*
X134162857Y-86042380D01*
X133924761Y-86042380D01*
X133829523Y-85994761D01*
X133781904Y-85947142D01*
%TO.C,R8*%
X151346981Y-84824292D02*
X150870791Y-85157626D01*
X151346981Y-85395721D02*
X150346981Y-85395721D01*
X150346981Y-85014768D01*
X150394601Y-84919530D01*
X150442220Y-84871911D01*
X150537458Y-84824292D01*
X150680315Y-84824292D01*
X150775553Y-84871911D01*
X150823172Y-84919530D01*
X150870791Y-85014768D01*
X150870791Y-85395721D01*
X150775553Y-84252864D02*
X150727934Y-84348102D01*
X150680315Y-84395721D01*
X150585077Y-84443340D01*
X150537458Y-84443340D01*
X150442220Y-84395721D01*
X150394601Y-84348102D01*
X150346981Y-84252864D01*
X150346981Y-84062387D01*
X150394601Y-83967149D01*
X150442220Y-83919530D01*
X150537458Y-83871911D01*
X150585077Y-83871911D01*
X150680315Y-83919530D01*
X150727934Y-83967149D01*
X150775553Y-84062387D01*
X150775553Y-84252864D01*
X150823172Y-84348102D01*
X150870791Y-84395721D01*
X150966029Y-84443340D01*
X151156505Y-84443340D01*
X151251743Y-84395721D01*
X151299362Y-84348102D01*
X151346981Y-84252864D01*
X151346981Y-84062387D01*
X151299362Y-83967149D01*
X151251743Y-83919530D01*
X151156505Y-83871911D01*
X150966029Y-83871911D01*
X150870791Y-83919530D01*
X150823172Y-83967149D01*
X150775553Y-84062387D01*
%TO.C,R7*%
X164143638Y-84849886D02*
X163667448Y-85183220D01*
X164143638Y-85421315D02*
X163143638Y-85421315D01*
X163143638Y-85040362D01*
X163191258Y-84945124D01*
X163238877Y-84897505D01*
X163334115Y-84849886D01*
X163476972Y-84849886D01*
X163572210Y-84897505D01*
X163619829Y-84945124D01*
X163667448Y-85040362D01*
X163667448Y-85421315D01*
X163143638Y-84516553D02*
X163143638Y-83849886D01*
X164143638Y-84278458D01*
%TO.C,D2*%
X114501904Y-61392380D02*
X114501904Y-60392380D01*
X114740000Y-60392380D01*
X114882857Y-60440000D01*
X114978095Y-60535238D01*
X115025714Y-60630476D01*
X115073333Y-60820952D01*
X115073333Y-60963809D01*
X115025714Y-61154285D01*
X114978095Y-61249523D01*
X114882857Y-61344761D01*
X114740000Y-61392380D01*
X114501904Y-61392380D01*
X115454285Y-60487619D02*
X115501904Y-60440000D01*
X115597142Y-60392380D01*
X115835238Y-60392380D01*
X115930476Y-60440000D01*
X115978095Y-60487619D01*
X116025714Y-60582857D01*
X116025714Y-60678095D01*
X115978095Y-60820952D01*
X115406666Y-61392380D01*
X116025714Y-61392380D01*
%TO.C,C1*%
X124326142Y-97717666D02*
X124373761Y-97765285D01*
X124421380Y-97908142D01*
X124421380Y-98003380D01*
X124373761Y-98146238D01*
X124278523Y-98241476D01*
X124183285Y-98289095D01*
X123992809Y-98336714D01*
X123849952Y-98336714D01*
X123659476Y-98289095D01*
X123564238Y-98241476D01*
X123469000Y-98146238D01*
X123421380Y-98003380D01*
X123421380Y-97908142D01*
X123469000Y-97765285D01*
X123516619Y-97717666D01*
X124421380Y-96765285D02*
X124421380Y-97336714D01*
X124421380Y-97051000D02*
X123421380Y-97051000D01*
X123564238Y-97146238D01*
X123659476Y-97241476D01*
X123707095Y-97336714D01*
%TO.C,R6*%
X179346067Y-84849886D02*
X178869877Y-85183220D01*
X179346067Y-85421315D02*
X178346067Y-85421315D01*
X178346067Y-85040362D01*
X178393687Y-84945124D01*
X178441306Y-84897505D01*
X178536544Y-84849886D01*
X178679401Y-84849886D01*
X178774639Y-84897505D01*
X178822258Y-84945124D01*
X178869877Y-85040362D01*
X178869877Y-85421315D01*
X178346067Y-83992743D02*
X178346067Y-84183220D01*
X178393687Y-84278458D01*
X178441306Y-84326077D01*
X178584163Y-84421315D01*
X178774639Y-84468934D01*
X179155591Y-84468934D01*
X179250829Y-84421315D01*
X179298448Y-84373696D01*
X179346067Y-84278458D01*
X179346067Y-84087981D01*
X179298448Y-83992743D01*
X179250829Y-83945124D01*
X179155591Y-83897505D01*
X178917496Y-83897505D01*
X178822258Y-83945124D01*
X178774639Y-83992743D01*
X178727020Y-84087981D01*
X178727020Y-84278458D01*
X178774639Y-84373696D01*
X178822258Y-84421315D01*
X178917496Y-84468934D01*
%TO.C,D7*%
X157681904Y-57912380D02*
X157681904Y-56912380D01*
X157920000Y-56912380D01*
X158062857Y-56960000D01*
X158158095Y-57055238D01*
X158205714Y-57150476D01*
X158253333Y-57340952D01*
X158253333Y-57483809D01*
X158205714Y-57674285D01*
X158158095Y-57769523D01*
X158062857Y-57864761D01*
X157920000Y-57912380D01*
X157681904Y-57912380D01*
X158586666Y-56912380D02*
X159253333Y-56912380D01*
X158824761Y-57912380D01*
%TO.C,D6*%
X147521904Y-69012380D02*
X147521904Y-68012380D01*
X147760000Y-68012380D01*
X147902857Y-68060000D01*
X147998095Y-68155238D01*
X148045714Y-68250476D01*
X148093333Y-68440952D01*
X148093333Y-68583809D01*
X148045714Y-68774285D01*
X147998095Y-68869523D01*
X147902857Y-68964761D01*
X147760000Y-69012380D01*
X147521904Y-69012380D01*
X148950476Y-68012380D02*
X148760000Y-68012380D01*
X148664761Y-68060000D01*
X148617142Y-68107619D01*
X148521904Y-68250476D01*
X148474285Y-68440952D01*
X148474285Y-68821904D01*
X148521904Y-68917142D01*
X148569523Y-68964761D01*
X148664761Y-69012380D01*
X148855238Y-69012380D01*
X148950476Y-68964761D01*
X148998095Y-68917142D01*
X149045714Y-68821904D01*
X149045714Y-68583809D01*
X148998095Y-68488571D01*
X148950476Y-68440952D01*
X148855238Y-68393333D01*
X148664761Y-68393333D01*
X148569523Y-68440952D01*
X148521904Y-68488571D01*
X148474285Y-68583809D01*
%TO.C,SW2*%
X172326666Y-85994761D02*
X172469523Y-86042380D01*
X172707619Y-86042380D01*
X172802857Y-85994761D01*
X172850476Y-85947142D01*
X172898095Y-85851904D01*
X172898095Y-85756666D01*
X172850476Y-85661428D01*
X172802857Y-85613809D01*
X172707619Y-85566190D01*
X172517142Y-85518571D01*
X172421904Y-85470952D01*
X172374285Y-85423333D01*
X172326666Y-85328095D01*
X172326666Y-85232857D01*
X172374285Y-85137619D01*
X172421904Y-85090000D01*
X172517142Y-85042380D01*
X172755238Y-85042380D01*
X172898095Y-85090000D01*
X173231428Y-85042380D02*
X173469523Y-86042380D01*
X173660000Y-85328095D01*
X173850476Y-86042380D01*
X174088571Y-85042380D01*
X174421904Y-85137619D02*
X174469523Y-85090000D01*
X174564761Y-85042380D01*
X174802857Y-85042380D01*
X174898095Y-85090000D01*
X174945714Y-85137619D01*
X174993333Y-85232857D01*
X174993333Y-85328095D01*
X174945714Y-85470952D01*
X174374285Y-86042380D01*
X174993333Y-86042380D01*
%TO.C,D3*%
X122121904Y-69012380D02*
X122121904Y-68012380D01*
X122360000Y-68012380D01*
X122502857Y-68060000D01*
X122598095Y-68155238D01*
X122645714Y-68250476D01*
X122693333Y-68440952D01*
X122693333Y-68583809D01*
X122645714Y-68774285D01*
X122598095Y-68869523D01*
X122502857Y-68964761D01*
X122360000Y-69012380D01*
X122121904Y-69012380D01*
X123026666Y-68012380D02*
X123645714Y-68012380D01*
X123312380Y-68393333D01*
X123455238Y-68393333D01*
X123550476Y-68440952D01*
X123598095Y-68488571D01*
X123645714Y-68583809D01*
X123645714Y-68821904D01*
X123598095Y-68917142D01*
X123550476Y-68964761D01*
X123455238Y-69012380D01*
X123169523Y-69012380D01*
X123074285Y-68964761D01*
X123026666Y-68917142D01*
%TO.C,SW1*%
X119736261Y-88929833D02*
X119783880Y-88786976D01*
X119783880Y-88548880D01*
X119736261Y-88453642D01*
X119688642Y-88406023D01*
X119593404Y-88358404D01*
X119498166Y-88358404D01*
X119402928Y-88406023D01*
X119355309Y-88453642D01*
X119307690Y-88548880D01*
X119260071Y-88739357D01*
X119212452Y-88834595D01*
X119164833Y-88882214D01*
X119069595Y-88929833D01*
X118974357Y-88929833D01*
X118879119Y-88882214D01*
X118831500Y-88834595D01*
X118783880Y-88739357D01*
X118783880Y-88501261D01*
X118831500Y-88358404D01*
X118783880Y-88025071D02*
X119783880Y-87786976D01*
X119069595Y-87596500D01*
X119783880Y-87406023D01*
X118783880Y-87167928D01*
X119783880Y-86263166D02*
X119783880Y-86834595D01*
X119783880Y-86548880D02*
X118783880Y-86548880D01*
X118926738Y-86644119D01*
X119021976Y-86739357D01*
X119069595Y-86834595D01*
%TO.C,R4*%
X182587380Y-78322666D02*
X182111190Y-78656000D01*
X182587380Y-78894095D02*
X181587380Y-78894095D01*
X181587380Y-78513142D01*
X181635000Y-78417904D01*
X181682619Y-78370285D01*
X181777857Y-78322666D01*
X181920714Y-78322666D01*
X182015952Y-78370285D01*
X182063571Y-78417904D01*
X182111190Y-78513142D01*
X182111190Y-78894095D01*
X181920714Y-77465523D02*
X182587380Y-77465523D01*
X181539761Y-77703619D02*
X182254047Y-77941714D01*
X182254047Y-77322666D01*
%TO.C,D5*%
X137361904Y-69012380D02*
X137361904Y-68012380D01*
X137600000Y-68012380D01*
X137742857Y-68060000D01*
X137838095Y-68155238D01*
X137885714Y-68250476D01*
X137933333Y-68440952D01*
X137933333Y-68583809D01*
X137885714Y-68774285D01*
X137838095Y-68869523D01*
X137742857Y-68964761D01*
X137600000Y-69012380D01*
X137361904Y-69012380D01*
X138838095Y-68012380D02*
X138361904Y-68012380D01*
X138314285Y-68488571D01*
X138361904Y-68440952D01*
X138457142Y-68393333D01*
X138695238Y-68393333D01*
X138790476Y-68440952D01*
X138838095Y-68488571D01*
X138885714Y-68583809D01*
X138885714Y-68821904D01*
X138838095Y-68917142D01*
X138790476Y-68964761D01*
X138695238Y-69012380D01*
X138457142Y-69012380D01*
X138361904Y-68964761D01*
X138314285Y-68917142D01*
%TO.C,C3*%
X178335142Y-70321666D02*
X178382761Y-70369285D01*
X178430380Y-70512142D01*
X178430380Y-70607380D01*
X178382761Y-70750238D01*
X178287523Y-70845476D01*
X178192285Y-70893095D01*
X178001809Y-70940714D01*
X177858952Y-70940714D01*
X177668476Y-70893095D01*
X177573238Y-70845476D01*
X177478000Y-70750238D01*
X177430380Y-70607380D01*
X177430380Y-70512142D01*
X177478000Y-70369285D01*
X177525619Y-70321666D01*
X177430380Y-69988333D02*
X177430380Y-69369285D01*
X177811333Y-69702619D01*
X177811333Y-69559761D01*
X177858952Y-69464523D01*
X177906571Y-69416904D01*
X178001809Y-69369285D01*
X178239904Y-69369285D01*
X178335142Y-69416904D01*
X178382761Y-69464523D01*
X178430380Y-69559761D01*
X178430380Y-69845476D01*
X178382761Y-69940714D01*
X178335142Y-69988333D01*
%TO.C,R3*%
X180428380Y-78322666D02*
X179952190Y-78656000D01*
X180428380Y-78894095D02*
X179428380Y-78894095D01*
X179428380Y-78513142D01*
X179476000Y-78417904D01*
X179523619Y-78370285D01*
X179618857Y-78322666D01*
X179761714Y-78322666D01*
X179856952Y-78370285D01*
X179904571Y-78417904D01*
X179952190Y-78513142D01*
X179952190Y-78894095D01*
X179428380Y-77989333D02*
X179428380Y-77370285D01*
X179809333Y-77703619D01*
X179809333Y-77560761D01*
X179856952Y-77465523D01*
X179904571Y-77417904D01*
X179999809Y-77370285D01*
X180237904Y-77370285D01*
X180333142Y-77417904D01*
X180380761Y-77465523D01*
X180428380Y-77560761D01*
X180428380Y-77846476D01*
X180380761Y-77941714D01*
X180333142Y-77989333D01*
%TO.C,R5*%
X186050380Y-78322666D02*
X185574190Y-78656000D01*
X186050380Y-78894095D02*
X185050380Y-78894095D01*
X185050380Y-78513142D01*
X185098000Y-78417904D01*
X185145619Y-78370285D01*
X185240857Y-78322666D01*
X185383714Y-78322666D01*
X185478952Y-78370285D01*
X185526571Y-78417904D01*
X185574190Y-78513142D01*
X185574190Y-78894095D01*
X185050380Y-77417904D02*
X185050380Y-77894095D01*
X185526571Y-77941714D01*
X185478952Y-77894095D01*
X185431333Y-77798857D01*
X185431333Y-77560761D01*
X185478952Y-77465523D01*
X185526571Y-77417904D01*
X185621809Y-77370285D01*
X185859904Y-77370285D01*
X185955142Y-77417904D01*
X186002761Y-77465523D01*
X186050380Y-77560761D01*
X186050380Y-77798857D01*
X186002761Y-77894095D01*
X185955142Y-77941714D01*
%TO.C,SW3*%
X157086666Y-85994761D02*
X157229523Y-86042380D01*
X157467619Y-86042380D01*
X157562857Y-85994761D01*
X157610476Y-85947142D01*
X157658095Y-85851904D01*
X157658095Y-85756666D01*
X157610476Y-85661428D01*
X157562857Y-85613809D01*
X157467619Y-85566190D01*
X157277142Y-85518571D01*
X157181904Y-85470952D01*
X157134285Y-85423333D01*
X157086666Y-85328095D01*
X157086666Y-85232857D01*
X157134285Y-85137619D01*
X157181904Y-85090000D01*
X157277142Y-85042380D01*
X157515238Y-85042380D01*
X157658095Y-85090000D01*
X157991428Y-85042380D02*
X158229523Y-86042380D01*
X158420000Y-85328095D01*
X158610476Y-86042380D01*
X158848571Y-85042380D01*
X159134285Y-85042380D02*
X159753333Y-85042380D01*
X159420000Y-85423333D01*
X159562857Y-85423333D01*
X159658095Y-85470952D01*
X159705714Y-85518571D01*
X159753333Y-85613809D01*
X159753333Y-85851904D01*
X159705714Y-85947142D01*
X159658095Y-85994761D01*
X159562857Y-86042380D01*
X159277142Y-86042380D01*
X159181904Y-85994761D01*
X159134285Y-85947142D01*
%TO.C,D4*%
X129741904Y-61392380D02*
X129741904Y-60392380D01*
X129980000Y-60392380D01*
X130122857Y-60440000D01*
X130218095Y-60535238D01*
X130265714Y-60630476D01*
X130313333Y-60820952D01*
X130313333Y-60963809D01*
X130265714Y-61154285D01*
X130218095Y-61249523D01*
X130122857Y-61344761D01*
X129980000Y-61392380D01*
X129741904Y-61392380D01*
X131170476Y-60725714D02*
X131170476Y-61392380D01*
X130932380Y-60344761D02*
X130694285Y-61059047D01*
X131313333Y-61059047D01*
%TO.C,C2*%
X191323142Y-56605666D02*
X191370761Y-56653285D01*
X191418380Y-56796142D01*
X191418380Y-56891380D01*
X191370761Y-57034238D01*
X191275523Y-57129476D01*
X191180285Y-57177095D01*
X190989809Y-57224714D01*
X190846952Y-57224714D01*
X190656476Y-57177095D01*
X190561238Y-57129476D01*
X190466000Y-57034238D01*
X190418380Y-56891380D01*
X190418380Y-56796142D01*
X190466000Y-56653285D01*
X190513619Y-56605666D01*
X190513619Y-56224714D02*
X190466000Y-56177095D01*
X190418380Y-56081857D01*
X190418380Y-55843761D01*
X190466000Y-55748523D01*
X190513619Y-55700904D01*
X190608857Y-55653285D01*
X190704095Y-55653285D01*
X190846952Y-55700904D01*
X191418380Y-56272333D01*
X191418380Y-55653285D01*
%TO.C,R1*%
X117436380Y-59018666D02*
X116960190Y-59352000D01*
X117436380Y-59590095D02*
X116436380Y-59590095D01*
X116436380Y-59209142D01*
X116484000Y-59113904D01*
X116531619Y-59066285D01*
X116626857Y-59018666D01*
X116769714Y-59018666D01*
X116864952Y-59066285D01*
X116912571Y-59113904D01*
X116960190Y-59209142D01*
X116960190Y-59590095D01*
X117436380Y-58066285D02*
X117436380Y-58637714D01*
X117436380Y-58352000D02*
X116436380Y-58352000D01*
X116579238Y-58447238D01*
X116674476Y-58542476D01*
X116722095Y-58637714D01*
%TO.C,D8*%
X170471904Y-55372380D02*
X170471904Y-54372380D01*
X170710000Y-54372380D01*
X170852857Y-54420000D01*
X170948095Y-54515238D01*
X170995714Y-54610476D01*
X171043333Y-54800952D01*
X171043333Y-54943809D01*
X170995714Y-55134285D01*
X170948095Y-55229523D01*
X170852857Y-55324761D01*
X170710000Y-55372380D01*
X170471904Y-55372380D01*
X171614761Y-54800952D02*
X171519523Y-54753333D01*
X171471904Y-54705714D01*
X171424285Y-54610476D01*
X171424285Y-54562857D01*
X171471904Y-54467619D01*
X171519523Y-54420000D01*
X171614761Y-54372380D01*
X171805238Y-54372380D01*
X171900476Y-54420000D01*
X171948095Y-54467619D01*
X171995714Y-54562857D01*
X171995714Y-54610476D01*
X171948095Y-54705714D01*
X171900476Y-54753333D01*
X171805238Y-54800952D01*
X171614761Y-54800952D01*
X171519523Y-54848571D01*
X171471904Y-54896190D01*
X171424285Y-54991428D01*
X171424285Y-55181904D01*
X171471904Y-55277142D01*
X171519523Y-55324761D01*
X171614761Y-55372380D01*
X171805238Y-55372380D01*
X171900476Y-55324761D01*
X171948095Y-55277142D01*
X171995714Y-55181904D01*
X171995714Y-54991428D01*
X171948095Y-54896190D01*
X171900476Y-54848571D01*
X171805238Y-54800952D01*
D11*
%TO.C,D1*%
X120240000Y-54520000D02*
X120240000Y-54200000D01*
X120240000Y-54200000D02*
X125360000Y-54200000D01*
X120360000Y-59440000D02*
X125360000Y-59440000D01*
%TO.C,U2*%
X189908107Y-68703000D02*
G75*
G03*
X189908107Y-68703000I-707107J0D01*
G01*
X180166000Y-73203000D02*
X180166000Y-71003000D01*
X188236000Y-73203000D02*
X188236000Y-75403000D01*
X180166000Y-73203000D02*
X180166000Y-75403000D01*
X188236000Y-73203000D02*
X188236000Y-69603000D01*
%TO.C,U1*%
X180981107Y-52679000D02*
G75*
G03*
X180981107Y-52679000I-707107J0D01*
G01*
X181434000Y-64129000D02*
X186734000Y-64129000D01*
X186734000Y-53849000D02*
X185084000Y-53849000D01*
X181434000Y-53849000D02*
X181434000Y-64129000D01*
X186734000Y-64129000D02*
X186734000Y-53849000D01*
X183084000Y-53849000D02*
X181434000Y-53849000D01*
X183084000Y-53849000D02*
G75*
G03*
X185084000Y-53849000I1000000J0D01*
G01*
%TO.C,SW6*%
X189860000Y-90590000D02*
X189860000Y-89090000D01*
X188610000Y-86590000D02*
X184110000Y-86590000D01*
X184110000Y-93090000D02*
X188610000Y-93090000D01*
X182860000Y-89090000D02*
X182860000Y-90590000D01*
%TO.C,J4*%
X197850000Y-93710000D02*
X197848838Y-49257278D01*
X195250000Y-93710000D02*
X195250000Y-91110000D01*
X192650000Y-91110000D02*
X192650000Y-47870000D01*
X193980000Y-93710000D02*
X192650000Y-93710000D01*
X195250000Y-91110000D02*
X192650000Y-91110000D01*
X192650000Y-93710000D02*
X192650000Y-92380000D01*
X197850000Y-93710000D02*
X195250000Y-93710000D01*
X192650000Y-47870000D02*
X196516649Y-47869932D01*
X197848838Y-49257278D02*
G75*
G03*
X196516649Y-47869932I-1328837J57279D01*
G01*
%TO.C,J1*%
X129210000Y-98790000D02*
X147050000Y-98790000D01*
X129210000Y-98790000D02*
X129210000Y-96130000D01*
X147050000Y-98790000D02*
X147050000Y-96130000D01*
X129210000Y-96130000D02*
X147050000Y-96130000D01*
X126610000Y-97460000D02*
X126610000Y-96130000D01*
X126610000Y-96130000D02*
X127940000Y-96130000D01*
%TO.C,J2*%
X152070000Y-98790000D02*
X169910000Y-98790000D01*
X152070000Y-96130000D02*
X169910000Y-96130000D01*
X149470000Y-97460000D02*
X149470000Y-96130000D01*
X149470000Y-96130000D02*
X150800000Y-96130000D01*
X152070000Y-98790000D02*
X152070000Y-96130000D01*
X169910000Y-98790000D02*
X169910000Y-96130000D01*
%TO.C,J3*%
X174930000Y-98790000D02*
X192770000Y-98790000D01*
X172330000Y-97460000D02*
X172330000Y-96130000D01*
X192770000Y-98790000D02*
X192770000Y-96130000D01*
X172330000Y-96130000D02*
X173660000Y-96130000D01*
X174930000Y-98790000D02*
X174930000Y-96130000D01*
X174930000Y-96130000D02*
X192770000Y-96130000D01*
%TO.C,J5*%
X120066000Y-50530000D02*
X120066000Y-47870000D01*
X120066000Y-47870000D02*
X142986000Y-47870000D01*
X142986000Y-50530000D02*
X142986000Y-47870000D01*
X117466000Y-49200000D02*
X117466000Y-47870000D01*
X117466000Y-47870000D02*
X118796000Y-47870000D01*
X120066000Y-50530000D02*
X142986000Y-50530000D01*
%TO.C,J6*%
X144390000Y-49200000D02*
X144390000Y-47870000D01*
X146990000Y-50530000D02*
X164830000Y-50530000D01*
X164830000Y-50530000D02*
X164830000Y-47870000D01*
X146990000Y-50530000D02*
X146990000Y-47870000D01*
X146990000Y-47870000D02*
X164830000Y-47870000D01*
X144390000Y-47870000D02*
X145720000Y-47870000D01*
%TO.C,J7*%
X167250000Y-49200000D02*
X167250000Y-47870000D01*
X169850000Y-50530000D02*
X169850000Y-47870000D01*
X167250000Y-47870000D02*
X168580000Y-47870000D01*
X169850000Y-47870000D02*
X187690000Y-47870000D01*
X169850000Y-50530000D02*
X187690000Y-50530000D01*
X187690000Y-50530000D02*
X187690000Y-47870000D01*
%TO.C,SW4*%
X147970000Y-86590000D02*
X143470000Y-86590000D01*
X149220000Y-90590000D02*
X149220000Y-89090000D01*
X142220000Y-89090000D02*
X142220000Y-90590000D01*
X143470000Y-93090000D02*
X147970000Y-93090000D01*
%TO.C,SW5*%
X130770000Y-93090000D02*
X135270000Y-93090000D01*
X136520000Y-90590000D02*
X136520000Y-89090000D01*
X129520000Y-89090000D02*
X129520000Y-90590000D01*
X135270000Y-86590000D02*
X130770000Y-86590000D01*
%TO.C,D2*%
X112620000Y-62140000D02*
X112620000Y-61820000D01*
X112740000Y-67060000D02*
X117740000Y-67060000D01*
X112620000Y-61820000D02*
X117740000Y-61820000D01*
%TO.C,D7*%
X155920000Y-63580000D02*
X160920000Y-63580000D01*
X155800000Y-58660000D02*
X155800000Y-58340000D01*
X155800000Y-58340000D02*
X160920000Y-58340000D01*
%TO.C,D6*%
X145760000Y-74680000D02*
X150760000Y-74680000D01*
X145640000Y-69760000D02*
X145640000Y-69440000D01*
X145640000Y-69440000D02*
X150760000Y-69440000D01*
%TO.C,SW2*%
X170160000Y-89090000D02*
X170160000Y-90590000D01*
X177160000Y-90590000D02*
X177160000Y-89090000D01*
X171410000Y-93090000D02*
X175910000Y-93090000D01*
X175910000Y-86590000D02*
X171410000Y-86590000D01*
%TO.C,D3*%
X120240000Y-69760000D02*
X120240000Y-69440000D01*
X120360000Y-74680000D02*
X125360000Y-74680000D01*
X120240000Y-69440000D02*
X125360000Y-69440000D01*
%TO.C,SW1*%
X118481500Y-82646500D02*
X118481500Y-92546500D01*
X119431500Y-80296500D02*
X119431500Y-81596500D01*
X117731500Y-94596500D02*
X112531500Y-94596500D01*
X112531500Y-80596500D02*
X117731500Y-80596500D01*
X118131500Y-80296500D02*
X119431500Y-80296500D01*
X111781500Y-92546500D02*
X111781500Y-82646500D01*
%TO.C,D5*%
X135600000Y-74680000D02*
X140600000Y-74680000D01*
X135480000Y-69760000D02*
X135480000Y-69440000D01*
X135480000Y-69440000D02*
X140600000Y-69440000D01*
%TO.C,SW3*%
X154920000Y-89090000D02*
X154920000Y-90590000D01*
X160670000Y-86590000D02*
X156170000Y-86590000D01*
X161920000Y-90590000D02*
X161920000Y-89090000D01*
X156170000Y-93090000D02*
X160670000Y-93090000D01*
%TO.C,D4*%
X127860000Y-62140000D02*
X127860000Y-61820000D01*
X127860000Y-61820000D02*
X132980000Y-61820000D01*
X127980000Y-67060000D02*
X132980000Y-67060000D01*
%TO.C,D8*%
X168590000Y-56120000D02*
X168590000Y-55800000D01*
X168590000Y-55800000D02*
X173710000Y-55800000D01*
X168710000Y-61040000D02*
X173710000Y-61040000D01*
%TD*%
M02*
