M48
; DRILL file {KiCad (6.0.7)} date Mon Oct 17 16:36:17 2022
; FORMAT={-:-/ absolute / inch / decimal}
; #@! TF.CreationDate,2022-10-17T16:36:17-04:00
; #@! TF.GenerationSoftware,Kicad,Pcbnew,(6.0.7)
; #@! TF.FileFunction,MixedPlating,1,2
FMAT,2
INCH
; #@! TA.AperFunction,Plated,PTH,ViaDrill
T1C0.0157
; #@! TA.AperFunction,Plated,PTH,ComponentDrill
T2C0.0315
; #@! TA.AperFunction,Plated,PTH,ComponentDrill
T3C0.0394
; #@! TA.AperFunction,Plated,PTH,ComponentDrill
T4C0.0433
; #@! TA.AperFunction,NonPlated,NPTH,ComponentDrill
T5C0.1260
%
G90
G05
T1
X4.4375Y-2.3949
X4.7361Y-2.6966
X4.7369Y-2.0955
X5.0355Y-2.3949
X5.3342Y-2.6974
X5.7352Y-2.6936
X6.1408Y-2.2613
X6.6449Y-2.1589
X7.337Y-2.8373
T2
X6.8874Y-2.6874
X6.8874Y-2.7874
X6.8874Y-2.8874
X6.8874Y-2.9874
X7.1874Y-2.6874
X7.1874Y-2.7874
X7.1874Y-2.8874
X7.1874Y-2.9874
T3
X4.677Y-1.937
X4.777Y-1.937
X4.877Y-1.937
X4.977Y-1.937
X5.037Y-3.837
X5.077Y-1.937
X5.137Y-3.837
X5.177Y-1.937
X5.237Y-3.837
X5.277Y-1.937
X5.337Y-3.837
X5.377Y-1.937
X5.437Y-3.837
X5.477Y-1.937
X5.537Y-3.837
X5.577Y-1.937
X5.637Y-3.837
X5.737Y-1.937
X5.737Y-3.837
X5.837Y-1.937
X5.937Y-1.937
X5.937Y-3.837
X6.037Y-1.937
X6.037Y-3.837
X6.137Y-1.937
X6.137Y-3.837
X6.237Y-1.937
X6.237Y-3.837
X6.337Y-1.937
X6.337Y-3.837
X6.437Y-1.937
X6.437Y-3.837
X6.537Y-3.837
X6.637Y-1.937
X6.637Y-3.837
X6.737Y-1.937
X6.837Y-1.937
X6.837Y-3.837
X6.937Y-1.937
X6.937Y-3.837
X7.037Y-1.937
X7.037Y-3.837
X7.137Y-1.937
X7.137Y-3.837
X7.237Y-1.937
X7.237Y-3.837
X7.337Y-1.937
X7.337Y-3.837
X7.437Y-3.837
X7.537Y-3.837
X7.637Y-1.937
X7.637Y-2.037
X7.637Y-2.137
X7.637Y-2.237
X7.637Y-2.337
X7.637Y-2.437
X7.637Y-2.537
X7.637Y-2.637
X7.637Y-2.737
X7.637Y-2.837
X7.637Y-2.937
X7.637Y-3.037
X7.637Y-3.137
X7.637Y-3.237
X7.637Y-3.337
X7.637Y-3.437
X7.637Y-3.537
X7.637Y-3.637
X7.737Y-1.937
X7.737Y-2.037
X7.737Y-2.137
X7.737Y-2.237
X7.737Y-2.337
X7.737Y-2.437
X7.737Y-2.537
X7.737Y-2.637
X7.737Y-2.737
X7.737Y-2.837
X7.737Y-2.937
X7.737Y-3.037
X7.737Y-3.137
X7.737Y-3.237
X7.737Y-3.337
X7.737Y-3.437
X7.737Y-3.537
X7.737Y-3.637
T4
X5.1091Y-3.4484
X5.1091Y-3.6256
X5.365Y-3.4484
X5.365Y-3.6256
X5.6091Y-3.4484
X5.6091Y-3.6256
X5.865Y-3.4484
X5.865Y-3.6256
X6.1091Y-3.4484
X6.1091Y-3.6256
X6.365Y-3.4484
X6.365Y-3.6256
X6.7091Y-3.4484
X6.7091Y-3.6256
X6.965Y-3.4484
X6.965Y-3.6256
X7.2091Y-3.4484
X7.2091Y-3.6256
X7.465Y-3.4484
X7.465Y-3.6256
T5
X4.487Y-3.837
X4.537Y-1.937
X6.537Y-2.537
X6.537Y-3.637
X7.487Y-1.937
X7.737Y-3.837
T0
M30
