%TF.GenerationSoftware,KiCad,Pcbnew,(6.0.7)*%
%TF.CreationDate,2022-11-04T20:59:30-04:00*%
%TF.ProjectId,dmgc-attiny-arduino-mega,646d6763-2d61-4747-9469-6e792d617264,rev?*%
%TF.SameCoordinates,Original*%
%TF.FileFunction,AssemblyDrawing,Top*%
%FSLAX46Y46*%
G04 Gerber Fmt 4.6, Leading zero omitted, Abs format (unit mm)*
G04 Created by KiCad (PCBNEW (6.0.7)) date 2022-11-04 20:59:30*
%MOMM*%
%LPD*%
G01*
G04 APERTURE LIST*
%ADD10C,0.150000*%
%ADD11C,0.060000*%
%ADD12C,0.100000*%
G04 APERTURE END LIST*
D10*
%TO.C,R10*%
X187973706Y-85236912D02*
X188640372Y-85236912D01*
X187592753Y-85475007D02*
X188307039Y-85713102D01*
X188307039Y-85094055D01*
X188545134Y-84713102D02*
X188592753Y-84665483D01*
X188640372Y-84713102D01*
X188592753Y-84760721D01*
X188545134Y-84713102D01*
X188640372Y-84713102D01*
X187640372Y-84332150D02*
X187640372Y-83665483D01*
X188640372Y-84094055D01*
X188640372Y-83284531D02*
X187640372Y-83284531D01*
X188259420Y-83189293D02*
X188640372Y-82903579D01*
X187973706Y-82903579D02*
X188354658Y-83284531D01*
D11*
X189798944Y-84565483D02*
X189608468Y-84698817D01*
X189798944Y-84794055D02*
X189398944Y-84794055D01*
X189398944Y-84641674D01*
X189417992Y-84603579D01*
X189437039Y-84584531D01*
X189475134Y-84565483D01*
X189532277Y-84565483D01*
X189570372Y-84584531D01*
X189589420Y-84603579D01*
X189608468Y-84641674D01*
X189608468Y-84794055D01*
X189798944Y-84184531D02*
X189798944Y-84413102D01*
X189798944Y-84298817D02*
X189398944Y-84298817D01*
X189456087Y-84336912D01*
X189494182Y-84375007D01*
X189513230Y-84413102D01*
X189398944Y-83936912D02*
X189398944Y-83898817D01*
X189417992Y-83860721D01*
X189437039Y-83841674D01*
X189475134Y-83822626D01*
X189551325Y-83803579D01*
X189646563Y-83803579D01*
X189722753Y-83822626D01*
X189760849Y-83841674D01*
X189779896Y-83860721D01*
X189798944Y-83898817D01*
X189798944Y-83936912D01*
X189779896Y-83975007D01*
X189760849Y-83994055D01*
X189722753Y-84013102D01*
X189646563Y-84032150D01*
X189551325Y-84032150D01*
X189475134Y-84013102D01*
X189437039Y-83994055D01*
X189417992Y-83975007D01*
X189398944Y-83936912D01*
D10*
%TO.C,R9*%
X134639882Y-85258679D02*
X135306548Y-85258679D01*
X134258929Y-85496774D02*
X134973215Y-85734869D01*
X134973215Y-85115822D01*
X135211310Y-84734869D02*
X135258929Y-84687250D01*
X135306548Y-84734869D01*
X135258929Y-84782488D01*
X135211310Y-84734869D01*
X135306548Y-84734869D01*
X134306548Y-84353917D02*
X134306548Y-83687250D01*
X135306548Y-84115822D01*
X135306548Y-83306298D02*
X134306548Y-83306298D01*
X134925596Y-83211060D02*
X135306548Y-82925346D01*
X134639882Y-82925346D02*
X135020834Y-83306298D01*
D11*
X136465120Y-84396774D02*
X136274644Y-84530108D01*
X136465120Y-84625346D02*
X136065120Y-84625346D01*
X136065120Y-84472965D01*
X136084168Y-84434869D01*
X136103215Y-84415822D01*
X136141310Y-84396774D01*
X136198453Y-84396774D01*
X136236548Y-84415822D01*
X136255596Y-84434869D01*
X136274644Y-84472965D01*
X136274644Y-84625346D01*
X136465120Y-84206298D02*
X136465120Y-84130108D01*
X136446072Y-84092012D01*
X136427025Y-84072965D01*
X136369882Y-84034869D01*
X136293691Y-84015822D01*
X136141310Y-84015822D01*
X136103215Y-84034869D01*
X136084168Y-84053917D01*
X136065120Y-84092012D01*
X136065120Y-84168203D01*
X136084168Y-84206298D01*
X136103215Y-84225346D01*
X136141310Y-84244393D01*
X136236548Y-84244393D01*
X136274644Y-84225346D01*
X136293691Y-84206298D01*
X136312739Y-84168203D01*
X136312739Y-84092012D01*
X136293691Y-84053917D01*
X136274644Y-84034869D01*
X136236548Y-84015822D01*
D10*
%TO.C,R8*%
X147348146Y-85251695D02*
X148014812Y-85251695D01*
X146967193Y-85489790D02*
X147681479Y-85727885D01*
X147681479Y-85108838D01*
X147919574Y-84727885D02*
X147967193Y-84680266D01*
X148014812Y-84727885D01*
X147967193Y-84775504D01*
X147919574Y-84727885D01*
X148014812Y-84727885D01*
X147014812Y-84346933D02*
X147014812Y-83680266D01*
X148014812Y-84108838D01*
X148014812Y-83299314D02*
X147014812Y-83299314D01*
X147633860Y-83204076D02*
X148014812Y-82918362D01*
X147348146Y-82918362D02*
X147729098Y-83299314D01*
D11*
X149173384Y-84389790D02*
X148982908Y-84523124D01*
X149173384Y-84618362D02*
X148773384Y-84618362D01*
X148773384Y-84465981D01*
X148792432Y-84427885D01*
X148811479Y-84408838D01*
X148849574Y-84389790D01*
X148906717Y-84389790D01*
X148944812Y-84408838D01*
X148963860Y-84427885D01*
X148982908Y-84465981D01*
X148982908Y-84618362D01*
X148944812Y-84161219D02*
X148925765Y-84199314D01*
X148906717Y-84218362D01*
X148868622Y-84237409D01*
X148849574Y-84237409D01*
X148811479Y-84218362D01*
X148792432Y-84199314D01*
X148773384Y-84161219D01*
X148773384Y-84085028D01*
X148792432Y-84046933D01*
X148811479Y-84027885D01*
X148849574Y-84008838D01*
X148868622Y-84008838D01*
X148906717Y-84027885D01*
X148925765Y-84046933D01*
X148944812Y-84085028D01*
X148944812Y-84161219D01*
X148963860Y-84199314D01*
X148982908Y-84218362D01*
X149021003Y-84237409D01*
X149097193Y-84237409D01*
X149135289Y-84218362D01*
X149154336Y-84199314D01*
X149173384Y-84161219D01*
X149173384Y-84085028D01*
X149154336Y-84046933D01*
X149135289Y-84027885D01*
X149097193Y-84008838D01*
X149021003Y-84008838D01*
X148982908Y-84027885D01*
X148963860Y-84046933D01*
X148944812Y-84085028D01*
D10*
%TO.C,R7*%
X160017762Y-85236912D02*
X160684428Y-85236912D01*
X159636809Y-85475007D02*
X160351095Y-85713102D01*
X160351095Y-85094055D01*
X160589190Y-84713102D02*
X160636809Y-84665483D01*
X160684428Y-84713102D01*
X160636809Y-84760721D01*
X160589190Y-84713102D01*
X160684428Y-84713102D01*
X159684428Y-84332150D02*
X159684428Y-83665483D01*
X160684428Y-84094055D01*
X160684428Y-83284531D02*
X159684428Y-83284531D01*
X160303476Y-83189293D02*
X160684428Y-82903579D01*
X160017762Y-82903579D02*
X160398714Y-83284531D01*
D11*
X161843000Y-84375007D02*
X161652524Y-84508341D01*
X161843000Y-84603579D02*
X161443000Y-84603579D01*
X161443000Y-84451198D01*
X161462048Y-84413102D01*
X161481095Y-84394055D01*
X161519190Y-84375007D01*
X161576333Y-84375007D01*
X161614428Y-84394055D01*
X161633476Y-84413102D01*
X161652524Y-84451198D01*
X161652524Y-84603579D01*
X161443000Y-84241674D02*
X161443000Y-83975007D01*
X161843000Y-84146436D01*
D10*
%TO.C,R6*%
X175259739Y-85236912D02*
X175926405Y-85236912D01*
X174878786Y-85475007D02*
X175593072Y-85713102D01*
X175593072Y-85094055D01*
X175831167Y-84713102D02*
X175878786Y-84665483D01*
X175926405Y-84713102D01*
X175878786Y-84760721D01*
X175831167Y-84713102D01*
X175926405Y-84713102D01*
X174926405Y-84332150D02*
X174926405Y-83665483D01*
X175926405Y-84094055D01*
X175926405Y-83284531D02*
X174926405Y-83284531D01*
X175545453Y-83189293D02*
X175926405Y-82903579D01*
X175259739Y-82903579D02*
X175640691Y-83284531D01*
D11*
X177084977Y-84375007D02*
X176894501Y-84508341D01*
X177084977Y-84603579D02*
X176684977Y-84603579D01*
X176684977Y-84451198D01*
X176704025Y-84413102D01*
X176723072Y-84394055D01*
X176761167Y-84375007D01*
X176818310Y-84375007D01*
X176856405Y-84394055D01*
X176875453Y-84413102D01*
X176894501Y-84451198D01*
X176894501Y-84603579D01*
X176684977Y-84032150D02*
X176684977Y-84108341D01*
X176704025Y-84146436D01*
X176723072Y-84165483D01*
X176780215Y-84203579D01*
X176856405Y-84222626D01*
X177008786Y-84222626D01*
X177046882Y-84203579D01*
X177065929Y-84184531D01*
X177084977Y-84146436D01*
X177084977Y-84070245D01*
X177065929Y-84032150D01*
X177046882Y-84013102D01*
X177008786Y-83994055D01*
X176913548Y-83994055D01*
X176875453Y-84013102D01*
X176856405Y-84032150D01*
X176837358Y-84070245D01*
X176837358Y-84146436D01*
X176856405Y-84184531D01*
X176875453Y-84203579D01*
X176913548Y-84222626D01*
D10*
%TO.C,R5*%
X186480380Y-80045095D02*
X186480380Y-80521285D01*
X186956571Y-80568904D01*
X186908952Y-80521285D01*
X186861333Y-80426047D01*
X186861333Y-80187952D01*
X186908952Y-80092714D01*
X186956571Y-80045095D01*
X187051809Y-79997476D01*
X187289904Y-79997476D01*
X187385142Y-80045095D01*
X187432761Y-80092714D01*
X187480380Y-80187952D01*
X187480380Y-80426047D01*
X187432761Y-80521285D01*
X187385142Y-80568904D01*
X186480380Y-79378428D02*
X186480380Y-79283190D01*
X186528000Y-79187952D01*
X186575619Y-79140333D01*
X186670857Y-79092714D01*
X186861333Y-79045095D01*
X187099428Y-79045095D01*
X187289904Y-79092714D01*
X187385142Y-79140333D01*
X187432761Y-79187952D01*
X187480380Y-79283190D01*
X187480380Y-79378428D01*
X187432761Y-79473666D01*
X187385142Y-79521285D01*
X187289904Y-79568904D01*
X187099428Y-79616523D01*
X186861333Y-79616523D01*
X186670857Y-79568904D01*
X186575619Y-79521285D01*
X186528000Y-79473666D01*
X186480380Y-79378428D01*
D11*
X185778952Y-79873666D02*
X185588476Y-80007000D01*
X185778952Y-80102238D02*
X185378952Y-80102238D01*
X185378952Y-79949857D01*
X185398000Y-79911761D01*
X185417047Y-79892714D01*
X185455142Y-79873666D01*
X185512285Y-79873666D01*
X185550380Y-79892714D01*
X185569428Y-79911761D01*
X185588476Y-79949857D01*
X185588476Y-80102238D01*
X185378952Y-79511761D02*
X185378952Y-79702238D01*
X185569428Y-79721285D01*
X185550380Y-79702238D01*
X185531333Y-79664142D01*
X185531333Y-79568904D01*
X185550380Y-79530809D01*
X185569428Y-79511761D01*
X185607523Y-79492714D01*
X185702761Y-79492714D01*
X185740857Y-79511761D01*
X185759904Y-79530809D01*
X185778952Y-79568904D01*
X185778952Y-79664142D01*
X185759904Y-79702238D01*
X185740857Y-79721285D01*
D10*
%TO.C,R4*%
X184575380Y-80045095D02*
X184575380Y-80521285D01*
X185051571Y-80568904D01*
X185003952Y-80521285D01*
X184956333Y-80426047D01*
X184956333Y-80187952D01*
X185003952Y-80092714D01*
X185051571Y-80045095D01*
X185146809Y-79997476D01*
X185384904Y-79997476D01*
X185480142Y-80045095D01*
X185527761Y-80092714D01*
X185575380Y-80187952D01*
X185575380Y-80426047D01*
X185527761Y-80521285D01*
X185480142Y-80568904D01*
X184575380Y-79378428D02*
X184575380Y-79283190D01*
X184623000Y-79187952D01*
X184670619Y-79140333D01*
X184765857Y-79092714D01*
X184956333Y-79045095D01*
X185194428Y-79045095D01*
X185384904Y-79092714D01*
X185480142Y-79140333D01*
X185527761Y-79187952D01*
X185575380Y-79283190D01*
X185575380Y-79378428D01*
X185527761Y-79473666D01*
X185480142Y-79521285D01*
X185384904Y-79568904D01*
X185194428Y-79616523D01*
X184956333Y-79616523D01*
X184765857Y-79568904D01*
X184670619Y-79521285D01*
X184623000Y-79473666D01*
X184575380Y-79378428D01*
D11*
X183873952Y-79873666D02*
X183683476Y-80007000D01*
X183873952Y-80102238D02*
X183473952Y-80102238D01*
X183473952Y-79949857D01*
X183493000Y-79911761D01*
X183512047Y-79892714D01*
X183550142Y-79873666D01*
X183607285Y-79873666D01*
X183645380Y-79892714D01*
X183664428Y-79911761D01*
X183683476Y-79949857D01*
X183683476Y-80102238D01*
X183607285Y-79530809D02*
X183873952Y-79530809D01*
X183454904Y-79626047D02*
X183740619Y-79721285D01*
X183740619Y-79473666D01*
D10*
%TO.C,R3*%
X181860714Y-80735571D02*
X182527380Y-80735571D01*
X181479761Y-80973666D02*
X182194047Y-81211761D01*
X182194047Y-80592714D01*
X182432142Y-80211761D02*
X182479761Y-80164142D01*
X182527380Y-80211761D01*
X182479761Y-80259380D01*
X182432142Y-80211761D01*
X182527380Y-80211761D01*
X181527380Y-79830809D02*
X181527380Y-79164142D01*
X182527380Y-79592714D01*
X182527380Y-78783190D02*
X181527380Y-78783190D01*
X182146428Y-78687952D02*
X182527380Y-78402238D01*
X181860714Y-78402238D02*
X182241666Y-78783190D01*
D11*
X180825952Y-79873666D02*
X180635476Y-80007000D01*
X180825952Y-80102238D02*
X180425952Y-80102238D01*
X180425952Y-79949857D01*
X180445000Y-79911761D01*
X180464047Y-79892714D01*
X180502142Y-79873666D01*
X180559285Y-79873666D01*
X180597380Y-79892714D01*
X180616428Y-79911761D01*
X180635476Y-79949857D01*
X180635476Y-80102238D01*
X180425952Y-79740333D02*
X180425952Y-79492714D01*
X180578333Y-79626047D01*
X180578333Y-79568904D01*
X180597380Y-79530809D01*
X180616428Y-79511761D01*
X180654523Y-79492714D01*
X180749761Y-79492714D01*
X180787857Y-79511761D01*
X180806904Y-79530809D01*
X180825952Y-79568904D01*
X180825952Y-79683190D01*
X180806904Y-79721285D01*
X180787857Y-79740333D01*
D10*
%TO.C,R2*%
X188271714Y-77179571D02*
X188938380Y-77179571D01*
X187890761Y-77417666D02*
X188605047Y-77655761D01*
X188605047Y-77036714D01*
X188843142Y-76655761D02*
X188890761Y-76608142D01*
X188938380Y-76655761D01*
X188890761Y-76703380D01*
X188843142Y-76655761D01*
X188938380Y-76655761D01*
X187938380Y-76274809D02*
X187938380Y-75608142D01*
X188938380Y-76036714D01*
X188938380Y-75227190D02*
X187938380Y-75227190D01*
X188557428Y-75131952D02*
X188938380Y-74846238D01*
X188271714Y-74846238D02*
X188652666Y-75227190D01*
D11*
X190096952Y-76317666D02*
X189906476Y-76451000D01*
X190096952Y-76546238D02*
X189696952Y-76546238D01*
X189696952Y-76393857D01*
X189716000Y-76355761D01*
X189735047Y-76336714D01*
X189773142Y-76317666D01*
X189830285Y-76317666D01*
X189868380Y-76336714D01*
X189887428Y-76355761D01*
X189906476Y-76393857D01*
X189906476Y-76546238D01*
X189735047Y-76165285D02*
X189716000Y-76146238D01*
X189696952Y-76108142D01*
X189696952Y-76012904D01*
X189716000Y-75974809D01*
X189735047Y-75955761D01*
X189773142Y-75936714D01*
X189811238Y-75936714D01*
X189868380Y-75955761D01*
X190096952Y-76184333D01*
X190096952Y-75936714D01*
D10*
%TO.C,R1*%
X118281380Y-58804285D02*
X118281380Y-59280476D01*
X118757571Y-59328095D01*
X118709952Y-59280476D01*
X118662333Y-59185238D01*
X118662333Y-58947142D01*
X118709952Y-58851904D01*
X118757571Y-58804285D01*
X118852809Y-58756666D01*
X119090904Y-58756666D01*
X119186142Y-58804285D01*
X119233761Y-58851904D01*
X119281380Y-58947142D01*
X119281380Y-59185238D01*
X119233761Y-59280476D01*
X119186142Y-59328095D01*
X119281380Y-57804285D02*
X119281380Y-58375714D01*
X119281380Y-58090000D02*
X118281380Y-58090000D01*
X118424238Y-58185238D01*
X118519476Y-58280476D01*
X118567095Y-58375714D01*
X118281380Y-57185238D02*
X118281380Y-57090000D01*
X118329000Y-56994761D01*
X118376619Y-56947142D01*
X118471857Y-56899523D01*
X118662333Y-56851904D01*
X118900428Y-56851904D01*
X119090904Y-56899523D01*
X119186142Y-56947142D01*
X119233761Y-56994761D01*
X119281380Y-57090000D01*
X119281380Y-57185238D01*
X119233761Y-57280476D01*
X119186142Y-57328095D01*
X119090904Y-57375714D01*
X118900428Y-57423333D01*
X118662333Y-57423333D01*
X118471857Y-57375714D01*
X118376619Y-57328095D01*
X118329000Y-57280476D01*
X118281380Y-57185238D01*
D11*
X117579952Y-58156666D02*
X117389476Y-58290000D01*
X117579952Y-58385238D02*
X117179952Y-58385238D01*
X117179952Y-58232857D01*
X117199000Y-58194761D01*
X117218047Y-58175714D01*
X117256142Y-58156666D01*
X117313285Y-58156666D01*
X117351380Y-58175714D01*
X117370428Y-58194761D01*
X117389476Y-58232857D01*
X117389476Y-58385238D01*
X117579952Y-57775714D02*
X117579952Y-58004285D01*
X117579952Y-57890000D02*
X117179952Y-57890000D01*
X117237095Y-57928095D01*
X117275190Y-57966190D01*
X117294238Y-58004285D01*
D10*
%TO.C,C3*%
X176985952Y-72164380D02*
X176414523Y-72164380D01*
X176700238Y-72164380D02*
X176700238Y-71164380D01*
X176605000Y-71307238D01*
X176509761Y-71402476D01*
X176414523Y-71450095D01*
X177605000Y-71164380D02*
X177700238Y-71164380D01*
X177795476Y-71212000D01*
X177843095Y-71259619D01*
X177890714Y-71354857D01*
X177938333Y-71545333D01*
X177938333Y-71783428D01*
X177890714Y-71973904D01*
X177843095Y-72069142D01*
X177795476Y-72116761D01*
X177700238Y-72164380D01*
X177605000Y-72164380D01*
X177509761Y-72116761D01*
X177462142Y-72069142D01*
X177414523Y-71973904D01*
X177366904Y-71783428D01*
X177366904Y-71545333D01*
X177414523Y-71354857D01*
X177462142Y-71259619D01*
X177509761Y-71212000D01*
X177605000Y-71164380D01*
X178557380Y-71164380D02*
X178652619Y-71164380D01*
X178747857Y-71212000D01*
X178795476Y-71259619D01*
X178843095Y-71354857D01*
X178890714Y-71545333D01*
X178890714Y-71783428D01*
X178843095Y-71973904D01*
X178795476Y-72069142D01*
X178747857Y-72116761D01*
X178652619Y-72164380D01*
X178557380Y-72164380D01*
X178462142Y-72116761D01*
X178414523Y-72069142D01*
X178366904Y-71973904D01*
X178319285Y-71783428D01*
X178319285Y-71545333D01*
X178366904Y-71354857D01*
X178414523Y-71259619D01*
X178462142Y-71212000D01*
X178557380Y-71164380D01*
X179319285Y-71497714D02*
X179319285Y-72164380D01*
X179319285Y-71592952D02*
X179366904Y-71545333D01*
X179462142Y-71497714D01*
X179605000Y-71497714D01*
X179700238Y-71545333D01*
X179747857Y-71640571D01*
X179747857Y-72164380D01*
D11*
X178038333Y-70424857D02*
X178019285Y-70443904D01*
X177962142Y-70462952D01*
X177924047Y-70462952D01*
X177866904Y-70443904D01*
X177828809Y-70405809D01*
X177809761Y-70367714D01*
X177790714Y-70291523D01*
X177790714Y-70234380D01*
X177809761Y-70158190D01*
X177828809Y-70120095D01*
X177866904Y-70082000D01*
X177924047Y-70062952D01*
X177962142Y-70062952D01*
X178019285Y-70082000D01*
X178038333Y-70101047D01*
X178171666Y-70062952D02*
X178419285Y-70062952D01*
X178285952Y-70215333D01*
X178343095Y-70215333D01*
X178381190Y-70234380D01*
X178400238Y-70253428D01*
X178419285Y-70291523D01*
X178419285Y-70386761D01*
X178400238Y-70424857D01*
X178381190Y-70443904D01*
X178343095Y-70462952D01*
X178228809Y-70462952D01*
X178190714Y-70443904D01*
X178171666Y-70424857D01*
%TO.C,C2*%
X187182333Y-52517857D02*
X187163285Y-52536904D01*
X187106142Y-52555952D01*
X187068047Y-52555952D01*
X187010904Y-52536904D01*
X186972809Y-52498809D01*
X186953761Y-52460714D01*
X186934714Y-52384523D01*
X186934714Y-52327380D01*
X186953761Y-52251190D01*
X186972809Y-52213095D01*
X187010904Y-52175000D01*
X187068047Y-52155952D01*
X187106142Y-52155952D01*
X187163285Y-52175000D01*
X187182333Y-52194047D01*
X187334714Y-52194047D02*
X187353761Y-52175000D01*
X187391857Y-52155952D01*
X187487095Y-52155952D01*
X187525190Y-52175000D01*
X187544238Y-52194047D01*
X187563285Y-52232142D01*
X187563285Y-52270238D01*
X187544238Y-52327380D01*
X187315666Y-52555952D01*
X187563285Y-52555952D01*
D10*
%TO.C,C1*%
X126774380Y-98134571D02*
X126774380Y-98706000D01*
X126774380Y-98420285D02*
X125774380Y-98420285D01*
X125917238Y-98515523D01*
X126012476Y-98610761D01*
X126060095Y-98706000D01*
X125774380Y-97515523D02*
X125774380Y-97420285D01*
X125822000Y-97325047D01*
X125869619Y-97277428D01*
X125964857Y-97229809D01*
X126155333Y-97182190D01*
X126393428Y-97182190D01*
X126583904Y-97229809D01*
X126679142Y-97277428D01*
X126726761Y-97325047D01*
X126774380Y-97420285D01*
X126774380Y-97515523D01*
X126726761Y-97610761D01*
X126679142Y-97658380D01*
X126583904Y-97706000D01*
X126393428Y-97753619D01*
X126155333Y-97753619D01*
X125964857Y-97706000D01*
X125869619Y-97658380D01*
X125822000Y-97610761D01*
X125774380Y-97515523D01*
X126107714Y-96325047D02*
X126774380Y-96325047D01*
X126107714Y-96753619D02*
X126631523Y-96753619D01*
X126726761Y-96706000D01*
X126774380Y-96610761D01*
X126774380Y-96467904D01*
X126726761Y-96372666D01*
X126679142Y-96325047D01*
X126107714Y-95991714D02*
X126107714Y-95610761D01*
X126774380Y-95848857D02*
X125917238Y-95848857D01*
X125822000Y-95801238D01*
X125774380Y-95706000D01*
X125774380Y-95610761D01*
D11*
X125034857Y-97272666D02*
X125053904Y-97291714D01*
X125072952Y-97348857D01*
X125072952Y-97386952D01*
X125053904Y-97444095D01*
X125015809Y-97482190D01*
X124977714Y-97501238D01*
X124901523Y-97520285D01*
X124844380Y-97520285D01*
X124768190Y-97501238D01*
X124730095Y-97482190D01*
X124692000Y-97444095D01*
X124672952Y-97386952D01*
X124672952Y-97348857D01*
X124692000Y-97291714D01*
X124711047Y-97272666D01*
X125072952Y-96891714D02*
X125072952Y-97120285D01*
X125072952Y-97006000D02*
X124672952Y-97006000D01*
X124730095Y-97044095D01*
X124768190Y-97082190D01*
X124787238Y-97120285D01*
D10*
%TO.C,J4*%
X193059523Y-45842380D02*
X193059523Y-44842380D01*
X193297619Y-44842380D01*
X193440476Y-44890000D01*
X193535714Y-44985238D01*
X193583333Y-45080476D01*
X193630952Y-45270952D01*
X193630952Y-45413809D01*
X193583333Y-45604285D01*
X193535714Y-45699523D01*
X193440476Y-45794761D01*
X193297619Y-45842380D01*
X193059523Y-45842380D01*
X194059523Y-45842380D02*
X194059523Y-45175714D01*
X194059523Y-44842380D02*
X194011904Y-44890000D01*
X194059523Y-44937619D01*
X194107142Y-44890000D01*
X194059523Y-44842380D01*
X194059523Y-44937619D01*
X194964285Y-45175714D02*
X194964285Y-45985238D01*
X194916666Y-46080476D01*
X194869047Y-46128095D01*
X194773809Y-46175714D01*
X194630952Y-46175714D01*
X194535714Y-46128095D01*
X194964285Y-45794761D02*
X194869047Y-45842380D01*
X194678571Y-45842380D01*
X194583333Y-45794761D01*
X194535714Y-45747142D01*
X194488095Y-45651904D01*
X194488095Y-45366190D01*
X194535714Y-45270952D01*
X194583333Y-45223333D01*
X194678571Y-45175714D01*
X194869047Y-45175714D01*
X194964285Y-45223333D01*
X195440476Y-45842380D02*
X195440476Y-45175714D01*
X195440476Y-44842380D02*
X195392857Y-44890000D01*
X195440476Y-44937619D01*
X195488095Y-44890000D01*
X195440476Y-44842380D01*
X195440476Y-44937619D01*
X195773809Y-45175714D02*
X196154761Y-45175714D01*
X195916666Y-44842380D02*
X195916666Y-45699523D01*
X195964285Y-45794761D01*
X196059523Y-45842380D01*
X196154761Y-45842380D01*
X196916666Y-45842380D02*
X196916666Y-45318571D01*
X196869047Y-45223333D01*
X196773809Y-45175714D01*
X196583333Y-45175714D01*
X196488095Y-45223333D01*
X196916666Y-45794761D02*
X196821428Y-45842380D01*
X196583333Y-45842380D01*
X196488095Y-45794761D01*
X196440476Y-45699523D01*
X196440476Y-45604285D01*
X196488095Y-45509047D01*
X196583333Y-45461428D01*
X196821428Y-45461428D01*
X196916666Y-45413809D01*
X197535714Y-45842380D02*
X197440476Y-45794761D01*
X197392857Y-45699523D01*
X197392857Y-44842380D01*
X191146380Y-92713333D02*
X191860666Y-92713333D01*
X192003523Y-92760952D01*
X192098761Y-92856190D01*
X192146380Y-92999047D01*
X192146380Y-93094285D01*
X191479714Y-91808571D02*
X192146380Y-91808571D01*
X191098761Y-92046666D02*
X191813047Y-92284761D01*
X191813047Y-91665714D01*
%TO.C,J1*%
X134853809Y-101722380D02*
X134853809Y-100722380D01*
X135234761Y-100722380D01*
X135330000Y-100770000D01*
X135377619Y-100817619D01*
X135425238Y-100912857D01*
X135425238Y-101055714D01*
X135377619Y-101150952D01*
X135330000Y-101198571D01*
X135234761Y-101246190D01*
X134853809Y-101246190D01*
X135996666Y-101722380D02*
X135901428Y-101674761D01*
X135853809Y-101627142D01*
X135806190Y-101531904D01*
X135806190Y-101246190D01*
X135853809Y-101150952D01*
X135901428Y-101103333D01*
X135996666Y-101055714D01*
X136139523Y-101055714D01*
X136234761Y-101103333D01*
X136282380Y-101150952D01*
X136330000Y-101246190D01*
X136330000Y-101531904D01*
X136282380Y-101627142D01*
X136234761Y-101674761D01*
X136139523Y-101722380D01*
X135996666Y-101722380D01*
X136663333Y-101055714D02*
X136853809Y-101722380D01*
X137044285Y-101246190D01*
X137234761Y-101722380D01*
X137425238Y-101055714D01*
X138187142Y-101674761D02*
X138091904Y-101722380D01*
X137901428Y-101722380D01*
X137806190Y-101674761D01*
X137758571Y-101579523D01*
X137758571Y-101198571D01*
X137806190Y-101103333D01*
X137901428Y-101055714D01*
X138091904Y-101055714D01*
X138187142Y-101103333D01*
X138234761Y-101198571D01*
X138234761Y-101293809D01*
X137758571Y-101389047D01*
X138663333Y-101722380D02*
X138663333Y-101055714D01*
X138663333Y-101246190D02*
X138710952Y-101150952D01*
X138758571Y-101103333D01*
X138853809Y-101055714D01*
X138949047Y-101055714D01*
X127606666Y-100722380D02*
X127606666Y-101436666D01*
X127559047Y-101579523D01*
X127463809Y-101674761D01*
X127320952Y-101722380D01*
X127225714Y-101722380D01*
X128606666Y-101722380D02*
X128035238Y-101722380D01*
X128320952Y-101722380D02*
X128320952Y-100722380D01*
X128225714Y-100865238D01*
X128130476Y-100960476D01*
X128035238Y-101008095D01*
%TO.C,J2*%
X157380476Y-101436666D02*
X157856666Y-101436666D01*
X157285238Y-101722380D02*
X157618571Y-100722380D01*
X157951904Y-101722380D01*
X158285238Y-101055714D02*
X158285238Y-101722380D01*
X158285238Y-101150952D02*
X158332857Y-101103333D01*
X158428095Y-101055714D01*
X158570952Y-101055714D01*
X158666190Y-101103333D01*
X158713809Y-101198571D01*
X158713809Y-101722380D01*
X159618571Y-101722380D02*
X159618571Y-101198571D01*
X159570952Y-101103333D01*
X159475714Y-101055714D01*
X159285238Y-101055714D01*
X159190000Y-101103333D01*
X159618571Y-101674761D02*
X159523333Y-101722380D01*
X159285238Y-101722380D01*
X159190000Y-101674761D01*
X159142380Y-101579523D01*
X159142380Y-101484285D01*
X159190000Y-101389047D01*
X159285238Y-101341428D01*
X159523333Y-101341428D01*
X159618571Y-101293809D01*
X160237619Y-101722380D02*
X160142380Y-101674761D01*
X160094761Y-101579523D01*
X160094761Y-100722380D01*
X160761428Y-101722380D02*
X160666190Y-101674761D01*
X160618571Y-101627142D01*
X160570952Y-101531904D01*
X160570952Y-101246190D01*
X160618571Y-101150952D01*
X160666190Y-101103333D01*
X160761428Y-101055714D01*
X160904285Y-101055714D01*
X160999523Y-101103333D01*
X161047142Y-101150952D01*
X161094761Y-101246190D01*
X161094761Y-101531904D01*
X161047142Y-101627142D01*
X160999523Y-101674761D01*
X160904285Y-101722380D01*
X160761428Y-101722380D01*
X161951904Y-101055714D02*
X161951904Y-101865238D01*
X161904285Y-101960476D01*
X161856666Y-102008095D01*
X161761428Y-102055714D01*
X161618571Y-102055714D01*
X161523333Y-102008095D01*
X161951904Y-101674761D02*
X161856666Y-101722380D01*
X161666190Y-101722380D01*
X161570952Y-101674761D01*
X161523333Y-101627142D01*
X161475714Y-101531904D01*
X161475714Y-101246190D01*
X161523333Y-101150952D01*
X161570952Y-101103333D01*
X161666190Y-101055714D01*
X161856666Y-101055714D01*
X161951904Y-101103333D01*
X150466666Y-100722380D02*
X150466666Y-101436666D01*
X150419047Y-101579523D01*
X150323809Y-101674761D01*
X150180952Y-101722380D01*
X150085714Y-101722380D01*
X150895238Y-100817619D02*
X150942857Y-100770000D01*
X151038095Y-100722380D01*
X151276190Y-100722380D01*
X151371428Y-100770000D01*
X151419047Y-100817619D01*
X151466666Y-100912857D01*
X151466666Y-101008095D01*
X151419047Y-101150952D01*
X150847619Y-101722380D01*
X151466666Y-101722380D01*
%TO.C,J3*%
X180240476Y-101436666D02*
X180716666Y-101436666D01*
X180145238Y-101722380D02*
X180478571Y-100722380D01*
X180811904Y-101722380D01*
X181145238Y-101055714D02*
X181145238Y-101722380D01*
X181145238Y-101150952D02*
X181192857Y-101103333D01*
X181288095Y-101055714D01*
X181430952Y-101055714D01*
X181526190Y-101103333D01*
X181573809Y-101198571D01*
X181573809Y-101722380D01*
X182478571Y-101722380D02*
X182478571Y-101198571D01*
X182430952Y-101103333D01*
X182335714Y-101055714D01*
X182145238Y-101055714D01*
X182050000Y-101103333D01*
X182478571Y-101674761D02*
X182383333Y-101722380D01*
X182145238Y-101722380D01*
X182050000Y-101674761D01*
X182002380Y-101579523D01*
X182002380Y-101484285D01*
X182050000Y-101389047D01*
X182145238Y-101341428D01*
X182383333Y-101341428D01*
X182478571Y-101293809D01*
X183097619Y-101722380D02*
X183002380Y-101674761D01*
X182954761Y-101579523D01*
X182954761Y-100722380D01*
X183621428Y-101722380D02*
X183526190Y-101674761D01*
X183478571Y-101627142D01*
X183430952Y-101531904D01*
X183430952Y-101246190D01*
X183478571Y-101150952D01*
X183526190Y-101103333D01*
X183621428Y-101055714D01*
X183764285Y-101055714D01*
X183859523Y-101103333D01*
X183907142Y-101150952D01*
X183954761Y-101246190D01*
X183954761Y-101531904D01*
X183907142Y-101627142D01*
X183859523Y-101674761D01*
X183764285Y-101722380D01*
X183621428Y-101722380D01*
X184811904Y-101055714D02*
X184811904Y-101865238D01*
X184764285Y-101960476D01*
X184716666Y-102008095D01*
X184621428Y-102055714D01*
X184478571Y-102055714D01*
X184383333Y-102008095D01*
X184811904Y-101674761D02*
X184716666Y-101722380D01*
X184526190Y-101722380D01*
X184430952Y-101674761D01*
X184383333Y-101627142D01*
X184335714Y-101531904D01*
X184335714Y-101246190D01*
X184383333Y-101150952D01*
X184430952Y-101103333D01*
X184526190Y-101055714D01*
X184716666Y-101055714D01*
X184811904Y-101103333D01*
X173326666Y-100722380D02*
X173326666Y-101436666D01*
X173279047Y-101579523D01*
X173183809Y-101674761D01*
X173040952Y-101722380D01*
X172945714Y-101722380D01*
X173707619Y-100722380D02*
X174326666Y-100722380D01*
X173993333Y-101103333D01*
X174136190Y-101103333D01*
X174231428Y-101150952D01*
X174279047Y-101198571D01*
X174326666Y-101293809D01*
X174326666Y-101531904D01*
X174279047Y-101627142D01*
X174231428Y-101674761D01*
X174136190Y-101722380D01*
X173850476Y-101722380D01*
X173755238Y-101674761D01*
X173707619Y-101627142D01*
%TO.C,J5*%
X128821238Y-45842380D02*
X128821238Y-44842380D01*
X129202190Y-44842380D01*
X129297428Y-44890000D01*
X129345047Y-44937619D01*
X129392666Y-45032857D01*
X129392666Y-45175714D01*
X129345047Y-45270952D01*
X129297428Y-45318571D01*
X129202190Y-45366190D01*
X128821238Y-45366190D01*
X129726000Y-44842380D02*
X129964095Y-45842380D01*
X130154571Y-45128095D01*
X130345047Y-45842380D01*
X130583142Y-44842380D01*
X130964095Y-45842380D02*
X130964095Y-44842380D01*
X131297428Y-45556666D01*
X131630761Y-44842380D01*
X131630761Y-45842380D01*
X118462666Y-44842380D02*
X118462666Y-45556666D01*
X118415047Y-45699523D01*
X118319809Y-45794761D01*
X118176952Y-45842380D01*
X118081714Y-45842380D01*
X119415047Y-44842380D02*
X118938857Y-44842380D01*
X118891238Y-45318571D01*
X118938857Y-45270952D01*
X119034095Y-45223333D01*
X119272190Y-45223333D01*
X119367428Y-45270952D01*
X119415047Y-45318571D01*
X119462666Y-45413809D01*
X119462666Y-45651904D01*
X119415047Y-45747142D01*
X119367428Y-45794761D01*
X119272190Y-45842380D01*
X119034095Y-45842380D01*
X118938857Y-45794761D01*
X118891238Y-45747142D01*
%TO.C,J6*%
X153205238Y-45842380D02*
X153205238Y-44842380D01*
X153586190Y-44842380D01*
X153681428Y-44890000D01*
X153729047Y-44937619D01*
X153776666Y-45032857D01*
X153776666Y-45175714D01*
X153729047Y-45270952D01*
X153681428Y-45318571D01*
X153586190Y-45366190D01*
X153205238Y-45366190D01*
X154110000Y-44842380D02*
X154348095Y-45842380D01*
X154538571Y-45128095D01*
X154729047Y-45842380D01*
X154967142Y-44842380D01*
X155348095Y-45842380D02*
X155348095Y-44842380D01*
X155681428Y-45556666D01*
X156014761Y-44842380D01*
X156014761Y-45842380D01*
X145386666Y-44842380D02*
X145386666Y-45556666D01*
X145339047Y-45699523D01*
X145243809Y-45794761D01*
X145100952Y-45842380D01*
X145005714Y-45842380D01*
X146291428Y-44842380D02*
X146100952Y-44842380D01*
X146005714Y-44890000D01*
X145958095Y-44937619D01*
X145862857Y-45080476D01*
X145815238Y-45270952D01*
X145815238Y-45651904D01*
X145862857Y-45747142D01*
X145910476Y-45794761D01*
X146005714Y-45842380D01*
X146196190Y-45842380D01*
X146291428Y-45794761D01*
X146339047Y-45747142D01*
X146386666Y-45651904D01*
X146386666Y-45413809D01*
X146339047Y-45318571D01*
X146291428Y-45270952D01*
X146196190Y-45223333D01*
X146005714Y-45223333D01*
X145910476Y-45270952D01*
X145862857Y-45318571D01*
X145815238Y-45413809D01*
%TO.C,J7*%
X172541428Y-45747142D02*
X172493809Y-45794761D01*
X172350952Y-45842380D01*
X172255714Y-45842380D01*
X172112857Y-45794761D01*
X172017619Y-45699523D01*
X171970000Y-45604285D01*
X171922380Y-45413809D01*
X171922380Y-45270952D01*
X171970000Y-45080476D01*
X172017619Y-44985238D01*
X172112857Y-44890000D01*
X172255714Y-44842380D01*
X172350952Y-44842380D01*
X172493809Y-44890000D01*
X172541428Y-44937619D01*
X173112857Y-45842380D02*
X173017619Y-45794761D01*
X172970000Y-45747142D01*
X172922380Y-45651904D01*
X172922380Y-45366190D01*
X172970000Y-45270952D01*
X173017619Y-45223333D01*
X173112857Y-45175714D01*
X173255714Y-45175714D01*
X173350952Y-45223333D01*
X173398571Y-45270952D01*
X173446190Y-45366190D01*
X173446190Y-45651904D01*
X173398571Y-45747142D01*
X173350952Y-45794761D01*
X173255714Y-45842380D01*
X173112857Y-45842380D01*
X173874761Y-45842380D02*
X173874761Y-45175714D01*
X173874761Y-45270952D02*
X173922380Y-45223333D01*
X174017619Y-45175714D01*
X174160476Y-45175714D01*
X174255714Y-45223333D01*
X174303333Y-45318571D01*
X174303333Y-45842380D01*
X174303333Y-45318571D02*
X174350952Y-45223333D01*
X174446190Y-45175714D01*
X174589047Y-45175714D01*
X174684285Y-45223333D01*
X174731904Y-45318571D01*
X174731904Y-45842380D01*
X175208095Y-45842380D02*
X175208095Y-45175714D01*
X175208095Y-45270952D02*
X175255714Y-45223333D01*
X175350952Y-45175714D01*
X175493809Y-45175714D01*
X175589047Y-45223333D01*
X175636666Y-45318571D01*
X175636666Y-45842380D01*
X175636666Y-45318571D02*
X175684285Y-45223333D01*
X175779523Y-45175714D01*
X175922380Y-45175714D01*
X176017619Y-45223333D01*
X176065238Y-45318571D01*
X176065238Y-45842380D01*
X176970000Y-45175714D02*
X176970000Y-45842380D01*
X176541428Y-45175714D02*
X176541428Y-45699523D01*
X176589047Y-45794761D01*
X176684285Y-45842380D01*
X176827142Y-45842380D01*
X176922380Y-45794761D01*
X176970000Y-45747142D01*
X177446190Y-45175714D02*
X177446190Y-45842380D01*
X177446190Y-45270952D02*
X177493809Y-45223333D01*
X177589047Y-45175714D01*
X177731904Y-45175714D01*
X177827142Y-45223333D01*
X177874761Y-45318571D01*
X177874761Y-45842380D01*
X178350952Y-45842380D02*
X178350952Y-45175714D01*
X178350952Y-44842380D02*
X178303333Y-44890000D01*
X178350952Y-44937619D01*
X178398571Y-44890000D01*
X178350952Y-44842380D01*
X178350952Y-44937619D01*
X179255714Y-45794761D02*
X179160476Y-45842380D01*
X178970000Y-45842380D01*
X178874761Y-45794761D01*
X178827142Y-45747142D01*
X178779523Y-45651904D01*
X178779523Y-45366190D01*
X178827142Y-45270952D01*
X178874761Y-45223333D01*
X178970000Y-45175714D01*
X179160476Y-45175714D01*
X179255714Y-45223333D01*
X180112857Y-45842380D02*
X180112857Y-45318571D01*
X180065238Y-45223333D01*
X179970000Y-45175714D01*
X179779523Y-45175714D01*
X179684285Y-45223333D01*
X180112857Y-45794761D02*
X180017619Y-45842380D01*
X179779523Y-45842380D01*
X179684285Y-45794761D01*
X179636666Y-45699523D01*
X179636666Y-45604285D01*
X179684285Y-45509047D01*
X179779523Y-45461428D01*
X180017619Y-45461428D01*
X180112857Y-45413809D01*
X180446190Y-45175714D02*
X180827142Y-45175714D01*
X180589047Y-44842380D02*
X180589047Y-45699523D01*
X180636666Y-45794761D01*
X180731904Y-45842380D01*
X180827142Y-45842380D01*
X181160476Y-45842380D02*
X181160476Y-45175714D01*
X181160476Y-44842380D02*
X181112857Y-44890000D01*
X181160476Y-44937619D01*
X181208095Y-44890000D01*
X181160476Y-44842380D01*
X181160476Y-44937619D01*
X181779523Y-45842380D02*
X181684285Y-45794761D01*
X181636666Y-45747142D01*
X181589047Y-45651904D01*
X181589047Y-45366190D01*
X181636666Y-45270952D01*
X181684285Y-45223333D01*
X181779523Y-45175714D01*
X181922380Y-45175714D01*
X182017619Y-45223333D01*
X182065238Y-45270952D01*
X182112857Y-45366190D01*
X182112857Y-45651904D01*
X182065238Y-45747142D01*
X182017619Y-45794761D01*
X181922380Y-45842380D01*
X181779523Y-45842380D01*
X182541428Y-45175714D02*
X182541428Y-45842380D01*
X182541428Y-45270952D02*
X182589047Y-45223333D01*
X182684285Y-45175714D01*
X182827142Y-45175714D01*
X182922380Y-45223333D01*
X182970000Y-45318571D01*
X182970000Y-45842380D01*
X168246666Y-44842380D02*
X168246666Y-45556666D01*
X168199047Y-45699523D01*
X168103809Y-45794761D01*
X167960952Y-45842380D01*
X167865714Y-45842380D01*
X168627619Y-44842380D02*
X169294285Y-44842380D01*
X168865714Y-45842380D01*
%TO.C,SW4*%
X144386666Y-90244761D02*
X144529523Y-90292380D01*
X144767619Y-90292380D01*
X144862857Y-90244761D01*
X144910476Y-90197142D01*
X144958095Y-90101904D01*
X144958095Y-90006666D01*
X144910476Y-89911428D01*
X144862857Y-89863809D01*
X144767619Y-89816190D01*
X144577142Y-89768571D01*
X144481904Y-89720952D01*
X144434285Y-89673333D01*
X144386666Y-89578095D01*
X144386666Y-89482857D01*
X144434285Y-89387619D01*
X144481904Y-89340000D01*
X144577142Y-89292380D01*
X144815238Y-89292380D01*
X144958095Y-89340000D01*
X145291428Y-89292380D02*
X145529523Y-90292380D01*
X145720000Y-89578095D01*
X145910476Y-90292380D01*
X146148571Y-89292380D01*
X146958095Y-89625714D02*
X146958095Y-90292380D01*
X146720000Y-89244761D02*
X146481904Y-89959047D01*
X147100952Y-89959047D01*
%TO.C,SW5*%
X131686666Y-90244761D02*
X131829523Y-90292380D01*
X132067619Y-90292380D01*
X132162857Y-90244761D01*
X132210476Y-90197142D01*
X132258095Y-90101904D01*
X132258095Y-90006666D01*
X132210476Y-89911428D01*
X132162857Y-89863809D01*
X132067619Y-89816190D01*
X131877142Y-89768571D01*
X131781904Y-89720952D01*
X131734285Y-89673333D01*
X131686666Y-89578095D01*
X131686666Y-89482857D01*
X131734285Y-89387619D01*
X131781904Y-89340000D01*
X131877142Y-89292380D01*
X132115238Y-89292380D01*
X132258095Y-89340000D01*
X132591428Y-89292380D02*
X132829523Y-90292380D01*
X133020000Y-89578095D01*
X133210476Y-90292380D01*
X133448571Y-89292380D01*
X134305714Y-89292380D02*
X133829523Y-89292380D01*
X133781904Y-89768571D01*
X133829523Y-89720952D01*
X133924761Y-89673333D01*
X134162857Y-89673333D01*
X134258095Y-89720952D01*
X134305714Y-89768571D01*
X134353333Y-89863809D01*
X134353333Y-90101904D01*
X134305714Y-90197142D01*
X134258095Y-90244761D01*
X134162857Y-90292380D01*
X133924761Y-90292380D01*
X133829523Y-90244761D01*
X133781904Y-90197142D01*
%TO.C,D2*%
X114359047Y-68892380D02*
X114263809Y-68844761D01*
X114216190Y-68749523D01*
X114216190Y-67892380D01*
X115120952Y-68844761D02*
X115025714Y-68892380D01*
X114835238Y-68892380D01*
X114740000Y-68844761D01*
X114692380Y-68749523D01*
X114692380Y-68368571D01*
X114740000Y-68273333D01*
X114835238Y-68225714D01*
X115025714Y-68225714D01*
X115120952Y-68273333D01*
X115168571Y-68368571D01*
X115168571Y-68463809D01*
X114692380Y-68559047D01*
X115454285Y-68225714D02*
X115835238Y-68225714D01*
X115597142Y-68892380D02*
X115597142Y-68035238D01*
X115644761Y-67940000D01*
X115740000Y-67892380D01*
X115835238Y-67892380D01*
X116025714Y-68225714D02*
X116406666Y-68225714D01*
X116168571Y-67892380D02*
X116168571Y-68749523D01*
X116216190Y-68844761D01*
X116311428Y-68892380D01*
X116406666Y-68892380D01*
X114649523Y-64801904D02*
X114649523Y-64001904D01*
X114840000Y-64001904D01*
X114954285Y-64040000D01*
X115030476Y-64116190D01*
X115068571Y-64192380D01*
X115106666Y-64344761D01*
X115106666Y-64459047D01*
X115068571Y-64611428D01*
X115030476Y-64687619D01*
X114954285Y-64763809D01*
X114840000Y-64801904D01*
X114649523Y-64801904D01*
X115411428Y-64078095D02*
X115449523Y-64040000D01*
X115525714Y-64001904D01*
X115716190Y-64001904D01*
X115792380Y-64040000D01*
X115830476Y-64078095D01*
X115868571Y-64154285D01*
X115868571Y-64230476D01*
X115830476Y-64344761D01*
X115373333Y-64801904D01*
X115868571Y-64801904D01*
%TO.C,U2*%
X179803380Y-75107761D02*
X178803380Y-75107761D01*
X179517666Y-74774428D01*
X178803380Y-74441095D01*
X179803380Y-74441095D01*
X179136714Y-73536333D02*
X179803380Y-73536333D01*
X179136714Y-73964904D02*
X179660523Y-73964904D01*
X179755761Y-73917285D01*
X179803380Y-73822047D01*
X179803380Y-73679190D01*
X179755761Y-73583952D01*
X179708142Y-73536333D01*
X179136714Y-73203000D02*
X179136714Y-72822047D01*
X178803380Y-73060142D02*
X179660523Y-73060142D01*
X179755761Y-73012523D01*
X179803380Y-72917285D01*
X179803380Y-72822047D01*
X179755761Y-72107761D02*
X179803380Y-72203000D01*
X179803380Y-72393476D01*
X179755761Y-72488714D01*
X179660523Y-72536333D01*
X179279571Y-72536333D01*
X179184333Y-72488714D01*
X179136714Y-72393476D01*
X179136714Y-72203000D01*
X179184333Y-72107761D01*
X179279571Y-72060142D01*
X179374809Y-72060142D01*
X179470047Y-72536333D01*
X179803380Y-71726809D02*
X179136714Y-71203000D01*
X179136714Y-71726809D02*
X179803380Y-71203000D01*
X183653380Y-73964904D02*
X184462904Y-73964904D01*
X184558142Y-73917285D01*
X184605761Y-73869666D01*
X184653380Y-73774428D01*
X184653380Y-73583952D01*
X184605761Y-73488714D01*
X184558142Y-73441095D01*
X184462904Y-73393476D01*
X183653380Y-73393476D01*
X183748619Y-72964904D02*
X183701000Y-72917285D01*
X183653380Y-72822047D01*
X183653380Y-72583952D01*
X183701000Y-72488714D01*
X183748619Y-72441095D01*
X183843857Y-72393476D01*
X183939095Y-72393476D01*
X184081952Y-72441095D01*
X184653380Y-73012523D01*
X184653380Y-72393476D01*
%TO.C,D7*%
X158205714Y-65412380D02*
X158205714Y-64412380D01*
X158205714Y-64793333D02*
X158300952Y-64745714D01*
X158491428Y-64745714D01*
X158586666Y-64793333D01*
X158634285Y-64840952D01*
X158681904Y-64936190D01*
X158681904Y-65221904D01*
X158634285Y-65317142D01*
X158586666Y-65364761D01*
X158491428Y-65412380D01*
X158300952Y-65412380D01*
X158205714Y-65364761D01*
X157829523Y-61321904D02*
X157829523Y-60521904D01*
X158020000Y-60521904D01*
X158134285Y-60560000D01*
X158210476Y-60636190D01*
X158248571Y-60712380D01*
X158286666Y-60864761D01*
X158286666Y-60979047D01*
X158248571Y-61131428D01*
X158210476Y-61207619D01*
X158134285Y-61283809D01*
X158020000Y-61321904D01*
X157829523Y-61321904D01*
X158553333Y-60521904D02*
X159086666Y-60521904D01*
X158743809Y-61321904D01*
%TO.C,D6*%
X146712380Y-76464761D02*
X146807619Y-76512380D01*
X146998095Y-76512380D01*
X147093333Y-76464761D01*
X147140952Y-76369523D01*
X147140952Y-76321904D01*
X147093333Y-76226666D01*
X146998095Y-76179047D01*
X146855238Y-76179047D01*
X146760000Y-76131428D01*
X146712380Y-76036190D01*
X146712380Y-75988571D01*
X146760000Y-75893333D01*
X146855238Y-75845714D01*
X146998095Y-75845714D01*
X147093333Y-75893333D01*
X147426666Y-75845714D02*
X147807619Y-75845714D01*
X147569523Y-75512380D02*
X147569523Y-76369523D01*
X147617142Y-76464761D01*
X147712380Y-76512380D01*
X147807619Y-76512380D01*
X148569523Y-76512380D02*
X148569523Y-75988571D01*
X148521904Y-75893333D01*
X148426666Y-75845714D01*
X148236190Y-75845714D01*
X148140952Y-75893333D01*
X148569523Y-76464761D02*
X148474285Y-76512380D01*
X148236190Y-76512380D01*
X148140952Y-76464761D01*
X148093333Y-76369523D01*
X148093333Y-76274285D01*
X148140952Y-76179047D01*
X148236190Y-76131428D01*
X148474285Y-76131428D01*
X148569523Y-76083809D01*
X149045714Y-76512380D02*
X149045714Y-75845714D01*
X149045714Y-76036190D02*
X149093333Y-75940952D01*
X149140952Y-75893333D01*
X149236190Y-75845714D01*
X149331428Y-75845714D01*
X149521904Y-75845714D02*
X149902857Y-75845714D01*
X149664761Y-75512380D02*
X149664761Y-76369523D01*
X149712380Y-76464761D01*
X149807619Y-76512380D01*
X149902857Y-76512380D01*
X147669523Y-72421904D02*
X147669523Y-71621904D01*
X147860000Y-71621904D01*
X147974285Y-71660000D01*
X148050476Y-71736190D01*
X148088571Y-71812380D01*
X148126666Y-71964761D01*
X148126666Y-72079047D01*
X148088571Y-72231428D01*
X148050476Y-72307619D01*
X147974285Y-72383809D01*
X147860000Y-72421904D01*
X147669523Y-72421904D01*
X148812380Y-71621904D02*
X148660000Y-71621904D01*
X148583809Y-71660000D01*
X148545714Y-71698095D01*
X148469523Y-71812380D01*
X148431428Y-71964761D01*
X148431428Y-72269523D01*
X148469523Y-72345714D01*
X148507619Y-72383809D01*
X148583809Y-72421904D01*
X148736190Y-72421904D01*
X148812380Y-72383809D01*
X148850476Y-72345714D01*
X148888571Y-72269523D01*
X148888571Y-72079047D01*
X148850476Y-72002857D01*
X148812380Y-71964761D01*
X148736190Y-71926666D01*
X148583809Y-71926666D01*
X148507619Y-71964761D01*
X148469523Y-72002857D01*
X148431428Y-72079047D01*
%TO.C,SW2*%
X172326666Y-90244761D02*
X172469523Y-90292380D01*
X172707619Y-90292380D01*
X172802857Y-90244761D01*
X172850476Y-90197142D01*
X172898095Y-90101904D01*
X172898095Y-90006666D01*
X172850476Y-89911428D01*
X172802857Y-89863809D01*
X172707619Y-89816190D01*
X172517142Y-89768571D01*
X172421904Y-89720952D01*
X172374285Y-89673333D01*
X172326666Y-89578095D01*
X172326666Y-89482857D01*
X172374285Y-89387619D01*
X172421904Y-89340000D01*
X172517142Y-89292380D01*
X172755238Y-89292380D01*
X172898095Y-89340000D01*
X173231428Y-89292380D02*
X173469523Y-90292380D01*
X173660000Y-89578095D01*
X173850476Y-90292380D01*
X174088571Y-89292380D01*
X174421904Y-89387619D02*
X174469523Y-89340000D01*
X174564761Y-89292380D01*
X174802857Y-89292380D01*
X174898095Y-89340000D01*
X174945714Y-89387619D01*
X174993333Y-89482857D01*
X174993333Y-89578095D01*
X174945714Y-89720952D01*
X174374285Y-90292380D01*
X174993333Y-90292380D01*
%TO.C,SW6*%
X185026666Y-90244761D02*
X185169523Y-90292380D01*
X185407619Y-90292380D01*
X185502857Y-90244761D01*
X185550476Y-90197142D01*
X185598095Y-90101904D01*
X185598095Y-90006666D01*
X185550476Y-89911428D01*
X185502857Y-89863809D01*
X185407619Y-89816190D01*
X185217142Y-89768571D01*
X185121904Y-89720952D01*
X185074285Y-89673333D01*
X185026666Y-89578095D01*
X185026666Y-89482857D01*
X185074285Y-89387619D01*
X185121904Y-89340000D01*
X185217142Y-89292380D01*
X185455238Y-89292380D01*
X185598095Y-89340000D01*
X185931428Y-89292380D02*
X186169523Y-90292380D01*
X186360000Y-89578095D01*
X186550476Y-90292380D01*
X186788571Y-89292380D01*
X187598095Y-89292380D02*
X187407619Y-89292380D01*
X187312380Y-89340000D01*
X187264761Y-89387619D01*
X187169523Y-89530476D01*
X187121904Y-89720952D01*
X187121904Y-90101904D01*
X187169523Y-90197142D01*
X187217142Y-90244761D01*
X187312380Y-90292380D01*
X187502857Y-90292380D01*
X187598095Y-90244761D01*
X187645714Y-90197142D01*
X187693333Y-90101904D01*
X187693333Y-89863809D01*
X187645714Y-89768571D01*
X187598095Y-89720952D01*
X187502857Y-89673333D01*
X187312380Y-89673333D01*
X187217142Y-89720952D01*
X187169523Y-89768571D01*
X187121904Y-89863809D01*
%TO.C,D3*%
X121645714Y-76512380D02*
X121645714Y-75512380D01*
X121645714Y-76464761D02*
X121550476Y-76512380D01*
X121360000Y-76512380D01*
X121264761Y-76464761D01*
X121217142Y-76417142D01*
X121169523Y-76321904D01*
X121169523Y-76036190D01*
X121217142Y-75940952D01*
X121264761Y-75893333D01*
X121360000Y-75845714D01*
X121550476Y-75845714D01*
X121645714Y-75893333D01*
X122264761Y-76512380D02*
X122169523Y-76464761D01*
X122121904Y-76417142D01*
X122074285Y-76321904D01*
X122074285Y-76036190D01*
X122121904Y-75940952D01*
X122169523Y-75893333D01*
X122264761Y-75845714D01*
X122407619Y-75845714D01*
X122502857Y-75893333D01*
X122550476Y-75940952D01*
X122598095Y-76036190D01*
X122598095Y-76321904D01*
X122550476Y-76417142D01*
X122502857Y-76464761D01*
X122407619Y-76512380D01*
X122264761Y-76512380D01*
X122931428Y-75845714D02*
X123121904Y-76512380D01*
X123312380Y-76036190D01*
X123502857Y-76512380D01*
X123693333Y-75845714D01*
X124074285Y-75845714D02*
X124074285Y-76512380D01*
X124074285Y-75940952D02*
X124121904Y-75893333D01*
X124217142Y-75845714D01*
X124360000Y-75845714D01*
X124455238Y-75893333D01*
X124502857Y-75988571D01*
X124502857Y-76512380D01*
X122269523Y-72421904D02*
X122269523Y-71621904D01*
X122460000Y-71621904D01*
X122574285Y-71660000D01*
X122650476Y-71736190D01*
X122688571Y-71812380D01*
X122726666Y-71964761D01*
X122726666Y-72079047D01*
X122688571Y-72231428D01*
X122650476Y-72307619D01*
X122574285Y-72383809D01*
X122460000Y-72421904D01*
X122269523Y-72421904D01*
X122993333Y-71621904D02*
X123488571Y-71621904D01*
X123221904Y-71926666D01*
X123336190Y-71926666D01*
X123412380Y-71964761D01*
X123450476Y-72002857D01*
X123488571Y-72079047D01*
X123488571Y-72269523D01*
X123450476Y-72345714D01*
X123412380Y-72383809D01*
X123336190Y-72421904D01*
X123107619Y-72421904D01*
X123031428Y-72383809D01*
X122993333Y-72345714D01*
D12*
%TO.C,SW1*%
X115536261Y-88929833D02*
X115583880Y-88786976D01*
X115583880Y-88548880D01*
X115536261Y-88453642D01*
X115488642Y-88406023D01*
X115393404Y-88358404D01*
X115298166Y-88358404D01*
X115202928Y-88406023D01*
X115155309Y-88453642D01*
X115107690Y-88548880D01*
X115060071Y-88739357D01*
X115012452Y-88834595D01*
X114964833Y-88882214D01*
X114869595Y-88929833D01*
X114774357Y-88929833D01*
X114679119Y-88882214D01*
X114631500Y-88834595D01*
X114583880Y-88739357D01*
X114583880Y-88501261D01*
X114631500Y-88358404D01*
X114583880Y-88025071D02*
X115583880Y-87786976D01*
X114869595Y-87596500D01*
X115583880Y-87406023D01*
X114583880Y-87167928D01*
X115583880Y-86263166D02*
X115583880Y-86834595D01*
X115583880Y-86548880D02*
X114583880Y-86548880D01*
X114726738Y-86644119D01*
X114821976Y-86739357D01*
X114869595Y-86834595D01*
D10*
%TO.C,D5*%
X136052380Y-76464761D02*
X136147619Y-76512380D01*
X136338095Y-76512380D01*
X136433333Y-76464761D01*
X136480952Y-76369523D01*
X136480952Y-76321904D01*
X136433333Y-76226666D01*
X136338095Y-76179047D01*
X136195238Y-76179047D01*
X136100000Y-76131428D01*
X136052380Y-76036190D01*
X136052380Y-75988571D01*
X136100000Y-75893333D01*
X136195238Y-75845714D01*
X136338095Y-75845714D01*
X136433333Y-75893333D01*
X137290476Y-76464761D02*
X137195238Y-76512380D01*
X137004761Y-76512380D01*
X136909523Y-76464761D01*
X136861904Y-76369523D01*
X136861904Y-75988571D01*
X136909523Y-75893333D01*
X137004761Y-75845714D01*
X137195238Y-75845714D01*
X137290476Y-75893333D01*
X137338095Y-75988571D01*
X137338095Y-76083809D01*
X136861904Y-76179047D01*
X137909523Y-76512380D02*
X137814285Y-76464761D01*
X137766666Y-76369523D01*
X137766666Y-75512380D01*
X138671428Y-76464761D02*
X138576190Y-76512380D01*
X138385714Y-76512380D01*
X138290476Y-76464761D01*
X138242857Y-76369523D01*
X138242857Y-75988571D01*
X138290476Y-75893333D01*
X138385714Y-75845714D01*
X138576190Y-75845714D01*
X138671428Y-75893333D01*
X138719047Y-75988571D01*
X138719047Y-76083809D01*
X138242857Y-76179047D01*
X139576190Y-76464761D02*
X139480952Y-76512380D01*
X139290476Y-76512380D01*
X139195238Y-76464761D01*
X139147619Y-76417142D01*
X139100000Y-76321904D01*
X139100000Y-76036190D01*
X139147619Y-75940952D01*
X139195238Y-75893333D01*
X139290476Y-75845714D01*
X139480952Y-75845714D01*
X139576190Y-75893333D01*
X139861904Y-75845714D02*
X140242857Y-75845714D01*
X140004761Y-75512380D02*
X140004761Y-76369523D01*
X140052380Y-76464761D01*
X140147619Y-76512380D01*
X140242857Y-76512380D01*
X137509523Y-72421904D02*
X137509523Y-71621904D01*
X137700000Y-71621904D01*
X137814285Y-71660000D01*
X137890476Y-71736190D01*
X137928571Y-71812380D01*
X137966666Y-71964761D01*
X137966666Y-72079047D01*
X137928571Y-72231428D01*
X137890476Y-72307619D01*
X137814285Y-72383809D01*
X137700000Y-72421904D01*
X137509523Y-72421904D01*
X138690476Y-71621904D02*
X138309523Y-71621904D01*
X138271428Y-72002857D01*
X138309523Y-71964761D01*
X138385714Y-71926666D01*
X138576190Y-71926666D01*
X138652380Y-71964761D01*
X138690476Y-72002857D01*
X138728571Y-72079047D01*
X138728571Y-72269523D01*
X138690476Y-72345714D01*
X138652380Y-72383809D01*
X138576190Y-72421904D01*
X138385714Y-72421904D01*
X138309523Y-72383809D01*
X138271428Y-72345714D01*
%TO.C,SW3*%
X157086666Y-90244761D02*
X157229523Y-90292380D01*
X157467619Y-90292380D01*
X157562857Y-90244761D01*
X157610476Y-90197142D01*
X157658095Y-90101904D01*
X157658095Y-90006666D01*
X157610476Y-89911428D01*
X157562857Y-89863809D01*
X157467619Y-89816190D01*
X157277142Y-89768571D01*
X157181904Y-89720952D01*
X157134285Y-89673333D01*
X157086666Y-89578095D01*
X157086666Y-89482857D01*
X157134285Y-89387619D01*
X157181904Y-89340000D01*
X157277142Y-89292380D01*
X157515238Y-89292380D01*
X157658095Y-89340000D01*
X157991428Y-89292380D02*
X158229523Y-90292380D01*
X158420000Y-89578095D01*
X158610476Y-90292380D01*
X158848571Y-89292380D01*
X159134285Y-89292380D02*
X159753333Y-89292380D01*
X159420000Y-89673333D01*
X159562857Y-89673333D01*
X159658095Y-89720952D01*
X159705714Y-89768571D01*
X159753333Y-89863809D01*
X159753333Y-90101904D01*
X159705714Y-90197142D01*
X159658095Y-90244761D01*
X159562857Y-90292380D01*
X159277142Y-90292380D01*
X159181904Y-90244761D01*
X159134285Y-90197142D01*
%TO.C,D4*%
X128980000Y-68892380D02*
X128980000Y-68225714D01*
X128980000Y-68416190D02*
X129027619Y-68320952D01*
X129075238Y-68273333D01*
X129170476Y-68225714D01*
X129265714Y-68225714D01*
X129599047Y-68892380D02*
X129599047Y-68225714D01*
X129599047Y-67892380D02*
X129551428Y-67940000D01*
X129599047Y-67987619D01*
X129646666Y-67940000D01*
X129599047Y-67892380D01*
X129599047Y-67987619D01*
X130503809Y-68225714D02*
X130503809Y-69035238D01*
X130456190Y-69130476D01*
X130408571Y-69178095D01*
X130313333Y-69225714D01*
X130170476Y-69225714D01*
X130075238Y-69178095D01*
X130503809Y-68844761D02*
X130408571Y-68892380D01*
X130218095Y-68892380D01*
X130122857Y-68844761D01*
X130075238Y-68797142D01*
X130027619Y-68701904D01*
X130027619Y-68416190D01*
X130075238Y-68320952D01*
X130122857Y-68273333D01*
X130218095Y-68225714D01*
X130408571Y-68225714D01*
X130503809Y-68273333D01*
X130980000Y-68892380D02*
X130980000Y-67892380D01*
X131408571Y-68892380D02*
X131408571Y-68368571D01*
X131360952Y-68273333D01*
X131265714Y-68225714D01*
X131122857Y-68225714D01*
X131027619Y-68273333D01*
X130980000Y-68320952D01*
X131741904Y-68225714D02*
X132122857Y-68225714D01*
X131884761Y-67892380D02*
X131884761Y-68749523D01*
X131932380Y-68844761D01*
X132027619Y-68892380D01*
X132122857Y-68892380D01*
X129889523Y-64801904D02*
X129889523Y-64001904D01*
X130080000Y-64001904D01*
X130194285Y-64040000D01*
X130270476Y-64116190D01*
X130308571Y-64192380D01*
X130346666Y-64344761D01*
X130346666Y-64459047D01*
X130308571Y-64611428D01*
X130270476Y-64687619D01*
X130194285Y-64763809D01*
X130080000Y-64801904D01*
X129889523Y-64801904D01*
X131032380Y-64268571D02*
X131032380Y-64801904D01*
X130841904Y-63963809D02*
X130651428Y-64535238D01*
X131146666Y-64535238D01*
%TO.C,U1*%
X179084000Y-65295666D02*
X179560190Y-65295666D01*
X178988761Y-65581380D02*
X179322095Y-64581380D01*
X179655428Y-65581380D01*
X179845904Y-64581380D02*
X180417333Y-64581380D01*
X180131619Y-65581380D02*
X180131619Y-64581380D01*
X180607809Y-64914714D02*
X180988761Y-64914714D01*
X180750666Y-64581380D02*
X180750666Y-65438523D01*
X180798285Y-65533761D01*
X180893523Y-65581380D01*
X180988761Y-65581380D01*
X181322095Y-65581380D02*
X181322095Y-64914714D01*
X181322095Y-64581380D02*
X181274476Y-64629000D01*
X181322095Y-64676619D01*
X181369714Y-64629000D01*
X181322095Y-64581380D01*
X181322095Y-64676619D01*
X181798285Y-64914714D02*
X181798285Y-65581380D01*
X181798285Y-65009952D02*
X181845904Y-64962333D01*
X181941142Y-64914714D01*
X182084000Y-64914714D01*
X182179238Y-64962333D01*
X182226857Y-65057571D01*
X182226857Y-65581380D01*
X182607809Y-64914714D02*
X182845904Y-65581380D01*
X183084000Y-64914714D02*
X182845904Y-65581380D01*
X182750666Y-65819476D01*
X182703047Y-65867095D01*
X182607809Y-65914714D01*
X183607809Y-65009952D02*
X183512571Y-64962333D01*
X183464952Y-64914714D01*
X183417333Y-64819476D01*
X183417333Y-64771857D01*
X183464952Y-64676619D01*
X183512571Y-64629000D01*
X183607809Y-64581380D01*
X183798285Y-64581380D01*
X183893523Y-64629000D01*
X183941142Y-64676619D01*
X183988761Y-64771857D01*
X183988761Y-64819476D01*
X183941142Y-64914714D01*
X183893523Y-64962333D01*
X183798285Y-65009952D01*
X183607809Y-65009952D01*
X183512571Y-65057571D01*
X183464952Y-65105190D01*
X183417333Y-65200428D01*
X183417333Y-65390904D01*
X183464952Y-65486142D01*
X183512571Y-65533761D01*
X183607809Y-65581380D01*
X183798285Y-65581380D01*
X183893523Y-65533761D01*
X183941142Y-65486142D01*
X183988761Y-65390904D01*
X183988761Y-65200428D01*
X183941142Y-65105190D01*
X183893523Y-65057571D01*
X183798285Y-65009952D01*
X184893523Y-64581380D02*
X184417333Y-64581380D01*
X184369714Y-65057571D01*
X184417333Y-65009952D01*
X184512571Y-64962333D01*
X184750666Y-64962333D01*
X184845904Y-65009952D01*
X184893523Y-65057571D01*
X184941142Y-65152809D01*
X184941142Y-65390904D01*
X184893523Y-65486142D01*
X184845904Y-65533761D01*
X184750666Y-65581380D01*
X184512571Y-65581380D01*
X184417333Y-65533761D01*
X184369714Y-65486142D01*
X185369714Y-65200428D02*
X186131619Y-65200428D01*
X186560190Y-64676619D02*
X186607809Y-64629000D01*
X186703047Y-64581380D01*
X186941142Y-64581380D01*
X187036380Y-64629000D01*
X187084000Y-64676619D01*
X187131619Y-64771857D01*
X187131619Y-64867095D01*
X187084000Y-65009952D01*
X186512571Y-65581380D01*
X187131619Y-65581380D01*
X187750666Y-64581380D02*
X187845904Y-64581380D01*
X187941142Y-64629000D01*
X187988761Y-64676619D01*
X188036380Y-64771857D01*
X188084000Y-64962333D01*
X188084000Y-65200428D01*
X188036380Y-65390904D01*
X187988761Y-65486142D01*
X187941142Y-65533761D01*
X187845904Y-65581380D01*
X187750666Y-65581380D01*
X187655428Y-65533761D01*
X187607809Y-65486142D01*
X187560190Y-65390904D01*
X187512571Y-65200428D01*
X187512571Y-64962333D01*
X187560190Y-64771857D01*
X187607809Y-64676619D01*
X187655428Y-64629000D01*
X187750666Y-64581380D01*
X188512571Y-65581380D02*
X188512571Y-64581380D01*
X188893523Y-64581380D01*
X188988761Y-64629000D01*
X189036380Y-64676619D01*
X189084000Y-64771857D01*
X189084000Y-64914714D01*
X189036380Y-65009952D01*
X188988761Y-65057571D01*
X188893523Y-65105190D01*
X188512571Y-65105190D01*
X183322095Y-58441380D02*
X183322095Y-59250904D01*
X183369714Y-59346142D01*
X183417333Y-59393761D01*
X183512571Y-59441380D01*
X183703047Y-59441380D01*
X183798285Y-59393761D01*
X183845904Y-59346142D01*
X183893523Y-59250904D01*
X183893523Y-58441380D01*
X184893523Y-59441380D02*
X184322095Y-59441380D01*
X184607809Y-59441380D02*
X184607809Y-58441380D01*
X184512571Y-58584238D01*
X184417333Y-58679476D01*
X184322095Y-58727095D01*
%TO.C,D8*%
X171424285Y-62872380D02*
X171424285Y-62348571D01*
X171376666Y-62253333D01*
X171281428Y-62205714D01*
X171090952Y-62205714D01*
X170995714Y-62253333D01*
X171424285Y-62824761D02*
X171329047Y-62872380D01*
X171090952Y-62872380D01*
X170995714Y-62824761D01*
X170948095Y-62729523D01*
X170948095Y-62634285D01*
X170995714Y-62539047D01*
X171090952Y-62491428D01*
X171329047Y-62491428D01*
X171424285Y-62443809D01*
X170619523Y-58781904D02*
X170619523Y-57981904D01*
X170810000Y-57981904D01*
X170924285Y-58020000D01*
X171000476Y-58096190D01*
X171038571Y-58172380D01*
X171076666Y-58324761D01*
X171076666Y-58439047D01*
X171038571Y-58591428D01*
X171000476Y-58667619D01*
X170924285Y-58743809D01*
X170810000Y-58781904D01*
X170619523Y-58781904D01*
X171533809Y-58324761D02*
X171457619Y-58286666D01*
X171419523Y-58248571D01*
X171381428Y-58172380D01*
X171381428Y-58134285D01*
X171419523Y-58058095D01*
X171457619Y-58020000D01*
X171533809Y-57981904D01*
X171686190Y-57981904D01*
X171762380Y-58020000D01*
X171800476Y-58058095D01*
X171838571Y-58134285D01*
X171838571Y-58172380D01*
X171800476Y-58248571D01*
X171762380Y-58286666D01*
X171686190Y-58324761D01*
X171533809Y-58324761D01*
X171457619Y-58362857D01*
X171419523Y-58400952D01*
X171381428Y-58477142D01*
X171381428Y-58629523D01*
X171419523Y-58705714D01*
X171457619Y-58743809D01*
X171533809Y-58781904D01*
X171686190Y-58781904D01*
X171762380Y-58743809D01*
X171800476Y-58705714D01*
X171838571Y-58629523D01*
X171838571Y-58477142D01*
X171800476Y-58400952D01*
X171762380Y-58362857D01*
X171686190Y-58324761D01*
%TO.C,D1*%
X122748904Y-61685714D02*
X122748904Y-62352380D01*
X122320333Y-61685714D02*
X122320333Y-62209523D01*
X122367952Y-62304761D01*
X122463190Y-62352380D01*
X122606047Y-62352380D01*
X122701285Y-62304761D01*
X122748904Y-62257142D01*
X123225095Y-61685714D02*
X123225095Y-62685714D01*
X123225095Y-61733333D02*
X123320333Y-61685714D01*
X123510809Y-61685714D01*
X123606047Y-61733333D01*
X123653666Y-61780952D01*
X123701285Y-61876190D01*
X123701285Y-62161904D01*
X123653666Y-62257142D01*
X123606047Y-62304761D01*
X123510809Y-62352380D01*
X123320333Y-62352380D01*
X123225095Y-62304761D01*
X122269523Y-57181904D02*
X122269523Y-56381904D01*
X122460000Y-56381904D01*
X122574285Y-56420000D01*
X122650476Y-56496190D01*
X122688571Y-56572380D01*
X122726666Y-56724761D01*
X122726666Y-56839047D01*
X122688571Y-56991428D01*
X122650476Y-57067619D01*
X122574285Y-57143809D01*
X122460000Y-57181904D01*
X122269523Y-57181904D01*
X123488571Y-57181904D02*
X123031428Y-57181904D01*
X123260000Y-57181904D02*
X123260000Y-56381904D01*
X123183809Y-56496190D01*
X123107619Y-56572380D01*
X123031428Y-56610476D01*
D12*
%TO.C,R10*%
X190030492Y-85108341D02*
X189205492Y-85108341D01*
X190030492Y-83508341D02*
X190030492Y-85108341D01*
X189205492Y-85108341D02*
X189205492Y-83508341D01*
X189205492Y-83508341D02*
X190030492Y-83508341D01*
%TO.C,R9*%
X136696668Y-85130108D02*
X135871668Y-85130108D01*
X136696668Y-83530108D02*
X136696668Y-85130108D01*
X135871668Y-85130108D02*
X135871668Y-83530108D01*
X135871668Y-83530108D02*
X136696668Y-83530108D01*
%TO.C,R8*%
X149404932Y-85123124D02*
X148579932Y-85123124D01*
X149404932Y-83523124D02*
X149404932Y-85123124D01*
X148579932Y-85123124D02*
X148579932Y-83523124D01*
X148579932Y-83523124D02*
X149404932Y-83523124D01*
%TO.C,R7*%
X162074548Y-85108341D02*
X161249548Y-85108341D01*
X162074548Y-83508341D02*
X162074548Y-85108341D01*
X161249548Y-85108341D02*
X161249548Y-83508341D01*
X161249548Y-83508341D02*
X162074548Y-83508341D01*
%TO.C,R6*%
X177316525Y-85108341D02*
X176491525Y-85108341D01*
X177316525Y-83508341D02*
X177316525Y-85108341D01*
X176491525Y-85108341D02*
X176491525Y-83508341D01*
X176491525Y-83508341D02*
X177316525Y-83508341D01*
%TO.C,R5*%
X185185500Y-79007000D02*
X186010500Y-79007000D01*
X185185500Y-80607000D02*
X185185500Y-79007000D01*
X186010500Y-79007000D02*
X186010500Y-80607000D01*
X186010500Y-80607000D02*
X185185500Y-80607000D01*
%TO.C,R4*%
X183280500Y-79007000D02*
X184105500Y-79007000D01*
X183280500Y-80607000D02*
X183280500Y-79007000D01*
X184105500Y-79007000D02*
X184105500Y-80607000D01*
X184105500Y-80607000D02*
X183280500Y-80607000D01*
%TO.C,R3*%
X180232500Y-79007000D02*
X181057500Y-79007000D01*
X180232500Y-80607000D02*
X180232500Y-79007000D01*
X181057500Y-79007000D02*
X181057500Y-80607000D01*
X181057500Y-80607000D02*
X180232500Y-80607000D01*
%TO.C,R2*%
X190328500Y-77051000D02*
X189503500Y-77051000D01*
X190328500Y-75451000D02*
X190328500Y-77051000D01*
X189503500Y-77051000D02*
X189503500Y-75451000D01*
X189503500Y-75451000D02*
X190328500Y-75451000D01*
%TO.C,R1*%
X116986500Y-57290000D02*
X117811500Y-57290000D01*
X116986500Y-58890000D02*
X116986500Y-57290000D01*
X117811500Y-57290000D02*
X117811500Y-58890000D01*
X117811500Y-58890000D02*
X116986500Y-58890000D01*
%TO.C,C3*%
X177305000Y-69882000D02*
X178905000Y-69882000D01*
X178905000Y-69882000D02*
X178905000Y-70682000D01*
X178905000Y-70682000D02*
X177305000Y-70682000D01*
X177305000Y-70682000D02*
X177305000Y-69882000D01*
%TO.C,C2*%
X186449000Y-51975000D02*
X188049000Y-51975000D01*
X188049000Y-51975000D02*
X188049000Y-52775000D01*
X188049000Y-52775000D02*
X186449000Y-52775000D01*
X186449000Y-52775000D02*
X186449000Y-51975000D01*
%TO.C,C1*%
X124492000Y-98006000D02*
X124492000Y-96406000D01*
X124492000Y-96406000D02*
X125292000Y-96406000D01*
X125292000Y-96406000D02*
X125292000Y-98006000D01*
X125292000Y-98006000D02*
X124492000Y-98006000D01*
%TO.C,J4*%
X197790000Y-93650000D02*
X193710000Y-93650000D01*
X193710000Y-93650000D02*
X192710000Y-92650000D01*
X192710000Y-92650000D02*
X192710000Y-47930000D01*
X192710000Y-47930000D02*
X197790000Y-47930000D01*
X197790000Y-47930000D02*
X197790000Y-93650000D01*
%TO.C,J1*%
X126670000Y-98730000D02*
X126670000Y-96825000D01*
X127305000Y-96190000D02*
X146990000Y-96190000D01*
X146990000Y-96190000D02*
X146990000Y-98730000D01*
X126670000Y-96825000D02*
X127305000Y-96190000D01*
X146990000Y-98730000D02*
X126670000Y-98730000D01*
%TO.C,J2*%
X150165000Y-96190000D02*
X169850000Y-96190000D01*
X149530000Y-96825000D02*
X150165000Y-96190000D01*
X169850000Y-96190000D02*
X169850000Y-98730000D01*
X169850000Y-98730000D02*
X149530000Y-98730000D01*
X149530000Y-98730000D02*
X149530000Y-96825000D01*
%TO.C,J3*%
X172390000Y-96825000D02*
X173025000Y-96190000D01*
X192710000Y-98730000D02*
X172390000Y-98730000D01*
X173025000Y-96190000D02*
X192710000Y-96190000D01*
X172390000Y-98730000D02*
X172390000Y-96825000D01*
X192710000Y-96190000D02*
X192710000Y-98730000D01*
%TO.C,J5*%
X117526000Y-48565000D02*
X118161000Y-47930000D01*
X142926000Y-47930000D02*
X142926000Y-50470000D01*
X118161000Y-47930000D02*
X142926000Y-47930000D01*
X117526000Y-50470000D02*
X117526000Y-48565000D01*
X142926000Y-50470000D02*
X117526000Y-50470000D01*
%TO.C,J6*%
X144450000Y-48565000D02*
X145085000Y-47930000D01*
X144450000Y-50470000D02*
X144450000Y-48565000D01*
X145085000Y-47930000D02*
X164770000Y-47930000D01*
X164770000Y-47930000D02*
X164770000Y-50470000D01*
X164770000Y-50470000D02*
X144450000Y-50470000D01*
%TO.C,J7*%
X167945000Y-47930000D02*
X187630000Y-47930000D01*
X187630000Y-47930000D02*
X187630000Y-50470000D01*
X187630000Y-50470000D02*
X167310000Y-50470000D01*
X167310000Y-48565000D02*
X167945000Y-47930000D01*
X167310000Y-50470000D02*
X167310000Y-48565000D01*
%TO.C,SW4*%
X148720000Y-86840000D02*
X148720000Y-92840000D01*
X142720000Y-92840000D02*
X142720000Y-86840000D01*
X148720000Y-92840000D02*
X142720000Y-92840000D01*
X145720000Y-86840000D02*
X148720000Y-86840000D01*
X142720000Y-86840000D02*
X145720000Y-86840000D01*
X147735564Y-89840000D02*
G75*
G03*
X147735564Y-89840000I-2015564J0D01*
G01*
%TO.C,SW5*%
X130020000Y-92840000D02*
X130020000Y-86840000D01*
X136020000Y-86840000D02*
X136020000Y-92840000D01*
X130020000Y-86840000D02*
X133020000Y-86840000D01*
X136020000Y-92840000D02*
X130020000Y-92840000D01*
X133020000Y-86840000D02*
X136020000Y-86840000D01*
X135035564Y-89840000D02*
G75*
G03*
X135035564Y-89840000I-2015564J0D01*
G01*
%TO.C,D2*%
X117740000Y-61940000D02*
X113740000Y-61940000D01*
X113740000Y-61940000D02*
X112740000Y-62940000D01*
X112740000Y-66940000D02*
X117740000Y-66940000D01*
X117740000Y-66940000D02*
X117740000Y-61940000D01*
X112740000Y-62940000D02*
X112740000Y-66940000D01*
X117240000Y-64440000D02*
G75*
G03*
X117240000Y-64440000I-2000000J0D01*
G01*
%TO.C,U2*%
X180301000Y-75403000D02*
X180301000Y-71003000D01*
X180301000Y-71003000D02*
X187101000Y-71003000D01*
X187101000Y-71003000D02*
X188101000Y-72003000D01*
X188101000Y-75403000D02*
X180301000Y-75403000D01*
X188101000Y-72003000D02*
X188101000Y-75403000D01*
%TO.C,D7*%
X156920000Y-58460000D02*
X155920000Y-59460000D01*
X160920000Y-58460000D02*
X156920000Y-58460000D01*
X155920000Y-63460000D02*
X160920000Y-63460000D01*
X155920000Y-59460000D02*
X155920000Y-63460000D01*
X160920000Y-63460000D02*
X160920000Y-58460000D01*
X160420000Y-60960000D02*
G75*
G03*
X160420000Y-60960000I-2000000J0D01*
G01*
%TO.C,D6*%
X145760000Y-70560000D02*
X145760000Y-74560000D01*
X150760000Y-69560000D02*
X146760000Y-69560000D01*
X145760000Y-74560000D02*
X150760000Y-74560000D01*
X146760000Y-69560000D02*
X145760000Y-70560000D01*
X150760000Y-74560000D02*
X150760000Y-69560000D01*
X150260000Y-72060000D02*
G75*
G03*
X150260000Y-72060000I-2000000J0D01*
G01*
%TO.C,SW2*%
X170660000Y-92840000D02*
X170660000Y-86840000D01*
X173660000Y-86840000D02*
X176660000Y-86840000D01*
X176660000Y-92840000D02*
X170660000Y-92840000D01*
X170660000Y-86840000D02*
X173660000Y-86840000D01*
X176660000Y-86840000D02*
X176660000Y-92840000D01*
X175675564Y-89840000D02*
G75*
G03*
X175675564Y-89840000I-2015564J0D01*
G01*
%TO.C,SW6*%
X186360000Y-86840000D02*
X189360000Y-86840000D01*
X183360000Y-92840000D02*
X183360000Y-86840000D01*
X189360000Y-86840000D02*
X189360000Y-92840000D01*
X189360000Y-92840000D02*
X183360000Y-92840000D01*
X183360000Y-86840000D02*
X186360000Y-86840000D01*
X188375564Y-89840000D02*
G75*
G03*
X188375564Y-89840000I-2015564J0D01*
G01*
%TO.C,D3*%
X125360000Y-69560000D02*
X121360000Y-69560000D01*
X121360000Y-69560000D02*
X120360000Y-70560000D01*
X120360000Y-74560000D02*
X125360000Y-74560000D01*
X120360000Y-70560000D02*
X120360000Y-74560000D01*
X125360000Y-74560000D02*
X125360000Y-69560000D01*
X124860000Y-72060000D02*
G75*
G03*
X124860000Y-72060000I-2000000J0D01*
G01*
%TO.C,SW1*%
X111881500Y-88096500D02*
X102881500Y-88096500D01*
X102881500Y-83096500D02*
X111881500Y-83096500D01*
X102881500Y-88096500D02*
X102881500Y-83096500D01*
X118381500Y-81696500D02*
X117381500Y-80696500D01*
X118381500Y-94496500D02*
X111881500Y-94496500D01*
X111881500Y-94496500D02*
X111881500Y-80696500D01*
X118381500Y-81696500D02*
X118381500Y-94496500D01*
X111881500Y-80696500D02*
X117381500Y-80696500D01*
%TO.C,D5*%
X140600000Y-69560000D02*
X136600000Y-69560000D01*
X135600000Y-70560000D02*
X135600000Y-74560000D01*
X136600000Y-69560000D02*
X135600000Y-70560000D01*
X140600000Y-74560000D02*
X140600000Y-69560000D01*
X135600000Y-74560000D02*
X140600000Y-74560000D01*
X140100000Y-72060000D02*
G75*
G03*
X140100000Y-72060000I-2000000J0D01*
G01*
%TO.C,SW3*%
X161420000Y-92840000D02*
X155420000Y-92840000D01*
X161420000Y-86840000D02*
X161420000Y-92840000D01*
X155420000Y-86840000D02*
X158420000Y-86840000D01*
X155420000Y-92840000D02*
X155420000Y-86840000D01*
X158420000Y-86840000D02*
X161420000Y-86840000D01*
X160435564Y-89840000D02*
G75*
G03*
X160435564Y-89840000I-2015564J0D01*
G01*
%TO.C,D4*%
X132980000Y-61940000D02*
X128980000Y-61940000D01*
X128980000Y-61940000D02*
X127980000Y-62940000D01*
X132980000Y-66940000D02*
X132980000Y-61940000D01*
X127980000Y-62940000D02*
X127980000Y-66940000D01*
X127980000Y-66940000D02*
X132980000Y-66940000D01*
X132480000Y-64440000D02*
G75*
G03*
X132480000Y-64440000I-2000000J0D01*
G01*
%TO.C,U1*%
X187259000Y-64069000D02*
X180909000Y-64069000D01*
X187259000Y-53909000D02*
X187259000Y-64069000D01*
X181909000Y-53909000D02*
X187259000Y-53909000D01*
X180909000Y-54909000D02*
X181909000Y-53909000D01*
X180909000Y-64069000D02*
X180909000Y-54909000D01*
%TO.C,D8*%
X173710000Y-60920000D02*
X173710000Y-55920000D01*
X169710000Y-55920000D02*
X168710000Y-56920000D01*
X173710000Y-55920000D02*
X169710000Y-55920000D01*
X168710000Y-56920000D02*
X168710000Y-60920000D01*
X168710000Y-60920000D02*
X173710000Y-60920000D01*
X173210000Y-58420000D02*
G75*
G03*
X173210000Y-58420000I-2000000J0D01*
G01*
%TO.C,D1*%
X120360000Y-55320000D02*
X120360000Y-59320000D01*
X125360000Y-54320000D02*
X121360000Y-54320000D01*
X121360000Y-54320000D02*
X120360000Y-55320000D01*
X120360000Y-59320000D02*
X125360000Y-59320000D01*
X125360000Y-59320000D02*
X125360000Y-54320000D01*
X124860000Y-56820000D02*
G75*
G03*
X124860000Y-56820000I-2000000J0D01*
G01*
%TD*%
M02*
