%TF.GenerationSoftware,KiCad,Pcbnew,(6.0.7)*%
%TF.CreationDate,2022-10-17T16:35:19-04:00*%
%TF.ProjectId,dmgc-attiny-arduino-mega,646d6763-2d61-4747-9469-6e792d617264,rev?*%
%TF.SameCoordinates,Original*%
%TF.FileFunction,Soldermask,Bot*%
%TF.FilePolarity,Negative*%
%FSLAX46Y46*%
G04 Gerber Fmt 4.6, Leading zero omitted, Abs format (unit mm)*
G04 Created by KiCad (PCBNEW (6.0.7)) date 2022-10-17 16:35:19*
%MOMM*%
%LPD*%
G01*
G04 APERTURE LIST*
%ADD10C,2.000000*%
%ADD11R,1.600000X1.600000*%
%ADD12O,1.600000X1.600000*%
%ADD13R,1.700000X1.700000*%
%ADD14O,1.700000X1.700000*%
%ADD15C,3.200000*%
G04 APERTURE END LIST*
D10*
%TO.C,SW1*%
X136270000Y-87590000D03*
X129770000Y-87590000D03*
X136270000Y-92090000D03*
X129770000Y-92090000D03*
%TD*%
%TO.C,SW2*%
X148970000Y-87590000D03*
X142470000Y-87590000D03*
X148970000Y-92090000D03*
X142470000Y-92090000D03*
%TD*%
%TO.C,SW3*%
X161670000Y-87590000D03*
X155170000Y-87590000D03*
X161670000Y-92090000D03*
X155170000Y-92090000D03*
%TD*%
%TO.C,SW4*%
X176910000Y-87590000D03*
X170410000Y-87590000D03*
X176910000Y-92090000D03*
X170410000Y-92090000D03*
%TD*%
%TO.C,SW5*%
X189610000Y-87590000D03*
X183110000Y-87590000D03*
X189610000Y-92090000D03*
X183110000Y-92090000D03*
%TD*%
D11*
%TO.C,U1*%
X174940000Y-68260000D03*
D12*
X174940000Y-70800000D03*
X174940000Y-73340000D03*
X174940000Y-75880000D03*
X182560000Y-75880000D03*
X182560000Y-73340000D03*
X182560000Y-70800000D03*
X182560000Y-68260000D03*
%TD*%
D13*
%TO.C,J7*%
X193980000Y-92380000D03*
D14*
X196520000Y-92380000D03*
X193980000Y-89840000D03*
X196520000Y-89840000D03*
X193980000Y-87300000D03*
X196520000Y-87300000D03*
X193980000Y-84760000D03*
X196520000Y-84760000D03*
X193980000Y-82220000D03*
X196520000Y-82220000D03*
X193980000Y-79680000D03*
X196520000Y-79680000D03*
X193980000Y-77140000D03*
X196520000Y-77140000D03*
X193980000Y-74600000D03*
X196520000Y-74600000D03*
X193980000Y-72060000D03*
X196520000Y-72060000D03*
X193980000Y-69520000D03*
X196520000Y-69520000D03*
X193980000Y-66980000D03*
X196520000Y-66980000D03*
X193980000Y-64440000D03*
X196520000Y-64440000D03*
X193980000Y-61900000D03*
X196520000Y-61900000D03*
X193980000Y-59360000D03*
X196520000Y-59360000D03*
X193980000Y-56820000D03*
X196520000Y-56820000D03*
X193980000Y-54280000D03*
X196520000Y-54280000D03*
X193980000Y-51740000D03*
X196520000Y-51740000D03*
X193980000Y-49200000D03*
X196520000Y-49200000D03*
%TD*%
D13*
%TO.C,J1*%
X127940000Y-97460000D03*
D14*
X130480000Y-97460000D03*
X133020000Y-97460000D03*
X135560000Y-97460000D03*
X138100000Y-97460000D03*
X140640000Y-97460000D03*
X143180000Y-97460000D03*
X145720000Y-97460000D03*
%TD*%
D13*
%TO.C,J3*%
X150800000Y-97460000D03*
D14*
X153340000Y-97460000D03*
X155880000Y-97460000D03*
X158420000Y-97460000D03*
X160960000Y-97460000D03*
X163500000Y-97460000D03*
X166040000Y-97460000D03*
X168580000Y-97460000D03*
%TD*%
D13*
%TO.C,J5*%
X173660000Y-97460000D03*
D14*
X176200000Y-97460000D03*
X178740000Y-97460000D03*
X181280000Y-97460000D03*
X183820000Y-97460000D03*
X186360000Y-97460000D03*
X188900000Y-97460000D03*
X191440000Y-97460000D03*
%TD*%
D13*
%TO.C,J2*%
X118796000Y-49200000D03*
D14*
X121336000Y-49200000D03*
X123876000Y-49200000D03*
X126416000Y-49200000D03*
X128956000Y-49200000D03*
X131496000Y-49200000D03*
X134036000Y-49200000D03*
X136576000Y-49200000D03*
X139116000Y-49200000D03*
X141656000Y-49200000D03*
%TD*%
D13*
%TO.C,J4*%
X145720000Y-49200000D03*
D14*
X148260000Y-49200000D03*
X150800000Y-49200000D03*
X153340000Y-49200000D03*
X155880000Y-49200000D03*
X158420000Y-49200000D03*
X160960000Y-49200000D03*
X163500000Y-49200000D03*
%TD*%
D13*
%TO.C,J6*%
X168580000Y-49200000D03*
D14*
X171120000Y-49200000D03*
X173660000Y-49200000D03*
X176200000Y-49200000D03*
X178740000Y-49200000D03*
X181280000Y-49200000D03*
X183820000Y-49200000D03*
X186360000Y-49200000D03*
%TD*%
D15*
%TO.C,MH6*%
X196520000Y-97460000D03*
%TD*%
%TO.C,MH1*%
X115240000Y-49200000D03*
%TD*%
%TO.C,MH2*%
X113970000Y-97460000D03*
%TD*%
%TO.C,MH3*%
X166040000Y-64440000D03*
%TD*%
%TO.C,MH4*%
X166040000Y-92380000D03*
%TD*%
%TO.C,MH5*%
X190170000Y-49200000D03*
%TD*%
M02*
